<?xml version="1.0" encoding="utf-8"?>
<!-- Generator: Adobe Illustrator 17.1.0, SVG Export Plug-In . SVG Version: 6.00 Build 0)  -->
<!DOCTYPE svg PUBLIC "-//W3C//DTD SVG 1.1//EN" "http://www.w3.org/Graphics/SVG/1.1/DTD/svg11.dtd">
<svg version="1.1" id="Layer_1" xmlns="http://www.w3.org/2000/svg" xmlns:xlink="http://www.w3.org/1999/xlink" x="0px" y="0px"
	 viewBox="0 0 149.038 92.407" style="enable-background:new 0 0 149.038 92.407;" xml:space="preserve">
<g style="opacity:0.5;">
	<g>
		<path style="fill:#FFFFFF;" d="M70.128,506.515c1.282,1.282,2.074,3.051,2.074,5.006c0,3.91-3.169,7.079-7.079,7.079
			c-1.955,0-3.725-0.792-5.006-2.073L31.798,488.21c-1.281-1.282-2.074-3.051-2.074-5.006s0.793-3.725,2.074-5.006l28.318-28.318
			c1.282-1.281,3.051-2.074,5.006-2.074c3.91,0,7.079,3.17,7.079,7.079c0,1.955-0.792,3.726-2.074,5.006l-23.311,23.312
			L70.128,506.515z"/>
		<path style="fill:#FFFFFF;" d="M65.122,522.324c-2.885,0-5.598-1.123-7.639-3.162l-28.319-28.319
			C27.124,488.8,26,486.087,26,483.203c0-2.884,1.124-5.597,3.164-7.639l28.319-28.319c2.043-2.041,4.756-3.164,7.64-3.164
			c5.957,0,10.803,4.847,10.803,10.803c0,2.888-1.124,5.601-3.165,7.641l-20.677,20.678l20.678,20.678
			c2.04,2.041,3.164,4.754,3.164,7.64C75.926,517.478,71.079,522.324,65.122,522.324z M65.122,451.53
			c-0.896,0-1.739,0.35-2.374,0.984l-28.316,28.317c-0.634,0.634-0.983,1.477-0.983,2.372c0,0.896,0.35,1.739,0.984,2.374
			l28.316,28.316c0.633,0.633,1.476,0.982,2.373,0.982c1.85,0,3.355-1.505,3.355-3.355c0-0.897-0.349-1.739-0.983-2.373
			L41.55,483.203l25.945-25.946c0.634-0.634,0.983-1.476,0.983-2.373C68.477,453.035,66.972,451.53,65.122,451.53z"/>
	</g>
	<g>
		<path style="fill:#FFFFFF;" d="M121.252,450.435l-28.319,70.794c-1.451,3.631-5.572,5.397-9.202,3.944
			c-3.63-1.452-5.396-5.572-3.944-9.202l28.319-70.795c1.452-3.63,5.572-5.396,9.202-3.943
			C120.938,442.684,122.703,446.805,121.252,450.435z"/>
		<path style="fill:#FFFFFF;" d="M86.359,529.407c-1.376,0-2.726-0.261-4.011-0.775c-5.531-2.213-8.231-8.512-6.019-14.043
			l28.319-70.796c1.651-4.127,5.589-6.793,10.033-6.793c1.376,0,2.726,0.261,4.011,0.775c5.53,2.211,8.231,8.511,6.019,14.042
			l-28.319,70.795C94.742,526.74,90.803,529.407,86.359,529.407z M114.68,444.449c-1.38,0-2.604,0.829-3.117,2.111l-28.318,70.795
			c-0.687,1.717,0.152,3.674,1.87,4.361c0.401,0.16,0.819,0.242,1.244,0.242c1.381,0,2.604-0.829,3.117-2.111l28.319-70.795
			c0.687-1.717-0.152-3.674-1.869-4.361C115.523,444.53,115.105,444.449,114.68,444.449z"/>
	</g>
	<g>
		<path style="fill:#FFFFFF;" d="M171.314,483.203c0,1.955-0.792,3.725-2.074,5.005l-28.296,28.296
			c-0.005,0.005-0.008,0.01-0.013,0.015c-1.282,1.281-3.051,2.074-5.006,2.074c-3.91,0-7.079-3.17-7.079-7.08
			c0-1.954,0.792-3.725,2.073-5.005c0.077-0.076,0.155-0.151,0.235-0.224l23.075-23.085l-23.161-23.161
			c-1.371-1.291-2.228-3.122-2.228-5.154c0-3.909,3.169-7.079,7.079-7.079c2.021,0,3.842,0.849,5.132,2.206l28.092,28.091
			C170.48,479.391,171.314,481.199,171.314,483.203z"/>
		<path style="fill:#FFFFFF;" d="M135.924,522.318c-5.957,0-10.803-4.847-10.803-10.805c0-2.886,1.124-5.599,3.164-7.639
			c0.104-0.103,0.197-0.192,0.289-0.278l20.387-20.396l-20.492-20.492c-2.132-2.031-3.354-4.879-3.354-7.823
			c0-5.957,4.847-10.803,10.804-10.803c2.928,0,5.766,1.212,7.796,3.327l28.041,28.04c2.118,2.055,3.284,4.807,3.284,7.755
			c0,2.887-1.124,5.601-3.166,7.64l-28.309,28.311C141.522,521.194,138.809,522.318,135.924,522.318z M135.918,451.53
			c-1.85,0-3.355,1.505-3.355,3.355c0,0.933,0.375,1.801,1.057,2.442l0.08,0.078l25.794,25.794l-25.837,25.842
			c-0.042,0.039-0.084,0.079-0.124,0.119c-0.614,0.614-0.963,1.457-0.963,2.353c0,1.85,1.505,3.356,3.355,3.356
			c0.867,0,1.684-0.327,2.312-0.923l0.074-0.075l28.296-28.296c0.634-0.634,0.983-1.476,0.983-2.372
			c0-0.919-0.366-1.777-1.031-2.418l-0.05-0.049l-28.158-28.16C137.708,451.902,136.845,451.53,135.918,451.53z"/>
	</g>
</g>
<g style="opacity:0.05;">
	<polygon style="fill:#FFFFFF;" points="164.235,525.68 121.758,525.68 79.281,525.68 36.804,525.68 36.804,483.203 36.804,440.726 
		79.281,440.726 121.758,440.726 164.235,440.726 	"/>
</g>
<g>
	<path style="fill:#FFFFFF;" d="M88.268,526.261c-18.728-5.364-32.479-22.63-32.479-43.057c0-19.394,12.392-35.944,29.673-42.16
		c-0.361-0.373-0.652-0.803-0.871-1.272c-17.664,6.524-30.292,23.53-30.292,43.433c0,19.901,12.627,36.906,30.289,43.431
		C85.815,526.494,87.041,526.359,88.268,526.261z"/>
	<path style="fill:#FFFFFF;" d="M117.552,440.158c-0.441,0.417-0.978,0.75-1.609,0.967c17.155,6.282,29.431,22.774,29.431,42.078
		c0,20.067-13.265,37.095-31.487,42.775c1.397,0.026,2.795,0.045,4.193,0.062c16.868-6.916,28.784-23.507,28.784-42.837
		C146.864,463.673,134.698,446.942,117.552,440.158z"/>
</g>
<g>
	<path style="fill:#FFFFFF;" d="M100.52,505.188c-12.123,0-21.985-9.863-21.985-21.985c0-12.123,9.863-21.985,21.985-21.985
		s21.985,9.863,21.985,21.985C122.505,495.326,112.642,505.188,100.52,505.188z M100.52,462.708
		c-11.301,0-20.495,9.194-20.495,20.495c0,11.301,9.194,20.495,20.495,20.495s20.495-9.194,20.495-20.495
		C121.015,471.902,111.821,462.708,100.52,462.708z"/>
</g>
<g>
	<rect x="78.536" y="440.726" style="fill:#FFFFFF;" width="1.49" height="84.954"/>
</g>
<g>
	<rect x="121.013" y="440.726" style="fill:#FFFFFF;" width="1.49" height="84.954"/>
</g>
<g>
	<rect x="36.804" y="482.455" style="fill:#FFFFFF;" width="134.509" height="1.49"/>
</g>
<g>
	<path style="fill:#FFFFFF;" d="M163.039,527.729H37.999c-1.788,0-3.244-1.455-3.244-3.244v-82.563c0-1.789,1.455-3.244,3.244-3.244
		h125.04c1.789,0,3.244,1.455,3.244,3.244v82.563C166.283,526.273,164.828,527.729,163.039,527.729z M38.853,523.632h123.334
		v-80.857H38.853V523.632z"/>
</g>
<g style="opacity:0.5;">
	<polygon style="fill:#FFFFFF;" points="393.07,527.029 352.128,527.029 311.186,527.029 270.244,527.029 270.244,486.087 
		270.244,441.045 311.186,441.045 352.128,441.045 393.07,441.045 	"/>
</g>
<g>
	<g>
		<rect x="36.059" y="476.123" style="fill:#FFFFFF;" width="1.49" height="14.159"/>
	</g>
	<g>
		<rect x="29.725" y="482.458" style="fill:#FFFFFF;" width="14.159" height="1.49"/>
	</g>
	<g>
		<rect x="36.059" y="476.123" style="fill:#FFFFFF;" width="1.49" height="14.159"/>
	</g>
	<g>
		<rect x="163.489" y="476.123" style="fill:#FFFFFF;" width="1.49" height="14.159"/>
	</g>
	<path style="fill:#354D69;" d="M121.87,444.723c-0.823-1.921-2.345-3.407-4.286-4.183c-0.931-0.372-1.908-0.561-2.904-0.561
		c-3.218,0-6.071,1.931-7.267,4.92l-28.318,70.795c-0.776,1.941-0.75,4.067,0.073,5.988c0.823,1.921,2.345,3.406,4.286,4.182
		c0.931,0.373,1.909,0.562,2.904,0.562c3.219,0,6.071-1.931,7.266-4.92l0,0l0,0l28.318-70.795
		C122.719,448.771,122.694,446.644,121.87,444.723z M80.289,520.393c-0.334-1.123-0.348-2.304-0.042-3.435l4.167,1.667
		L80.289,520.393z M86.336,516.655l-1.769-4.128c0.573-0.168,1.175-0.262,1.796-0.262c0.556,0,1.105,0.078,1.64,0.223
		L86.336,516.655z M83.202,513.122l1.765,4.119l-4.159-1.664C81.373,514.533,82.205,513.696,83.202,513.122z M89.387,513.04
		c1.03,0.558,1.876,1.383,2.459,2.4l-4.126,1.768L89.387,513.04z M111.651,453.366c-1.03-0.558-1.875-1.383-2.458-2.399l4.125-1.768
		L111.651,453.366z M113.933,451.674v2.419c-0.303-0.036-0.602-0.094-0.898-0.174L113.933,451.674z M115.423,451.433l1.049,2.447
		c-0.339,0.099-0.691,0.165-1.049,0.206V451.433z M117.837,453.285l-1.765-4.119l4.16,1.664
		C119.666,451.873,118.834,452.711,117.837,453.285z M115.423,441.518c0.303,0.036,0.602,0.094,0.898,0.174l-0.898,2.245V441.518z
		 M113.933,444.175l-1.047-2.444c0.339-0.099,0.69-0.164,1.047-0.206V444.175z M108.607,449.597
		c-0.334-1.123-0.348-2.304-0.042-3.435l4.167,1.667L108.607,449.597z M107.487,450.888c0.724,1.691,1.991,3.043,3.607,3.872
		l-22.532,56.332c-0.715-0.211-1.452-0.317-2.199-0.317c-1.524,0-2.959,0.445-4.181,1.218l24.914-62.286
		C107.197,450.106,107.321,450.502,107.487,450.888z M92.433,516.809c0.334,1.123,0.348,2.304,0.042,3.435l-4.167-1.667
		L92.433,516.809z M93.552,515.518c-0.724-1.691-1.991-3.043-3.607-3.872l0.669-1.673l21.863-54.659
		c0.715,0.211,1.452,0.318,2.199,0.318c1.524,0,2.958-0.445,4.181-1.218L93.943,516.7C93.842,516.3,93.718,515.904,93.552,515.518z
		 M116.624,447.782l4.126-1.768c0.334,1.123,0.348,2.304,0.042,3.435L116.624,447.782z M120.163,444.644l-4.125,1.768l1.667-4.167
		C118.735,442.803,119.58,443.628,120.163,444.644z M111.52,442.326l1.766,4.12l-4.161-1.664
		C109.691,443.737,110.524,442.9,111.52,442.326z M80.876,521.762l4.125-1.768l-1.667,4.167
		C82.304,523.603,81.459,522.778,80.876,521.762z M84.718,524.714l1.666-4.166l1.769,4.127c-0.573,0.168-1.174,0.262-1.795,0.262
		C85.802,524.937,85.254,524.859,84.718,524.714z M89.519,524.08l-1.766-4.12l4.16,1.664
		C91.347,522.668,90.515,523.506,89.519,524.08z"/>
	<path style="fill:#354D69;" d="M47.869,483.203l22.785-22.785c1.478-1.478,2.292-3.443,2.292-5.532c0-4.314-3.51-7.825-7.825-7.825
		c-2.09,0-4.055,0.814-5.532,2.292L31.272,477.67c-1.478,1.478-2.292,3.443-2.292,5.533c0,2.09,0.814,4.055,2.292,5.533
		l28.318,28.318c1.478,1.478,3.443,2.291,5.532,2.291c4.314,0,7.825-3.51,7.825-7.824c0-2.09-0.814-4.055-2.292-5.533
		L47.869,483.203z M64.377,509.723l-3.171-3.171c0.895-0.707,1.982-1.177,3.171-1.317V509.723z M63.324,510.776h-4.489
		c0.14-1.189,0.611-2.276,1.318-3.171L63.324,510.776z M63.324,512.266l-3.174,3.174c-0.727-0.919-1.179-2.01-1.315-3.174H63.324z
		 M64.377,513.319v4.488c-1.164-0.136-2.255-0.587-3.174-1.314L64.377,513.319z M65.867,513.319l3.171,3.171
		c-0.895,0.707-1.982,1.177-3.171,1.317V513.319z M66.92,512.266h4.489c-0.14,1.189-0.611,2.276-1.318,3.171L66.92,512.266z
		 M65.867,505.234c1.164,0.136,2.255,0.588,3.174,1.315l-3.174,3.174V505.234z M66.363,503.803c-0.407-0.065-0.82-0.106-1.241-0.106
		c-1.89,0-3.625,0.673-4.978,1.793l-17.28-17.28l3.953-3.953L66.363,503.803z M43.091,482.458h-4.488l3.174-3.174
		C42.503,480.203,42.955,481.294,43.091,482.458z M43.091,483.948c-0.136,1.164-0.587,2.255-1.314,3.174l-3.174-3.174H43.091z
		 M44.522,481.963l1.241,1.241l-1.241,1.241c0.065-0.407,0.106-0.82,0.106-1.241C44.628,482.783,44.587,482.37,44.522,481.963z
		 M36.804,482.15l-3.919-3.919c1.113-0.881,2.478-1.362,3.919-1.362c1.441,0,2.806,0.482,3.919,1.363L36.804,482.15z
		 M40.723,488.175c-1.113,0.881-2.478,1.362-3.919,1.362c-1.441,0-2.806-0.482-3.919-1.362l3.919-3.919L40.723,488.175z
		 M46.816,482.15l-3.953-3.953l17.28-17.28c1.354,1.119,3.089,1.793,4.978,1.793c0.42,0,0.833-0.042,1.241-0.106L46.816,482.15z
		 M64.377,461.172c-1.189-0.14-2.276-0.611-3.171-1.317l3.171-3.171V461.172z M65.867,456.683l3.174,3.174
		c-0.919,0.727-2.01,1.179-3.174,1.315V456.683z M66.921,455.63h4.488c-0.136,1.164-0.588,2.255-1.315,3.174L66.921,455.63z
		 M66.92,454.14l3.171-3.171c0.707,0.895,1.177,1.982,1.318,3.171H66.92z M65.867,453.087v-4.489
		c1.189,0.14,2.277,0.611,3.171,1.318L65.867,453.087z M64.377,453.087l-3.174-3.174c0.919-0.727,2.01-1.179,3.174-1.315V453.087z
		 M63.324,454.14h-4.489c0.136-1.164,0.588-2.255,1.315-3.174L63.324,454.14z M63.324,455.63l-3.171,3.171
		c-0.707-0.895-1.177-1.982-1.317-3.171H63.324z M57.404,453.645c-0.065,0.407-0.106,0.82-0.106,1.241
		c0,1.89,0.673,3.625,1.793,4.978L41.785,477.17c-1.399-1.159-3.141-1.791-4.98-1.791c-0.42,0-0.833,0.042-1.24,0.106
		L57.404,453.645z M31.832,479.284l3.174,3.174h-4.489C30.653,481.294,31.105,480.203,31.832,479.284z M30.517,483.948h4.489
		l-3.174,3.174C31.105,486.203,30.653,485.112,30.517,483.948z M35.563,490.921c0.407,0.065,0.82,0.106,1.241,0.106
		c1.839,0,3.581-0.632,4.98-1.791l17.306,17.306c-1.119,1.354-1.793,3.089-1.793,4.978c0,0.42,0.042,0.833,0.106,1.241
		L35.563,490.921z M71.409,510.776H66.92l3.174-3.174C70.821,508.521,71.273,509.612,71.409,510.776z"/>
</g>
<g>
	<g>
		<path style="fill:#354D69;" d="M308.758,504.496c0.943,0.943,1.525,2.244,1.525,3.682c0,2.876-2.331,5.206-5.206,5.206
			c-1.438,0-2.739-0.582-3.682-1.524l-20.827-20.827c-0.942-0.943-1.525-2.244-1.525-3.682s0.583-2.739,1.525-3.682l20.827-20.827
			c0.943-0.942,2.244-1.525,3.682-1.525c2.876,0,5.206,2.331,5.206,5.206c0,1.438-0.583,2.74-1.525,3.682l-17.145,17.145
			L308.758,504.496z"/>
	</g>
	<g>
		<path style="fill:#354D69;" d="M346.358,463.252l-20.827,52.067c-1.067,2.67-4.098,3.969-6.768,2.901s-3.968-4.098-2.901-6.768
			l20.827-52.068c1.068-2.67,4.098-3.968,6.768-2.9C346.127,457.551,347.425,460.582,346.358,463.252z"/>
	</g>
	<g>
		<path style="fill:#354D69;" d="M383.176,487.352c0,1.438-0.583,2.739-1.525,3.681l-20.811,20.811
			c-0.003,0.003-0.006,0.008-0.01,0.011c-0.943,0.942-2.244,1.525-3.682,1.525c-2.876,0-5.206-2.331-5.206-5.207
			c0-1.437,0.583-2.739,1.525-3.681c0.057-0.056,0.114-0.111,0.173-0.164l16.971-16.978l-17.034-17.034
			c-1.008-0.949-1.638-2.296-1.638-3.79c0-2.875,2.331-5.206,5.206-5.206c1.486,0,2.826,0.624,3.775,1.623l20.661,20.66
			C382.563,484.548,383.176,485.878,383.176,487.352z"/>
	</g>
</g>
<g>
	<path style="fill:#FFFFFF;" d="M391.918,528.891H271.396c-1.662,0-3.014-1.352-3.014-3.014v-83.679
		c0-1.662,1.352-3.014,3.014-3.014h120.522c1.662,0,3.014,1.352,3.014,3.014v83.679C394.932,527.539,393.58,528.891,391.918,528.891
		z M272.107,525.167h119.101v-82.259H272.107V525.167z"/>
</g>
<g>
	<rect x="268.382" y="448.807" style="fill:#FFFFFF;" width="124.688" height="1.58"/>
</g>
<g>
	<circle style="fill:#354D69;" cx="275.276" cy="445.932" r="1.255"/>
</g>
<g>
	<circle style="fill:#354D69;" cx="279.042" cy="445.932" r="1.255"/>
</g>
<g>
	<circle style="fill:#354D69;" cx="282.808" cy="445.932" r="1.255"/>
</g>
<path style="fill:#354D69;" d="M172.059,483.203c0-2.157-0.877-4.113-2.294-5.53l0,0l-28.302-28.302
	c-1.418-1.426-3.38-2.311-5.545-2.311c-4.314,0-7.825,3.51-7.825,7.825c0,2.169,0.888,4.133,2.318,5.552l22.763,22.763
	l-22.665,22.675c-0.038,0.037-0.08,0.069-0.118,0.107c-1.478,1.478-2.291,3.443-2.291,5.533c0,4.314,3.51,7.824,7.824,7.824
	c2.09,0,4.055-0.814,5.533-2.292c0.004-0.004,0.007-0.008,0.011-0.012l28.299-28.299
	C171.245,487.258,172.059,485.293,172.059,483.203z M169.206,487.122l-3.178-3.178h4.493
	C170.386,485.11,169.934,486.202,169.206,487.122z M159.261,479.285l3.17,3.17h-4.484
	C158.084,481.292,158.535,480.203,159.261,479.285z M159.262,487.122c-0.728-0.92-1.18-2.012-1.315-3.178h4.493L159.262,487.122z
	 M169.204,479.287c0.706,0.894,1.176,1.98,1.317,3.167h-4.484L169.204,479.287z M164.234,482.15l-3.919-3.919
	c1.113-0.881,2.478-1.363,3.919-1.363c1.479,0,2.838,0.513,3.917,1.366L164.234,482.15z M156.514,484.433l-1.234-1.234l1.235-1.236
	c-0.064,0.407-0.106,0.819-0.106,1.239C156.41,483.62,156.451,484.029,156.514,484.433z M164.234,484.257l3.918,3.918
	c-1.113,0.88-2.478,1.362-3.919,1.362c-1.44,0-2.805-0.482-3.918-1.362L164.234,484.257z M165.471,475.486
	c-0.404-0.065-0.815-0.108-1.237-0.108c-1.84,0-3.581,0.632-4.981,1.791l-17.305-17.305c1.12-1.354,1.794-3.089,1.794-4.98
	c0-0.421-0.043-0.832-0.107-1.235L165.471,475.486z M140.887,458.802l-3.171-3.171h4.489
	C142.064,456.819,141.594,457.907,140.887,458.802z M140.887,450.97c0.706,0.895,1.177,1.982,1.317,3.171h-4.488L140.887,450.97z
	 M136.663,453.087v-4.489c1.189,0.14,2.277,0.611,3.171,1.318L136.663,453.087z M135.173,453.088l-3.172-3.172
	c0.895-0.707,1.983-1.178,3.172-1.318V453.088z M135.173,461.172c-1.189-0.14-2.276-0.611-3.171-1.317l3.171-3.171V461.172z
	 M136.663,456.686l3.17,3.17c-0.894,0.706-1.981,1.176-3.17,1.316V456.686z M130.948,450.97l3.171,3.171h-4.488
	C129.771,452.952,130.242,451.864,130.948,450.97z M129.631,455.63h4.489l-3.171,3.171
	C130.242,457.907,129.771,456.819,129.631,455.63z M134.684,462.603c0.403,0.064,0.813,0.107,1.234,0.107
	c1.889,0,3.624-0.673,4.977-1.791l17.28,17.279l-3.947,3.949L134.684,462.603z M154.228,484.253l3.952,3.952l-17.277,17.277
	c-1.354-1.119-3.089-1.793-4.978-1.793c-0.416,0-0.826,0.041-1.229,0.105L154.228,484.253z M137.722,512.259h4.489
	c-0.136,1.164-0.588,2.255-1.315,3.174L137.722,512.259z M136.669,509.716v-4.489c1.189,0.14,2.277,0.611,3.171,1.318
	L136.669,509.716z M135.179,509.716l-3.174-3.174c0.919-0.727,2.01-1.179,3.174-1.315V509.716z M135.179,517.8
	c-1.189-0.14-2.276-0.611-3.171-1.317l3.171-3.171V517.8z M136.669,513.312l3.174,3.174c-0.919,0.727-2.01,1.179-3.174,1.314
	V513.312z M137.723,510.769l3.171-3.171c0.707,0.895,1.177,1.982,1.317,3.171H137.723z M130.952,507.595l3.174,3.174h-4.488
	C129.773,509.605,130.225,508.514,130.952,507.595z M129.637,512.259h4.489l-3.171,3.171
	C130.248,514.535,129.778,513.448,129.637,512.259z M143.643,512.753c0.064-0.407,0.106-0.819,0.106-1.239
	c0-1.89-0.673-3.625-1.793-4.978l17.298-17.298c1.399,1.159,3.14,1.79,4.98,1.79c0.42,0,0.833-0.042,1.241-0.106L143.643,512.753z"
	/>
<g style="opacity:0.5;">
	<g>
		<path style="fill:#FFFFFF;" d="M-301.723,56.473c1.282,1.282,2.074,3.051,2.074,5.006c0,3.91-3.169,7.079-7.079,7.079
			c-1.955,0-3.725-0.792-5.006-2.073l-28.318-28.318c-1.281-1.282-2.074-3.051-2.074-5.006c0-1.955,0.793-3.725,2.074-5.006
			l28.318-28.318c1.282-1.281,3.051-2.074,5.006-2.074c3.91,0,7.079,3.17,7.079,7.079c0,1.955-0.792,3.726-2.074,5.006
			l-23.311,23.312L-301.723,56.473z"/>
		<path style="fill:#FFFFFF;" d="M-306.728,72.283c-2.885,0-5.598-1.123-7.639-3.163l-28.319-28.319
			c-2.041-2.043-3.165-4.756-3.165-7.64c0-2.884,1.124-5.597,3.164-7.639l28.319-28.319c2.043-2.041,4.756-3.164,7.64-3.164
			c5.957,0,10.803,4.847,10.803,10.803c0,2.888-1.124,5.601-3.165,7.641l-20.677,20.678l20.678,20.678
			c2.04,2.041,3.164,4.754,3.164,7.64C-295.925,67.436-300.771,72.283-306.728,72.283z M-306.728,1.488
			c-0.896,0-1.739,0.35-2.374,0.984l-28.316,28.317c-0.634,0.634-0.983,1.477-0.983,2.373c0,0.896,0.35,1.739,0.984,2.374
			l28.316,28.316c0.633,0.633,1.476,0.982,2.373,0.982c1.85,0,3.355-1.505,3.355-3.355c0-0.897-0.349-1.739-0.983-2.373
			l-25.945-25.945l25.945-25.946c0.634-0.634,0.983-1.476,0.983-2.373C-303.374,2.993-304.878,1.488-306.728,1.488z"/>
	</g>
	<g>
		<path style="fill:#FFFFFF;" d="M-250.599,0.393l-28.318,70.794c-1.451,3.631-5.572,5.397-9.202,3.944
			c-3.63-1.452-5.396-5.572-3.944-9.202l28.318-70.795c1.452-3.63,5.572-5.396,9.202-3.943
			C-250.913-7.358-249.147-3.237-250.599,0.393z"/>
		<path style="fill:#FFFFFF;" d="M-285.492,79.365c-1.376,0-2.726-0.261-4.011-0.775c-5.531-2.212-8.231-8.512-6.019-14.043
			l28.319-70.796c1.651-4.127,5.589-6.793,10.033-6.793c1.376,0,2.726,0.261,4.011,0.775c5.53,2.211,8.231,8.511,6.019,14.042
			l-28.319,70.795C-277.109,76.698-281.047,79.365-285.492,79.365z M-257.17-5.593c-1.38,0-2.604,0.829-3.117,2.111l-28.318,70.795
			c-0.687,1.717,0.152,3.674,1.87,4.361c0.401,0.16,0.819,0.242,1.244,0.242c1.381,0,2.604-0.829,3.117-2.111l28.319-70.795
			c0.687-1.717-0.152-3.674-1.869-4.361C-256.328-5.511-256.746-5.593-257.17-5.593z"/>
	</g>
	<g>
		<path style="fill:#FFFFFF;" d="M-200.537,33.161c0,1.955-0.792,3.725-2.074,5.005l-28.296,28.296
			c-0.005,0.005-0.008,0.01-0.013,0.015c-1.282,1.281-3.051,2.074-5.006,2.074c-3.91,0-7.079-3.17-7.079-7.08
			c0-1.954,0.792-3.725,2.073-5.005c0.077-0.076,0.155-0.151,0.235-0.224l23.075-23.085l-23.161-23.161
			c-1.371-1.291-2.228-3.122-2.228-5.154c0-3.909,3.169-7.079,7.079-7.079c2.021,0,3.842,0.849,5.132,2.206l28.092,28.091
			C-201.371,29.35-200.537,31.157-200.537,33.161z"/>
		<path style="fill:#FFFFFF;" d="M-235.927,72.276c-5.957,0-10.803-4.847-10.803-10.805c0-2.886,1.124-5.599,3.164-7.639
			c0.104-0.103,0.197-0.192,0.289-0.278l20.387-20.396l-20.492-20.492c-2.132-2.031-3.354-4.879-3.354-7.823
			c0-5.957,4.847-10.803,10.804-10.803c2.928,0,5.766,1.212,7.796,3.327l28.041,28.04c2.118,2.055,3.284,4.807,3.284,7.756
			c0,2.887-1.124,5.6-3.166,7.64l-28.309,28.311C-230.329,71.153-233.042,72.276-235.927,72.276z M-235.933,1.488
			c-1.85,0-3.355,1.505-3.355,3.355c0,0.933,0.375,1.801,1.057,2.442l0.08,0.078l25.794,25.794l-25.837,25.842
			c-0.042,0.039-0.084,0.079-0.124,0.119c-0.614,0.614-0.963,1.457-0.963,2.353c0,1.85,1.505,3.356,3.355,3.356
			c0.867,0,1.684-0.327,2.312-0.923l0.074-0.075l28.296-28.296c0.634-0.634,0.983-1.476,0.983-2.372
			c0-0.919-0.366-1.777-1.031-2.418l-0.05-0.049L-233.5,2.535C-234.142,1.86-235.006,1.488-235.933,1.488z"/>
	</g>
</g>
<g style="opacity:0.05;">
	<polygon style="fill:#FFFFFF;" points="-207.616,75.638 -250.093,75.638 -292.569,75.638 -335.046,75.638 -335.046,33.161 
		-335.046,-9.316 -292.57,-9.316 -250.093,-9.316 -207.616,-9.316 	"/>
</g>
<g>
	<path style="fill:#FFFFFF;" d="M-283.582,76.219c-18.728-5.364-32.479-22.63-32.479-43.057c0-19.394,12.392-35.944,29.673-42.16
		c-0.361-0.373-0.652-0.803-0.871-1.272c-17.664,6.524-30.292,23.53-30.292,43.433c0,19.901,12.627,36.906,30.289,43.431
		C-286.036,76.452-284.81,76.317-283.582,76.219z"/>
	<path style="fill:#FFFFFF;" d="M-254.299-9.884c-0.441,0.417-0.978,0.75-1.609,0.967c17.155,6.282,29.431,22.774,29.431,42.078
		c0,20.067-13.265,37.095-31.487,42.775c1.397,0.026,2.795,0.045,4.193,0.062c16.868-6.916,28.784-23.507,28.784-42.837
		C-224.987,13.631-237.153-3.1-254.299-9.884z"/>
</g>
<g>
	<path style="fill:#FFFFFF;" d="M-271.331,55.147c-12.123,0-21.985-9.863-21.985-21.985s9.863-21.985,21.985-21.985
		s21.985,9.863,21.985,21.985S-259.208,55.147-271.331,55.147z M-271.331,12.666c-11.301,0-20.495,9.194-20.495,20.495
		s9.194,20.495,20.495,20.495c11.301,0,20.495-9.194,20.495-20.495S-260.03,12.666-271.331,12.666z"/>
</g>
<g>
	<rect x="-293.314" y="-9.316" style="fill:#FFFFFF;" width="1.49" height="84.954"/>
</g>
<g>
	<rect x="-250.837" y="-9.316" style="fill:#FFFFFF;" width="1.49" height="84.954"/>
</g>
<g>
	<rect x="-335.046" y="32.413" style="fill:#FFFFFF;" width="134.509" height="1.49"/>
</g>
<g>
	<path style="fill:#FFFFFF;" d="M-208.811,77.687h-125.04c-1.788,0-3.244-1.455-3.244-3.244V-8.12c0-1.789,1.455-3.244,3.244-3.244
		h125.04c1.789,0,3.244,1.455,3.244,3.244v82.563C-205.567,76.232-207.022,77.687-208.811,77.687z M-332.998,73.59h123.334V-7.267
		h-123.334V73.59z"/>
</g>
<g style="opacity:0.5;">
	<polygon style="fill:#FFFFFF;" points="135.932,89.195 94.99,89.195 54.048,89.195 13.106,89.195 13.106,48.253 13.106,3.212 
		54.048,3.212 94.99,3.212 135.932,3.212 	"/>
</g>
<g>
	<g>
		<rect x="-335.791" y="26.082" style="fill:#FFFFFF;" width="1.49" height="14.159"/>
	</g>
	<g>
		<rect x="-342.126" y="32.416" style="fill:#FFFFFF;" width="14.159" height="1.49"/>
	</g>
	<g>
		<rect x="-335.791" y="26.082" style="fill:#FFFFFF;" width="1.49" height="14.159"/>
	</g>
	<g>
		<rect x="-208.362" y="26.082" style="fill:#FFFFFF;" width="1.49" height="14.159"/>
	</g>
	<path style="fill:#354D69;" d="M-249.981-5.318c-0.823-1.921-2.345-3.407-4.286-4.183c-0.931-0.372-1.908-0.561-2.904-0.561
		c-3.218,0-6.071,1.931-7.267,4.92l-28.318,70.795c-0.776,1.941-0.75,4.067,0.073,5.988c0.823,1.921,2.345,3.406,4.286,4.182
		c0.931,0.373,1.909,0.562,2.904,0.562c3.219,0,6.071-1.931,7.266-4.92l0,0l0,0l28.318-70.795
		C-249.131-1.271-249.157-3.398-249.981-5.318z M-291.562,70.351c-0.334-1.123-0.348-2.304-0.042-3.435l4.167,1.667L-291.562,70.351
		z M-285.514,66.613l-1.769-4.128c0.573-0.168,1.175-0.262,1.796-0.262c0.556,0,1.105,0.078,1.64,0.223L-285.514,66.613z
		 M-288.649,63.08l1.765,4.119l-4.159-1.664C-290.477,64.491-289.645,63.654-288.649,63.08z M-282.463,62.998
		c1.03,0.558,1.876,1.383,2.459,2.4l-4.126,1.768L-282.463,62.998z M-260.199,3.324c-1.03-0.558-1.875-1.383-2.458-2.399
		l4.125-1.768L-260.199,3.324z M-257.917,1.632v2.419c-0.303-0.036-0.602-0.094-0.898-0.174L-257.917,1.632z M-256.427,1.391
		l1.049,2.447c-0.339,0.099-0.691,0.165-1.049,0.206V1.391z M-254.013,3.243l-1.765-4.119l4.16,1.664
		C-252.185,1.832-253.017,2.669-254.013,3.243z M-256.427-8.523c0.303,0.036,0.602,0.094,0.898,0.174l-0.898,2.245V-8.523z
		 M-257.917-5.867l-1.047-2.444c0.339-0.099,0.69-0.164,1.047-0.206V-5.867z M-263.244-0.445c-0.334-1.123-0.348-2.304-0.042-3.435
		l4.167,1.667L-263.244-0.445z M-264.364,0.846c0.724,1.691,1.991,3.043,3.607,3.872l-22.532,56.332
		c-0.715-0.211-1.452-0.317-2.199-0.317c-1.524,0-2.959,0.445-4.182,1.218l24.914-62.286C-264.654,0.064-264.529,0.46-264.364,0.846
		z M-279.418,66.767c0.334,1.123,0.348,2.304,0.042,3.435l-4.167-1.667L-279.418,66.767z M-278.298,65.476
		c-0.724-1.691-1.991-3.043-3.607-3.872l0.669-1.673l21.863-54.659c0.715,0.211,1.452,0.318,2.199,0.318
		c1.524,0,2.958-0.445,4.181-1.218l-24.915,62.286C-278.009,66.258-278.133,65.863-278.298,65.476z M-255.226-2.26l4.126-1.768
		c0.334,1.123,0.348,2.304,0.042,3.435L-255.226-2.26z M-251.687-5.398l-4.125,1.768l1.667-4.167
		C-253.115-7.239-252.27-6.414-251.687-5.398z M-260.33-7.716l1.766,4.12l-4.161-1.664C-262.159-6.304-261.327-7.142-260.33-7.716z
		 M-290.975,71.72l4.125-1.768l-1.667,4.167C-289.547,73.561-290.392,72.736-290.975,71.72z M-287.133,74.672l1.666-4.166
		l1.769,4.127c-0.573,0.168-1.174,0.262-1.795,0.262C-286.048,74.895-286.597,74.817-287.133,74.672z M-282.332,74.038l-1.766-4.12
		l4.16,1.664C-280.503,72.627-281.335,73.464-282.332,74.038z"/>
	<path style="fill:#354D69;" d="M-323.981,33.161l22.785-22.785c1.478-1.478,2.292-3.443,2.292-5.532
		c0-4.314-3.51-7.825-7.825-7.825c-2.09,0-4.055,0.814-5.532,2.292l-28.318,28.318c-1.478,1.478-2.292,3.443-2.292,5.533
		c0,2.09,0.814,4.055,2.292,5.533l28.318,28.318c1.478,1.478,3.443,2.291,5.532,2.291c4.314,0,7.825-3.51,7.825-7.824
		c0-2.09-0.814-4.055-2.292-5.533L-323.981,33.161z M-307.473,59.681l-3.171-3.171c0.895-0.707,1.982-1.177,3.171-1.317V59.681z
		 M-308.527,60.734h-4.489c0.14-1.189,0.611-2.276,1.318-3.171L-308.527,60.734z M-308.527,62.224l-3.174,3.174
		c-0.727-0.919-1.179-2.01-1.315-3.174H-308.527z M-307.473,63.278v4.488c-1.164-0.136-2.255-0.587-3.174-1.315L-307.473,63.278z
		 M-305.984,63.277l3.171,3.171c-0.895,0.707-1.982,1.177-3.171,1.317V63.277z M-304.93,62.224h4.489
		c-0.14,1.189-0.611,2.276-1.318,3.171L-304.93,62.224z M-305.984,55.192c1.164,0.136,2.255,0.588,3.174,1.315l-3.174,3.174V55.192z
		 M-305.488,53.761c-0.407-0.065-0.82-0.106-1.241-0.106c-1.89,0-3.625,0.673-4.978,1.793l-17.28-17.28l3.953-3.953L-305.488,53.761
		z M-328.76,32.416h-4.488l3.174-3.174C-329.347,30.161-328.895,31.252-328.76,32.416z M-328.76,33.906
		c-0.136,1.164-0.587,2.255-1.314,3.174l-3.174-3.174H-328.76z M-327.328,31.921l1.241,1.241l-1.241,1.241
		c0.065-0.407,0.106-0.82,0.106-1.241S-327.264,32.328-327.328,31.921z M-335.046,32.108l-3.919-3.919
		c1.113-0.881,2.478-1.362,3.919-1.362c1.441,0,2.806,0.482,3.919,1.363L-335.046,32.108z M-331.127,38.133
		c-1.113,0.881-2.478,1.362-3.919,1.362c-1.441,0-2.806-0.482-3.919-1.362l3.919-3.919L-331.127,38.133z M-325.034,32.108
		l-3.953-3.953l17.28-17.28c1.354,1.119,3.089,1.793,4.978,1.793c0.42,0,0.833-0.042,1.241-0.106L-325.034,32.108z M-307.473,11.13
		c-1.189-0.14-2.276-0.611-3.171-1.317l3.171-3.171V11.13z M-305.984,6.641l3.174,3.174c-0.919,0.727-2.01,1.179-3.174,1.315V6.641z
		 M-304.93,5.588h4.488c-0.136,1.164-0.588,2.255-1.315,3.174L-304.93,5.588z M-304.93,4.099l3.171-3.171
		c0.707,0.895,1.177,1.982,1.318,3.171H-304.93z M-305.984,3.045v-4.489c1.189,0.14,2.277,0.611,3.171,1.318L-305.984,3.045z
		 M-307.473,3.045l-3.174-3.174c0.919-0.727,2.01-1.179,3.174-1.315V3.045z M-308.526,4.099h-4.489
		c0.136-1.164,0.588-2.255,1.315-3.174L-308.526,4.099z M-308.527,5.588l-3.171,3.171c-0.707-0.895-1.177-1.982-1.317-3.171
		H-308.527z M-314.447,3.603c-0.065,0.407-0.106,0.82-0.106,1.241c0,1.89,0.673,3.625,1.793,4.978l-17.306,17.306
		c-1.399-1.159-3.141-1.791-4.98-1.791c-0.42,0-0.833,0.042-1.24,0.106L-314.447,3.603z M-340.018,29.242l3.174,3.174h-4.489
		C-341.197,31.253-340.745,30.161-340.018,29.242z M-341.333,33.906h4.488l-3.174,3.174
		C-340.745,36.161-341.197,35.07-341.333,33.906z M-336.287,40.879c0.407,0.065,0.82,0.106,1.241,0.106
		c1.839,0,3.581-0.632,4.98-1.791l17.306,17.306c-1.119,1.354-1.793,3.089-1.793,4.978c0,0.42,0.042,0.833,0.106,1.241
		L-336.287,40.879z M-300.441,60.734h-4.489l3.174-3.174C-301.029,58.479-300.577,59.57-300.441,60.734z"/>
</g>
<g>
	<g>
		<path style="fill:#354D69;" d="M51.619,66.663c0.943,0.943,1.525,2.244,1.525,3.682c0,2.876-2.331,5.206-5.206,5.206
			c-1.438,0-2.739-0.583-3.682-1.524L23.43,53.2c-0.942-0.943-1.525-2.244-1.525-3.682s0.583-2.739,1.525-3.682l20.827-20.827
			c0.943-0.942,2.244-1.525,3.682-1.525c2.876,0,5.206,2.331,5.206,5.206c0,1.438-0.583,2.74-1.525,3.682L34.475,49.518
			L51.619,66.663z"/>
	</g>
	<g>
		<path style="fill:#354D69;" d="M89.22,25.418L68.392,77.485c-1.067,2.67-4.098,3.969-6.768,2.901
			c-2.67-1.068-3.968-4.098-2.901-6.768l20.827-52.068c1.068-2.67,4.098-3.968,6.768-2.9C88.988,19.718,90.287,22.748,89.22,25.418z
			"/>
	</g>
	<g>
		<path style="fill:#354D69;" d="M126.038,49.518c0,1.438-0.583,2.739-1.525,3.681L103.702,74.01
			c-0.003,0.003-0.006,0.008-0.01,0.011c-0.943,0.942-2.244,1.525-3.682,1.525c-2.876,0-5.206-2.331-5.206-5.207
			c0-1.437,0.583-2.739,1.525-3.681c0.057-0.056,0.114-0.111,0.173-0.164l16.971-16.978L96.438,32.481
			c-1.008-0.949-1.638-2.296-1.638-3.79c0-2.875,2.331-5.206,5.206-5.206c1.486,0,2.826,0.624,3.775,1.623l20.661,20.66
			C125.425,46.715,126.038,48.044,126.038,49.518z"/>
	</g>
</g>
<g>
	<path style="fill:#FFFFFF;" d="M134.78,91.057H14.258c-1.662,0-3.014-1.352-3.014-3.014V4.364c0-1.662,1.352-3.014,3.014-3.014
		H134.78c1.662,0,3.014,1.352,3.014,3.014v83.679C137.794,89.705,136.442,91.057,134.78,91.057z M14.968,87.333H134.07V5.074H14.968
		V87.333z"/>
</g>
<g>
	<rect x="11.244" y="10.974" style="fill:#FFFFFF;" width="124.688" height="1.58"/>
</g>
<g>
	<circle style="fill:#354D69;" cx="18.138" cy="8.099" r="1.255"/>
</g>
<g>
	<circle style="fill:#354D69;" cx="21.904" cy="8.099" r="1.255"/>
</g>
<g>
	<circle style="fill:#354D69;" cx="25.67" cy="8.099" r="1.255"/>
</g>
<path style="fill:#354D69;" d="M-199.792,33.161c0-2.157-0.877-4.113-2.294-5.53l0,0L-230.388-0.67
	c-1.418-1.426-3.38-2.311-5.545-2.311c-4.314,0-7.825,3.51-7.825,7.825c0,2.169,0.888,4.133,2.318,5.552l22.763,22.763
	l-22.665,22.675c-0.038,0.037-0.08,0.069-0.118,0.107c-1.478,1.478-2.291,3.443-2.291,5.532c0,4.314,3.51,7.824,7.824,7.824
	c2.09,0,4.055-0.814,5.533-2.292c0.004-0.004,0.007-0.008,0.011-0.012l28.299-28.299C-200.606,37.216-199.792,35.251-199.792,33.161
	z M-202.645,37.08l-3.178-3.178h4.493C-201.464,35.068-201.917,36.16-202.645,37.08z M-212.589,29.243l3.17,3.17h-4.484
	C-213.767,31.25-213.315,30.161-212.589,29.243z M-212.589,37.081c-0.728-0.92-1.18-2.012-1.315-3.178h4.493L-212.589,37.081z
	 M-202.647,29.246c0.706,0.894,1.176,1.98,1.317,3.167h-4.484L-202.647,29.246z M-207.617,32.109l-3.919-3.919
	c1.113-0.881,2.478-1.363,3.919-1.363c1.479,0,2.838,0.513,3.917,1.366L-207.617,32.109z M-215.336,34.391l-1.234-1.234l1.235-1.236
	c-0.064,0.407-0.106,0.819-0.106,1.239C-215.441,33.578-215.4,33.988-215.336,34.391z M-207.617,34.215l3.918,3.918
	c-1.113,0.88-2.478,1.362-3.919,1.362c-1.44,0-2.805-0.482-3.918-1.362L-207.617,34.215z M-206.38,25.444
	c-0.404-0.065-0.815-0.108-1.237-0.108c-1.84,0-3.581,0.632-4.981,1.791l-17.305-17.305c1.12-1.354,1.794-3.089,1.794-4.98
	c0-0.421-0.043-0.832-0.107-1.235L-206.38,25.444z M-230.964,8.76l-3.171-3.171h4.489C-229.786,6.778-230.257,7.865-230.964,8.76z
	 M-230.963,0.928c0.706,0.895,1.177,1.982,1.317,3.171h-4.488L-230.963,0.928z M-235.188,3.046v-4.489
	c1.189,0.14,2.277,0.611,3.171,1.318L-235.188,3.046z M-236.678,3.046l-3.172-3.172c0.895-0.707,1.983-1.178,3.172-1.318V3.046z
	 M-236.678,11.13c-1.189-0.14-2.276-0.611-3.171-1.317l3.171-3.171V11.13z M-235.188,6.644l3.17,3.17
	c-0.894,0.706-1.981,1.176-3.17,1.316V6.644z M-240.903,0.928l3.171,3.171h-4.488C-242.08,2.91-241.609,1.822-240.903,0.928z
	 M-242.22,5.588h4.489l-3.171,3.171C-241.609,7.865-242.08,6.778-242.22,5.588z M-237.167,12.561
	c0.403,0.064,0.813,0.107,1.234,0.107c1.889,0,3.624-0.673,4.977-1.791l17.28,17.279l-3.947,3.949L-237.167,12.561z
	 M-217.623,34.211l3.952,3.952l-17.277,17.277c-1.354-1.119-3.089-1.793-4.978-1.793c-0.416,0-0.826,0.041-1.229,0.105
	L-217.623,34.211z M-234.129,62.217h4.489c-0.136,1.164-0.588,2.255-1.315,3.174L-234.129,62.217z M-235.182,59.674v-4.489
	c1.189,0.14,2.277,0.611,3.171,1.318L-235.182,59.674z M-236.671,59.674l-3.174-3.174c0.919-0.727,2.01-1.179,3.174-1.315V59.674z
	 M-236.671,67.759c-1.189-0.14-2.276-0.611-3.171-1.317l3.171-3.171V67.759z M-235.182,63.27l3.174,3.174
	c-0.919,0.727-2.01,1.179-3.174,1.314V63.27z M-234.128,60.727l3.171-3.171c0.707,0.895,1.177,1.982,1.317,3.171H-234.128z
	 M-240.899,57.553l3.174,3.174h-4.488C-242.078,59.563-241.626,58.472-240.899,57.553z M-242.213,62.217h4.489l-3.171,3.171
	C-241.602,64.493-242.073,63.406-242.213,62.217z M-228.208,62.711c0.064-0.407,0.106-0.819,0.106-1.239
	c0-1.89-0.673-3.625-1.793-4.978l17.298-17.298c1.399,1.159,3.14,1.79,4.98,1.79c0.42,0,0.833-0.042,1.241-0.106L-228.208,62.711z"
	/>
</svg>
