<?xml version="1.0" encoding="utf-8"?>
<!-- Generator: Adobe Illustrator 17.1.0, SVG Export Plug-In . SVG Version: 6.00 Build 0)  -->
<!DOCTYPE svg PUBLIC "-//W3C//DTD SVG 1.1//EN" "http://www.w3.org/Graphics/SVG/1.1/DTD/svg11.dtd">
<svg version="1.1" id="Layer_1" xmlns="http://www.w3.org/2000/svg" xmlns:xlink="http://www.w3.org/1999/xlink" x="0px" y="0px"
	 viewBox="0 0 669.3 432.8" enable-background="new 0 0 669.3 432.8" xml:space="preserve">
<g>
	<g opacity="0.5">
		<polygon fill="#FFFFFF" points="628.9,422.4 432.7,422.4 236.5,422.4 40.4,422.4 40.4,226.2 40.4,10.4 236.5,10.4 432.7,10.4 
			628.9,10.4 		"/>
	</g>
	<g>
		<g>
			<path fill="#364E6A" d="M224.9,314.4c4.5,4.5,7.3,10.8,7.3,17.6c0,13.8-11.2,24.9-24.9,24.9c-6.9,0-13.1-2.8-17.6-7.3l-99.8-99.8
				c-4.5-4.5-7.3-10.8-7.3-17.6c0-6.9,2.8-13.1,7.3-17.6l99.8-99.8c4.5-4.5,10.8-7.3,17.6-7.3c13.8,0,24.9,11.2,24.9,24.9
				c0,6.9-2.8,13.1-7.3,17.6l-82.1,82.2L224.9,314.4z"/>
		</g>
		<g>
			<path fill="#364E6A" d="M405.1,116.8l-99.8,249.5c-5.1,12.8-19.6,19-32.4,13.9s-19-19.6-13.9-32.4l99.8-249.5
				c5.1-12.8,19.6-19,32.4-13.9C404,89.5,410.2,104,405.1,116.8z"/>
		</g>
		<g>
			<path fill="#364E6A" d="M581.5,232.3c0,6.9-2.8,13.1-7.3,17.6l-99.7,99.7c0,0,0,0,0,0.1c-4.5,4.5-10.8,7.3-17.6,7.3
				c-13.8,0-24.9-11.2-24.9-24.9c0-6.9,2.8-13.1,7.3-17.6c0.3-0.3,0.5-0.5,0.8-0.8l81.3-81.3l-81.6-81.6c-4.8-4.5-7.8-11-7.8-18.2
				c0-13.8,11.2-24.9,24.9-24.9c7.1,0,13.5,3,18.1,7.8l99,99C578.5,218.9,581.5,225.2,581.5,232.3z"/>
		</g>
	</g>
	<g>
		<path fill="#FFFFFF" d="M623.4,431.3H45.9c-8,0-14.4-6.5-14.4-14.4V15.9c0-8,6.5-14.4,14.4-14.4h577.5c8,0,14.4,6.5,14.4,14.4
			v400.9C637.8,424.8,631.3,431.3,623.4,431.3z M49.3,413.5H620V19.3H49.3V413.5z"/>
	</g>
	<g>
		<rect x="31.5" y="47.6" fill="#FFFFFF" width="597.4" height="7.6"/>
	</g>
	<g>
		<circle fill="#364E6A" cx="64.5" cy="33.8" r="6"/>
	</g>
	<g>
		<circle fill="#364E6A" cx="82.5" cy="33.8" r="6"/>
	</g>
	<g>
		<circle fill="#364E6A" cx="100.6" cy="33.8" r="6"/>
	</g>
</g>
</svg>
