<svg xmlns="http://www.w3.org/2000/svg" viewBox="0 0 149.038 92.407">
<g style="opacity:0.5;">
<g>
<path style="fill:#FFFFFF;" d="M70.128,506.515c1.282,1.282,2.074,3.051,2.074,5.006c0,3.91-3.169,7.079-7.079,7.079
c-1.955,0-3.725-0.792-5.006-2.073L31.798,488.21c-1.281-1.282-2.074-3.051-2.074-5.006s0.793-3.725,2.074-5.006l28.318-28.318
c1.282-1.281,3.051-2.074,5.006-2.074c3.91,0,7.079,3.17,7.079,7.079c0,1.955-0.792,3.726-2.074,5.006l-23.311,23.312
L70.128,506.515z"/>
<path style="fill:#FFFFFF;" d="M65.122,522.324c-2.885,0-5.598-1.123-7.639-3.162l-28.319-28.319
C27.124,488.8,26,486.087,26,483.203c0-2.884,1.124-5.597,3.164-7.639l28.319-28.319c2.043-2.041,4.756-3.164,7.64-3.164
c5.957,0,10.803,4.847,10.803,10.803c0,2.888-1.124,5.601-3.165,7.641l-20.677,20.678l20.678,20.678
c2.04,2.041,3.164,4.754,3.164,7.64C75.926,517.478,71.079,522.324,65.122,522.324z M65.122,451.53
c-0.896,0-1.739,0.35-2.374,0.984l-28.316,28.317c-0.634,0.634-0.983,1.477-0.983,2.372c0,0.896,0.35,1.739,0.984,2.374
l28.316,28.316c0.633,0.633,1.476,0.982,2.373,0.982c1.85,0,3.355-1.505,3.355-3.355c0-0.897-0.349-1.739-0.983-2.373
L41.55,483.203l25.945-25.946c0.634-0.634,0.983-1.476,0.983-2.373C68.477,453.035,66.972,451.53,65.122,451.53z"/>
</g>
<g>
<path style="fill:#FFFFFF;" d="M121.252,450.435l-28.319,70.794c-1.451,3.631-5.572,5.397-9.202,3.944
c-3.63-1.452-5.396-5.572-3.944-9.202l28.319-70.795c1.452-3.63,5.572-5.396,9.202-3.943
C120.938,442.684,122.703,446.805,121.252,450.435z"/>
<path style="fill:#FFFFFF;" d="M86.359,529.407c-1.376,0-2.726-0.261-4.011-0.775c-5.531-2.213-8.231-8.512-6.019-14.043
l28.319-70.796c1.651-4.127,5.589-6.793,10.033-6.793c1.376,0,2.726,0.261,4.011,0.775c5.53,2.211,8.231,8.511,6.019,14.042
l-28.319,70.795C94.742,526.74,90.803,529.407,86.359,529.407z M114.68,444.449c-1.38,0-2.604,0.829-3.117,2.111l-28.318,70.795
c-0.687,1.717,0.152,3.674,1.87,4.361c0.401,0.16,0.819,0.242,1.244,0.242c1.381,0,2.604-0.829,3.117-2.111l28.319-70.795
c0.687-1.717-0.152-3.674-1.869-4.361C115.523,444.53,115.105,444.449,114.68,444.449z"/>
</g>
<g>
<path style="fill:#FFFFFF;" d="M171.314,483.203c0,1.955-0.792,3.725-2.074,5.005l-28.296,28.296
c-0.005,0.005-0.008,0.01-0.013,0.015c-1.282,1.281-3.051,2.074-5.006,2.074c-3.91,0-7.079-3.17-7.079-7.08
c0-1.954,0.792-3.725,2.073-5.005c0.077-0.076,0.155-0.151,0.235-0.224l23.075-23.085l-23.161-23.161
c-1.371-1.291-2.228-3.122-2.228-5.154c0-3.909,3.169-7.079,7.079-7.079c2.021,0,3.842,0.849,5.132,2.206l28.092,28.091
C170.48,479.391,171.314,481.199,171.314,483.203z"/>
<path style="fill:#FFFFFF;" d="M135.924,522.318c-5.957,0-10.803-4.847-10.803-10.805c0-2.886,1.124-5.599,3.164-7.639
c0.104-0.103,0.197-0.192,0.289-0.278l20.387-20.396l-20.492-20.492c-2.132-2.031-3.354-4.879-3.354-7.823
c0-5.957,4.847-10.803,10.804-10.803c2.928,0,5.766,1.212,7.796,3.327l28.041,28.04c2.118,2.055,3.284,4.807,3.284,7.755
c0,2.887-1.124,5.601-3.166,7.64l-28.309,28.311C141.522,521.194,138.809,522.318,135.924,522.318z M135.918,451.53
c-1.85,0-3.355,1.505-3.355,3.355c0,0.933,0.375,1.801,1.057,2.442l0.08,0.078l25.794,25.794l-25.837,25.842
c-0.042,0.039-0.084,0.079-0.124,0.119c-0.614,0.614-0.963,1.457-0.963,2.353c0,1.85,1.505,3.356,3.355,3.356
c0.867,0,1.684-0.327,2.312-0.923l0.074-0.075l28.296-28.296c0.634-0.634,0.983-1.476,0.983-2.372
c0-0.919-0.366-1.777-1.031-2.418l-0.05-0.049l-28.158-28.16C137.708,451.902,136.845,451.53,135.918,451.53z"/>
</g>
</g>
<g style="opacity:0.05;">
<polygon style="fill:#FFFFFF;" points="164.235,525.68 121.758,525.68 79.281,525.68 36.804,525.68 36.804,483.203 36.804,440.726
"/>
</g>
<g>
<path style="fill:#FFFFFF;" d="M88.268,526.261c-18.728-5.364-32.479-22.63-32.479-43.057c0-19.394,12.392-35.944,29.673-42.16
c-0.361-0.373-0.652-0.803-0.871-1.272c-17.664,6.524-30.292,23.53-30.292,43.433c0,19.901,12.627,36.906,30.289,43.431
C85.815,526.494,87.041,526.359,88.268,526.261z"/>
<path style="fill:#FFFFFF;" d="M117.552,440.158c-0.441,0.417-0.978,0.75-1.609,0.967c17.155,6.282,29.431,22.774,29.431,42.078
c0,20.067-13.265,37.095-31.487,42.775c1.397,0.026,2.795,0.045,4.193,0.062c16.868-6.916,28.784-23.507,28.784-42.837
C146.864,463.673,134.698,446.942,117.552,440.158z"/>
</g>
<g>
<path style="fill:#FFFFFF;" d="M100.52,505.188c-12.123,0-21.985-9.863-21.985-21.985c0-12.123,9.863-21.985,21.985-21.985
s21.985,9.863,21.985,21.985C122.505,495.326,112.642,505.188,100.52,505.188z M100.52,462.708
c-11.301,0-20.495,9.194-20.495,20.495c0,11.301,9.194,20.495,20.495,20.495s20.495-9.194,20.495-20.495
C121.015,471.902,111.821,462.708,100.52,462.708z"/>
</g>
<g>
<rect x="78.536" y="440.726" style="fill:#FFFFFF;" width="1.49" height="84.954"/>
</g>
<g>
<rect x="121.013" y="440.726" style="fill:#FFFFFF;" width="1.49" height="84.954"/>
</g>
<g>
<rect x="36.804" y="482.455" style="fill:#FFFFFF;" width="134.509" height="1.49"/>
</g>
<g>
<path style="fill:#FFFFFF;" d="M163.039,527.729H37.999c-1.788,0-3.244-1.455-3.244-3.244v-82.563c0-1.789,1.455-3.244,3.244-3.244
h125.04c1.789,0,3.244,1.455,3.244,3.244v82.563C166.283,526.273,164.828,527.729,163.039,527.729z M38.853,523.632h123.334
v-80.857H38.853V523.632z"/>
</g>
<g style="opacity:0.5;">
<polygon style="fill:#FFFFFF;" points="393.07,527.029 352.128,527.029 311.186,527.029 270.244,527.029 270.244,486.087
"/>
</g>
<g>
<g>
<rect x="36.059" y="476.123" style="fill:#FFFFFF;" width="1.49" height="14.159"/>
</g>
<g>
<rect x="29.725" y="482.458" style="fill:#FFFFFF;" width="14.159" height="1.49"/>
</g>
<g>
<rect x="36.059" y="476.123" style="fill:#FFFFFF;" width="1.49" height="14.159"/>
</g>
<g>
<rect x="163.489" y="476.123" style="fill:#FFFFFF;" width="1.49" height="14.159"/>
</g>
<path style="fill:#354D69;" d="M121.87,444.723c-0.823-1.921-2.345-3.407-4.286-4.183c-0.931-0.372-1.908-0.561-2.904-0.561
c-3.218,0-6.071,1.931-7.267,4.92l-28.318,70.795c-0.776,1.941-0.75,4.067,0.073,5.988c0.823,1.921,2.345,3.406,4.286,4.182
c0.931,0.373,1.909,0.562,2.904,0.562c3.219,0,6.071-1.931,7.266-4.92l0,0l0,0l28.318-70.795
C122.719,448.771,122.694,446.644,121.87,444.723z M80.289,520.393c-0.334-1.123-0.348-2.304-0.042-3.435l4.167,1.667
L80.289,520.393z M86.336,516.655l-1.769-4.128c0.573-0.168,1.175-0.262,1.796-0.262c0.556,0,1.105,0.078,1.64,0.223
L86.336,516.655z M83.202,513.122l1.765,4.119l-4.159-1.664C81.373,514.533,82.205,513.696,83.202,513.122z M89.387,513.04
c1.03,0.558,1.876,1.383,2.459,2.4l-4.126,1.768L89.387,513.04z M111.651,453.366c-1.03-0.558-1.875-1.383-2.458-2.399l4.125-1.768
L111.651,453.366z M113.933,451.674v2.419c-0.303-0.036-0.602-0.094-0.898-0.174L113.933,451.674z M115.423,451.433l1.049,2.447
c-0.339,0.099-0.691,0.165-1.049,0.206V451.433z M117.837,453.285l-1.765-4.119l4.16,1.664
C119.666,451.873,118.834,452.711,117.837,453.285z M115.423,441.518c0.303,0.036,0.602,0.094,0.898,0.174l-0.898,2.245V441.518z
M113.933,444.175l-1.047-2.444c0.339-0.099,0.69-0.164,1.047-0.206V444.175z M108.607,449.597
c-0.334-1.123-0.348-2.304-0.042-3.435l4.167,1.667L108.607,449.597z M107.487,450.888c0.724,1.691,1.991,3.043,3.607,3.872
l-22.532,56.332c-0.715-0.211-1.452-0.317-2.199-0.317c-1.524,0-2.959,0.445-4.181,1.218l24.914-62.286
C107.197,450.106,107.321,450.502,107.487,450.888z M92.433,516.809c0.334,1.123,0.348,2.304,0.042,3.435l-4.167-1.667
L92.433,516.809z M93.552,515.518c-0.724-1.691-1.991-3.043-3.607-3.872l0.669-1.673l21.863-54.659
c0.715,0.211,1.452,0.318,2.199,0.318c1.524,0,2.958-0.445,4.181-1.218L93.943,516.7C93.842,516.3,93.718,515.904,93.552,515.518z
M116.624,447.782l4.126-1.768c0.334,1.123,0.348,2.304,0.042,3.435L116.624,447.782z M120.163,444.644l-4.125,1.768l1.667-4.167
C118.735,442.803,119.58,443.628,120.163,444.644z M111.52,442.326l1.766,4.12l-4.161-1.664
C109.691,443.737,110.524,442.9,111.52,442.326z M80.876,521.762l4.125-1.768l-1.667,4.167
C82.304,523.603,81.459,522.778,80.876,521.762z M84.718,524.714l1.666-4.166l1.769,4.127c-0.573,0.168-1.174,0.262-1.795,0.262
C85.802,524.937,85.254,524.859,84.718,524.714z M89.519,524.08l-1.766-4.12l4.16,1.664
C91.347,522.668,90.515,523.506,89.519,524.08z"/>
<path style="fill:#354D69;" d="M47.869,483.203l22.785-22.785c1.478-1.478,2.292-3.443,2.292-5.532c0-4.314-3.51-7.825-7.825-7.825
c-2.09,0-4.055,0.814-5.532,2.292L31.272,477.67c-1.478,1.478-2.292,3.443-2.292,5.533c0,2.09,0.814,4.055,2.292,5.533
l28.318,28.318c1.478,1.478,3.443,2.291,5.532,2.291c4.314,0,7.825-3.51,7.825-7.824c0-2.09-0.814-4.055-2.292-5.533
L47.869,483.203z M64.377,509.723l-3.171-3.171c0.895-0.707,1.982-1.177,3.171-1.317V509.723z M63.324,510.776h-4.489
c0.14-1.189,0.611-2.276,1.318-3.171L63.324,510.776z M63.324,512.266l-3.174,3.174c-0.727-0.919-1.179-2.01-1.315-3.174H63.324z
M64.377,513.319v4.488c-1.164-0.136-2.255-0.587-3.174-1.314L64.377,513.319z M65.867,513.319l3.171,3.171
c-0.895,0.707-1.982,1.177-3.171,1.317V513.319z M66.92,512.266h4.489c-0.14,1.189-0.611,2.276-1.318,3.171L66.92,512.266z
M65.867,505.234c1.164,0.136,2.255,0.588,3.174,1.315l-3.174,3.174V505.234z M66.363,503.803c-0.407-0.065-0.82-0.106-1.241-0.106
c-1.89,0-3.625,0.673-4.978,1.793l-17.28-17.28l3.953-3.953L66.363,503.803z M43.091,482.458h-4.488l3.174-3.174
C42.503,480.203,42.955,481.294,43.091,482.458z M43.091,483.948c-0.136,1.164-0.587,2.255-1.314,3.174l-3.174-3.174H43.091z
M44.522,481.963l1.241,1.241l-1.241,1.241c0.065-0.407,0.106-0.82,0.106-1.241C44.628,482.783,44.587,482.37,44.522,481.963z
M36.804,482.15l-3.919-3.919c1.113-0.881,2.478-1.362,3.919-1.362c1.441,0,2.806,0.482,3.919,1.363L36.804,482.15z
M40.723,488.175c-1.113,0.881-2.478,1.362-3.919,1.362c-1.441,0-2.806-0.482-3.919-1.362l3.919-3.919L40.723,488.175z
M46.816,482.15l-3.953-3.953l17.28-17.28c1.354,1.119,3.089,1.793,4.978,1.793c0.42,0,0.833-0.042,1.241-0.106L46.816,482.15z
M64.377,461.172c-1.189-0.14-2.276-0.611-3.171-1.317l3.171-3.171V461.172z M65.867,456.683l3.174,3.174
c-0.919,0.727-2.01,1.179-3.174,1.315V456.683z M66.921,455.63h4.488c-0.136,1.164-0.588,2.255-1.315,3.174L66.921,455.63z
M66.92,454.14l3.171-3.171c0.707,0.895,1.177,1.982,1.318,3.171H66.92z M65.867,453.087v-4.489
c1.189,0.14,2.277,0.611,3.171,1.318L65.867,453.087z M64.377,453.087l-3.174-3.174c0.919-0.727,2.01-1.179,3.174-1.315V453.087z
M63.324,454.14h-4.489c0.136-1.164,0.588-2.255,1.315-3.174L63.324,454.14z M63.324,455.63l-3.171,3.171
c-0.707-0.895-1.177-1.982-1.317-3.171H63.324z M57.404,453.645c-0.065,0.407-0.106,0.82-0.106,1.241
c0,1.89,0.673,3.625,1.793,4.978L41.785,477.17c-1.399-1.159-3.141-1.791-4.98-1.791c-0.42,0-0.833,0.042-1.24,0.106
L57.404,453.645z M31.832,479.284l3.174,3.174h-4.489C30.653,481.294,31.105,480.203,31.832,479.284z M30.517,483.948h4.489
l-3.174,3.174C31.105,486.203,30.653,485.112,30.517,483.948z M35.563,490.921c0.407,0.065,0.82,0.106,1.241,0.106
c1.839,0,3.581-0.632,4.98-1.791l17.306,17.306c-1.119,1.354-1.793,3.089-1.793,4.978c0,0.42,0.042,0.833,0.106,1.241
L35.563,490.921z M71.409,510.776H66.92l3.174-3.174C70.821,508.521,71.273,509.612,71.409,510.776z"/>
</g>
<g>
<g>
<path style="fill:#354D69;" d="M308.758,504.496c0.943,0.943,1.525,2.244,1.525,3.682c0,2.876-2.331,5.206-5.206,5.206
c-1.438,0-2.739-0.582-3.682-1.524l-20.827-20.827c-0.942-0.943-1.525-2.244-1.525-3.682s0.583-2.739,1.525-3.682l20.827-20.827
c0.943-0.942,2.244-1.525,3.682-1.525c2.876,0,5.206,2.331,5.206,5.206c0,1.438-0.583,2.74-1.525,3.682l-17.145,17.145
L308.758,504.496z"/>
</g>
<g>
<path style="fill:#354D69;" d="M346.358,463.252l-20.827,52.067c-1.067,2.67-4.098,3.969-6.768,2.901s-3.968-4.098-2.901-6.768
l20.827-52.068c1.068-2.67,4.098-3.968,6.768-2.9C346.127,457.551,347.425,460.582,346.358,463.252z"/>
</g>
<g>
<path style="fill:#354D69;" d="M383.176,487.352c0,1.438-0.583,2.739-1.525,3.681l-20.811,20.811
c-0.003,0.003-0.006,0.008-0.01,0.011c-0.943,0.942-2.244,1.525-3.682,1.525c-2.876,0-5.206-2.331-5.206-5.207
c0-1.437,0.583-2.739,1.525-3.681c0.057-0.056,0.114-0.111,0.173-0.164l16.971-16.978l-17.034-17.034
c-1.008-0.949-1.638-2.296-1.638-3.79c0-2.875,2.331-5.206,5.206-5.206c1.486,0,2.826,0.624,3.775,1.623l20.661,20.66
C382.563,484.548,383.176,485.878,383.176,487.352z"/>
</g>
</g>
<g>
<path style="fill:#FFFFFF;" d="M391.918,528.891H271.396c-1.662,0-3.014-1.352-3.014-3.014v-83.679
c0-1.662,1.352-3.014,3.014-3.014h120.522c1.662,0,3.014,1.352,3.014,3.014v83.679C394.932,527.539,393.58,528.891,391.918,528.891
z M272.107,525.167h119.101v-82.259H272.107V525.167z"/>
</g>
<g>
<rect x="268.382" y="448.807" style="fill:#FFFFFF;" width="124.688" height="1.58"/>
</g>
<g>
<circle style="fill:#354D69;" cx="275.276" cy="445.932" r="1.255"/>
</g>
<g>
<circle style="fill:#354D69;" cx="279.042" cy="445.932" r="1.255"/>
</g>
<g>
<circle style="fill:#354D69;" cx="282.808" cy="445.932" r="1.255"/>
</g>
<path style="fill:#354D69;" d="M172.059,483.203c0-2.157-0.877-4.113-2.294-5.53l0,0l-28.302-28.302
c-1.418-1.426-3.38-2.311-5.545-2.311c-4.314,0-7.825,3.51-7.825,7.825c0,2.169,0.888,4.133,2.318,5.552l22.763,22.763
l-22.665,22.675c-0.038,0.037-0.08,0.069-0.118,0.107c-1.478,1.478-2.291,3.443-2.291,5.533c0,4.314,3.51,7.824,7.824,7.824
c2.09,0,4.055-0.814,5.533-2.292c0.004-0.004,0.007-0.008,0.011-0.012l28.299-28.299
C171.245,487.258,172.059,485.293,172.059,483.203z M169.206,487.122l-3.178-3.178h4.493
C170.386,485.11,169.934,486.202,169.206,487.122z M159.261,479.285l3.17,3.17h-4.484
C158.084,481.292,158.535,480.203,159.261,479.285z M159.262,487.122c-0.728-0.92-1.18-2.012-1.315-3.178h4.493L159.262,487.122z
M169.204,479.287c0.706,0.894,1.176,1.98,1.317,3.167h-4.484L169.204,479.287z M164.234,482.15l-3.919-3.919
c1.113-0.881,2.478-1.363,3.919-1.363c1.479,0,2.838,0.513,3.917,1.366L164.234,482.15z M156.514,484.433l-1.234-1.234l1.235-1.236
c-0.064,0.407-0.106,0.819-0.106,1.239C156.41,483.62,156.451,484.029,156.514,484.433z M164.234,484.257l3.918,3.918
c-1.113,0.88-2.478,1.362-3.919,1.362c-1.44,0-2.805-0.482-3.918-1.362L164.234,484.257z M165.471,475.486
c-0.404-0.065-0.815-0.108-1.237-0.108c-1.84,0-3.581,0.632-4.981,1.791l-17.305-17.305c1.12-1.354,1.794-3.089,1.794-4.98
c0-0.421-0.043-0.832-0.107-1.235L165.471,475.486z M140.887,458.802l-3.171-3.171h4.489
C142.064,456.819,141.594,457.907,140.887,458.802z M140.887,450.97c0.706,0.895,1.177,1.982,1.317,3.171h-4.488L140.887,450.97z
M136.663,453.087v-4.489c1.189,0.14,2.277,0.611,3.171,1.318L136.663,453.087z M135.173,453.088l-3.172-3.172
c0.895-0.707,1.983-1.178,3.172-1.318V453.088z M135.173,461.172c-1.189-0.14-2.276-0.611-3.171-1.317l3.171-3.171V461.172z
M136.663,456.686l3.17,3.17c-0.894,0.706-1.981,1.176-3.17,1.316V456.686z M130.948,450.97l3.171,3.171h-4.488
C129.771,452.952,130.242,451.864,130.948,450.97z M129.631,455.63h4.489l-3.171,3.171
C130.242,457.907,129.771,456.819,129.631,455.63z M134.684,462.603c0.403,0.064,0.813,0.107,1.234,0.107
c1.889,0,3.624-0.673,4.977-1.791l17.28,17.279l-3.947,3.949L134.684,462.603z M154.228,484.253l3.952,3.952l-17.277,17.277
c-1.354-1.119-3.089-1.793-4.978-1.793c-0.416,0-0.826,0.041-1.229,0.105L154.228,484.253z M137.722,512.259h4.489
c-0.136,1.164-0.588,2.255-1.315,3.174L137.722,512.259z M136.669,509.716v-4.489c1.189,0.14,2.277,0.611,3.171,1.318
L136.669,509.716z M135.179,509.716l-3.174-3.174c0.919-0.727,2.01-1.179,3.174-1.315V509.716z M135.179,517.8
c-1.189-0.14-2.276-0.611-3.171-1.317l3.171-3.171V517.8z M136.669,513.312l3.174,3.174c-0.919,0.727-2.01,1.179-3.174,1.314
V513.312z M137.723,510.769l3.171-3.171c0.707,0.895,1.177,1.982,1.317,3.171H137.723z M130.952,507.595l3.174,3.174h-4.488
C129.773,509.605,130.225,508.514,130.952,507.595z M129.637,512.259h4.489l-3.171,3.171
C130.248,514.535,129.778,513.448,129.637,512.259z M143.643,512.753c0.064-0.407,0.106-0.819,0.106-1.239
c0-1.89-0.673-3.625-1.793-4.978l17.298-17.298c1.399,1.159,3.14,1.79,4.98,1.79c0.42,0,0.833-0.042,1.241-0.106L143.643,512.753z"
/>
<g style="opacity:0.5;">
<g>
<path style="fill:#FFFFFF;" d="M44.128,69.515c1.282,1.282,2.074,3.051,2.074,5.006c0,3.91-3.169,7.079-7.079,7.079
c-1.955,0-3.725-0.792-5.006-2.073L5.798,51.21c-1.281-1.282-2.074-3.051-2.074-5.006s0.793-3.725,2.074-5.006l28.318-28.318
c1.282-1.281,3.051-2.074,5.006-2.074c3.91,0,7.079,3.17,7.079,7.079c0,1.955-0.792,3.726-2.074,5.006L20.816,46.203
L44.128,69.515z"/>
<path style="fill:#FFFFFF;" d="M39.122,85.324c-2.885,0-5.598-1.123-7.639-3.163L3.165,53.843C1.124,51.8,0,49.087,0,46.203
c0-2.884,1.124-5.597,3.164-7.639l28.319-28.319c2.043-2.041,4.756-3.164,7.64-3.164c5.957,0,10.803,4.847,10.803,10.803
c0,2.888-1.124,5.601-3.165,7.641L26.084,46.203l20.678,20.678c2.04,2.041,3.164,4.754,3.164,7.64
C49.926,80.478,45.079,85.324,39.122,85.324z M39.122,14.53c-0.896,0-1.739,0.35-2.374,0.984L8.432,43.831
c-0.634,0.634-0.983,1.477-0.983,2.373c0,0.896,0.35,1.739,0.984,2.374l28.316,28.316c0.633,0.633,1.476,0.982,2.373,0.982
c1.85,0,3.355-1.505,3.355-3.355c0-0.897-0.349-1.739-0.983-2.373L15.55,46.203l25.945-25.946
c0.634-0.634,0.983-1.476,0.983-2.373C42.477,16.035,40.972,14.53,39.122,14.53z"/>
</g>
<g>
<path style="fill:#FFFFFF;" d="M95.252,13.435L66.934,84.229c-1.451,3.631-5.572,5.397-9.202,3.944
c-3.63-1.452-5.396-5.572-3.944-9.202L82.106,8.176c1.452-3.63,5.572-5.396,9.202-3.943C94.938,5.684,96.703,9.805,95.252,13.435z
"/>
<path style="fill:#FFFFFF;" d="M60.359,92.407c-1.376,0-2.726-0.261-4.011-0.775c-5.531-2.212-8.231-8.512-6.019-14.043
L78.647,6.793C80.299,2.666,84.237,0,88.68,0c1.376,0,2.726,0.261,4.011,0.775c5.53,2.211,8.231,8.511,6.019,14.042L70.392,85.613
C68.742,89.74,64.803,92.407,60.359,92.407z M88.68,7.449c-1.38,0-2.604,0.829-3.117,2.111L57.245,80.355
c-0.687,1.717,0.152,3.674,1.87,4.361c0.401,0.16,0.819,0.242,1.244,0.242c1.381,0,2.604-0.829,3.117-2.111l28.319-70.795
c0.687-1.717-0.152-3.674-1.869-4.361C89.523,7.53,89.105,7.449,88.68,7.449z"/>
</g>
<g>
<path style="fill:#FFFFFF;" d="M145.314,46.203c0,1.955-0.792,3.725-2.074,5.005l-28.296,28.296
c-0.005,0.005-0.008,0.01-0.013,0.015c-1.282,1.281-3.051,2.074-5.006,2.074c-3.91,0-7.079-3.17-7.079-7.08
c0-1.954,0.792-3.725,2.073-5.005c0.077-0.076,0.155-0.151,0.235-0.224L128.227,46.2l-23.161-23.161
c-1.371-1.291-2.228-3.122-2.228-5.154c0-3.909,3.169-7.079,7.079-7.079c2.021,0,3.842,0.849,5.132,2.206l28.092,28.091
C144.48,42.391,145.314,44.199,145.314,46.203z"/>
<path style="fill:#FFFFFF;" d="M109.924,85.318c-5.957,0-10.803-4.847-10.803-10.805c0-2.886,1.124-5.599,3.164-7.639
c0.104-0.103,0.197-0.192,0.289-0.278L122.961,46.2l-20.492-20.492c-2.132-2.031-3.354-4.879-3.354-7.823
c0-5.957,4.847-10.803,10.804-10.803c2.928,0,5.766,1.212,7.796,3.327l28.041,28.04c2.118,2.055,3.284,4.807,3.284,7.756
c0,2.887-1.124,5.6-3.166,7.64l-28.309,28.311C115.522,84.194,112.809,85.318,109.924,85.318z M109.918,14.53
c-1.85,0-3.355,1.505-3.355,3.355c0,0.933,0.375,1.801,1.057,2.442l0.08,0.078l25.794,25.794l-25.837,25.842
c-0.042,0.039-0.084,0.079-0.124,0.119c-0.614,0.614-0.963,1.457-0.963,2.353c0,1.85,1.505,3.356,3.355,3.356
c0.867,0,1.684-0.327,2.312-0.923l0.074-0.075l28.296-28.296c0.634-0.634,0.983-1.476,0.983-2.372
c0-0.919-0.366-1.777-1.031-2.418l-0.05-0.049l-28.158-28.16C111.708,14.902,110.845,14.53,109.918,14.53z"/>
</g>
</g>
<g style="opacity:0.05;">
<polygon style="fill:#FFFFFF;" points="138.235,88.68 95.758,88.68 53.281,88.68 10.804,88.68 10.804,46.203 10.804,3.726
"/>
</g>
<g>
<path style="fill:#FFFFFF;" d="M62.268,89.261c-18.728-5.364-32.479-22.63-32.479-43.057c0-19.394,12.392-35.944,29.673-42.16
c-0.361-0.373-0.652-0.803-0.871-1.272c-17.664,6.524-30.292,23.53-30.292,43.433c0,19.901,12.627,36.906,30.289,43.431
C59.815,89.494,61.041,89.359,62.268,89.261z"/>
<path style="fill:#FFFFFF;" d="M91.552,3.158c-0.441,0.417-0.978,0.75-1.609,0.967c17.155,6.282,29.431,22.774,29.431,42.078
c0,20.067-13.265,37.095-31.487,42.775c1.397,0.026,2.795,0.045,4.193,0.062c16.868-6.916,28.784-23.507,28.784-42.837
C120.864,26.673,108.698,9.942,91.552,3.158z"/>
</g>
<g>
<path style="fill:#FFFFFF;" d="M74.52,68.188c-12.123,0-21.985-9.863-21.985-21.985s9.863-21.985,21.985-21.985
s21.985,9.863,21.985,21.985S86.642,68.188,74.52,68.188z M74.52,25.708c-11.301,0-20.495,9.194-20.495,20.495
s9.194,20.495,20.495,20.495s20.495-9.194,20.495-20.495S85.821,25.708,74.52,25.708z"/>
</g>
<g>
<rect x="52.536" y="3.726" style="fill:#FFFFFF;" width="1.49" height="84.954"/>
</g>
<g>
<rect x="95.013" y="3.726" style="fill:#FFFFFF;" width="1.49" height="84.954"/>
</g>
<g>
<rect x="10.804" y="45.455" style="fill:#FFFFFF;" width="134.509" height="1.49"/>
</g>
<g>
<path style="fill:#FFFFFF;" d="M137.039,90.729H11.999c-1.788,0-3.244-1.455-3.244-3.244V4.922c0-1.789,1.455-3.244,3.244-3.244
h125.04c1.789,0,3.244,1.455,3.244,3.244v82.563C140.283,89.273,138.828,90.729,137.039,90.729z M12.853,86.632h123.334V5.775
H12.853V86.632z"/>
</g>
<g style="opacity:0.5;">
<polygon style="fill:#FFFFFF;" points="367.07,90.029 326.128,90.029 285.186,90.029 244.244,90.029 244.244,49.087 244.244,4.045
"/>
</g>
<g>
<g>
<rect x="10.059" y="39.123" style="fill:#FFFFFF;" width="1.49" height="14.159"/>
</g>
<g>
<rect x="3.725" y="45.458" style="fill:#FFFFFF;" width="14.159" height="1.49"/>
</g>
<g>
<rect x="10.059" y="39.123" style="fill:#FFFFFF;" width="1.49" height="14.159"/>
</g>
<g>
<rect x="137.489" y="39.123" style="fill:#FFFFFF;" width="1.49" height="14.159"/>
</g>
<path style="fill:#354D69;" d="M95.87,7.723c-0.823-1.921-2.345-3.407-4.286-4.183C90.653,3.168,89.676,2.98,88.68,2.98
c-3.218,0-6.071,1.931-7.267,4.92L53.096,78.695c-0.776,1.941-0.75,4.067,0.073,5.988c0.823,1.921,2.345,3.406,4.286,4.182
c0.931,0.373,1.909,0.562,2.904,0.562c3.219,0,6.071-1.931,7.266-4.92l0,0l0,0l28.318-70.795
C96.719,11.771,96.694,9.644,95.87,7.723z M54.289,83.393c-0.334-1.123-0.348-2.304-0.042-3.435l4.167,1.667L54.289,83.393z
M60.336,79.655l-1.769-4.128c0.573-0.168,1.175-0.262,1.796-0.262c0.556,0,1.105,0.078,1.64,0.223L60.336,79.655z M57.202,76.122
l1.765,4.119l-4.159-1.664C55.373,77.533,56.205,76.696,57.202,76.122z M63.387,76.04c1.03,0.558,1.876,1.383,2.459,2.4
l-4.126,1.768L63.387,76.04z M85.651,16.366c-1.03-0.558-1.875-1.383-2.458-2.399l4.125-1.768L85.651,16.366z M87.933,14.674v2.419
c-0.303-0.036-0.602-0.094-0.898-0.174L87.933,14.674z M89.423,14.433l1.049,2.447c-0.339,0.099-0.691,0.165-1.049,0.206V14.433z
M91.837,16.285l-1.765-4.119l4.16,1.664C93.666,14.873,92.834,15.711,91.837,16.285z M89.423,4.518
c0.303,0.036,0.602,0.094,0.898,0.174l-0.898,2.245V4.518z M87.933,7.175l-1.047-2.444c0.339-0.099,0.69-0.164,1.047-0.206V7.175z
M82.607,12.597c-0.334-1.123-0.348-2.304-0.042-3.435l4.167,1.667L82.607,12.597z M81.487,13.888
c0.724,1.691,1.991,3.043,3.607,3.872L62.562,74.091c-0.715-0.211-1.452-0.317-2.199-0.317c-1.524,0-2.959,0.445-4.181,1.218
l24.914-62.286C81.197,13.106,81.321,13.502,81.487,13.888z M66.433,79.809c0.334,1.123,0.348,2.304,0.042,3.435l-4.167-1.667
L66.433,79.809z M67.552,78.518c-0.724-1.691-1.991-3.043-3.607-3.872l0.669-1.673l21.863-54.659
c0.715,0.211,1.452,0.318,2.199,0.318c1.524,0,2.958-0.445,4.181-1.218L67.943,79.7C67.842,79.3,67.718,78.904,67.552,78.518z
M90.624,10.782l4.126-1.768c0.334,1.123,0.348,2.304,0.042,3.435L90.624,10.782z M94.163,7.644l-4.125,1.768l1.667-4.167
C92.735,5.803,93.58,6.628,94.163,7.644z M85.52,5.326l1.766,4.12l-4.161-1.664C83.691,6.738,84.524,5.9,85.52,5.326z
M54.876,84.762l4.125-1.768l-1.667,4.167C56.304,86.603,55.459,85.778,54.876,84.762z M58.718,87.714l1.666-4.166l1.769,4.127
c-0.573,0.168-1.174,0.262-1.795,0.262C59.802,87.937,59.254,87.859,58.718,87.714z M63.519,87.08l-1.766-4.12l4.16,1.664
C65.347,85.668,64.515,86.506,63.519,87.08z"/>
<path style="fill:#354D69;" d="M21.869,46.203l22.785-22.785c1.478-1.478,2.292-3.443,2.292-5.532c0-4.314-3.51-7.825-7.825-7.825
c-2.09,0-4.055,0.814-5.532,2.292L5.272,40.67c-1.478,1.478-2.292,3.443-2.292,5.533c0,2.09,0.814,4.055,2.292,5.533L33.59,80.054
c1.478,1.478,3.443,2.291,5.532,2.291c4.314,0,7.825-3.51,7.825-7.824c0-2.09-0.814-4.055-2.292-5.533L21.869,46.203z
M38.377,72.723l-3.171-3.171c0.895-0.707,1.982-1.177,3.171-1.317V72.723z M37.324,73.776h-4.489
c0.14-1.189,0.611-2.276,1.318-3.171L37.324,73.776z M37.324,75.266L34.15,78.44c-0.727-0.919-1.179-2.01-1.315-3.174H37.324z
M38.377,76.319v4.488c-1.164-0.136-2.255-0.587-3.174-1.315L38.377,76.319z M39.867,76.319l3.171,3.171
c-0.895,0.707-1.982,1.177-3.171,1.317V76.319z M40.92,75.266h4.489c-0.14,1.189-0.611,2.276-1.318,3.171L40.92,75.266z
M39.867,68.234c1.164,0.136,2.255,0.588,3.174,1.315l-3.174,3.174V68.234z M40.363,66.803c-0.407-0.065-0.82-0.106-1.241-0.106
c-1.89,0-3.625,0.673-4.978,1.793l-17.28-17.28l3.953-3.953L40.363,66.803z M17.091,45.458h-4.488l3.174-3.174
C16.503,43.203,16.955,44.294,17.091,45.458z M17.091,46.948c-0.136,1.164-0.587,2.255-1.314,3.174l-3.174-3.174H17.091z
M18.522,44.963l1.241,1.241l-1.241,1.241c0.065-0.407,0.106-0.82,0.106-1.241S18.587,45.37,18.522,44.963z M10.804,45.15
l-3.919-3.919c1.113-0.881,2.478-1.362,3.919-1.362c1.441,0,2.806,0.482,3.919,1.363L10.804,45.15z M14.723,51.175
c-1.113,0.881-2.478,1.362-3.919,1.362c-1.441,0-2.806-0.482-3.919-1.362l3.919-3.919L14.723,51.175z M20.816,45.15l-3.953-3.953
l17.28-17.28c1.354,1.119,3.089,1.793,4.978,1.793c0.42,0,0.833-0.042,1.241-0.106L20.816,45.15z M38.377,24.172
c-1.189-0.14-2.276-0.611-3.171-1.317l3.171-3.171V24.172z M39.867,19.683l3.174,3.174c-0.919,0.727-2.01,1.179-3.174,1.315V19.683
z M40.921,18.63h4.488c-0.136,1.164-0.588,2.255-1.315,3.174L40.921,18.63z M40.92,17.14l3.171-3.171
c0.707,0.895,1.177,1.982,1.318,3.171H40.92z M39.867,16.087v-4.489c1.189,0.14,2.277,0.611,3.171,1.318L39.867,16.087z
M38.377,16.087l-3.174-3.174c0.919-0.727,2.01-1.179,3.174-1.315V16.087z M37.324,17.14h-4.489
c0.136-1.164,0.588-2.255,1.315-3.174L37.324,17.14z M37.324,18.63l-3.171,3.171c-0.707-0.895-1.177-1.982-1.317-3.171H37.324z
M31.404,16.645c-0.065,0.407-0.106,0.82-0.106,1.241c0,1.89,0.673,3.625,1.793,4.978L15.785,40.17
c-1.399-1.159-3.141-1.791-4.98-1.791c-0.42,0-0.833,0.042-1.24,0.106L31.404,16.645z M5.832,42.284l3.174,3.174H4.517
C4.653,44.294,5.105,43.203,5.832,42.284z M4.517,46.948h4.489l-3.174,3.174C5.105,49.203,4.653,48.112,4.517,46.948z
M9.563,53.921c0.407,0.065,0.82,0.106,1.241,0.106c1.839,0,3.581-0.632,4.98-1.791L33.09,69.543
c-1.119,1.354-1.793,3.089-1.793,4.978c0,0.42,0.042,0.833,0.106,1.241L9.563,53.921z M45.409,73.776H40.92l3.174-3.174
C44.821,71.521,45.273,72.612,45.409,73.776z"/>
</g>
<g>
<g>
<path style="fill:#354D69;" d="M282.758,67.496c0.943,0.943,1.525,2.244,1.525,3.682c0,2.876-2.331,5.206-5.206,5.206
c-1.438,0-2.739-0.583-3.682-1.524l-20.827-20.827c-0.942-0.943-1.525-2.244-1.525-3.682s0.583-2.739,1.525-3.682l20.827-20.827
c0.943-0.942,2.244-1.525,3.682-1.525c2.876,0,5.206,2.331,5.206,5.206c0,1.438-0.583,2.74-1.525,3.682l-17.145,17.145
L282.758,67.496z"/>
</g>
<g>
<path style="fill:#354D69;" d="M320.358,26.252l-20.827,52.067c-1.067,2.67-4.098,3.969-6.768,2.901s-3.968-4.098-2.901-6.768
l20.827-52.068c1.068-2.67,4.098-3.968,6.768-2.9C320.127,20.551,321.425,23.582,320.358,26.252z"/>
</g>
<g>
<path style="fill:#354D69;" d="M357.176,50.352c0,1.438-0.583,2.739-1.525,3.681L334.84,74.844
c-0.003,0.003-0.006,0.008-0.01,0.011c-0.943,0.942-2.244,1.525-3.682,1.525c-2.876,0-5.206-2.331-5.206-5.207
c0-1.437,0.583-2.739,1.525-3.681c0.057-0.056,0.114-0.111,0.173-0.164l16.971-16.978l-17.034-17.034
c-1.008-0.949-1.638-2.296-1.638-3.79c0-2.875,2.331-5.206,5.206-5.206c1.486,0,2.826,0.624,3.775,1.623l20.661,20.66
C356.563,47.548,357.176,48.878,357.176,50.352z"/>
</g>
</g>
<g>
<path style="fill:#FFFFFF;" d="M365.918,91.891H245.396c-1.662,0-3.014-1.352-3.014-3.014V5.197c0-1.662,1.352-3.014,3.014-3.014
h120.522c1.662,0,3.014,1.352,3.014,3.014v83.679C368.932,90.539,367.58,91.891,365.918,91.891z M246.107,88.167h119.101V5.908
H246.107V88.167z"/>
</g>
<g>
<rect x="242.382" y="11.807" style="fill:#FFFFFF;" width="124.688" height="1.58"/>
</g>
<g>
<circle style="fill:#354D69;" cx="249.276" cy="8.932" r="1.255"/>
</g>
<g>
<circle style="fill:#354D69;" cx="253.042" cy="8.932" r="1.255"/>
</g>
<g>
<circle style="fill:#354D69;" cx="256.808" cy="8.932" r="1.255"/>
</g>
<path style="fill:#354D69;" d="M146.059,46.203c0-2.157-0.877-4.113-2.294-5.53l0,0l-28.302-28.302
c-1.418-1.426-3.38-2.311-5.545-2.311c-4.314,0-7.825,3.51-7.825,7.825c0,2.169,0.888,4.133,2.318,5.552L127.174,46.2
l-22.665,22.675c-0.038,0.037-0.08,0.069-0.118,0.107c-1.478,1.478-2.291,3.443-2.291,5.533c0,4.314,3.51,7.824,7.824,7.824
c2.09,0,4.055-0.814,5.533-2.292c0.004-0.004,0.007-0.008,0.011-0.012l28.299-28.299C145.245,50.258,146.059,48.293,146.059,46.203z
M143.206,50.122l-3.178-3.178h4.493C144.386,48.11,143.934,49.202,143.206,50.122z M133.261,42.285l3.17,3.17h-4.484
C132.084,44.292,132.535,43.203,133.261,42.285z M133.262,50.122c-0.728-0.92-1.18-2.012-1.315-3.178h4.493L133.262,50.122z
M143.204,42.287c0.706,0.894,1.176,1.98,1.317,3.167h-4.484L143.204,42.287z M138.234,45.15l-3.919-3.919
c1.113-0.881,2.478-1.363,3.919-1.363c1.479,0,2.838,0.513,3.917,1.366L138.234,45.15z M130.514,47.433l-1.234-1.234l1.235-1.236
c-0.064,0.407-0.106,0.819-0.106,1.239C130.41,46.62,130.451,47.029,130.514,47.433z M138.234,47.257l3.918,3.918
c-1.113,0.88-2.478,1.362-3.919,1.362c-1.44,0-2.805-0.482-3.918-1.362L138.234,47.257z M139.471,38.486
c-0.404-0.065-0.815-0.107-1.237-0.107c-1.84,0-3.581,0.632-4.981,1.791l-17.305-17.305c1.12-1.354,1.794-3.089,1.794-4.98
c0-0.421-0.043-0.832-0.107-1.235L139.471,38.486z M114.887,21.802l-3.171-3.171h4.489
C116.064,19.819,115.594,20.907,114.887,21.802z M114.887,13.97c0.706,0.895,1.177,1.982,1.317,3.171h-4.488L114.887,13.97z
M110.663,16.088v-4.489c1.189,0.14,2.277,0.611,3.171,1.318L110.663,16.088z M109.173,16.088l-3.172-3.172
c0.895-0.707,1.983-1.178,3.172-1.318V16.088z M109.173,24.172c-1.189-0.14-2.276-0.611-3.171-1.317l3.171-3.171V24.172z
M110.663,19.686l3.17,3.17c-0.894,0.706-1.981,1.176-3.17,1.316V19.686z M104.948,13.97l3.171,3.171h-4.488
C103.771,15.952,104.242,14.864,104.948,13.97z M103.631,18.63h4.489l-3.171,3.171C104.242,20.907,103.771,19.819,103.631,18.63z
M108.684,25.603c0.403,0.064,0.813,0.107,1.234,0.107c1.889,0,3.624-0.673,4.977-1.791l17.28,17.279l-3.947,3.949L108.684,25.603z
M128.228,47.253l3.952,3.952l-17.277,17.277c-1.354-1.119-3.089-1.793-4.978-1.793c-0.416,0-0.826,0.041-1.229,0.105
L128.228,47.253z M111.722,75.259h4.489c-0.136,1.164-0.588,2.255-1.315,3.174L111.722,75.259z M110.669,72.716v-4.489
c1.189,0.14,2.277,0.611,3.171,1.318L110.669,72.716z M109.179,72.716l-3.174-3.174c0.919-0.727,2.01-1.179,3.174-1.315V72.716z
M109.179,80.8c-1.189-0.14-2.276-0.611-3.171-1.317l3.171-3.171V80.8z M110.669,76.312l3.174,3.174
c-0.919,0.727-2.01,1.179-3.174,1.314V76.312z M111.723,73.769l3.171-3.171c0.707,0.895,1.177,1.982,1.317,3.171H111.723z
M104.952,70.595l3.174,3.174h-4.488C103.773,72.605,104.225,71.514,104.952,70.595z M103.637,75.259h4.489l-3.171,3.171
C104.248,77.535,103.778,76.448,103.637,75.259z M117.643,75.753c0.064-0.407,0.106-0.819,0.106-1.239
c0-1.89-0.673-3.625-1.793-4.978l17.298-17.298c1.399,1.159,3.14,1.79,4.98,1.79c0.42,0,0.833-0.042,1.241-0.106L117.643,75.753z"/>
</svg>
