<?xml version="1.0" encoding="utf-8"?>
<!-- Generator: Adobe Illustrator 17.1.0, SVG Export Plug-In . SVG Version: 6.00 Build 0)  -->
<!DOCTYPE svg PUBLIC "-//W3C//DTD SVG 1.1//EN" "http://www.w3.org/Graphics/SVG/1.1/DTD/svg11.dtd">
<svg version="1.1" id="Layer_1" xmlns="http://www.w3.org/2000/svg" xmlns:xlink="http://www.w3.org/1999/xlink" x="0px" y="0px"
	 viewBox="0 0 669.3 432.8" enable-background="new 0 0 669.3 432.8" xml:space="preserve">
<g>
	<path fill="#364E69" d="M378.9,351.6c0,5.3-2.7,9.6-8,9.6h-63.8c-5.3,0-8-4.3-8-9.6l0,0c0-5.3,2.7-9.6,8-9.6h63.8
		C376.2,341.9,378.9,346.3,378.9,351.6L378.9,351.6z"/>
</g>
<g>
	<path fill="#364E69" d="M378.9,379.3c0,5.3-2.7,9.6-8,9.6h-63.8c-5.3,0-8-4.3-8-9.6l0,0c0-5.3,2.7-9.6,8-9.6h63.8
		C376.2,369.6,378.9,373.9,378.9,379.3L378.9,379.3z"/>
</g>
<g>
	<path fill="#364E69" d="M378.9,379.3c0,5.3-2.7,9.6-8,9.6h-63.8c-5.3,0-8-4.3-8-9.6l0,0c0-5.3,2.7-9.6,8-9.6h63.8
		C376.2,369.6,378.9,373.9,378.9,379.3L378.9,379.3z"/>
</g>
<g>
	<path fill="#364E69" d="M378.9,379.3c0,5.3-2.7,9.6-8,9.6h-63.8c-5.3,0-8-4.3-8-9.6l0,0c0-5.3,2.7-9.6,8-9.6h63.8
		C376.2,369.6,378.9,373.9,378.9,379.3L378.9,379.3z"/>
</g>
<g>
	<g>
		<path fill="#364E69" d="M315.3,398c-2.7,0-3.9,3.4-1.8,5.1c7,5.5,15.9,8.8,25.5,8.8c9.6,0,18.5-3.3,25.5-8.8
			c2.1-1.7,1-5.1-1.8-5.1H315.3z"/>
	</g>
</g>
<g>
	<path fill="#364E69" d="M374.4,315c-1-0.5-2.2-0.8-3.5-0.8h0h-63.8c-1,0-1.9,0.2-2.7,0.4c-1.4,0.5-2.4,1.3-3.3,2.4
		c-0.8,1.1-1.4,2.4-1.7,3.9c-0.1,0.6-0.2,1.2-0.3,1.9c0,0.3,0,0.7,0,1c0,0.3,0,0.7,0,1c0,0.6,0.1,1.3,0.3,1.9
		c0.3,1.5,0.9,2.9,1.7,3.9c0.8,1.1,1.9,1.9,3.3,2.4c0.8,0.3,1.7,0.4,2.7,0.4h63.8h0c1.3,0,2.5-0.3,3.5-0.8c3-1.5,4.5-4.9,4.5-8.9
		C378.9,319.9,377.4,316.5,374.4,315z"/>
	<path fill="#364E69" d="M339,13c-63.4,0-115.1,51.6-115.1,115c0,24.3,10.1,41.9,22.9,64.2c13.1,23,29.5,51.6,41.9,99.6
		c2.3,8.9,12.2,14.3,20.5,14.3h59.5c8.3,0,18.2-5.3,20.5-14.3c12.4-48,28.8-76.6,41.9-99.6C444,170,454,152.4,454,128.1
		C454,64.6,402.4,13,339,13z M333.1,289.8c-4.4-42-9.8-67.8-14.3-88.8c-3.2-14.9-5.7-26.9-6.9-40.1c7.4,1.3,16.6,2,27.4,2
		c10.8,0,19.9-0.7,27.4-2c-1.2,13.2-3.7,25.2-6.9,40.1c-4.5,21-9.9,46.8-14.3,88.8H333.1z M417,184.2
		c-13.6,23.8-30.6,53.4-43.5,103.5c-0.5,0.8-2.9,2.1-4.7,2.1h-16.7c4.3-41.3,9.7-66.7,14.1-87.4c3.3-15.4,6-28.4,7.2-43
		c6.8-1.9,11.7-4.5,14.5-7.9c2.6-3.1,2.7-6,2.6-7.1c-0.1-8.3-5.1-14.8-11.5-14.8c-6.5,0-10.9,7.5-11.5,15.1h0c0,3.3-0.1,6.4-0.2,9.5
		c-6.5,1.3-15.4,2.2-27.8,2.2c-12.4,0-21.4-0.9-27.8-2.2c-0.1-3-0.2-6.2-0.2-9.5h-0.1c-0.6-7.5-5-15.1-11.5-15.1
		c-6.4,0-11.5,6.5-11.5,14.8c-0.1,1.1,0,3.9,2.6,7.1c2.8,3.4,7.7,6,14.5,7.9c1.1,14.6,3.9,27.6,7.2,43c4.4,20.7,9.8,46.2,14.1,87.4
		h-17.3c-1.8,0-4.2-1.3-4.7-2.1c-13-50.1-29.9-79.7-43.5-103.5c-12-21-20.7-36.1-20.7-56.1c0-54.4,44.3-98.7,98.7-98.7
		c54.4,0,98.7,44.3,98.7,98.7C437.7,148,429,163.2,417,184.2z M383.9,145.1c0,0.3-0.2,1.3-1.5,2.6c-1.3,1.4-3.9,3.2-8.7,4.7
		c0.1-2,0.1-4.1,0.1-6.2h0c0-5.5,3.1-10.1,5-10.1c2.4,0,5,3.5,5,8.5l-0.1,0.1L383.9,145.1z M304.8,152.4c-4.8-1.6-7.4-3.4-8.7-4.7
		c-1.2-1.2-1.4-2.2-1.5-2.6l0-0.5c0-5,2.6-8.5,5-8.5c1.9,0,5,4.6,5,10.1h0C304.7,148.3,304.8,150.4,304.8,152.4z"/>
	<path opacity="0.9" fill="#FFFFFF" d="M383.9,145.1c0,0.3-0.2,1.3-1.5,2.6c-1.3,1.4-3.9,3.2-8.7,4.7c0.1-2,0.1-4.1,0.1-6.2h0
		c0-5.5,3.1-10.1,5-10.1c2.4,0,5,3.5,5,8.5l-0.1,0.1L383.9,145.1z"/>
	<path opacity="0.9" fill="#FFFFFF" d="M304.8,152.4c-4.8-1.6-7.4-3.4-8.7-4.7c-1.2-1.2-1.4-2.2-1.5-2.6l0-0.5c0-5,2.6-8.5,5-8.5
		c1.9,0,5,4.6,5,10.1h0C304.7,148.3,304.8,150.4,304.8,152.4z"/>
	<path opacity="0.9" fill="#FFFFFF" d="M366.7,160.9c-1.2,13.2-3.7,25.2-6.9,40.1c-4.5,21-9.9,46.8-14.3,88.8h-12.4
		c-4.4-42-9.8-67.8-14.3-88.8c-3.2-14.9-5.7-26.9-6.9-40.1c7.4,1.3,16.6,2,27.4,2C350.1,162.9,359.2,162.2,366.7,160.9z"/>
	<path opacity="0.9" fill="#FFFFFF" d="M437.7,128.1c0,20-8.7,35.1-20.7,56.1c-13.6,23.8-30.6,53.4-43.5,103.5
		c-0.5,0.8-2.9,2.1-4.7,2.1h-16.7c4.3-41.3,9.7-66.7,14.1-87.4c3.3-15.4,6-28.4,7.2-43c6.8-1.9,11.7-4.5,14.5-7.9
		c2.6-3.1,2.7-6,2.6-7.1c-0.1-8.3-5.1-14.8-11.5-14.8c-6.5,0-10.9,7.5-11.5,15.1h0c0,3.3-0.1,6.4-0.2,9.5
		c-6.5,1.3-15.4,2.2-27.8,2.2c-12.4,0-21.4-0.9-27.8-2.2c-0.1-3-0.2-6.2-0.2-9.5h-0.1c-0.6-7.5-5-15.1-11.5-15.1
		c-6.4,0-11.5,6.5-11.5,14.8c-0.1,1.1,0,3.9,2.6,7.1c2.8,3.4,7.7,6,14.5,7.9c1.1,14.6,3.9,27.6,7.2,43c4.4,20.7,9.8,46.2,14.1,87.4
		h-17.3c-1.8,0-4.2-1.3-4.7-2.1c-13-50.1-29.9-79.7-43.5-103.5c-12-21-20.7-36.1-20.7-56.1c0-54.4,44.3-98.7,98.7-98.7
		C393.4,29.4,437.7,73.7,437.7,128.1z"/>
</g>
<g>
	<path fill="#364E69" d="M622.1,265.4H498.3v10.4c0,1.2,0.4,2.2,0.9,2.9c-0.5,0.8-0.9,1.7-0.9,2.9c0,0.8,0.2,1.6,0.3,2.6
		c0.2,1.3,0.5,2.8,0.5,4.6v29.5c-0.3,1-0.8,3.2-0.8,5v4.7c0,0.7,0.2,1.3,0.4,1.8c-0.2,0.5-0.4,1.1-0.4,1.8v6.1l0,0.3
		c0.1,0.5,1,5.3,8.5,5.3h106.8c7.4,0,8.4-4.7,8.5-5.3l0.1-0.3v-6.1c0-0.7-0.2-1.3-0.4-1.8c0.2-0.5,0.4-1.1,0.4-1.8v-4.7
		c0-1.8-0.5-4-0.8-5v-29.4c0-1.9,0.3-3.4,0.5-4.6c0.2-0.9,0.3-1.8,0.3-2.6c0-1.2-0.4-2.1-0.9-2.9c0.5-0.8,0.9-1.7,0.9-2.9V265.4z
		 M615.2,336.1c-0.3,0-0.8,0.1-1.6,0.1H506.8c-0.8,0-1.3-0.1-1.6-0.1v-3h110V336.1z M614.5,330.9H505.8c0.1-0.4,0.2-0.9,0.2-1.3
		c0-0.6-0.1-1.1-0.3-1.5h108.9c-0.2,0.4-0.3,0.9-0.3,1.5C614.3,330.1,614.4,330.5,614.5,330.9z M615.2,326h-110v-2.7
		c0-0.9,0.4-2.3,0.6-3.2h108.8c0.3,0.9,0.6,2.3,0.6,3.2V326z M506.4,276.9h107.5c-0.2,0.5-0.4,1.1-0.4,1.7c0,1,0.4,1.8,0.7,2.4H506
		c0.4-0.6,0.8-1.4,0.8-2.4C506.8,277.9,506.6,277.4,506.4,276.9z M614.9,283.1c-0.2,1.4-0.6,3.3-0.6,5.7v29.1H506v-29.1
		c0-2.4-0.3-4.3-0.6-5.7H614.9z M615.2,274.8h-110v-2.4h110V274.8z"/>
	<path opacity="0.9" fill="#FFFFFF" d="M615.2,333.1v3c-0.3,0-0.8,0.1-1.6,0.1H506.8c-0.8,0-1.3-0.1-1.6-0.1v-3H615.2z"/>
	<path opacity="0.9" fill="#FFFFFF" d="M614.3,329.6c0,0.5,0.1,0.9,0.2,1.3H505.8c0.1-0.4,0.2-0.9,0.2-1.3c0-0.6-0.1-1.1-0.3-1.5
		h108.9C614.4,328.5,614.3,329,614.3,329.6z"/>
	<path opacity="0.9" fill="#FFFFFF" d="M615.2,323.3v2.7h-110v-2.7c0-0.9,0.4-2.3,0.6-3.2h108.8
		C614.9,320.9,615.2,322.4,615.2,323.3z"/>
	<rect x="505.2" y="272.4" opacity="0.9" fill="#FFFFFF" width="110" height="2.4"/>
	<path opacity="0.9" fill="#FFFFFF" d="M506,281c0.4-0.6,0.8-1.4,0.8-2.4c0-0.7-0.2-1.2-0.4-1.7h107.5c-0.2,0.5-0.4,1.1-0.4,1.7
		c0,1,0.4,1.8,0.7,2.4H506z"/>
	<path opacity="0.9" fill="#FFFFFF" d="M614.9,283.1c-0.2,1.4-0.6,3.3-0.6,5.7v29.1H506v-29.1c0-2.4-0.3-4.3-0.6-5.7H614.9z"/>
	<path fill="#364E69" d="M623.3,402c1-5.2-4.4-43.4-5.4-49.9c-1.1-6.5-7.5-5.2-7.5-5.2s-99.2-0.1-104-0.1s-6.3,14.7-8.2,29.9
		c-1.9,15.3,0.6,33.3,3.6,34.5c2.9,1.2,8.3,1,13.7-0.4c0.6-0.2,1.6,0.2,1.6-0.3c2.7-60.3,1.7,0.1,2.4,0.3c2.8,0.7,4.9,2.8,8.5,1.4
		c5.2-1.9,5.7,4.4,10.7,2.1c5-2.3,2.9-1.7,10.2-0.6c7.3,1,9,0.4,13.3-1.1c4.4-1.4,8.4,3.8,12.1,1.1c0.5-0.4,1.3-42,1.8-42.2
		c0.4-0.2,0.5,41.1,0.9,41.1c2.2-0.1,3.9,1.9,6.5,2.9c3.6,1.5,4.6,0.4,8.2-1.4c3.6-1.9,7.1,1.1,9.6,0c2.5-1,5.4,0.9,8-1.2
		c2.5-2.1,2.9-1.7,6.5-1.9C619.3,410.8,622.2,407.2,623.3,402z"/>
	<path fill="#364E69" d="M619.8,261.9c0-33,0.3-27.9-20.5-33c-15.4-3.7-29.2-11.3-23.4-48.5c5.9-37.2,9.6-92.8,2.9-129.5
		c-6.7-36.7-18.8-33-18.8-33s-12.1-3.8-18.8,33c-6.7,36.8-2.9,92.3,2.9,129.5c5.9,37.2-7.9,44.7-23.4,48.5c-20.8,5-20.5,0-20.5,33
		h59.8H619.8z"/>
</g>
<g>
	<path fill="#364E69" d="M161,329.7H56.7c-4.9,0-8.9,3.7-8.8,8.3v24.3c0,4.6,4,8.3,8.9,8.3H161c4.9,0,8.9-3.7,8.9-8.3V338
		C169.9,333.4,165.9,329.7,161,329.7z M165,362.4c0,1.9-1.8,3.5-4,3.5H56.7c-2.2,0-4-1.6-4-3.5h0v-24.3c0-1.9,1.8-3.5,4-3.5H161
		c2.2,0,4,1.6,4,3.5V362.4z"/>
	<path opacity="0.9" fill="#FFFFFF" d="M165,338.1v24.3c0,1.9-1.8,3.5-4,3.5H56.7c-2.2,0-4-1.6-4-3.5h0v-24.3c0-1.9,1.8-3.5,4-3.5
		H161C163.3,334.6,165,336.2,165,338.1z"/>
	<path fill="#364E69" d="M161.1,376.9H57.5c0,0,0,8.6,0,20.4c0,11.8,11.4,12.2,11.4,12.2h80.6c0,0,11.4-0.4,11.4-12.2
		C161,385.5,161,376.9,161.1,376.9z"/>
	<path fill="#364E69" d="M157.5,76.5l-32.2-42.7c-0.2-0.4-0.6-0.7-0.9-0.9c-0.1-0.4-0.3-0.8-0.5-1.1L112,16
		c-0.7-0.9-1.7-1.4-2.8-1.4c-1.1,0-2.1,0.5-2.8,1.4L94.6,31.7c-0.3,0.3-0.4,0.8-0.5,1.1c-0.3,0.2-0.7,0.5-0.9,0.9l-32.4,43
		c-0.8,1.1-0.9,2.6-0.2,3.8c1.2,2.1,3.7,5.6,6.6,5.6c0.4,0,0.9,0,1.3-0.2c2.9-1,4.5-3.3,6-5.5c1.7-2.6,3.6-5.4,7.5-5.4
		c0.4,0,0.9,0,1.4,0.1c3.1,0.5,5.6,2.9,8.3,5.4c3.3,3.1,6.7,6.3,11.3,6.3c1.2,0,2.4-0.2,3.6-0.6c5-1.6,7.3-4.6,9.4-7.2
		c1.5-1.8,2.9-3.6,4.9-4.4c1.7-0.7,3.4-0.7,5.5-0.1c0.7,0.2,1.3,0.4,1.9,0.7c3.5,1.5,6.1,4.4,8.5,6.9c3,3.1,5.5,5.9,8.9,5.9
		c2.7,0,6.1-1.8,10-5.3c0.8-0.7,1.4-1.4,1.9-2.2C158.4,79.4,158.4,77.7,157.5,76.5z M152.4,79.4c-4.2,3.7-6.2,4-6.7,4
		c-1.2,0-3.1-1.9-5.4-4.4c-2.6-2.8-5.7-6.1-10.1-8.1c-0.8-0.4-1.6-0.7-2.4-0.9c-1.4-0.4-2.8-0.7-4.1-0.7c-1.6,0-3.2,0.3-4.7,0.9
		c-3.2,1.4-5.1,3.8-6.8,5.9c-1.9,2.4-3.5,4.5-7.1,5.6c-0.8,0.3-1.5,0.4-2.1,0.4c-2.7,0-5.1-2.3-7.9-5c-3-2.8-6.3-6-10.9-6.7
		c-0.8-0.1-1.5-0.2-2.1-0.2c-6.5,0-9.7,4.8-11.6,7.6c-1.3,1.8-2.1,3-3.2,3.5c-0.4-0.3-1.1-1-1.9-2.3l31.4-41.7H122l31.2,41.3
		C152.9,78.9,152.7,79.1,152.4,79.4z"/>
	<path opacity="0.9" fill="#FFFFFF" d="M153.2,78.6c-0.2,0.3-0.5,0.5-0.8,0.8c-4.2,3.7-6.2,4-6.7,4c-1.2,0-3.1-1.9-5.4-4.4
		c-2.6-2.8-5.7-6.1-10.1-8.1c-0.8-0.4-1.6-0.7-2.4-0.9c-1.4-0.4-2.8-0.7-4.1-0.7c-1.6,0-3.2,0.3-4.7,0.9c-3.2,1.4-5.1,3.8-6.8,5.9
		c-1.9,2.4-3.5,4.5-7.1,5.6c-0.8,0.3-1.5,0.4-2.1,0.4c-2.7,0-5.1-2.3-7.9-5c-3-2.8-6.3-6-10.9-6.7c-0.8-0.1-1.5-0.2-2.1-0.2
		c-6.5,0-9.7,4.8-11.6,7.6c-1.3,1.8-2.1,3-3.2,3.5c-0.4-0.3-1.1-1-1.9-2.3l31.4-41.7H122L153.2,78.6z"/>
	<path fill="#364E69" d="M57.9,84.1c-0.3-0.7-1.2-0.8-1.7-0.2l0,0c-0.2,0.2-0.2,0.4-0.2,0.6v238.6h24.9V82.8c0-0.8-0.8-1.2-1.5-0.9
		c-3.5,2-4.6,8.2-10.5,10.2C63.6,93.9,59.8,87.8,57.9,84.1z"/>
	<path fill="#364E69" d="M127.4,82.9v240.3h35.1V84.5c0-0.2-0.1-0.4-0.2-0.6l-0.1-0.2c-0.4-0.6-1.4-0.5-1.7,0.1
		c-0.8,1.3-1.9,2.9-3.7,4.6c-15.7,13.9-19-1.2-27.9-6.5C128,82.5,128.1,82.4,127.4,82.9L127.4,82.9z"/>
</g>
</svg>
