<svg xmlns="http://www.w3.org/2000/svg" viewBox="0 0 29.499 18.355">
<path d="M26.64,2.598h-7.392V0.762h7.392V2.598z M14.328,10.126
c0.477,0.738,0.715,1.636,0.715,2.688c0,1.089-0.269,2.066-0.816,2.929c-0.348,0.571-0.78,1.054-1.298,1.442
c-0.584,0.449-1.276,0.757-2.072,0.922c-0.798,0.165-1.661,0.248-2.591,0.248H0V0h8.864c2.235,0.036,3.819,0.684,4.754,1.955
c0.561,0.78,0.839,1.715,0.839,2.803c0,1.122-0.282,2.02-0.848,2.702c-0.315,0.382-0.781,0.73-1.397,1.044
C13.146,8.846,13.854,9.385,14.328,10.126z M4.233,7.236h3.884c0.798,0,1.444-0.152,1.94-0.455c0.496-0.303,0.744-0.841,0.744-1.614
c0-0.854-0.328-1.421-0.986-1.693C9.25,3.285,8.527,3.187,7.649,3.187H4.233V7.236z M11.176,12.553c0-0.954-0.39-1.613-1.168-1.966
c-0.435-0.201-1.049-0.304-1.835-0.311h-3.94v4.891h3.879c0.796,0,1.413-0.104,1.858-0.322
C10.773,14.445,11.176,13.683,11.176,12.553z M29.382,9.567c0.09,0.6,0.129,1.472,0.113,2.61h-9.572
c0.053,1.322,0.509,2.245,1.374,2.774c0.521,0.332,1.154,0.494,1.895,0.494c0.78,0,1.417-0.198,1.908-0.603
c0.267-0.215,0.503-0.519,0.706-0.902h3.509c-0.092,0.78-0.515,1.572-1.273,2.376c-1.177,1.278-2.826,1.919-4.945,1.919
c-1.75,0-3.293-0.541-4.632-1.618c-1.335-1.081-2.005-2.835-2.005-5.267c0-2.281,0.602-4.026,1.809-5.242
c1.212-1.217,2.776-1.823,4.703-1.823c1.143,0,2.173,0.204,3.091,0.615c0.917,0.411,1.673,1.058,2.27,1.947
C28.873,7.63,29.221,8.535,29.382,9.567z M25.929,9.909c-0.065-0.914-0.37-1.606-0.919-2.078c-0.545-0.474-1.226-0.712-2.038-0.712
c-0.884,0-1.566,0.254-2.051,0.754c-0.488,0.499-0.792,1.177-0.916,2.036H25.929z"/>
</svg>
