<svg xmlns="http://www.w3.org/2000/svg" viewBox="0 0 1035.7 725.5">
<path fill="#354D68" d="M711.2,262.5c2-10.1,5.3-31.4-3.7-43c-7-9-22.6-8.2-34.4-8.8c-29.1-1.4-37.1,18.8-41,28.4
c-0.7,1.7-1.7,4.2-2.4,5.4c-0.4,0-0.9,0.1-1.7,0c-2.1-0.1-3.7-0.2-5-0.4c0.7-2.4,1.7-5.3,2.5-7.5c2.4-6.8,5.1-14.4,5.8-22.6
c1.4-16.4-10.6-25.7-17-30.6c-0.7-0.5-1.6-1.2-2.4-1.8c0.9-1.3,2.4-3.2,4.8-5.8c6.6-6.9,9.8-9.3,12.4-11c0.6,0.9,1.7,2.9,2.6,4.7
c3.6,6.8,2.1,17,10.1,23.2c7.2,5.7,26.9,8.4,45.1,2.8c21.1-6.5,29.2-19.4,32.2-29.1c4-12.6,2-27.1-5.8-43.3
c-5-10.5-10.8-18-11.5-18.8c-5.9-7.6-16.8-8.9-24.4-3c-7.6,5.9-8.9,16.8-3,24.4c6.1,7.9,13.7,23.1,11.5,30.2c-1,3.1-5.6,5.1-9.3,6.2
c-5.8,1.8-6.5,2-13.2-10.5c-5.1-9.4-12.1-22.3-27.5-24.3c-16.8-2.2-32,11.1-44.6,24.4c-7.2,7.6-16.6,19.2-15.5,33.3
c1.1,13.5,11.1,21.3,17,25.9c1,0.7,2.2,1.7,3.2,2.5c-0.7,3.4-2.1,7.4-3.6,11.4c-4.2,11.8-9.4,26.5-0.5,39.6
c9.4,13.8,28.3,14.5,34.5,14.7c26.4,1,34.1-18.1,37.7-27.3c0.8-2.1,2.1-5.3,2.9-6.2c0.3-0.1,1.5-0.4,4.1-0.3
c2.1,0.1,2.7,0.7,3.3,1.4c1.9,2.4,2.6,7.1,2.3,8.8c-0.3,1.5-0.7,2.8-1.1,4.2c-1,3.2-2.3,7.5-1.6,12.7c0.6,4.7,3.1,11.4,11.3,16.4
c0.7,0.6,9.4,8.1,4.6,19.9c-2.4,6.1-5.1,7-5.9,7.3c-2.2,0.8-5.5-8.4-26-20.7l-2.4-1.4c-13.6-8.1-37.7-8.6-57.7-3.4
c-11.8,3.1-16.5,19.3-33.3,15.8c-8.6-1.8-8.6-19.1-5.4-25.5c1.4-2.9,2.8-5.6,4.2-8.2c8.2-15.9,11.8-21.6,11-44.4
c-0.3-9.6-8.4-17.1-18-16.8c-9.6,0.3-17.1,8.4-16.8,18c0.5,13.8-10.8,21.4-18.2,35.7c-1.4,2.7-2.8,5.5-4.4,8.6
c-8.2,16.4-11.1,31.3-8.7,44.1c2.4,12.8,10.1,23.2,21.7,29.4c7.8,4.2,16.9,6.1,25.8,6.1c17.8,0,35.3-7.7,42.9-20.9
c1.6-2.7,4.7-7.4,7.9-8.3c5.8-1.5,17.1,5.3,25.3,10.2l2.5,1.5c23.9,14.2,44.3,18.6,60.6,13c8.5-2.9,20.1-10,27.1-27.3
c10.2-25.5-1-46.4-11.8-57C710.8,264.1,711,263.3,711.2,262.5z"/>
<path fill="#354D68" d="M722.5,393.9c-6.9-17.4-18.6-24.4-27.1-27.3c-16.4-5.5-36.8-1.2-60.6,13l-2.5,1.5
c-8.3,5-19.6,11.7-25.3,10.2c-3.3-0.9-6.4-5.6-7.9-8.3c-7.5-13.2-25.1-20.9-42.9-20.9c-9,0-18,2-25.8,6.1
c-11.6,6.2-19.3,16.6-21.7,29.4c-2.4,12.8,0.5,27.7,8.7,44.1c1.5,3.1,3,5.9,4.4,8.6c7.4,14.3,18.7,22,18.2,35.7
c-0.3,9.6,7.2,17.7,16.8,18c9.6,0.3,17.7-7.2,18-16.8c0.8-22.8-2.8-28.5-11-44.4c-1.3-2.6-2.7-5.3-4.2-8.2
c-3.2-6.4-3.2-23.7,5.4-25.5c16.8-3.5,21.5,12.7,33.3,15.8c19.9,5.2,44.1,4.8,57.7-3.4l2.4-1.4c20.6-12.2,23.8-21.4,26-20.7
c0.9,0.3,3.5,1.2,5.9,7.3c4.7,11.9-3.9,19.3-4.6,19.9c-8.2,5-10.7,11.7-11.3,16.4c-0.7,5.2,0.7,9.5,1.6,12.7
c0.4,1.4,0.8,2.7,1.1,4.2c0.3,1.7-0.4,6.4-2.3,8.8c-0.6,0.7-1.2,1.3-3.3,1.4c-2.6,0.1-3.7-0.2-4.1-0.3c-0.8-1-2.1-4.1-2.9-6.2
c-3.7-9.2-11.3-28.3-37.7-27.3c-6.2,0.2-25.1,0.9-34.5,14.7c-8.9,13.1-3.7,27.8,0.5,39.6c1.4,4,2.9,8.1,3.6,11.4
c-1,0.8-2.2,1.8-3.2,2.5c-6,4.6-16,12.3-17,25.9c-1.1,14.1,8.3,25.8,15.5,33.3c12.6,13.3,27.8,26.6,44.6,24.4
c15.4-2,22.4-14.9,27.5-24.3c6.8-12.5,7.4-12.3,13.2-10.5c3.7,1.1,8.3,3.1,9.3,6.2c2.2,7.1-5.4,22.4-11.5,30.2
c-5.9,7.6-4.6,18.5,3,24.4c7.6,5.9,18.5,4.5,24.4-3c0.6-0.8,6.4-8.4,11.5-18.8c7.8-16.2,9.7-30.7,5.8-43.3
c-3-9.7-11.1-22.6-32.2-29.1c-18.2-5.6-37.9-2.9-45.1,2.8c-7.9,6.2-6.4,16.4-10.1,23.2c-1,1.8-2,3.8-2.6,4.7
c-2.6-1.7-5.8-4.1-12.4-11c-2.4-2.6-3.9-4.5-4.8-5.8c0.8-0.6,1.7-1.3,2.4-1.8c6.4-5,18.4-14.2,17-30.6c-0.7-8.2-3.4-15.8-5.8-22.6
c-0.8-2.2-1.8-5.1-2.5-7.5c1.3-0.2,2.9-0.3,5-0.4c0.8,0,1.4,0,1.7,0c0.7,1.2,1.7,3.6,2.4,5.4c3.9,9.7,11.8,29.8,41,28.4
c11.8-0.6,27.4,0.2,34.4-8.8c9-11.5,5.7-32.9,3.7-43c-0.2-0.8-0.3-1.6-0.5-2.3C721.4,440.3,732.6,419.4,722.5,393.9z"/>
<path fill="#354D68" d="M342.5,133.4H94.5c-6,0-10.8,4.8-10.8,10.8v430.4c0,20.8,16.8,37.6,37.6,37.6h194.5
c20.8,0,37.6-16.8,37.6-37.6V144.3C353.3,138.3,348.5,133.4,342.5,133.4z M121.6,215c0-2.3,1.9-4.2,4.2-4.2h185.9
c2.3,0,4.2,1.9,4.2,4.2v37.5c0,2.3-1.9,4.2-4.2,4.2H125.9c-2.3,0-4.2-1.9-4.2-4.2V215z M182.2,308.7c0,4.8-3.9,8.7-8.7,8.7
c-4.8,0-8.7-3.9-8.7-8.7c0-4.8,3.9-8.7,8.7-8.7C178.3,300,182.2,303.9,182.2,308.7z M127.7,300c4.8,0,8.7,3.9,8.7,8.7
c0,4.8-3.9,8.7-8.7,8.7c-4.8,0-8.7-3.9-8.7-8.7C119,303.9,122.9,300,127.7,300z M127.7,575.8c-8.9,0-16-7.2-16-16s7.2-16,16-16
c8.9,0,16,7.2,16,16S136.6,575.8,127.7,575.8z M127.7,531.2c-8.9,0-16-7.2-16-16c0-8.9,7.2-16,16-16c8.9,0,16,7.2,16,16
C143.8,524.1,136.6,531.2,127.7,531.2z M127.7,484c-8.9,0-16-7.2-16-16s7.2-16,16-16c8.9,0,16,7.2,16,16S136.6,484,127.7,484z
M127.7,437.8c-8.9,0-16-7.2-16-16c0-8.9,7.2-16,16-16c8.9,0,16,7.2,16,16C143.8,430.7,136.6,437.8,127.7,437.8z M127.7,392.9
c-8.9,0-16-7.2-16-16c0-8.9,7.2-16,16-16c8.9,0,16,7.2,16,16C143.8,385.7,136.6,392.9,127.7,392.9z M173.5,575.8
c-8.9,0-16-7.2-16-16s7.2-16,16-16c8.9,0,16,7.2,16,16S182.4,575.8,173.5,575.8z M173.5,531.2c-8.9,0-16-7.2-16-16
c0-8.9,7.2-16,16-16c8.9,0,16,7.2,16,16C189.5,524.1,182.4,531.2,173.5,531.2z M173.5,484c-8.9,0-16-7.2-16-16s7.2-16,16-16
c8.9,0,16,7.2,16,16S182.4,484,173.5,484z M173.5,437.8c-8.9,0-16-7.2-16-16c0-8.9,7.2-16,16-16c8.9,0,16,7.2,16,16
C189.5,430.7,182.4,437.8,173.5,437.8z M173.5,392.9c-8.9,0-16-7.2-16-16c0-8.9,7.2-16,16-16c8.9,0,16,7.2,16,16
C189.5,385.7,182.4,392.9,173.5,392.9z M218.9,575.8c-8.9,0-16-7.2-16-16s7.2-16,16-16c8.9,0,16,7.2,16,16S227.7,575.8,218.9,575.8z
M218.9,531.2c-8.9,0-16-7.2-16-16c0-8.9,7.2-16,16-16c8.9,0,16,7.2,16,16C234.9,524.1,227.7,531.2,218.9,531.2z M218.9,484
c-8.9,0-16-7.2-16-16s7.2-16,16-16c8.9,0,16,7.2,16,16S227.7,484,218.9,484z M218.9,437.8c-8.9,0-16-7.2-16-16c0-8.9,7.2-16,16-16
c8.9,0,16,7.2,16,16C234.9,430.7,227.7,437.8,218.9,437.8z M218.9,392.9c-8.9,0-16-7.2-16-16c0-8.9,7.2-16,16-16c8.9,0,16,7.2,16,16
C234.9,385.7,227.7,392.9,218.9,392.9z M264.3,575.8c-8.9,0-16-7.2-16-16s7.2-16,16-16c8.9,0,16,7.2,16,16S273.2,575.8,264.3,575.8z
M264.3,531.2c-8.9,0-16-7.2-16-16c0-8.9,7.2-16,16-16c8.9,0,16,7.2,16,16C280.4,524.1,273.2,531.2,264.3,531.2z M264.3,484
c-8.9,0-16-7.2-16-16s7.2-16,16-16c8.9,0,16,7.2,16,16S273.2,484,264.3,484z M264.3,437.8c-8.9,0-16-7.2-16-16c0-8.9,7.2-16,16-16
c8.9,0,16,7.2,16,16C280.4,430.7,273.2,437.8,264.3,437.8z M264.3,392.9c-8.9,0-16-7.2-16-16c0-8.9,7.2-16,16-16c8.9,0,16,7.2,16,16
C280.4,385.7,273.2,392.9,264.3,392.9z M311,575.8c-8.9,0-16-7.2-16-16s7.2-16,16-16c8.9,0,16,7.2,16,16S319.9,575.8,311,575.8z
M311,531.2c-8.9,0-16-7.2-16-16c0-8.9,7.2-16,16-16c8.9,0,16,7.2,16,16C327.1,524.1,319.9,531.2,311,531.2z M311,484
c-8.9,0-16-7.2-16-16s7.2-16,16-16c8.9,0,16,7.2,16,16S319.9,484,311,484z M311,437.8c-8.9,0-16-7.2-16-16c0-8.9,7.2-16,16-16
c8.9,0,16,7.2,16,16C327.1,430.7,319.9,437.8,311,437.8z M311,392.9c-8.9,0-16-7.2-16-16c0-8.9,7.2-16,16-16c8.9,0,16,7.2,16,16
C327.1,385.7,319.9,392.9,311,392.9z"/>
<path fill="#354D68" d="M930.9,372.7c-7.8-4.2-16.9-6.1-25.8-6.1c-17.8,0-35.3,7.7-42.9,20.9c-1.6,2.7-4.7,7.4-7.9,8.3
c-5.8,1.5-17.1-5.3-25.3-10.2l-2.5-1.5c-23.9-14.2-44.3-18.6-60.6-13c-8.5,2.9-20.1,10-27.1,27.3c-10.2,25.5,1,46.4,11.8,57
c-0.2,0.7-0.4,1.5-0.5,2.3c-2,10.1-5.3,31.4,3.7,43c7,9,22.6,8.2,34.4,8.8c29.1,1.4,37.1-18.8,41-28.4c0.7-1.7,1.7-4.2,2.4-5.4
c0.4,0,0.9-0.1,1.7,0c2.1,0.1,3.7,0.2,5,0.4c-0.7,2.4-1.7,5.3-2.5,7.5c-2.4,6.8-5.1,14.4-5.8,22.6c-1.4,16.4,10.6,25.7,17,30.6
c0.7,0.5,1.6,1.2,2.4,1.8c-0.9,1.3-2.4,3.2-4.8,5.8c-6.6,6.9-9.8,9.3-12.4,11c-0.6-0.9-1.7-2.9-2.6-4.7c-3.6-6.8-2.1-17-10.1-23.2
c-7.2-5.7-26.9-8.4-45.1-2.8c-21.1,6.5-29.2,19.4-32.2,29.1c-4,12.6-2,27.1,5.8,43.3c5,10.5,10.8,18,11.5,18.8
c5.9,7.6,16.8,8.9,24.4,3s8.9-16.8,3-24.4c-6.1-7.9-13.7-23.1-11.5-30.2c1-3.1,5.6-5.1,9.3-6.2c5.8-1.8,6.5-2,13.2,10.5
c5.1,9.4,12.1,22.3,27.5,24.3c16.8,2.2,32-11.1,44.6-24.4c7.2-7.6,16.6-19.2,15.5-33.3c-1.1-13.5-11.1-21.3-17-25.9
c-1-0.7-2.2-1.7-3.2-2.5c0.7-3.4,2.1-7.4,3.6-11.4c4.2-11.8,9.4-26.5,0.5-39.6c-9.4-13.8-28.3-14.5-34.5-14.7
c-26.4-1-34.1,18.1-37.7,27.3c-0.8,2.1-2.1,5.3-2.9,6.2c-0.3,0.1-1.5,0.4-4.1,0.3c-2.1-0.1-2.7-0.7-3.3-1.4
c-1.9-2.4-2.6-7.1-2.3-8.8c0.3-1.5,0.7-2.8,1.1-4.2c1-3.2,2.3-7.5,1.6-12.7c-0.6-4.7-3.1-11.4-11.3-16.4c-0.7-0.6-9.4-8.1-4.6-19.9
c2.4-6.1,5.1-7,5.9-7.3c2.2-0.8,5.5,8.4,26,20.7l2.4,1.4c13.6,8.1,37.7,8.6,57.7,3.4c11.8-3.1,16.5-19.3,33.3-15.8
c8.6,1.8,8.6,19.1,5.4,25.5c-1.4,2.9-2.8,5.6-4.2,8.2c-8.2,15.9-11.8,21.6-11,44.4c0.3,9.6,8.4,17.1,18,16.8
c9.6-0.3,17.1-8.4,16.8-18c-0.5-13.8,10.8-21.4,18.2-35.7c1.4-2.7,2.8-5.5,4.4-8.6c8.2-16.4,11.1-31.3,8.7-44.1
C950.2,389.3,942.5,378.9,930.9,372.7z"/>
<path fill="#354D68" d="M939.6,269.7c-7.4-14.3-18.7-22-18.2-35.7c0.3-9.6-7.2-17.7-16.8-18c-9.6-0.3-17.7,7.2-18,16.8
c-0.8,22.8,2.8,28.5,11,44.4c1.3,2.6,2.7,5.3,4.2,8.2c3.2,6.4,3.2,23.7-5.4,25.5c-16.8,3.5-21.5-12.7-33.3-15.8
c-19.9-5.2-44.1-4.8-57.7,3.4l-2.4,1.4c-20.6,12.2-23.8,21.4-26,20.7c-0.9-0.3-3.5-1.2-5.9-7.3c-4.7-11.9,3.9-19.3,4.6-19.9
c8.2-5,10.7-11.7,11.3-16.4c0.7-5.2-0.7-9.5-1.6-12.7c-0.4-1.4-0.8-2.7-1.1-4.2c-0.3-1.7,0.4-6.4,2.3-8.8c0.6-0.7,1.2-1.3,3.3-1.4
c2.6-0.1,3.7,0.2,4.1,0.3c0.8,1,2.1,4.1,2.9,6.2c3.7,9.2,11.3,28.3,37.7,27.3c6.2-0.2,25.1-0.9,34.5-14.7
c8.9-13.1,3.7-27.8-0.5-39.6c-1.4-4-2.9-8.1-3.6-11.4c1-0.8,2.2-1.8,3.2-2.5c6-4.6,16-12.3,17-25.9c1.1-14.1-8.3-25.8-15.5-33.3
c-12.6-13.3-27.8-26.6-44.6-24.4c-15.4,2-22.4,14.9-27.5,24.3c-6.8,12.5-7.4,12.3-13.2,10.5c-3.7-1.1-8.3-3.1-9.3-6.2
c-2.2-7.1,5.4-22.4,11.5-30.2c5.9-7.6,4.6-18.5-3-24.4c-7.6-5.9-18.5-4.5-24.4,3c-0.6,0.8-6.4,8.4-11.5,18.8
c-7.8,16.2-9.7,30.7-5.8,43.3c3,9.7,11.1,22.6,32.2,29.1c18.2,5.6,37.9,2.9,45.1-2.8c7.9-6.2,6.4-16.4,10.1-23.2
c1-1.8,2-3.8,2.6-4.7c2.6,1.7,5.8,4.1,12.4,11c2.4,2.6,3.9,4.5,4.8,5.8c-0.8,0.6-1.7,1.3-2.4,1.8c-6.4,5-18.4,14.2-17,30.6
c0.7,8.2,3.4,15.8,5.8,22.6c0.8,2.2,1.8,5.1,2.5,7.5c-1.3,0.2-2.9,0.3-5,0.4c-0.8,0-1.4,0-1.7,0c-0.7-1.2-1.7-3.6-2.4-5.4
c-3.9-9.7-11.8-29.8-41-28.4c-11.8,0.6-27.4-0.2-34.4,8.8c-9,11.5-5.7,32.9-3.7,43c0.2,0.8,0.3,1.6,0.5,2.3
c-10.7,10.6-22,31.5-11.8,57c6.9,17.4,18.6,24.4,27.1,27.3c16.4,5.5,36.8,1.2,60.6-13l2.5-1.5c8.3-5,19.6-11.7,25.3-10.2
c3.3,0.9,6.4,5.6,7.9,8.3c7.5,13.2,25.1,20.9,42.9,20.9c9,0,18-2,25.8-6.1c11.6-6.2,19.3-16.6,21.7-29.4c2.4-12.8-0.5-27.7-8.7-44.1
C942.5,275.2,941,272.4,939.6,269.7z"/>
</svg>
