<svg xmlns="http://www.w3.org/2000/svg" viewBox="75 240 460 308">
<path d="M397.6,344.1c1-5,2.6-15.6-1.8-21.3c-3.5-4.5-11.2-4.1-17-4.4c-14.4-0.7-18.4,9.3-20.3,14.1
	c-0.3,0.8-0.8,2.1-1.2,2.7c-0.2,0-0.4,0-0.8,0c-1,0-1.8-0.1-2.5-0.2c0.3-1.2,0.8-2.6,1.2-3.7c1.2-3.4,2.5-7.1,2.9-11.2
	c0.7-8.1-5.3-12.7-8.4-15.2c-0.3-0.2-0.8-0.6-1.2-0.9c0.4-0.6,1.2-1.6,2.4-2.9c3.3-3.4,4.9-4.6,6.1-5.4c0.3,0.4,0.8,1.4,1.3,2.3
	c1.8,3.4,1,8.4,5,11.5c3.6,2.8,13.3,4.2,22.3,1.4c10.5-3.2,14.5-9.6,16-14.4c2-6.2,1-13.4-2.9-21.4c-2.5-5.2-5.3-8.9-5.7-9.3
	c-2.9-3.8-8.3-4.4-12.1-1.5c-3.8,2.9-4.4,8.3-1.5,12.1c3,3.9,6.8,11.4,5.7,15c-0.5,1.5-2.8,2.5-4.6,3.1c-2.9,0.9-3.2,1-6.5-5.2
	c-2.5-4.7-6-11-13.6-12c-8.3-1.1-15.9,5.5-22.1,12.1c-3.6,3.8-8.2,9.5-7.7,16.5c0.5,6.7,5.5,10.6,8.4,12.8c0.5,0.3,1.1,0.8,1.6,1.2
	c-0.3,1.7-1,3.7-1.8,5.6c-2.1,5.8-4.7,13.1-0.2,19.6c4.7,6.8,14,7.2,17.1,7.3c13.1,0.5,16.9-9,18.7-13.5c0.4-1,1-2.6,1.4-3.1
	c0.1,0,0.7-0.2,2-0.1c1,0,1.3,0.3,1.6,0.7c0.9,1.2,1.3,3.5,1.1,4.4c-0.1,0.7-0.3,1.4-0.5,2.1c-0.5,1.6-1.1,3.7-0.8,6.3
	c0.3,2.3,1.5,5.6,5.6,8.1c0.3,0.3,4.7,4,2.3,9.9c-1.2,3-2.5,3.5-2.9,3.6c-1.1,0.4-2.7-4.2-12.9-10.3l-1.2-0.7
	c-6.7-4-18.7-4.3-28.6-1.7c-5.8,1.5-8.2,9.6-16.5,7.8c-4.3-0.9-4.3-9.5-2.7-12.6c0.7-1.4,1.4-2.8,2.1-4.1c4.1-7.9,5.8-10.7,5.4-22
	c-0.1-4.8-4.2-8.5-8.9-8.3c-4.8,0.1-8.5,4.2-8.3,8.9c0.2,6.8-5.3,10.6-9,17.7c-0.7,1.3-1.4,2.7-2.2,4.3c-4.1,8.1-5.5,15.5-4.3,21.8
	c1.2,6.3,5,11.5,10.7,14.6c3.9,2.1,8.4,3,12.8,3c8.8,0,17.5-3.8,21.3-10.4c0.8-1.3,2.3-3.7,3.9-4.1c2.9-0.7,8.5,2.6,12.5,5.1
	l1.2,0.7c11.8,7,21.9,9.2,30,6.4c4.2-1.4,10-5,13.4-13.5c5.1-12.6-0.5-23-5.8-28.2C397.4,344.9,397.5,344.5,397.6,344.1z"/>
<path d="M403.1,409.2c-3.4-8.6-9.2-12.1-13.4-13.5c-8.1-2.7-18.2-0.6-30,6.4l-1.2,0.7c-4.1,2.5-9.7,5.8-12.5,5.1
	c-1.6-0.4-3.2-2.8-3.9-4.1c-3.7-6.5-12.4-10.4-21.3-10.4c-4.5,0-8.9,1-12.8,3c-5.7,3.1-9.6,8.2-10.7,14.6
	c-1.2,6.3,0.2,13.7,4.3,21.8c0.7,1.5,1.5,2.9,2.2,4.3c3.7,7.1,9.3,10.9,9,17.7c-0.1,4.8,3.6,8.8,8.3,8.9c4.8,0.1,8.8-3.6,8.9-8.3
	c0.4-11.3-1.4-14.1-5.4-22c-0.6-1.3-1.3-2.6-2.1-4.1c-1.6-3.2-1.6-11.7,2.7-12.6c8.3-1.7,10.7,6.3,16.5,7.8
	c9.9,2.6,21.8,2.4,28.6-1.7l1.2-0.7c10.2-6,11.8-10.6,12.9-10.3c0.4,0.1,1.7,0.6,2.9,3.6c2.3,5.9-1.9,9.6-2.3,9.9
	c-4.1,2.5-5.3,5.8-5.6,8.1c-0.3,2.6,0.3,4.7,0.8,6.3c0.2,0.7,0.4,1.3,0.5,2.1c0.1,0.8-0.2,3.2-1.1,4.4c-0.3,0.3-0.6,0.6-1.6,0.7
	c-1.3,0-1.8-0.1-2-0.1c-0.4-0.5-1-2-1.4-3.1c-1.8-4.6-5.6-14-18.7-13.5c-3.1,0.1-12.4,0.4-17.1,7.3c-4.4,6.5-1.8,13.8,0.2,19.6
	c0.7,2,1.4,4,1.8,5.6c-0.5,0.4-1.1,0.9-1.6,1.2c-3,2.3-7.9,6.1-8.4,12.8c-0.5,7,4.1,12.8,7.7,16.5c6.2,6.6,13.8,13.2,22.1,12.1
	c7.6-1,11.1-7.4,13.6-12c3.4-6.2,3.7-6.1,6.5-5.2c1.8,0.5,4.1,1.5,4.6,3.1c1.1,3.5-2.7,11.1-5.7,15c-2.9,3.8-2.3,9.2,1.5,12.1
	c3.8,2.9,9.2,2.2,12.1-1.5c0.3-0.4,3.2-4.2,5.7-9.3c3.9-8,4.8-15.2,2.9-21.4c-1.5-4.8-5.5-11.2-16-14.4c-9-2.8-18.8-1.4-22.3,1.4
	c-3.9,3.1-3.2,8.1-5,11.5c-0.5,0.9-1,1.9-1.3,2.3c-1.3-0.8-2.9-2-6.1-5.4c-1.2-1.3-1.9-2.2-2.4-2.9c0.4-0.3,0.8-0.6,1.2-0.9
	c3.2-2.5,9.1-7,8.4-15.2c-0.3-4.1-1.7-7.8-2.9-11.2c-0.4-1.1-0.9-2.5-1.2-3.7c0.6-0.1,1.4-0.1,2.5-0.2c0.4,0,0.7,0,0.8,0
	c0.3,0.6,0.8,1.8,1.2,2.7c1.9,4.8,5.8,14.8,20.3,14.1c5.8-0.3,13.6,0.1,17-4.4c4.5-5.7,2.8-16.3,1.8-21.3c-0.1-0.4-0.1-0.8-0.2-1.1
	C402.6,432.2,408.2,421.8,403.1,409.2z"/>
<path d="M235,269.2H100.1c-3.3,0-5.9,2.6-5.9,5.9v234c0,11.3,9.1,20.4,20.4,20.4h105.8c11.3,0,20.4-9.1,20.4-20.4
	v-234C240.9,271.9,238.2,269.2,235,269.2z M114.9,313.6c0-1.3,1-2.3,2.3-2.3h101.1c1.3,0,2.3,1,2.3,2.3V334c0,1.3-1,2.3-2.3,2.3
	h-101c-1.3,0-2.3-1-2.3-2.3L114.9,313.6L114.9,313.6z M147.8,364.5c0,2.6-2.1,4.7-4.7,4.7c-2.6,0-4.7-2.1-4.7-4.7
	c0-2.6,2.1-4.7,4.7-4.7C145.7,359.8,147.8,361.9,147.8,364.5z M118.2,359.8c2.6,0,4.7,2.1,4.7,4.7s-2.1,4.7-4.7,4.7
	c-2.6,0-4.7-2.1-4.7-4.7S115.6,359.8,118.2,359.8z M118.2,509.8c-4.8,0-8.7-3.9-8.7-8.7c0-4.8,3.9-8.7,8.7-8.7
	c4.8,0,8.7,3.9,8.7,8.7C126.9,505.8,123,509.8,118.2,509.8z M118.2,485.5c-4.8,0-8.7-3.9-8.7-8.7c0-4.8,3.9-8.7,8.7-8.7
	c4.8,0,8.7,3.9,8.7,8.7C126.9,481.6,123,485.5,118.2,485.5z M118.2,459.8c-4.8,0-8.7-3.9-8.7-8.7c0-4.8,3.9-8.7,8.7-8.7
	c4.8,0,8.7,3.9,8.7,8.7C126.9,455.9,123,459.8,118.2,459.8z M118.2,434.7c-4.8,0-8.7-3.9-8.7-8.7c0-4.8,3.9-8.7,8.7-8.7
	c4.8,0,8.7,3.9,8.7,8.7C126.9,430.9,123,434.7,118.2,434.7z M118.2,410.3c-4.8,0-8.7-3.9-8.7-8.7c0-4.8,3.9-8.7,8.7-8.7
	c4.8,0,8.7,3.9,8.7,8.7C126.9,406.4,123,410.3,118.2,410.3z M143.1,509.8c-4.8,0-8.7-3.9-8.7-8.7c0-4.8,3.9-8.7,8.7-8.7
	c4.8,0,8.7,3.9,8.7,8.7C151.8,505.8,147.9,509.8,143.1,509.8z M143.1,485.5c-4.8,0-8.7-3.9-8.7-8.7c0-4.8,3.9-8.7,8.7-8.7
	c4.8,0,8.7,3.9,8.7,8.7C151.8,481.6,147.9,485.5,143.1,485.5z M143.1,459.8c-4.8,0-8.7-3.9-8.7-8.7c0-4.8,3.9-8.7,8.7-8.7
	c4.8,0,8.7,3.9,8.7,8.7C151.8,455.9,147.9,459.8,143.1,459.8z M143.1,434.7c-4.8,0-8.7-3.9-8.7-8.7c0-4.8,3.9-8.7,8.7-8.7
	c4.8,0,8.7,3.9,8.7,8.7C151.8,430.9,147.9,434.7,143.1,434.7z M143.1,410.3c-4.8,0-8.7-3.9-8.7-8.7c0-4.8,3.9-8.7,8.7-8.7
	c4.8,0,8.7,3.9,8.7,8.7S147.9,410.3,143.1,410.3z M167.8,509.8c-4.8,0-8.7-3.9-8.7-8.7c0-4.8,3.9-8.7,8.7-8.7c4.8,0,8.7,3.9,8.7,8.7
	C176.5,505.8,172.6,509.8,167.8,509.8z M167.8,485.5c-4.8,0-8.7-3.9-8.7-8.7c0-4.8,3.9-8.7,8.7-8.7c4.8,0,8.7,3.9,8.7,8.7
	C176.5,481.6,172.6,485.5,167.8,485.5z M167.8,459.8c-4.8,0-8.7-3.9-8.7-8.7c0-4.8,3.9-8.7,8.7-8.7c4.8,0,8.7,3.9,8.7,8.7
	C176.5,455.9,172.6,459.8,167.8,459.8z M167.8,434.7c-4.8,0-8.7-3.9-8.7-8.7c0-4.8,3.9-8.7,8.7-8.7c4.8,0,8.7,3.9,8.7,8.7
	C176.5,430.9,172.6,434.7,167.8,434.7z M167.8,410.3c-4.8,0-8.7-3.9-8.7-8.7c0-4.8,3.9-8.7,8.7-8.7c4.8,0,8.7,3.9,8.7,8.7
	S172.6,410.3,167.8,410.3z M192.5,509.8c-4.8,0-8.7-3.9-8.7-8.7c0-4.8,3.9-8.7,8.7-8.7c4.8,0,8.7,3.9,8.7,8.7
	C201.2,505.8,197.3,509.8,192.5,509.8z M192.5,485.5c-4.8,0-8.7-3.9-8.7-8.7c0-4.8,3.9-8.7,8.7-8.7c4.8,0,8.7,3.9,8.7,8.7
	C201.2,481.6,197.3,485.5,192.5,485.5z M192.5,459.8c-4.8,0-8.7-3.9-8.7-8.7c0-4.8,3.9-8.7,8.7-8.7c4.8,0,8.7,3.9,8.7,8.7
	C201.2,455.9,197.3,459.8,192.5,459.8z M192.5,434.7c-4.8,0-8.7-3.9-8.7-8.7c0-4.8,3.9-8.7,8.7-8.7c4.8,0,8.7,3.9,8.7,8.7
	C201.2,430.9,197.3,434.7,192.5,434.7z M192.5,410.3c-4.8,0-8.7-3.9-8.7-8.7c0-4.8,3.9-8.7,8.7-8.7c4.8,0,8.7,3.9,8.7,8.7
	C201.2,406.4,197.3,410.3,192.5,410.3z M217.9,509.8c-4.8,0-8.7-3.9-8.7-8.7c0-4.8,3.9-8.7,8.7-8.7c4.8,0,8.7,3.9,8.7,8.7
	C226.6,505.8,222.7,509.8,217.9,509.8z M217.9,485.5c-4.8,0-8.7-3.9-8.7-8.7c0-4.8,3.9-8.7,8.7-8.7c4.8,0,8.7,3.9,8.7,8.7
	C226.6,481.6,222.7,485.5,217.9,485.5z M217.9,459.8c-4.8,0-8.7-3.9-8.7-8.7c0-4.8,3.9-8.7,8.7-8.7c4.8,0,8.7,3.9,8.7,8.7
	C226.6,455.9,222.7,459.8,217.9,459.8z M217.9,434.7c-4.8,0-8.7-3.9-8.7-8.7c0-4.8,3.9-8.7,8.7-8.7c4.8,0,8.7,3.9,8.7,8.7
	C226.6,430.9,222.7,434.7,217.9,434.7z M217.9,410.3c-4.8,0-8.7-3.9-8.7-8.7c0-4.8,3.9-8.7,8.7-8.7c4.8,0,8.7,3.9,8.7,8.7
	C226.6,406.4,222.7,410.3,217.9,410.3z"/>
<path d="M506.4,398.7c-3.9-2.1-8.4-3-12.8-3c-8.8,0-17.5,3.8-21.3,10.4c-0.8,1.3-2.3,3.7-3.9,4.1
	c-2.9,0.7-8.5-2.6-12.5-5.1l-1.2-0.7c-11.8-7-21.9-9.2-30-6.4c-4.2,1.4-10,5-13.4,13.5c-5.1,12.6,0.5,23,5.8,28.2
	c-0.1,0.3-0.2,0.7-0.2,1.1c-1,5-2.6,15.6,1.8,21.3c3.5,4.5,11.2,4.1,17,4.4c14.4,0.7,18.4-9.3,20.3-14.1c0.3-0.8,0.8-2.1,1.2-2.7
	c0.2,0,0.4,0,0.8,0c1,0,1.8,0.1,2.5,0.2c-0.3,1.2-0.8,2.6-1.2,3.7c-1.2,3.4-2.5,7.1-2.9,11.2c-0.7,8.1,5.3,12.7,8.4,15.2
	c0.3,0.2,0.8,0.6,1.2,0.9c-0.4,0.6-1.2,1.6-2.4,2.9c-3.3,3.4-4.9,4.6-6.1,5.4c-0.3-0.4-0.8-1.4-1.3-2.3c-1.8-3.4-1-8.4-5-11.5
	c-3.6-2.8-13.3-4.2-22.3-1.4c-10.5,3.2-14.5,9.6-16,14.4c-2,6.2-1,13.4,2.9,21.4c2.5,5.2,5.3,8.9,5.7,9.3c2.9,3.8,8.3,4.4,12.1,1.5
	c3.8-2.9,4.4-8.3,1.5-12.1c-3-3.9-6.8-11.4-5.7-15c0.5-1.5,2.8-2.5,4.6-3.1c2.9-0.9,3.2-1,6.5,5.2c2.5,4.7,6,11,13.6,12
	c8.3,1.1,15.9-5.5,22.1-12.1c3.6-3.8,8.2-9.5,7.7-16.5c-0.5-6.7-5.5-10.6-8.4-12.8c-0.5-0.3-1.1-0.8-1.6-1.2c0.3-1.7,1-3.7,1.8-5.6
	c2.1-5.8,4.7-13.1,0.2-19.6c-4.7-6.8-14-7.2-17.1-7.3c-13.1-0.5-16.9,9-18.7,13.5c-0.4,1-1,2.6-1.4,3.1c-0.1,0-0.7,0.2-2,0.1
	c-1,0-1.3-0.3-1.6-0.7c-0.9-1.2-1.3-3.5-1.1-4.4c0.1-0.7,0.3-1.4,0.5-2.1c0.5-1.6,1.1-3.7,0.8-6.3c-0.3-2.3-1.5-5.6-5.6-8.1
	c-0.3-0.3-4.7-4-2.3-9.9c1.2-3,2.5-3.5,2.9-3.6c1.1-0.4,2.7,4.2,12.9,10.3l1.2,0.7c6.7,4,18.7,4.3,28.6,1.7
	c5.8-1.5,8.2-9.6,16.5-7.8c4.3,0.9,4.3,9.5,2.7,12.6c-0.7,1.4-1.4,2.8-2.1,4.1c-4.1,7.9-5.8,10.7-5.4,22c0.1,4.8,4.2,8.5,8.9,8.3
	s8.5-4.2,8.3-8.9c-0.2-6.8,5.3-10.6,9-17.7c0.7-1.3,1.4-2.7,2.2-4.3c4.1-8.1,5.5-15.5,4.3-21.8C515.9,406.9,512.1,401.8,506.4,398.7
	z"/>
<path d="M510.7,347.7c-3.7-7.1-9.3-10.9-9-17.7c0.1-4.8-3.6-8.8-8.3-8.9c-4.8-0.1-8.8,3.6-8.9,8.3
	c-0.4,11.3,1.4,14.1,5.4,22c0.6,1.3,1.3,2.6,2.1,4.1c1.6,3.2,1.6,11.7-2.7,12.6c-8.3,1.7-10.7-6.3-16.5-7.8
	c-9.9-2.6-21.8-2.4-28.6,1.7l-1.2,0.7c-10.2,6-11.8,10.6-12.9,10.3c-0.4-0.1-1.7-0.6-2.9-3.6c-2.3-5.9,1.9-9.6,2.3-9.9
	c4.1-2.5,5.3-5.8,5.6-8.1c0.3-2.6-0.3-4.7-0.8-6.3c-0.2-0.7-0.4-1.3-0.5-2.1c-0.1-0.8,0.2-3.2,1.1-4.4c0.3-0.3,0.6-0.6,1.6-0.7
	c1.3,0,1.8,0.1,2,0.1c0.4,0.5,1,2,1.4,3.1c1.8,4.6,5.6,14,18.7,13.5c3.1-0.1,12.4-0.4,17.1-7.3c4.4-6.5,1.8-13.8-0.2-19.6
	c-0.7-2-1.4-4-1.8-5.6c0.5-0.4,1.1-0.9,1.6-1.2c3-2.3,7.9-6.1,8.4-12.8c0.5-7-4.1-12.8-7.7-16.5c-6.2-6.6-13.8-13.2-22.1-12.1
	c-7.6,1-11.1,7.4-13.6,12c-3.4,6.2-3.7,6.1-6.5,5.2c-1.8-0.5-4.1-1.5-4.6-3.1c-1.1-3.5,2.7-11.1,5.7-15c2.9-3.8,2.3-9.2-1.5-12.1
	c-3.8-2.9-9.2-2.2-12.1,1.5c-0.3,0.4-3.2,4.2-5.7,9.3c-3.9,8-4.8,15.2-2.9,21.4c1.5,4.8,5.5,11.2,16,14.4c9,2.8,18.8,1.4,22.3-1.4
	c3.9-3.1,3.2-8.1,5-11.5c0.5-0.9,1-1.9,1.3-2.3c1.3,0.8,2.9,2,6.1,5.4c1.2,1.3,1.9,2.2,2.4,2.9c-0.4,0.3-0.8,0.6-1.2,0.9
	c-3.2,2.5-9.1,7-8.4,15.2c0.3,4.1,1.7,7.8,2.9,11.2c0.4,1.1,0.9,2.5,1.2,3.7c-0.6,0.1-1.4,0.1-2.5,0.2c-0.4,0-0.7,0-0.8,0
	c-0.3-0.6-0.8-1.8-1.2-2.7c-1.9-4.8-5.8-14.8-20.3-14.1c-5.8,0.3-13.6-0.1-17,4.4c-4.5,5.7-2.8,16.3-1.8,21.3
	c0.1,0.4,0.1,0.8,0.2,1.1c-5.3,5.3-10.9,15.6-5.8,28.2c3.4,8.6,9.2,12.1,13.4,13.5c8.1,2.7,18.2,0.6,30-6.4l1.2-0.7
	c4.1-2.5,9.7-5.8,12.5-5.1c1.6,0.4,3.2,2.8,3.9,4.1c3.7,6.5,12.4,10.4,21.3,10.4c4.5,0,8.9-1,12.8-3c5.7-3.1,9.6-8.2,10.7-14.6
	c1.2-6.3-0.2-13.7-4.3-21.8C512.1,350.4,511.4,349,510.7,347.7z"/>
</svg>
