<svg xmlns="http://www.w3.org/2000/svg" viewBox="76 241 460 308">
<g>
	<path d="M526.4,318.1c-11.7-21.1-28.5-36-31.7-38.8c-0.4-0.2-0.6-0.6-0.9-0.7c-17.1-12.7-37.8-12.7-54.2-12.7
		c-3.4,0-4.5,2.4-5,3.7c-0.7,1.7-1.7,3.9-7.1,6.2c-1.5,0.6-2.2,0.7-2.8,0.7l0,0c0,0-0.2-0.2-0.6-1.3c-1.3-3.9-4.1-5.2-6.2-5.2h-22.7
		c-3.4,0-4.8,0.9-6,2.6c0,0-0.2,0.2,0,0.2c-3.9,2.6-3.9,9.5-3.9,18.3v1.3v1.3c0,8.8,0,15.7,3.7,18.1l0.2,0.2c1.1,1.5,2.6,2.6,6,2.6
		h22.7c3.2,0,6.3-3.2,6.5-5.6c0.2-1.3,0.6-1.3,0.7-1.3c3.2,0,10.8,6.7,10.8,18.8v45.8h-0.6c-1.9,0-3.4,1.5-3.4,3.4v120
		c0,6.5,3.4,12.5,9.1,16c1.7,1.1,3.7,1.9,5.6,2.2c4.3,0.9,8.6,0.2,12.3-1.7c5.8-3,9.5-9.1,10.1-15.7v-0.9l0,0v-120
		c0-1.9-1.5-3.4-3.4-3.4h-0.9v-46.6c0-16,3.7-21.8,6.9-24c1.1-0.7,2.6-1.1,4.3-1.1c13.2,0,36.7,21.1,39.7,24.4
		c2.2,2.4,5.8,2.2,9.3-0.7C527.3,322.2,527.3,319.8,526.4,318.1z M519.9,320.7c-1.9-1.9-27.2-25.9-43.6-25.9c-2.8,0-5.4,0.7-7.5,2.1
		c-6.3,4.1-9.5,13.8-9.5,28.7v46.6h-17.9v-45.8c0-14.9-9.7-24.4-16.4-24.4c-3.4,0-6,2.4-6.3,6.2c-0.2,0.4-0.7,0.7-0.9,0.9H395
		c-0.9,0-1.3-0.2-1.3-0.2l-0.2-0.2c-0.4-0.4-0.7-0.9-1.5-1.5c-1.5-0.9-1.3-8.8-1.3-13.6v-1.3v-1.3c0-4.7,0-12.5,1.3-13.6
		c0.7-0.6,1.1-1.1,1.5-1.5c0,0,0.2-0.2,0-0.2c0,0,0.4-0.2,1.5-0.2h22.7c0.2,0,0.6,0.4,0.9,1.5c1.1,3.4,3.2,5.2,6.2,5.2
		c1.3,0,2.8-0.4,4.8-1.1c7.1-2.8,8.9-6.2,10.3-9.1c0-0.2,0.2-0.2,0.2-0.4c16.4,0,35,0,50.7,11.6c0.2,0.2,0.4,0.4,0.6,0.6
		c3,2.6,18.8,16.6,30,36.5C520.4,320.5,520.1,320.7,519.9,320.7z"/>
	<path d="M123.4,274c-2.1-1.1-4.5-1.9-6.9-2.2c-5.4-0.9-10.6-0.2-15.3,1.7c-7.3,3-11.7,9.1-12.3,15.7l-0.2,0.9l0,0
		v87.2c0,1.9,1.9,3.4,4.1,3.4H98c0,0.9,0,1.9,0,2.8c0,2.8,0.4,3.9,1.1,5.4c0.9,2.1,2.2,5.4,3,24.4v27.4c0,25.3-6.5,47.5-6.5,47.7
		l-0.2,0.7l8.9,30.6h14.9l8.9-30.6l-0.2-0.7c0-0.2-6.5-22.2-6.5-47.7v-27.2c0.6-19,2.1-22.4,3-24.4c0.6-1.5,1.1-2.6,1.1-5.4
		c0-0.9,0-1.9,0-2.8h5.2c2.2,0,4.1-1.5,4.1-3.4v-87.2C134.7,283.5,130.6,277.5,123.4,274z M122.3,489l-7.3,25h-6.5l-7.3-25
		c1.3-4.3,6.5-24.8,6.5-48.5v-27.4c-0.7-20.1-2.4-24-3.4-26.5c-0.4-0.9-0.6-1.5-0.6-3.2c0-0.9,0-1.9,0-2.8h16c0,0.9,0,1.9,0,2.8
		c0,1.9-0.2,2.2-0.6,3.2c-1.1,2.6-2.8,6.3-3.4,26.7v27.4C115.5,464.4,121,484.7,122.3,489z"/>
	<path d="M275.5,348.9c0,0.2,0,0.2,0,0.4c0.2,1.9,0.9,3.5,2.4,4.7c1.1,0.9,2.6,1.5,4.1,1.5c1.7,0,3-0.6,4.1-1.5
		c1.3-1.1,2.2-2.8,2.4-4.7c0-0.2,0-0.2,0-0.4c0-3.5-3-6.5-6.5-6.5C278.5,342.4,275.5,345.1,275.5,348.9z"/>
	<path d="M274.8,353.2c-0.6-1.1-0.9-2.4-0.9-3.7c0-0.2,0-0.4,0-0.6c-7.5-3.2-12.9-10.6-12.9-19.4
		c0-11.6,9.5-21.1,21.1-21.1s21.1,9.5,21.1,21.1c0,8.8-5.2,16.2-12.9,19.4c0,0.2,0,0.4,0,0.6c0,1.3-0.4,2.6-0.9,3.7
		c10.1-3.2,17.3-12.5,17.3-23.7c0-13.6-11.2-24.8-24.8-24.8s-24.8,11.2-24.8,24.8C257.5,340.7,264.7,350,274.8,353.2z"/>
	<path d="M282.3,303c5,0,5.6-0.9,5.6-0.9V270c0,0-1.7-1.1-5.6-1.1c-3.9,0-5.6,1.1-5.6,1.1v31.9
		C276.7,301.9,277.2,303,282.3,303z"/>
	<path d="M286.4,390.8v-10.4c0-2.2-1.9-4.1-4.1-4.1c-2.2,0-4.1,1.9-4.1,4.1v10.4h-4.1c-0.2,1.3-0.4,2.4-0.6,3.7h4.5
		V405c0,2.2,1.9,4.1,4.1,4.1s4.1-1.9,4.1-4.1v-10.4h5c-0.2-1.3-0.4-2.4-0.6-3.7H286.4z"/>
	<path d="M329.8,390.1l-0.6,0.7h-18.6c-2.6-15.5-4.8-28.1-5.8-33.5c-0.4-1.7-1.9-2.8-6.3-0.6
		c-4.5,2.2-3.7,3.9-3.7,4.3c1.7,10.3,23.7,140.9,23.7,146.5c0,5.8,3.7,2.1,4.1,1.9c0.4-0.2,4.1-3,4.7-6.2c0-0.2,0-0.4,0.2-0.7
		c-3.9,0-7.1-3.2-7.1-7.3c0-3.9,3.2-7.3,7.3-7.3l0,0c-0.2-1.5-9.5-54.8-16.2-93.7h18.1l0.6,0.7l11.6-0.7h0.6v-3.7h-0.6L329.8,390.1z
		"/>
	<path d="M268.8,356.7c-4.5-2.2-6-1.1-6.3,0.6c-0.9,5.4-3.2,18.1-5.8,33.5h-21.2l-0.6-0.7l-11.7,0.7h-0.6v3.7h0.6
		l11.6,0.7l0.6-0.7H256c-6.7,39-16,92.3-16.2,93.7l0,0c3.9,0,7.3,3.2,7.3,7.3c0,3.9-3.2,7.3-7.1,7.3c0,0.2,0,0.6,0.2,0.7
		c0.6,3,4.3,6,4.7,6.2c0.4,0.2,4.1,3.9,4.1-1.9c0-5.6,22-136.2,23.7-146.5C272.6,360.6,273.3,358.9,268.8,356.7z"/>
	<path d="M245.9,495.4c0-3.4-2.6-6-6-6h-0.2c-3.2,0.2-5.8,2.8-5.8,6c0,3.2,2.6,6,5.8,6h0.2
		C243.3,501.3,245.9,498.7,245.9,495.4z"/>
	<path d="M243.7,522l2.1-9.7c0,0-1.7-0.9-2.4-1.7C242.7,510.1,243.7,522,243.7,522z"/>
	<path d="M327.7,489.6h-0.2c-3.4,0-6,2.6-6,6s2.6,6,6,6h0.2c3.2,0,5.8-2.8,5.8-6
		C333.5,492.2,330.9,489.6,327.7,489.6z"/>
	<path d="M324,510.8c-0.7,0.6-2.4,1.7-2.4,1.7l2.1,9.7C323.8,522,324.7,510.1,324,510.8z"/>
</g>
</svg>
