<svg xmlns="http://www.w3.org/2000/svg" viewBox="0 0 337 235.4">
<g>
<path fill="#354D68" d="M318.3,76.2c-6.3-11.3-15.3-19.3-17-20.8c-0.2-0.1-0.3-0.3-0.5-0.4c-9.2-6.8-20.3-6.8-29.1-6.8
c-1.8,0-2.4,1.3-2.7,2c-0.4,0.9-0.9,2.1-3.8,3.3c-0.8,0.3-1.2,0.4-1.5,0.4c0,0,0,0,0,0c0,0-0.1-0.1-0.3-0.7
c-0.7-2.1-2.2-2.8-3.3-2.8l-12.2,0c-1.8,0-2.6,0.5-3.2,1.4c0,0-0.1,0.1,0,0.1c-2.1,1.4-2.1,5.1-2.1,9.8l0,0.7l0,0.7
c0,4.7,0,8.4,2,9.7c0,0,0.1,0.1,0.1,0.1c0.6,0.8,1.4,1.4,3.2,1.4h12.2c1.7,0,3.4-1.7,3.5-3c0.1-0.7,0.3-0.7,0.4-0.7
c1.7,0,5.8,3.6,5.8,10.1v24.6l-0.3,0c-1,0-1.8,0.8-1.8,1.8l0,64.4c0,3.5,1.8,6.7,4.9,8.6c0.9,0.6,2,1,3,1.2
c2.3,0.5,4.6,0.1,6.6-0.9c3.1-1.6,5.1-4.9,5.4-8.4l0-0.5l0,0l0-64.4c0-1-0.8-1.8-1.8-1.8l-0.5,0v-25c0-8.6,2-11.7,3.7-12.9
c0.6-0.4,1.4-0.6,2.3-0.6c7.1,0,19.7,11.3,21.3,13.1c1.2,1.3,3.1,1.2,5-0.4C318.8,78.4,318.8,77.1,318.3,76.2z M314.8,77.6
c-1-1-14.6-13.9-23.4-13.9c-1.5,0-2.9,0.4-4,1.1c-3.4,2.2-5.1,7.4-5.1,15.4v25l-9.6,0V80.6c0-8-5.2-13.1-8.8-13.1
c-1.8,0-3.2,1.3-3.4,3.3c-0.1,0.2-0.4,0.4-0.5,0.5h-12.2c-0.5,0-0.7-0.1-0.7-0.1c0,0-0.1-0.1-0.1-0.1c-0.2-0.2-0.4-0.5-0.8-0.8
c-0.8-0.5-0.7-4.7-0.7-7.3l0-0.7l0-0.7c0-2.5,0-6.7,0.7-7.3c0.4-0.3,0.6-0.6,0.8-0.8c0,0,0.1-0.1,0-0.1c0,0,0.2-0.1,0.8-0.1h12.2
c0.1,0,0.3,0.2,0.5,0.8c0.6,1.8,1.7,2.8,3.3,2.8c0.7,0,1.5-0.2,2.6-0.6c3.8-1.5,4.8-3.3,5.5-4.9c0-0.1,0.1-0.1,0.1-0.2
c8.8,0,18.8,0,27.2,6.2c0.1,0.1,0.2,0.2,0.3,0.3c1.6,1.4,10.1,8.9,16.1,19.6C315.1,77.5,314.9,77.6,314.8,77.6z"/>
<path fill="#354D68" d="M69.1,52.5c-1.1-0.6-2.4-1-3.7-1.2c-2.9-0.5-5.7-0.1-8.2,0.9c-3.9,1.6-6.3,4.9-6.6,8.4l-0.1,0.5h0l0,46.8
c0,1,1,1.8,2.2,1.8l2.8,0c0,0.5,0,1,0,1.5c0,1.5,0.2,2.1,0.6,2.9c0.5,1.1,1.2,2.9,1.6,13.1v14.7c0,13.6-3.5,25.5-3.5,25.6l-0.1,0.4
l4.8,16.4h8l4.8-16.4l-0.1-0.4c0-0.1-3.5-11.9-3.5-25.6l0-14.6c0.3-10.2,1.1-12,1.6-13.1c0.3-0.8,0.6-1.4,0.6-2.9c0-0.5,0-1,0-1.5
l2.8,0c1.2,0,2.2-0.8,2.2-1.8l0-46.8C75.2,57.6,73,54.4,69.1,52.5z M68.5,167.9l-3.9,13.4h-3.5l-3.9-13.4c0.7-2.3,3.5-13.3,3.5-26
l0-14.7c-0.4-10.8-1.3-12.9-1.8-14.2c-0.2-0.5-0.3-0.8-0.3-1.7c0-0.5,0-1,0-1.5l8.6,0c0,0.5,0,1,0,1.5c0,1-0.1,1.2-0.3,1.7
c-0.6,1.4-1.5,3.4-1.8,14.3v14.7C64.9,154.7,67.8,165.6,68.5,167.9z"/>
<path fill="#354D68" d="M164.8,92.7c0,0.1,0,0.1,0,0.2c0.1,1,0.5,1.9,1.3,2.5c0.6,0.5,1.4,0.8,2.2,0.8c0.9,0,1.6-0.3,2.2-0.8
c0.7-0.6,1.2-1.5,1.3-2.5c0-0.1,0-0.1,0-0.2c0-1.9-1.6-3.5-3.5-3.5C166.4,89.2,164.8,90.7,164.8,92.7z"/>
<path fill="#354D68" d="M164.4,95c-0.3-0.6-0.5-1.3-0.5-2c0-0.1,0-0.2,0-0.3c-4-1.7-6.9-5.7-6.9-10.4c0-6.2,5.1-11.3,11.3-11.3
c6.2,0,11.3,5.1,11.3,11.3c0,4.7-2.8,8.7-6.9,10.4c0,0.1,0,0.2,0,0.3c0,0.7-0.2,1.4-0.5,2c5.4-1.7,9.3-6.7,9.3-12.7
c0-7.3-6-13.3-13.3-13.3c-7.3,0-13.3,6-13.3,13.3C155.1,88.3,159,93.3,164.4,95z"/>
<path fill="#354D68" d="M168.4,68.1c2.7,0,3-0.5,3-0.5V50.4c0,0-0.9-0.6-3-0.6c-2.1,0-3,0.6-3,0.6v17.1
C165.4,67.5,165.7,68.1,168.4,68.1z"/>
<path fill="#354D68" d="M170.6,115.2v-5.6c0-1.2-1-2.2-2.2-2.2c-1.2,0-2.2,1-2.2,2.2v5.6H164c-0.1,0.7-0.2,1.3-0.3,2h2.4v5.6
c0,1.2,1,2.2,2.2,2.2c1.2,0,2.2-1,2.2-2.2v-5.6h2.7c-0.1-0.7-0.2-1.3-0.3-2H170.6z"/>
<path fill="#354D68" d="M193.9,114.8l-0.3,0.4h-10c-1.4-8.3-2.6-15.1-3.1-18c-0.2-0.9-1-1.5-3.4-0.3s-2,2.1-2,2.3
c0.9,5.5,12.7,75.6,12.7,78.6c0,3.1,2,1.1,2.2,1c0.2-0.1,2.2-1.6,2.5-3.3c0-0.1,0-0.2,0.1-0.4c-2.1,0-3.8-1.7-3.8-3.9
c0-2.1,1.7-3.9,3.9-3.9c0,0,0,0,0,0c-0.1-0.8-5.1-29.4-8.7-50.3h9.7l0.3,0.4l6.2-0.4h0.3v-2h-0.3L193.9,114.8z"/>
<path fill="#354D68" d="M161.2,96.9c-2.4-1.2-3.2-0.6-3.4,0.3c-0.5,2.9-1.7,9.7-3.1,18h-11.4l-0.3-0.4l-6.3,0.4h-0.3v2h0.3l6.2,0.4
l0.3-0.4h11.1c-3.6,20.9-8.6,49.5-8.7,50.3c0,0,0,0,0,0c2.1,0,3.9,1.7,3.9,3.9c0,2.1-1.7,3.9-3.8,3.9c0,0.1,0,0.3,0.1,0.4
c0.3,1.6,2.3,3.2,2.5,3.3c0.2,0.1,2.2,2.1,2.2-1c0-3,11.8-73.1,12.7-78.6C163.2,99,163.6,98.1,161.2,96.9z"/>
<path fill="#354D68" d="M148.9,171.3c0-1.8-1.4-3.2-3.2-3.2c0,0-0.1,0-0.1,0c-1.7,0.1-3.1,1.5-3.1,3.2c0,1.7,1.4,3.2,3.1,3.2
c0,0,0.1,0,0.1,0C147.5,174.5,148.9,173.1,148.9,171.3z"/>
<path fill="#354D68" d="M147.7,185.6l1.1-5.2c0,0-0.9-0.5-1.3-0.9C147.2,179.2,147.7,185.6,147.7,185.6z"/>
<path fill="#354D68" d="M192.8,168.2c0,0-0.1,0-0.1,0c-1.8,0-3.2,1.4-3.2,3.2s1.4,3.2,3.2,3.2c0,0,0.1,0,0.1,0
c1.7,0,3.1-1.5,3.1-3.2C195.9,169.6,194.5,168.2,192.8,168.2z"/>
<path fill="#354D68" d="M190.8,179.6c-0.4,0.3-1.3,0.9-1.3,0.9l1.1,5.2C190.7,185.6,191.2,179.2,190.8,179.6z"/>
</g>
</svg>
