<svg xmlns="http://www.w3.org/2000/svg" viewBox="0 0 1547.66 987">
<g>
<path style="opacity:0.05;fill:#FFFFFF;" d="M195.856,798.184c0,7.064,5.508,13.983,11.739,13.983h1131.536
c6.231,0,10.826-6.919,10.826-13.983V145.045H195.856V798.184z"/>
<path style="opacity:0.75;fill:#FFFFFF;" d="M1339.132,113.996H207.596c-6.231,0-11.739,5.151-11.739,12.215v18.834h1154.101
v-18.834C1349.958,119.147,1345.363,113.996,1339.132,113.996z"/>
</g>
<path style="fill:none;stroke:#000000;stroke-miterlimit:10;" d="M593.765,287.674"/>
<path style="fill:none;stroke:#000000;stroke-miterlimit:10;" d="M593.765,517.775"/>
<g>
<path style="opacity:0.3;fill:#FFFFFF;" d="M1398.125,106.859c0-27.759-19.032-51.359-43.517-51.359H190.471
c-24.485,0-44.346,23.6-44.346,51.359V859.5h1252V106.859z M1350.125,798.184c0,7.064-4.762,13.317-10.993,13.317H207.596
c-6.231,0-11.471-6.252-11.471-13.317V126.211c0-7.064,5.239-12.711,11.471-12.711h1131.536c6.231,0,10.993,5.647,10.993,12.711
V798.184z"/>
<path style="opacity:0.9;fill:#FFFFFF;" d="M1542.207,866.095h-131.924V106.859c0-34.664-25.1-62.359-55.676-62.359H190.471
c-30.575,0-54.949,27.695-54.949,62.359v759.235H3.844c-2.054,0-3.719,1.856-3.719,4.212c0,27.964,1.473,44.605,1.473,44.605
h1542.856c0,0,1.473-16.64,1.473-44.605C1545.926,867.951,1544.262,866.095,1542.207,866.095z M1398.31,859.647H145.654V106.859
c0-27.759,20.331-51.307,44.817-51.307h1164.137c24.485,0,43.702,23.548,43.702,51.307V859.647z M936.16,870.989
c-2.1,6.599-6.723,9.843-12.103,9.843H621.995c-5.38,0-10.004-3.243-12.104-9.843c-0.679-1.642-1.087-2.95-1.175-4.895h328.621
c0,0,0,0,0,0.001C937.252,868.056,936.842,869.339,936.16,870.989z"/>
<path style="opacity:0.65;fill:#FFFFFF;" d="M53.015,940.171c5.846,1.541,11.666,2.329,17.161,2.329h1405.699
c5.495,0,11.315-0.788,17.161-2.329c26.196-6.902,49.392-22.671,51.417-25.671H1.598C3.622,917.5,26.819,933.269,53.015,940.171z"
/>
<path style="fill:#FFFFFF;" d="M937.37,866.5H608.681c0,0,0.023,0,0.033,0h328.623C937.348,866.5,937.37,866.5,937.37,866.5z"/>
<path style="opacity:0.65;fill:#FFFFFF;" d="M608.714,866.5c0.085,1,0.494,2.876,1.177,4.525c2.1,6.599,6.724,9.475,12.104,9.475
h302.062c5.38,0,10.003-2.876,12.103-9.475c0.683-1.65,1.092-3.525,1.177-4.525H608.714z"/>
</g>
<circle style="fill:#FFFFFF;" cx="213.587" cy="129.52" r="6.678"/>
<circle style="fill:#FFFFFF;" cx="233.621" cy="129.52" r="6.678"/>
<circle style="opacity:0.5;fill:#FFFFFF;" cx="253.654" cy="129.52" r="6.678"/>
<g style="opacity:0.9;">
<path style="fill:#FFFFFF;" d="M620.392,320.671c0-21.18-17.17-38.35-38.35-38.35c-10.59,0-20.178,4.293-27.118,11.233
L401.523,446.954c-6.94,6.94-11.232,16.527-11.232,27.118c0,10.591,4.293,20.179,11.234,27.119l153.4,153.4
c6.94,6.94,16.527,11.232,27.117,11.232c21.18,0,38.35-17.17,38.35-38.35c0-10.591-4.293-20.179-11.234-27.119L482.877,474.072
L609.16,347.789C616.1,340.849,620.392,331.261,620.392,320.671z"/>
<path style="fill:#FFFFFF;" d="M864.736,246.713c-19.665-7.866-41.984,1.699-49.85,21.364L661.485,651.58
c-7.866,19.665,1.699,41.984,21.365,49.85c19.665,7.866,41.984-1.699,49.85-21.365L886.1,296.564
C893.966,276.898,884.401,254.58,864.736,246.713z"/>
<path style="fill:#FFFFFF;" d="M1145.526,446.448L993.349,294.27c-6.988-7.356-16.855-11.949-27.801-11.949
c-21.18,0-38.35,17.17-38.35,38.35c0,11.006,4.644,20.922,12.07,27.916l125.466,125.466l-124.999,125.05
c-0.433,0.395-0.858,0.799-1.272,1.213c-6.939,6.94-11.231,16.527-11.231,27.116c0,21.18,17.17,38.35,38.35,38.35
c10.59,0,20.178-4.293,27.118-11.232c0.025-0.025,0.049-0.052,0.074-0.078l153.283-153.283c6.94-6.94,11.233-16.528,11.233-27.118
C1157.29,463.218,1152.774,453.424,1145.526,446.448z"/>
</g>
</svg>
