<svg xmlns="http://www.w3.org/2000/svg" viewBox="0 0 1546.66 986">
<g>
<path style="opacity:0.05;fill:#FFFFFF;" d="M-4011.13,1977.512c0,7.669,5.98,15.181,12.745,15.181h1228.501
c6.765,0,11.754-7.512,11.754-15.181v-709.109h-1253V1977.512z"/>
<path style="opacity:0.75;fill:#FFFFFF;" d="M-2769.884,1234.693h-1228.501c-6.765,0-12.745,5.593-12.745,13.262v20.448h1253
v-20.448C-2758.13,1240.286-2763.119,1234.693-2769.884,1234.693z"/>
</g>
<polygon style="opacity:0.05;fill:#FFFFFF;" points="-4703.525,2108.071 -5161.525,2108.071 -5619.525,2108.071 -6077.525,2108.071
-6077.525,1650.071 -6077.525,1192.071 -5619.525,1192.071 -5161.525,1192.071 -4703.525,1192.071 "/>
<g>

<rect x="2747.828" y="1192.111" style="fill:none;stroke:#000000;stroke-width:4;stroke-miterlimit:10;" width="916" height="916"/>

<line style="fill:none;stroke:#000000;stroke-width:4;stroke-miterlimit:10;" x1="3205.828" y1="1192.111" x2="3205.828" y2="2108.111"/>

<line style="fill:none;stroke:#000000;stroke-width:4;stroke-miterlimit:10;" x1="4121.828" y1="2108.111" x2="3663.828" y2="2108.111"/>

<line style="fill:none;stroke:#000000;stroke-width:4;stroke-miterlimit:10;" x1="4121.828" y1="2108.111" x2="4121.828" y2="1192.111"/>

<line style="fill:none;stroke:#000000;stroke-width:4;stroke-miterlimit:10;" x1="4121.828" y1="1192.111" x2="3663.828" y2="1192.111"/>
<circle style="fill:none;stroke:#000000;stroke-width:4;stroke-miterlimit:10;" cx="3282.161" cy="2031.778" r="76.333"/>

<line style="fill:none;stroke:#000000;stroke-width:4;stroke-miterlimit:10;" x1="3310.51" y1="1960.904" x2="3253.812" y2="2102.652"/>

<line style="fill:none;stroke:#000000;stroke-width:4;stroke-miterlimit:10;" x1="3211.287" y1="2003.429" x2="3353.035" y2="2060.127"/>
<polyline style="fill:none;stroke:#000000;stroke-width:4;stroke-miterlimit:10;" points="3253.812,2102.652 3282.158,2031.785
"/>
<circle style="fill:none;stroke:#000000;stroke-width:4;stroke-miterlimit:10;" cx="2747.828" cy="1650.111" r="76.333"/>

<line style="fill:none;stroke:#000000;stroke-width:4;stroke-miterlimit:10;" x1="2747.828" y1="1573.778" x2="2747.828" y2="1726.444"/>

<line style="fill:none;stroke:#000000;stroke-width:4;stroke-miterlimit:10;" x1="2671.494" y1="1650.111" x2="2824.161" y2="1650.111"/>
<path style="fill:none;stroke:#000000;stroke-width:4;stroke-miterlimit:10;" d="M2824.161,1650.111
c0,21.079-8.544,40.162-22.357,53.975c-13.814,13.814-32.897,22.358-53.976,22.358c-21.078,0-40.16-8.543-53.973-22.355
c-13.815-13.814-22.36-32.898-22.36-53.978c0-21.079,8.544-40.162,22.357-53.976c13.814-13.814,32.897-22.358,53.976-22.358
c21.078,0,40.161,8.543,53.974,22.356C2815.617,1609.948,2824.161,1629.032,2824.161,1650.111z"/>

<line style="fill:none;stroke:#000000;stroke-width:4;stroke-miterlimit:10;" x1="2747.828" y1="1573.778" x2="2747.828" y2="1726.444"/>

<line style="fill:none;stroke:#000000;stroke-width:4;stroke-miterlimit:10;" x1="2671.494" y1="1650.111" x2="2824.161" y2="1650.111"/>
<circle style="fill:none;stroke:#000000;stroke-width:4;stroke-miterlimit:10;" cx="3053.161" cy="1344.778" r="76.333"/>

<line style="fill:none;stroke:#000000;stroke-width:4;stroke-miterlimit:10;" x1="3053.161" y1="1268.444" x2="3053.161" y2="1421.111"/>

<line style="fill:none;stroke:#000000;stroke-width:4;stroke-miterlimit:10;" x1="2976.828" y1="1344.778" x2="3129.494" y2="1344.778"/>
<path style="fill:none;stroke:#000000;stroke-width:4;stroke-miterlimit:10;" d="M3129.494,1344.778
c0,21.079-8.544,40.162-22.357,53.976c-13.813,13.814-32.897,22.358-53.976,22.358c-42.158,0-76.333-34.176-76.333-76.333
c0-21.079,8.544-40.162,22.357-53.975c13.814-13.814,32.897-22.358,53.976-22.358
C3095.319,1268.444,3129.494,1302.62,3129.494,1344.778z"/>

<line style="fill:none;stroke:#000000;stroke-width:4;stroke-miterlimit:10;" x1="3053.161" y1="1268.444" x2="3053.161" y2="1421.111"/>
<polyline style="fill:none;stroke:#000000;stroke-width:4;stroke-miterlimit:10;" points="2976.828,1344.778 3053.161,1344.778
"/>
<polyline style="fill:none;stroke:#000000;stroke-width:4;stroke-miterlimit:10;" points="2694.06,1596.343 2747.828,1650.111
"/>

<line style="fill:none;stroke:#000000;stroke-width:4;stroke-miterlimit:10;" x1="2693.862" y1="1704.078" x2="3107.115" y2="1290.824"/>

<line style="fill:none;stroke:#000000;stroke-width:4;stroke-miterlimit:10;" x1="2999.489" y1="1291.106" x2="3107.136" y2="1398.754"/>
<circle style="fill:none;stroke:#000000;stroke-width:4;stroke-miterlimit:10;" cx="3053.161" cy="1955.445" r="76.333"/>

<line style="fill:none;stroke:#000000;stroke-width:4;stroke-miterlimit:10;" x1="3053.161" y1="1879.111" x2="3053.161" y2="2031.778"/>

<line style="fill:none;stroke:#000000;stroke-width:4;stroke-miterlimit:10;" x1="2976.828" y1="1955.444" x2="3129.494" y2="1955.444"/>
<path style="fill:none;stroke:#000000;stroke-width:4;stroke-miterlimit:10;" d="M3129.494,1955.444
c0,42.158-34.176,76.333-76.333,76.333c-21.078,0-40.161-8.543-53.975-22.356c-13.814-13.814-22.359-32.898-22.359-53.977
c0-42.158,34.176-76.333,76.333-76.333c21.078,0,40.16,8.543,53.973,22.355C3120.949,1915.28,3129.494,1934.364,3129.494,1955.444z
"/>

<line style="fill:none;stroke:#000000;stroke-width:4;stroke-miterlimit:10;" x1="3053.161" y1="1879.111" x2="3053.161" y2="2031.778"/>

<line style="fill:none;stroke:#000000;stroke-width:4;stroke-miterlimit:10;" x1="2976.828" y1="1955.444" x2="3129.494" y2="1955.444"/>

<line style="fill:none;stroke:#000000;stroke-width:4;stroke-miterlimit:10;" x1="3107.11" y1="1901.496" x2="2999.194" y2="2009.411"/>

<line style="fill:none;stroke:#000000;stroke-width:4;stroke-miterlimit:10;" x1="3252.12" y1="1961.696" x2="3312.219" y2="2101.925"/>

<line style="fill:none;stroke:#000000;stroke-width:4;stroke-miterlimit:10;" x1="3352.292" y1="2001.727" x2="3212.052" y2="2061.831"/>
<circle style="fill:none;stroke:#000000;stroke-width:4;stroke-miterlimit:10;" cx="3587.494" cy="1268.445" r="76.333"/>

<line style="fill:none;stroke:#000000;stroke-width:4;stroke-miterlimit:10;" x1="3587.495" y1="1344.778" x2="3587.495" y2="1192.111"/>

<line style="fill:none;stroke:#000000;stroke-width:4;stroke-miterlimit:10;" x1="3658.368" y1="1296.794" x2="3516.621" y2="1240.095"/>
<polyline style="fill:none;stroke:#000000;stroke-width:4;stroke-miterlimit:10;" points="3615.844,1197.571 3587.497,1268.438
"/>

<line style="fill:none;stroke:#000000;stroke-width:4;stroke-miterlimit:10;" x1="3617.535" y1="1338.527" x2="3557.437" y2="1198.297"/>

<line style="fill:none;stroke:#000000;stroke-width:4;stroke-miterlimit:10;" x1="3517.363" y1="1298.495" x2="3657.604" y2="1238.392"/>
<path style="fill:none;stroke:#000000;stroke-width:4;stroke-miterlimit:10;" d="M4198.152,1650.111
c0,21.079-8.543,40.162-22.357,53.976c-13.813,13.814-32.897,22.357-53.976,22.357c-21.076,0-40.158-8.542-53.971-22.352
c-13.816-13.814-22.363-32.899-22.363-53.981c0-21.077,8.542-40.159,22.354-53.972c13.814-13.816,32.899-22.361,53.979-22.361
C4163.977,1573.778,4198.152,1607.953,4198.152,1650.111z"/>

<line style="fill:none;stroke:#000000;stroke-width:4;stroke-miterlimit:10;" x1="4121.819" y1="1573.778" x2="4121.819" y2="1726.444"/>

<line style="fill:none;stroke:#000000;stroke-width:4;stroke-miterlimit:10;" x1="2671.494" y1="1650.111" x2="4198.152" y2="1650.111"/>

<line style="fill:none;stroke:#000000;stroke-width:4;stroke-miterlimit:10;" x1="3816.491" y1="1344.79" x2="4175.779" y2="1704.079"/>

<line style="fill:none;stroke:#000000;stroke-width:4;stroke-miterlimit:10;" x1="4175.774" y1="1596.164" x2="3816.569" y2="1955.368"/>
<circle style="fill:none;stroke:#000000;stroke-width:4;stroke-miterlimit:10;" cx="3816.503" cy="1344.778" r="76.333"/>

<line style="fill:none;stroke:#000000;stroke-width:4;stroke-miterlimit:10;" x1="3816.503" y1="1268.444" x2="3816.503" y2="1421.111"/>

<line style="fill:none;stroke:#000000;stroke-width:4;stroke-miterlimit:10;" x1="3740.17" y1="1344.778" x2="3892.836" y2="1344.778"/>

<line style="fill:none;stroke:#000000;stroke-width:4;stroke-miterlimit:10;" x1="3762.583" y1="1290.865" x2="3870.463" y2="1398.745"/>

<line style="fill:none;stroke:#000000;stroke-width:4;stroke-miterlimit:10;" x1="3870.458" y1="1290.83" x2="3762.57" y2="1398.718"/>
<path style="fill:none;stroke:#000000;stroke-width:4;stroke-miterlimit:10;" d="M3892.906,1955.365
c0,21.079-8.544,40.162-22.358,53.976c-13.813,13.814-32.897,22.358-53.976,22.358c-42.158,0-76.333-34.176-76.333-76.333
c0-21.077,8.542-40.159,22.354-53.972c13.814-13.816,32.899-22.361,53.979-22.361
C3858.73,1879.031,3892.906,1913.207,3892.906,1955.365z"/>

<line style="fill:none;stroke:#000000;stroke-width:4;stroke-miterlimit:10;" x1="3816.573" y1="1879.031" x2="3816.573" y2="2031.698"/>

<line style="fill:none;stroke:#000000;stroke-width:4;stroke-miterlimit:10;" x1="3740.24" y1="1955.365" x2="3892.906" y2="1955.365"/>
<polyline style="fill:none;stroke:#000000;stroke-width:4;stroke-miterlimit:10;" points="3762.653,1901.452 3847.481,1986.28
"/>

<line style="fill:none;stroke:#000000;stroke-width:4;stroke-miterlimit:10;" x1="3870.528" y1="1901.417" x2="3762.639" y2="2009.305"/>

<line style="fill:none;stroke:#000000;stroke-width:4;stroke-miterlimit:10;" x1="4175.774" y1="1596.164" x2="3870.449" y2="1290.839"/>

<line style="fill:none;stroke:#000000;stroke-width:4;stroke-miterlimit:10;" x1="3762.57" y1="1398.718" x2="4067.895" y2="1704.043"/>

<line style="fill:none;stroke:#000000;stroke-width:4;stroke-miterlimit:10;" x1="4175.795" y1="1704.087" x2="3870.524" y2="2009.358"/>

<line style="fill:none;stroke:#000000;stroke-width:4;stroke-miterlimit:10;" x1="3762.653" y1="1901.452" x2="4067.84" y2="1596.139"/>

<line style="fill:none;stroke:#000000;stroke-width:4;stroke-miterlimit:10;" x1="3353.035" y1="2060.127" x2="3658.368" y2="1296.794"/>

<line style="fill:none;stroke:#000000;stroke-width:4;stroke-miterlimit:10;" x1="3211.287" y1="2003.429" x2="3516.621" y2="1240.095"/>

<line style="fill:none;stroke:#000000;stroke-width:4;stroke-miterlimit:10;" x1="3107.137" y1="1398.754" x2="2801.804" y2="1704.087"/>

<line style="fill:none;stroke:#000000;stroke-width:4;stroke-miterlimit:10;" x1="2693.852" y1="1596.135" x2="2999.185" y2="1290.802"/>

<line style="fill:none;stroke:#000000;stroke-width:4;stroke-miterlimit:10;" x1="2693.854" y1="1704.089" x2="2999.187" y2="2009.422"/>

<line style="fill:none;stroke:#000000;stroke-width:4;stroke-miterlimit:10;" x1="2801.802" y1="1596.134" x2="3107.135" y2="1901.466"/>
</g>
<g>
<path style="fill:none;stroke:#000000;stroke-width:20;stroke-miterlimit:10;" d="M3129.494,1344.778
c0-42.158-34.176-76.333-76.333-76.333c-21.079,0-40.162,8.544-53.976,22.358l-305.333,305.333
c-13.813,13.813-22.357,32.897-22.357,53.976c0,21.08,8.545,40.165,22.36,53.978l305.332,305.332
c13.813,13.813,32.896,22.356,53.974,22.356c42.158,0,76.333-34.176,76.333-76.333c0-21.08-8.545-40.165-22.36-53.978
l-251.355-251.355l251.357-251.358C3120.951,1384.94,3129.494,1365.857,3129.494,1344.778z"/>
<path style="fill:none;stroke:#000000;stroke-width:20;stroke-miterlimit:10;" d="M3615.844,1197.571
c-39.143-15.657-83.566,3.382-99.223,42.524l-305.333,763.334c-15.657,39.143,3.382,83.566,42.525,99.223
s83.566-3.382,99.223-42.525l305.333-763.333C3674.025,1257.651,3654.987,1213.228,3615.844,1197.571z"/>
<path style="fill:none;stroke:#000000;stroke-width:20;stroke-miterlimit:10;" d="M4174.738,1595.128l-302.899-302.899
c-13.908-14.641-33.548-23.784-55.336-23.784c-42.158,0-76.333,34.176-76.333,76.333c0,21.907,9.243,41.645,24.024,55.565
l249.732,249.732l-248.801,248.904c-0.862,0.787-1.708,1.59-2.532,2.414c-13.811,13.813-22.354,32.895-22.354,53.972
c0,42.158,34.176,76.333,76.333,76.333c21.079,0,40.162-8.544,53.976-22.357c0.051-0.051,0.097-0.104,0.147-0.155l305.099-305.099
c13.813-13.814,22.357-32.897,22.357-53.976C4198.153,1628.507,4189.163,1609.014,4174.738,1595.128z"/>
</g>
<rect x="168.866" y="3090.091" style="fill:none;stroke:#000000;stroke-miterlimit:10;" width="916" height="916"/>
<line style="fill:none;stroke:#000000;stroke-miterlimit:10;" x1="626.865" y1="3090.091" x2="626.865" y2="4006.091"/>
<line style="fill:none;stroke:#000000;stroke-miterlimit:10;" x1="1542.865" y1="4006.091" x2="1084.865" y2="4006.091"/>
<line style="fill:none;stroke:#000000;stroke-miterlimit:10;" x1="1542.865" y1="4006.091" x2="1542.865" y2="3090.091"/>
<line style="fill:none;stroke:#000000;stroke-miterlimit:10;" x1="1542.865" y1="3090.091" x2="1084.865" y2="3090.091"/>
<circle style="fill:none;stroke:#000000;stroke-miterlimit:10;" cx="703.199" cy="3929.757" r="76.333"/>
<line style="fill:none;stroke:#000000;stroke-miterlimit:10;" x1="731.548" y1="3858.884" x2="674.85" y2="4000.631"/>
<line style="fill:none;stroke:#000000;stroke-miterlimit:10;" x1="632.325" y1="3901.408" x2="774.073" y2="3958.106"/>
<polyline style="fill:none;stroke:#000000;stroke-miterlimit:10;" points="674.85,4000.631 703.196,3929.764 1015.038,3150.144 "/>
<circle style="fill:none;stroke:#000000;stroke-miterlimit:10;" cx="168.865" cy="3548.091" r="76.333"/>
<line style="fill:none;stroke:#000000;stroke-miterlimit:10;" x1="168.865" y1="3471.758" x2="168.865" y2="3624.424"/>
<line style="fill:none;stroke:#000000;stroke-miterlimit:10;" x1="92.532" y1="3548.091" x2="245.199" y2="3548.091"/>
<path style="fill:none;stroke:#000000;stroke-miterlimit:10;" d="M245.199,3548.091c0,21.079-8.544,40.162-22.357,53.976
c-13.814,13.814-32.897,22.358-53.976,22.358c-21.078,0-40.16-8.543-53.973-22.355c-13.815-13.814-22.36-32.898-22.36-53.978
c0-21.079,8.544-40.162,22.357-53.976c13.814-13.814,32.897-22.358,53.976-22.358c21.078,0,40.161,8.543,53.975,22.356
C236.654,3507.927,245.199,3527.011,245.199,3548.091z"/>
<line style="fill:none;stroke:#000000;stroke-miterlimit:10;" x1="168.865" y1="3471.758" x2="168.865" y2="3624.424"/>
<line style="fill:none;stroke:#000000;stroke-miterlimit:10;" x1="92.532" y1="3548.091" x2="245.199" y2="3548.091"/>
<circle style="fill:none;stroke:#000000;stroke-miterlimit:10;" cx="474.199" cy="3242.758" r="76.333"/>
<line style="fill:none;stroke:#000000;stroke-miterlimit:10;" x1="474.199" y1="3166.424" x2="474.199" y2="3319.091"/>
<line style="fill:none;stroke:#000000;stroke-miterlimit:10;" x1="397.865" y1="3242.758" x2="550.532" y2="3242.758"/>
<path style="fill:none;stroke:#000000;stroke-miterlimit:10;" d="M550.532,3242.758c0,21.079-8.544,40.162-22.357,53.976
c-13.814,13.814-32.897,22.358-53.976,22.358c-42.158,0-76.333-34.176-76.333-76.333c0-21.079,8.544-40.162,22.357-53.976
c13.814-13.814,32.897-22.358,53.976-22.358C516.357,3166.424,550.532,3200.6,550.532,3242.758z"/>
<line style="fill:none;stroke:#000000;stroke-miterlimit:10;" x1="474.199" y1="3166.424" x2="474.199" y2="3319.091"/>
<polyline style="fill:none;stroke:#000000;stroke-miterlimit:10;" points="397.865,3242.758 474.199,3242.758 550.532,3242.758 "/>
<polyline style="fill:none;stroke:#000000;stroke-miterlimit:10;" points="115.097,3494.323 168.866,3548.091 626.865,4006.091 "/>
<line style="fill:none;stroke:#000000;stroke-miterlimit:10;" x1="114.899" y1="3602.057" x2="528.153" y2="3188.803"/>
<line style="fill:none;stroke:#000000;stroke-miterlimit:10;" x1="420.527" y1="3189.086" x2="528.174" y2="3296.733"/>
<circle style="fill:none;stroke:#000000;stroke-miterlimit:10;" cx="474.199" cy="3853.424" r="76.333"/>
<line style="fill:none;stroke:#000000;stroke-miterlimit:10;" x1="474.199" y1="3777.091" x2="474.199" y2="3929.758"/>
<line style="fill:none;stroke:#000000;stroke-miterlimit:10;" x1="397.865" y1="3853.424" x2="550.532" y2="3853.424"/>
<path style="fill:none;stroke:#000000;stroke-miterlimit:10;" d="M550.532,3853.424c0,42.158-34.176,76.333-76.333,76.333
c-21.078,0-40.161-8.543-53.975-22.356c-13.814-13.814-22.359-32.898-22.359-53.977c0-42.158,34.176-76.333,76.333-76.333
c21.078,0,40.16,8.543,53.973,22.355C541.987,3813.26,550.532,3832.344,550.532,3853.424z"/>
<line style="fill:none;stroke:#000000;stroke-miterlimit:10;" x1="474.199" y1="3777.091" x2="474.199" y2="3929.758"/>
<line style="fill:none;stroke:#000000;stroke-miterlimit:10;" x1="397.865" y1="3853.424" x2="550.532" y2="3853.424"/>
<line style="fill:none;stroke:#000000;stroke-miterlimit:10;" x1="528.147" y1="3799.476" x2="420.232" y2="3907.391"/>
<line style="fill:none;stroke:#000000;stroke-miterlimit:10;" x1="673.158" y1="3859.676" x2="733.257" y2="3999.905"/>
<line style="fill:none;stroke:#000000;stroke-miterlimit:10;" x1="773.33" y1="3899.706" x2="633.09" y2="3959.81"/>
<circle style="fill:none;stroke:#000000;stroke-miterlimit:10;" cx="1008.532" cy="3166.424" r="76.333"/>
<line style="fill:none;stroke:#000000;stroke-miterlimit:10;" x1="1008.532" y1="3242.758" x2="1008.532" y2="3090.091"/>
<line style="fill:none;stroke:#000000;stroke-miterlimit:10;" x1="1079.406" y1="3194.774" x2="937.658" y2="3138.075"/>
<polyline style="fill:none;stroke:#000000;stroke-miterlimit:10;" points="1036.882,3095.551 1008.535,3166.417 696.688,3946.035
"/>
<line style="fill:none;stroke:#000000;stroke-miterlimit:10;" x1="1038.573" y1="3236.506" x2="978.474" y2="3096.276"/>
<line style="fill:none;stroke:#000000;stroke-miterlimit:10;" x1="938.401" y1="3196.475" x2="1078.641" y2="3136.372"/>
<path style="fill:none;stroke:#000000;stroke-miterlimit:10;" d="M1619.19,3548.091c0,21.079-8.544,40.162-22.357,53.976
c-13.814,13.814-32.897,22.357-53.976,22.357c-21.076,0-40.158-8.542-53.971-22.352c-13.817-13.814-22.363-32.899-22.363-53.981
c0-21.077,8.542-40.159,22.354-53.972c13.814-13.816,32.899-22.361,53.979-22.361
C1585.015,3471.758,1619.19,3505.933,1619.19,3548.091z"/>
<line style="fill:none;stroke:#000000;stroke-miterlimit:10;" x1="1542.857" y1="3471.758" x2="1542.857" y2="3624.424"/>
<line style="fill:none;stroke:#000000;stroke-miterlimit:10;" x1="1466.524" y1="3548.091" x2="1619.19" y2="3548.091"/>
<line style="fill:none;stroke:#000000;stroke-miterlimit:10;" x1="1084.858" y1="3090.099" x2="1596.817" y2="3602.058"/>
<line style="fill:none;stroke:#000000;stroke-miterlimit:10;" x1="1596.812" y1="3494.143" x2="1161.277" y2="3929.678"/>
<circle style="fill:none;stroke:#000000;stroke-miterlimit:10;" cx="1237.541" cy="3242.758" r="76.333"/>
<line style="fill:none;stroke:#000000;stroke-miterlimit:10;" x1="1237.541" y1="3166.424" x2="1237.541" y2="3319.091"/>
<line style="fill:none;stroke:#000000;stroke-miterlimit:10;" x1="1161.207" y1="3242.758" x2="1313.874" y2="3242.758"/>
<line style="fill:none;stroke:#000000;stroke-miterlimit:10;" x1="1183.621" y1="3188.845" x2="1291.501" y2="3296.725"/>
<line style="fill:none;stroke:#000000;stroke-miterlimit:10;" x1="1291.496" y1="3188.81" x2="1183.607" y2="3296.698"/>
<path style="fill:none;stroke:#000000;stroke-miterlimit:10;" d="M1313.944,3853.344c0,21.079-8.544,40.162-22.358,53.976
c-13.814,13.813-32.897,22.357-53.976,22.357c-42.158,0-76.333-34.176-76.333-76.333c0-21.077,8.542-40.159,22.354-53.972
c13.814-13.816,32.899-22.361,53.98-22.361C1279.768,3777.011,1313.944,3811.187,1313.944,3853.344z"/>
<line style="fill:none;stroke:#000000;stroke-miterlimit:10;" x1="1237.61" y1="3777.011" x2="1237.61" y2="3929.678"/>
<line style="fill:none;stroke:#000000;stroke-miterlimit:10;" x1="1161.277" y1="3853.344" x2="1313.944" y2="3853.344"/>
<polyline style="fill:none;stroke:#000000;stroke-miterlimit:10;" points="1183.69,3799.432 1268.519,3884.26 1291.571,3907.312 "/>
<line style="fill:none;stroke:#000000;stroke-miterlimit:10;" x1="1291.565" y1="3799.397" x2="1183.677" y2="3907.285"/>
<line style="fill:none;stroke:#000000;stroke-miterlimit:10;" x1="1596.812" y1="3494.143" x2="1291.487" y2="3188.819"/>
<line style="fill:none;stroke:#000000;stroke-miterlimit:10;" x1="1183.607" y1="3296.698" x2="1488.932" y2="3602.023"/>
<line style="fill:none;stroke:#000000;stroke-miterlimit:10;" x1="1596.833" y1="3602.067" x2="1291.562" y2="3907.337"/>
<line style="fill:none;stroke:#000000;stroke-miterlimit:10;" x1="1183.69" y1="3799.432" x2="1488.877" y2="3494.119"/>
<line style="fill:none;stroke:#000000;stroke-miterlimit:10;" x1="774.073" y1="3958.106" x2="1079.406" y2="3194.774"/>
<line style="fill:none;stroke:#000000;stroke-miterlimit:10;" x1="632.325" y1="3901.408" x2="937.658" y2="3138.075"/>
<line style="fill:none;stroke:#000000;stroke-miterlimit:10;" x1="528.175" y1="3296.733" x2="222.842" y2="3602.066"/>
<line style="fill:none;stroke:#000000;stroke-miterlimit:10;" x1="114.889" y1="3494.115" x2="420.223" y2="3188.782"/>
<line style="fill:none;stroke:#000000;stroke-miterlimit:10;" x1="114.892" y1="3602.069" x2="420.224" y2="3907.401"/>
<line style="fill:none;stroke:#000000;stroke-miterlimit:10;" x1="222.84" y1="3494.114" x2="528.172" y2="3799.446"/>
<g>

<rect x="-2237.801" y="1061.111" style="fill:none;stroke:#000000;stroke-width:4;stroke-miterlimit:10;" width="916" height="916"/>

<line style="fill:none;stroke:#000000;stroke-width:4;stroke-miterlimit:10;" x1="-1779.801" y1="1061.111" x2="-1779.801" y2="1977.111"/>

<line style="fill:none;stroke:#000000;stroke-width:4;stroke-miterlimit:10;" x1="-863.801" y1="1977.111" x2="-1321.801" y2="1977.111"/>

<line style="fill:none;stroke:#000000;stroke-width:4;stroke-miterlimit:10;" x1="-863.801" y1="1977.111" x2="-863.801" y2="1061.111"/>

<line style="fill:none;stroke:#000000;stroke-width:4;stroke-miterlimit:10;" x1="-863.801" y1="1061.111" x2="-1321.801" y2="1061.111"/>
<circle style="fill:none;stroke:#000000;stroke-width:4;stroke-miterlimit:10;" cx="-1703.468" cy="1900.778" r="76.333"/>

<line style="fill:none;stroke:#000000;stroke-width:4;stroke-miterlimit:10;" x1="-1675.119" y1="1829.904" x2="-1731.817" y2="1971.652"/>

<line style="fill:none;stroke:#000000;stroke-width:4;stroke-miterlimit:10;" x1="-1774.342" y1="1872.429" x2="-1632.594" y2="1929.127"/>
<polyline style="fill:none;stroke:#000000;stroke-width:4;stroke-miterlimit:10;" points="-1731.817,1971.652 -1703.47,1900.785
"/>
<circle style="fill:none;stroke:#000000;stroke-width:4;stroke-miterlimit:10;" cx="-2237.801" cy="1519.111" r="76.333"/>

<line style="fill:none;stroke:#000000;stroke-width:4;stroke-miterlimit:10;" x1="-2237.801" y1="1442.778" x2="-2237.801" y2="1595.444"/>

<line style="fill:none;stroke:#000000;stroke-width:4;stroke-miterlimit:10;" x1="-2314.135" y1="1519.111" x2="-2161.468" y2="1519.111"/>
<path style="fill:none;stroke:#000000;stroke-width:4;stroke-miterlimit:10;" d="M-2161.468,1519.111
c0,21.079-8.544,40.162-22.357,53.975c-13.814,13.814-32.897,22.358-53.976,22.358c-21.078,0-40.16-8.543-53.973-22.355
c-13.815-13.814-22.36-32.898-22.36-53.978c0-21.079,8.544-40.162,22.357-53.976c13.814-13.814,32.897-22.358,53.976-22.358
c21.078,0,40.161,8.543,53.974,22.356C-2170.012,1478.948-2161.468,1498.032-2161.468,1519.111z"/>

<line style="fill:none;stroke:#000000;stroke-width:4;stroke-miterlimit:10;" x1="-2237.801" y1="1442.778" x2="-2237.801" y2="1595.444"/>

<line style="fill:none;stroke:#000000;stroke-width:4;stroke-miterlimit:10;" x1="-2314.135" y1="1519.111" x2="-2161.468" y2="1519.111"/>
<circle style="fill:none;stroke:#000000;stroke-width:4;stroke-miterlimit:10;" cx="-1932.468" cy="1213.778" r="76.333"/>

<line style="fill:none;stroke:#000000;stroke-width:4;stroke-miterlimit:10;" x1="-1932.468" y1="1137.444" x2="-1932.468" y2="1290.111"/>

<line style="fill:none;stroke:#000000;stroke-width:4;stroke-miterlimit:10;" x1="-2008.801" y1="1213.778" x2="-1856.134" y2="1213.778"/>
<path style="fill:none;stroke:#000000;stroke-width:4;stroke-miterlimit:10;" d="M-1856.134,1213.778
c0,21.079-8.544,40.162-22.357,53.976c-13.814,13.814-32.897,22.358-53.976,22.358c-42.158,0-76.333-34.176-76.333-76.333
c0-21.079,8.544-40.162,22.357-53.975c13.814-13.814,32.897-22.358,53.976-22.358
C-1890.31,1137.444-1856.134,1171.62-1856.134,1213.778z"/>

<line style="fill:none;stroke:#000000;stroke-width:4;stroke-miterlimit:10;" x1="-1932.468" y1="1137.444" x2="-1932.468" y2="1290.111"/>
<polyline style="fill:none;stroke:#000000;stroke-width:4;stroke-miterlimit:10;" points="-2008.801,1213.778 -1932.468,1213.778
"/>
<polyline style="fill:none;stroke:#000000;stroke-width:4;stroke-miterlimit:10;" points="-2291.569,1465.343 -2237.801,1519.111
"/>

<line style="fill:none;stroke:#000000;stroke-width:4;stroke-miterlimit:10;" x1="-2291.767" y1="1573.078" x2="-1878.513" y2="1159.824"/>

<line style="fill:none;stroke:#000000;stroke-width:4;stroke-miterlimit:10;" x1="-1986.14" y1="1160.106" x2="-1878.492" y2="1267.754"/>
<circle style="fill:none;stroke:#000000;stroke-width:4;stroke-miterlimit:10;" cx="-1932.468" cy="1824.444" r="76.333"/>

<line style="fill:none;stroke:#000000;stroke-width:4;stroke-miterlimit:10;" x1="-1932.468" y1="1748.111" x2="-1932.468" y2="1900.778"/>

<line style="fill:none;stroke:#000000;stroke-width:4;stroke-miterlimit:10;" x1="-2008.801" y1="1824.444" x2="-1856.134" y2="1824.444"/>
<path style="fill:none;stroke:#000000;stroke-width:4;stroke-miterlimit:10;" d="M-1856.134,1824.444
c0,42.158-34.176,76.333-76.333,76.333c-21.078,0-40.161-8.543-53.974-22.356c-13.814-13.814-22.359-32.898-22.359-53.977
c0-42.158,34.176-76.333,76.333-76.333c21.078,0,40.16,8.543,53.973,22.355C-1864.679,1784.28-1856.134,1803.364-1856.134,1824.444
z"/>

<line style="fill:none;stroke:#000000;stroke-width:4;stroke-miterlimit:10;" x1="-1932.468" y1="1748.111" x2="-1932.468" y2="1900.778"/>

<line style="fill:none;stroke:#000000;stroke-width:4;stroke-miterlimit:10;" x1="-2008.801" y1="1824.444" x2="-1856.134" y2="1824.444"/>

<line style="fill:none;stroke:#000000;stroke-width:4;stroke-miterlimit:10;" x1="-1878.519" y1="1770.496" x2="-1986.435" y2="1878.411"/>

<line style="fill:none;stroke:#000000;stroke-width:4;stroke-miterlimit:10;" x1="-1733.509" y1="1830.696" x2="-1673.409" y2="1970.925"/>

<line style="fill:none;stroke:#000000;stroke-width:4;stroke-miterlimit:10;" x1="-1633.337" y1="1870.727" x2="-1773.576" y2="1930.831"/>
<circle style="fill:none;stroke:#000000;stroke-width:4;stroke-miterlimit:10;" cx="-1398.135" cy="1137.445" r="76.333"/>

<line style="fill:none;stroke:#000000;stroke-width:4;stroke-miterlimit:10;" x1="-1398.134" y1="1213.778" x2="-1398.134" y2="1061.111"/>

<line style="fill:none;stroke:#000000;stroke-width:4;stroke-miterlimit:10;" x1="-1327.261" y1="1165.794" x2="-1469.008" y2="1109.095"/>
<polyline style="fill:none;stroke:#000000;stroke-width:4;stroke-miterlimit:10;" points="-1369.785,1066.571 -1398.132,1137.438
"/>

<line style="fill:none;stroke:#000000;stroke-width:4;stroke-miterlimit:10;" x1="-1368.094" y1="1207.527" x2="-1428.192" y2="1067.297"/>

<line style="fill:none;stroke:#000000;stroke-width:4;stroke-miterlimit:10;" x1="-1468.266" y1="1167.495" x2="-1328.026" y2="1107.392"/>
<path style="fill:none;stroke:#000000;stroke-width:4;stroke-miterlimit:10;" d="M-787.476,1519.111
c0,21.079-8.544,40.162-22.358,53.976c-13.814,13.814-32.897,22.357-53.976,22.357c-21.076,0-40.158-8.542-53.971-22.352
c-13.817-13.814-22.363-32.899-22.363-53.981c0-21.077,8.542-40.159,22.354-53.972c13.814-13.816,32.899-22.361,53.979-22.361
C-821.652,1442.778-787.476,1476.953-787.476,1519.111z"/>

<line style="fill:none;stroke:#000000;stroke-width:4;stroke-miterlimit:10;" x1="-863.81" y1="1442.778" x2="-863.81" y2="1595.444"/>

<line style="fill:none;stroke:#000000;stroke-width:4;stroke-miterlimit:10;" x1="-2314.135" y1="1519.111" x2="-787.476" y2="1519.111"/>

<line style="fill:none;stroke:#000000;stroke-width:4;stroke-miterlimit:10;" x1="-1275.536" y1="1107.392" x2="-809.849" y2="1573.079"/>

<line style="fill:none;stroke:#000000;stroke-width:4;stroke-miterlimit:10;" x1="-809.855" y1="1465.164" x2="-1245.389" y2="1900.698"/>
<circle style="fill:none;stroke:#000000;stroke-width:4;stroke-miterlimit:10;" cx="-1169.126" cy="1213.778" r="76.333"/>

<line style="fill:none;stroke:#000000;stroke-width:4;stroke-miterlimit:10;" x1="-1169.126" y1="1137.444" x2="-1169.126" y2="1290.111"/>

<line style="fill:none;stroke:#000000;stroke-width:4;stroke-miterlimit:10;" x1="-1245.459" y1="1213.778" x2="-1092.792" y2="1213.778"/>

<line style="fill:none;stroke:#000000;stroke-width:4;stroke-miterlimit:10;" x1="-1223.046" y1="1159.865" x2="-1115.166" y2="1267.745"/>

<line style="fill:none;stroke:#000000;stroke-width:4;stroke-miterlimit:10;" x1="-1115.171" y1="1159.83" x2="-1223.059" y2="1267.718"/>
<path style="fill:none;stroke:#000000;stroke-width:4;stroke-miterlimit:10;" d="M-1092.723,1824.365
c0,21.079-8.544,40.162-22.357,53.976c-13.814,13.814-32.897,22.358-53.976,22.358c-42.158,0-76.333-34.176-76.333-76.333
c0-21.077,8.542-40.159,22.354-53.972c13.814-13.816,32.899-22.361,53.98-22.361
C-1126.898,1748.031-1092.723,1782.207-1092.723,1824.365z"/>

<line style="fill:none;stroke:#000000;stroke-width:4;stroke-miterlimit:10;" x1="-1169.056" y1="1748.031" x2="-1169.056" y2="1900.698"/>

<line style="fill:none;stroke:#000000;stroke-width:4;stroke-miterlimit:10;" x1="-1245.389" y1="1824.365" x2="-1092.723" y2="1824.365"/>
<polyline style="fill:none;stroke:#000000;stroke-width:4;stroke-miterlimit:10;" points="-1222.976,1770.452 -1138.148,1855.28
"/>

<line style="fill:none;stroke:#000000;stroke-width:4;stroke-miterlimit:10;" x1="-1115.101" y1="1770.417" x2="-1222.99" y2="1878.305"/>

<line style="fill:none;stroke:#000000;stroke-width:4;stroke-miterlimit:10;" x1="-809.855" y1="1465.164" x2="-1115.18" y2="1159.839"/>

<line style="fill:none;stroke:#000000;stroke-width:4;stroke-miterlimit:10;" x1="-1223.059" y1="1267.718" x2="-917.734" y2="1573.043"/>

<line style="fill:none;stroke:#000000;stroke-width:4;stroke-miterlimit:10;" x1="-809.834" y1="1573.087" x2="-1115.105" y2="1878.358"/>

<line style="fill:none;stroke:#000000;stroke-width:4;stroke-miterlimit:10;" x1="-1222.976" y1="1770.452" x2="-917.789" y2="1465.139"/>

<line style="fill:none;stroke:#000000;stroke-width:4;stroke-miterlimit:10;" x1="-1632.594" y1="1929.127" x2="-1327.261" y2="1165.794"/>

<line style="fill:none;stroke:#000000;stroke-width:4;stroke-miterlimit:10;" x1="-1774.342" y1="1872.429" x2="-1469.008" y2="1109.095"/>

<line style="fill:none;stroke:#000000;stroke-width:4;stroke-miterlimit:10;" x1="-1878.492" y1="1267.754" x2="-2183.825" y2="1573.087"/>

<line style="fill:none;stroke:#000000;stroke-width:4;stroke-miterlimit:10;" x1="-2291.777" y1="1465.135" x2="-1986.444" y2="1159.802"/>

<line style="fill:none;stroke:#000000;stroke-width:4;stroke-miterlimit:10;" x1="-2291.774" y1="1573.089" x2="-1986.442" y2="1878.422"/>

<line style="fill:none;stroke:#000000;stroke-width:4;stroke-miterlimit:10;" x1="-2183.827" y1="1465.134" x2="-1878.495" y2="1770.466"/>
</g>
<g>
<path style="fill:none;stroke:#000000;stroke-width:15;stroke-miterlimit:10;" d="M-1856.134,1213.778
c0-42.158-34.176-76.333-76.333-76.333c-21.079,0-40.162,8.544-53.976,22.358l-305.333,305.333
c-13.813,13.813-22.357,32.897-22.357,53.976c0,21.08,8.545,40.165,22.36,53.978l305.332,305.332
c13.813,13.813,32.896,22.356,53.974,22.356c42.158,0,76.333-34.176,76.333-76.333c0-21.08-8.545-40.165-22.36-53.978
l-251.355-251.355l251.358-251.358C-1864.678,1253.94-1856.134,1234.857-1856.134,1213.778z"/>
<path style="fill:none;stroke:#000000;stroke-width:15;stroke-miterlimit:10;" d="M-1369.785,1066.571
c-39.143-15.657-83.566,3.382-99.223,42.524l-305.333,763.334c-15.657,39.143,3.382,83.566,42.525,99.223
s83.566-3.382,99.223-42.525l305.333-763.333C-1311.604,1126.651-1330.642,1082.228-1369.785,1066.571z"/>
<path style="fill:none;stroke:#000000;stroke-width:15;stroke-miterlimit:10;" d="M-810.891,1464.128l-302.898-302.899
c-13.908-14.641-33.548-23.784-55.336-23.784c-42.158,0-76.333,34.176-76.333,76.333c0,21.907,9.243,41.645,24.024,55.565
l249.732,249.732l-248.801,248.904c-0.862,0.787-1.708,1.59-2.532,2.414c-13.811,13.813-22.354,32.895-22.354,53.972
c0,42.158,34.175,76.333,76.333,76.333c21.079,0,40.162-8.544,53.976-22.357c0.05-0.051,0.097-0.104,0.147-0.155l305.099-305.099
c13.813-13.814,22.357-32.897,22.357-53.976C-787.476,1497.507-796.466,1478.014-810.891,1464.128z"/>
</g>
<path style="fill:none;stroke:#000000;stroke-miterlimit:10;" d="M-3579.123,1423.255"/>
<path style="fill:none;stroke:#000000;stroke-miterlimit:10;" d="M-3579.123,1673.074"/>
<g>
<path style="opacity:0.3;fill:#FFFFFF;" d="M-2706.13,1226.945c0-30.138-20.368-55.252-46.951-55.252h-1263.896
c-26.584,0-49.153,25.115-49.153,55.252v817.748h1360V1226.945z M-2758.13,1977.511c0,7.67-4.989,15.182-11.754,15.182h-1228.501
c-6.765,0-12.745-7.512-12.745-15.182v-729.556c0-7.67,5.98-13.262,12.745-13.262h1228.501c6.765,0,11.754,5.593,11.754,13.262
V1977.511z"/>
<path style="opacity:0.9;fill:#FFFFFF;" d="M-2549.406,2051.242h-143.229v-824.297c0-37.634-27.251-67.703-60.447-67.703h-1263.896
c-33.195,0-59.657,30.069-59.657,67.703v824.297h-142.962c-2.23,0-4.038,2.015-4.038,4.573c0,30.361,1.599,48.427,1.599,48.427
h1675.068c0,0,1.599-18.066,1.599-48.427C-2545.368,2053.257-2547.176,2051.242-2549.406,2051.242z M-2705.635,2044.242h-1360
v-817.297c0-30.138,22.074-55.703,48.657-55.703h1263.896c26.583,0,47.447,25.566,47.447,55.703V2044.242z M-3207.388,2056.556
c-2.28,7.165-7.299,10.686-13.14,10.686h-327.947c-5.841,0-10.861-3.521-13.141-10.686c-0.738-1.782-1.181-3.202-1.275-5.314
h356.781c0,0,0,0,0,0.001C-3206.202,2053.372-3206.647,2054.765-3207.388,2056.556z"/>
<path style="opacity:0.65;fill:#FFFFFF;" d="M-4166.212,2132.364c6.348,1.673,12.666,2.329,18.632,2.329h1526.158
c5.966,0,12.284-0.656,18.632-2.329c28.44-7.493,53.625-24.671,55.823-27.671h-1675.068
C-4219.837,2107.693-4194.652,2124.871-4166.212,2132.364z"/>
<path style="fill:#FFFFFF;" d="M-3206.074,2051.693h-356.855c0,0,0.025,0,0.036,0h356.783
C-3206.098,2051.693-3206.074,2051.693-3206.074,2051.693z"/>
<path style="opacity:0.65;fill:#FFFFFF;" d="M-3562.893,2051.693c0.092,2,0.536,3.522,1.277,5.313
c2.281,7.165,7.3,10.687,13.141,10.687h327.947c5.841,0,10.86-3.522,13.14-10.687c0.741-1.791,1.186-3.313,1.278-5.313H-3562.893z"
/>
</g>
<path style="fill:none;stroke:#000000;stroke-width:4;stroke-miterlimit:10;" d="M4044.358,1192.109
c95.906,127.544,152.746,286.135,152.746,458.003c0,171.868-56.84,330.461-152.748,458.005"/>
<path style="fill:none;stroke:#000000;stroke-width:4;stroke-miterlimit:10;" d="M2824.245,2108.121
c-95.91-127.545-152.751-286.14-152.751-458.01c0-171.868,56.84-330.461,152.748-458.005"/>
<circle style="fill:none;stroke:#000000;stroke-width:4;stroke-miterlimit:10;" cx="3435.499" cy="1650.111" r="491"/>
<circle style="fill:none;stroke:#000000;stroke-width:4;stroke-miterlimit:10;" cx="3434.828" cy="1650.111" r="229.02"/>
<g>
<circle style="fill:none;stroke:#FFFFFF;stroke-width:4;stroke-miterlimit:10;" cx="-5543.191" cy="2031.738" r="76.333"/>

<line style="fill:none;stroke:#FFFFFF;stroke-width:4;stroke-miterlimit:10;" x1="-5514.842" y1="1960.864" x2="-5571.541" y2="2102.612"/>

<line style="fill:none;stroke:#FFFFFF;stroke-width:4;stroke-miterlimit:10;" x1="-5614.065" y1="2003.389" x2="-5472.317" y2="2060.087"/>
<polyline style="fill:none;stroke:#FFFFFF;stroke-width:4;stroke-miterlimit:10;" points="-5571.541,2102.612 -5543.194,2031.745
"/>
<circle style="fill:none;stroke:#FFFFFF;stroke-width:4;stroke-miterlimit:10;" cx="-6077.525" cy="1650.071" r="76.333"/>

<line style="fill:none;stroke:#FFFFFF;stroke-width:4;stroke-miterlimit:10;" x1="-6077.525" y1="1573.738" x2="-6077.525" y2="1726.405"/>

<line style="fill:none;stroke:#FFFFFF;stroke-width:4;stroke-miterlimit:10;" x1="-6153.858" y1="1650.071" x2="-6001.191" y2="1650.071"/>
<path style="fill:none;stroke:#FFFFFF;stroke-width:4;stroke-miterlimit:10;" d="M-6001.191,1650.071
c0,21.079-8.544,40.162-22.357,53.975c-13.813,13.814-32.897,22.358-53.976,22.358c-21.078,0-40.16-8.543-53.973-22.355
c-13.815-13.814-22.36-32.898-22.36-53.978c0-21.079,8.544-40.162,22.357-53.976c13.814-13.814,32.897-22.358,53.976-22.358
c21.078,0,40.161,8.543,53.975,22.356C-6009.736,1609.908-6001.191,1628.992-6001.191,1650.071z"/>

<line style="fill:none;stroke:#FFFFFF;stroke-width:4;stroke-miterlimit:10;" x1="-6077.525" y1="1573.738" x2="-6077.525" y2="1726.405"/>

<line style="fill:none;stroke:#FFFFFF;stroke-width:4;stroke-miterlimit:10;" x1="-6153.858" y1="1650.071" x2="-6001.191" y2="1650.071"/>
<circle style="fill:none;stroke:#FFFFFF;stroke-width:4;stroke-miterlimit:10;" cx="-5772.191" cy="1344.738" r="76.333"/>

<line style="fill:none;stroke:#FFFFFF;stroke-width:4;stroke-miterlimit:10;" x1="-5772.191" y1="1268.405" x2="-5772.191" y2="1421.071"/>

<line style="fill:none;stroke:#FFFFFF;stroke-width:4;stroke-miterlimit:10;" x1="-5848.525" y1="1344.738" x2="-5695.858" y2="1344.738"/>
<path style="fill:none;stroke:#FFFFFF;stroke-width:4;stroke-miterlimit:10;" d="M-5695.858,1344.738
c0,21.079-8.543,40.162-22.357,53.976c-13.813,13.814-32.897,22.358-53.976,22.358c-42.158,0-76.333-34.176-76.333-76.333
c0-21.079,8.544-40.162,22.357-53.975c13.813-13.814,32.897-22.358,53.976-22.358
C-5730.034,1268.405-5695.858,1302.58-5695.858,1344.738z"/>

<line style="fill:none;stroke:#FFFFFF;stroke-width:4;stroke-miterlimit:10;" x1="-5772.191" y1="1268.405" x2="-5772.191" y2="1421.071"/>
<polyline style="fill:none;stroke:#FFFFFF;stroke-width:4;stroke-miterlimit:10;" points="-5848.525,1344.738 -5772.191,1344.738
"/>
<polyline style="fill:none;stroke:#FFFFFF;stroke-width:4;stroke-miterlimit:10;" points="-6131.293,1596.303 -6077.525,1650.071
"/>

<line style="fill:none;stroke:#FFFFFF;stroke-width:4;stroke-miterlimit:10;" x1="-6131.491" y1="1704.038" x2="-5718.237" y2="1290.784"/>

<line style="fill:none;stroke:#FFFFFF;stroke-width:4;stroke-miterlimit:10;" x1="-5825.863" y1="1291.066" x2="-5718.216" y2="1398.714"/>
<circle style="fill:none;stroke:#FFFFFF;stroke-width:4;stroke-miterlimit:10;" cx="-5772.191" cy="1955.405" r="76.333"/>

<line style="fill:none;stroke:#FFFFFF;stroke-width:4;stroke-miterlimit:10;" x1="-5772.191" y1="1879.071" x2="-5772.191" y2="2031.738"/>

<line style="fill:none;stroke:#FFFFFF;stroke-width:4;stroke-miterlimit:10;" x1="-5848.525" y1="1955.405" x2="-5695.858" y2="1955.405"/>
<path style="fill:none;stroke:#FFFFFF;stroke-width:4;stroke-miterlimit:10;" d="M-5695.858,1955.405
c0,42.158-34.175,76.333-76.333,76.333c-21.078,0-40.161-8.543-53.975-22.356c-13.814-13.814-22.359-32.898-22.359-53.977
c0-42.158,34.176-76.333,76.333-76.333c21.078,0,40.16,8.543,53.973,22.355C-5704.403,1915.24-5695.858,1934.324-5695.858,1955.405
z"/>

<line style="fill:none;stroke:#FFFFFF;stroke-width:4;stroke-miterlimit:10;" x1="-5772.191" y1="1879.071" x2="-5772.191" y2="2031.738"/>

<line style="fill:none;stroke:#FFFFFF;stroke-width:4;stroke-miterlimit:10;" x1="-5848.525" y1="1955.405" x2="-5695.858" y2="1955.405"/>

<line style="fill:none;stroke:#FFFFFF;stroke-width:4;stroke-miterlimit:10;" x1="-5718.243" y1="1901.456" x2="-5826.158" y2="2009.371"/>

<line style="fill:none;stroke:#FFFFFF;stroke-width:4;stroke-miterlimit:10;" x1="-5573.233" y1="1961.656" x2="-5513.133" y2="2101.885"/>

<line style="fill:none;stroke:#FFFFFF;stroke-width:4;stroke-miterlimit:10;" x1="-5473.061" y1="2001.687" x2="-5613.3" y2="2061.791"/>
<circle style="fill:none;stroke:#FFFFFF;stroke-width:4;stroke-miterlimit:10;" cx="-5237.858" cy="1268.405" r="76.333"/>

<line style="fill:none;stroke:#FFFFFF;stroke-width:4;stroke-miterlimit:10;" x1="-5237.858" y1="1344.738" x2="-5237.858" y2="1192.071"/>

<line style="fill:none;stroke:#FFFFFF;stroke-width:4;stroke-miterlimit:10;" x1="-5166.984" y1="1296.754" x2="-5308.732" y2="1240.055"/>
<polyline style="fill:none;stroke:#FFFFFF;stroke-width:4;stroke-miterlimit:10;" points="-5209.509,1197.531 -5237.855,1268.398
"/>

<line style="fill:none;stroke:#FFFFFF;stroke-width:4;stroke-miterlimit:10;" x1="-5207.817" y1="1338.487" x2="-5267.916" y2="1198.257"/>

<line style="fill:none;stroke:#FFFFFF;stroke-width:4;stroke-miterlimit:10;" x1="-5307.99" y1="1298.455" x2="-5167.749" y2="1238.352"/>
<path style="fill:none;stroke:#FFFFFF;stroke-width:4;stroke-miterlimit:10;" d="M-4627.2,1650.071
c0,21.079-8.544,40.162-22.357,53.976c-13.813,13.814-32.897,22.357-53.976,22.357c-21.076,0-40.157-8.542-53.971-22.352
c-13.816-13.814-22.362-32.899-22.362-53.981c0-21.077,8.542-40.159,22.354-53.972c13.813-13.816,32.898-22.361,53.979-22.361
C-4661.375,1573.738-4627.2,1607.914-4627.2,1650.071z"/>

<line style="fill:none;stroke:#FFFFFF;stroke-width:4;stroke-miterlimit:10;" x1="-4703.534" y1="1573.738" x2="-4703.534" y2="1726.405"/>

<line style="fill:none;stroke:#FFFFFF;stroke-width:4;stroke-miterlimit:10;" x1="-5008.862" y1="1344.75" x2="-4649.573" y2="1704.039"/>

<line style="fill:none;stroke:#FFFFFF;stroke-width:4;stroke-miterlimit:10;" x1="-4649.579" y1="1596.124" x2="-5008.784" y2="1955.328"/>
<circle style="fill:none;stroke:#FFFFFF;stroke-width:4;stroke-miterlimit:10;" cx="-5008.849" cy="1344.738" r="76.333"/>

<line style="fill:none;stroke:#FFFFFF;stroke-width:4;stroke-miterlimit:10;" x1="-5008.85" y1="1268.405" x2="-5008.85" y2="1421.071"/>

<line style="fill:none;stroke:#FFFFFF;stroke-width:4;stroke-miterlimit:10;" x1="-5085.183" y1="1344.738" x2="-4932.516" y2="1344.738"/>

<line style="fill:none;stroke:#FFFFFF;stroke-width:4;stroke-miterlimit:10;" x1="-5062.77" y1="1290.825" x2="-4954.889" y2="1398.705"/>

<line style="fill:none;stroke:#FFFFFF;stroke-width:4;stroke-miterlimit:10;" x1="-4954.895" y1="1290.79" x2="-5062.783" y2="1398.678"/>
<path style="fill:none;stroke:#FFFFFF;stroke-width:4;stroke-miterlimit:10;" d="M-4932.446,1955.325
c0,21.079-8.544,40.162-22.358,53.976c-13.813,13.814-32.897,22.358-53.976,22.358c-42.158,0-76.333-34.176-76.333-76.333
c0-21.077,8.542-40.159,22.354-53.972c13.813-13.816,32.898-22.361,53.979-22.361
C-4966.622,1878.992-4932.446,1913.167-4932.446,1955.325z"/>

<line style="fill:none;stroke:#FFFFFF;stroke-width:4;stroke-miterlimit:10;" x1="-5008.78" y1="1878.992" x2="-5008.78" y2="2031.658"/>

<line style="fill:none;stroke:#FFFFFF;stroke-width:4;stroke-miterlimit:10;" x1="-5085.113" y1="1955.325" x2="-4932.446" y2="1955.325"/>
<polyline style="fill:none;stroke:#FFFFFF;stroke-width:4;stroke-miterlimit:10;" points="-5062.7,1901.412 -4977.872,1986.24
"/>

<line style="fill:none;stroke:#FFFFFF;stroke-width:4;stroke-miterlimit:10;" x1="-4954.825" y1="1901.377" x2="-5062.713" y2="2009.266"/>

<line style="fill:none;stroke:#FFFFFF;stroke-width:4;stroke-miterlimit:10;" x1="-4649.579" y1="1596.124" x2="-4954.903" y2="1290.799"/>

<line style="fill:none;stroke:#FFFFFF;stroke-width:4;stroke-miterlimit:10;" x1="-5062.783" y1="1398.678" x2="-4757.458" y2="1704.003"/>

<line style="fill:none;stroke:#FFFFFF;stroke-width:4;stroke-miterlimit:10;" x1="-4649.558" y1="1704.047" x2="-4954.829" y2="2009.318"/>

<line style="fill:none;stroke:#FFFFFF;stroke-width:4;stroke-miterlimit:10;" x1="-5062.7" y1="1901.412" x2="-4757.513" y2="1596.099"/>

<line style="fill:none;stroke:#FFFFFF;stroke-width:4;stroke-miterlimit:10;" x1="-5472.317" y1="2060.087" x2="-5166.984" y2="1296.754"/>

<line style="fill:none;stroke:#FFFFFF;stroke-width:4;stroke-miterlimit:10;" x1="-5614.065" y1="2003.389" x2="-5308.732" y2="1240.055"/>

<line style="fill:none;stroke:#FFFFFF;stroke-width:4;stroke-miterlimit:10;" x1="-5718.216" y1="1398.714" x2="-6023.549" y2="1704.047"/>

<line style="fill:none;stroke:#FFFFFF;stroke-width:4;stroke-miterlimit:10;" x1="-6131.501" y1="1596.096" x2="-5826.167" y2="1290.762"/>

<line style="fill:none;stroke:#FFFFFF;stroke-width:4;stroke-miterlimit:10;" x1="-6131.498" y1="1704.05" x2="-5826.166" y2="2009.382"/>

<line style="fill:none;stroke:#FFFFFF;stroke-width:4;stroke-miterlimit:10;" x1="-6023.55" y1="1596.094" x2="-5718.218" y2="1901.426"/>
</g>
<g style="opacity:0.5;">
<path style="fill:#FFFFFF;stroke:#FFFFFF;stroke-width:20;stroke-miterlimit:10;" d="M-5718.22,1901.423
c13.82,13.82,22.36,32.9,22.36,53.98c0,42.16-34.17,76.33-76.33,76.33c-21.08,0-40.16-8.54-53.98-22.35l-305.33-305.33
c-13.81-13.82-22.36-32.9-22.36-53.98c0-21.08,8.55-40.16,22.36-53.98l305.33-305.33c13.82-13.81,32.9-22.36,53.98-22.36
c42.16,0,76.33,34.18,76.33,76.33c0,21.08-8.54,40.17-22.36,53.98l-251.35,251.36L-5718.22,1901.423z"/>
<path style="fill:#FFFFFF;stroke:#FFFFFF;stroke-width:20;stroke-miterlimit:10;" d="M-5166.98,1296.753l-305.34,763.33
c-15.65,39.15-60.08,58.19-99.22,42.53c-39.14-15.66-58.18-60.08-42.53-99.22l305.34-763.34c15.66-39.14,60.08-58.18,99.22-42.52
C-5170.37,1213.183-5151.33,1257.613-5166.98,1296.753z"/>
<path style="fill:#FFFFFF;stroke:#FFFFFF;stroke-width:20;stroke-miterlimit:10;" d="M-4627.2,1650.073
c0,21.08-8.54,40.16-22.36,53.97l-305.1,305.1c-0.05,0.05-0.09,0.11-0.14,0.16c-13.82,13.81-32.9,22.36-53.98,22.36
c-42.16,0-76.33-34.18-76.33-76.34c0-21.07,8.54-40.16,22.35-53.97c0.83-0.82,1.67-1.63,2.53-2.41l248.8-248.91l-249.73-249.73
c-14.78-13.92-24.02-33.66-24.02-55.57c0-42.15,34.17-76.33,76.33-76.33c21.79,0,41.43,9.15,55.34,23.79l302.9,302.89
C-4636.19,1608.973-4627.2,1628.463-4627.2,1650.073z"/>
</g>
<circle style="fill:none;stroke:#FFFFFF;stroke-width:4;stroke-miterlimit:10;" cx="-5389.854" cy="1650.071" r="491"/>
<circle style="fill:none;stroke:#FFFFFF;stroke-width:4;stroke-miterlimit:10;" cx="-5390.524" cy="1650.071" r="229.02"/>
<line style="fill:none;stroke:#FFFFFF;stroke-width:4;stroke-miterlimit:10;" x1="-5619.525" y1="1192.071" x2="-5619.525" y2="2108.071"/>
<line style="fill:none;stroke:#FFFFFF;stroke-width:4;stroke-miterlimit:10;" x1="-5161.525" y1="1192.071" x2="-5161.525" y2="2108.071"/>
<line style="fill:none;stroke:#FFFFFF;stroke-width:4;stroke-miterlimit:10;" x1="-4703.486" y1="1650.031" x2="-6077.525" y2="1650.031"/>
<circle style="fill:#FFFFFF;" cx="-3991.88" cy="1251.548" r="7.25"/>
<circle style="fill:#FFFFFF;" cx="-3970.13" cy="1251.548" r="7.25"/>
<circle style="opacity:0.5;fill:#FFFFFF;" cx="-3948.38" cy="1251.548" r="7.25"/>
<path style="fill:none;stroke:#FFFFFF;stroke-width:11;stroke-miterlimit:10;" d="M-4703.525,2095.185
c0,7.118-5.77,12.888-12.888,12.888h-445.112h-458h-445.112c-7.118,0-12.888-5.77-12.888-12.888v-445.112v-445.112
c0-7.118,5.771-12.888,12.888-12.888h445.111h458h445.112c7.118,0,12.888,5.77,12.888,12.888V2095.185z"/>
<g style="opacity:0.9;">
<path style="fill:#FFFFFF;" d="M-3550.215,1459.079c0-22.995-18.641-41.636-41.636-41.636c-11.498,0-21.907,4.661-29.442,12.195
l-166.546,166.546c-7.535,7.535-12.195,17.944-12.195,29.441c0,11.498,4.661,21.908,12.196,29.443l166.546,166.546
c7.535,7.534,17.943,12.194,29.441,12.194c22.995,0,41.636-18.641,41.636-41.636c0-11.498-4.661-21.908-12.196-29.443
l-137.103-137.103l137.104-137.105C-3554.875,1480.986-3550.215,1470.577-3550.215,1459.079z"/>
<path style="fill:#FFFFFF;" d="M-3284.932,1378.784c-21.351-8.54-45.582,1.845-54.122,23.195l-166.546,416.365
c-8.54,21.351,1.845,45.582,23.195,54.122c21.351,8.54,45.582-1.845,54.122-23.196l166.546-416.365
C-3253.197,1411.555-3263.582,1387.324-3284.932,1378.784z"/>
<path style="fill:#FFFFFF;" d="M-2980.08,1595.634l-165.218-165.218c-7.586-7.986-18.299-12.973-30.184-12.973
c-22.995,0-41.637,18.641-41.637,41.636c0,11.949,5.042,22.715,13.104,30.308l136.218,136.218l-135.71,135.766
c-0.47,0.429-0.931,0.867-1.381,1.317c-7.533,7.534-12.193,17.943-12.193,29.439c0,22.995,18.641,41.636,41.637,41.636
c11.498,0,21.907-4.66,29.441-12.195c0.028-0.027,0.053-0.057,0.08-0.084l166.418-166.418c7.534-7.535,12.195-17.944,12.195-29.442
C-2967.308,1613.841-2972.211,1603.208-2980.08,1595.634z"/>
</g>
<polygon style="opacity:0.05;fill:#FFFFFF;" points="1460.335,951 1002.335,951 544.335,951 86.335,951 86.335,493 86.335,35
544.335,35 1002.335,35 1460.335,35 "/>
<g>
<circle style="fill:none;stroke:#FFFFFF;stroke-width:4;stroke-miterlimit:10;" cx="620.669" cy="874.667" r="76.333"/>

<line style="fill:none;stroke:#FFFFFF;stroke-width:4;stroke-miterlimit:10;" x1="649.018" y1="803.793" x2="592.32" y2="945.541"/>

<line style="fill:none;stroke:#FFFFFF;stroke-width:4;stroke-miterlimit:10;" x1="549.795" y1="846.318" x2="691.542" y2="903.016"/>
<polyline style="fill:none;stroke:#FFFFFF;stroke-width:4;stroke-miterlimit:10;" points="592.32,945.541 620.666,874.673
"/>
<circle style="fill:none;stroke:#FFFFFF;stroke-width:4;stroke-miterlimit:10;" cx="86.335" cy="493" r="76.333"/>
<line style="fill:none;stroke:#FFFFFF;stroke-width:4;stroke-miterlimit:10;" x1="86.335" y1="416.667" x2="86.335" y2="569.333"/>
<line style="fill:none;stroke:#FFFFFF;stroke-width:4;stroke-miterlimit:10;" x1="10.002" y1="493" x2="162.669" y2="493"/>
<path style="fill:none;stroke:#FFFFFF;stroke-width:4;stroke-miterlimit:10;" d="M162.669,493c0,21.079-8.544,40.162-22.357,53.975
c-13.814,13.814-32.897,22.358-53.976,22.358c-21.078,0-40.16-8.543-53.973-22.355C18.547,533.164,10.002,514.08,10.002,493
c0-21.079,8.544-40.162,22.357-53.976c13.814-13.814,32.897-22.358,53.976-22.358c21.078,0,40.161,8.543,53.975,22.356
C154.124,452.837,162.669,471.92,162.669,493z"/>
<line style="fill:none;stroke:#FFFFFF;stroke-width:4;stroke-miterlimit:10;" x1="86.335" y1="416.667" x2="86.335" y2="569.333"/>
<line style="fill:none;stroke:#FFFFFF;stroke-width:4;stroke-miterlimit:10;" x1="10.002" y1="493" x2="162.669" y2="493"/>
<circle style="fill:none;stroke:#FFFFFF;stroke-width:4;stroke-miterlimit:10;" cx="391.669" cy="187.667" r="76.333"/>
<line style="fill:none;stroke:#FFFFFF;stroke-width:4;stroke-miterlimit:10;" x1="391.669" y1="111.333" x2="391.669" y2="264"/>

<line style="fill:none;stroke:#FFFFFF;stroke-width:4;stroke-miterlimit:10;" x1="315.335" y1="187.667" x2="468.002" y2="187.667"/>
<path style="fill:none;stroke:#FFFFFF;stroke-width:4;stroke-miterlimit:10;" d="M468.002,187.667
c0,21.079-8.544,40.162-22.357,53.976C431.831,255.456,412.747,264,391.669,264c-42.158,0-76.333-34.176-76.333-76.333
c0-21.079,8.544-40.162,22.357-53.976c13.814-13.814,32.897-22.358,53.976-22.358C433.826,111.333,468.002,145.509,468.002,187.667
z"/>
<line style="fill:none;stroke:#FFFFFF;stroke-width:4;stroke-miterlimit:10;" x1="391.669" y1="111.333" x2="391.669" y2="264"/>
<polyline style="fill:none;stroke:#FFFFFF;stroke-width:4;stroke-miterlimit:10;" points="315.335,187.667 391.669,187.667
"/>
<polyline style="fill:none;stroke:#FFFFFF;stroke-width:4;stroke-miterlimit:10;" points="32.567,439.232 86.335,493
"/>

<line style="fill:none;stroke:#FFFFFF;stroke-width:4;stroke-miterlimit:10;" x1="32.369" y1="546.966" x2="445.623" y2="133.712"/>

<line style="fill:none;stroke:#FFFFFF;stroke-width:4;stroke-miterlimit:10;" x1="337.997" y1="133.995" x2="445.644" y2="241.642"/>
<circle style="fill:none;stroke:#FFFFFF;stroke-width:4;stroke-miterlimit:10;" cx="391.669" cy="798.333" r="76.333"/>
<line style="fill:none;stroke:#FFFFFF;stroke-width:4;stroke-miterlimit:10;" x1="391.669" y1="722" x2="391.669" y2="874.667"/>

<line style="fill:none;stroke:#FFFFFF;stroke-width:4;stroke-miterlimit:10;" x1="315.335" y1="798.333" x2="468.002" y2="798.333"/>
<path style="fill:none;stroke:#FFFFFF;stroke-width:4;stroke-miterlimit:10;" d="M468.002,798.333
c0,42.158-34.176,76.333-76.333,76.333c-21.078,0-40.161-8.543-53.975-22.356c-13.814-13.814-22.359-32.898-22.359-53.977
c0-42.158,34.176-76.333,76.333-76.333c21.078,0,40.16,8.543,53.973,22.355C459.457,758.169,468.002,777.253,468.002,798.333z"/>
<line style="fill:none;stroke:#FFFFFF;stroke-width:4;stroke-miterlimit:10;" x1="391.669" y1="722" x2="391.669" y2="874.667"/>

<line style="fill:none;stroke:#FFFFFF;stroke-width:4;stroke-miterlimit:10;" x1="315.335" y1="798.333" x2="468.002" y2="798.333"/>
<line style="fill:none;stroke:#FFFFFF;stroke-width:4;stroke-miterlimit:10;" x1="445.617" y1="744.385" x2="337.702" y2="852.3"/>

<line style="fill:none;stroke:#FFFFFF;stroke-width:4;stroke-miterlimit:10;" x1="590.627" y1="804.585" x2="650.727" y2="944.814"/>
<line style="fill:none;stroke:#FFFFFF;stroke-width:4;stroke-miterlimit:10;" x1="690.8" y1="844.615" x2="550.56" y2="904.719"/>
<circle style="fill:none;stroke:#FFFFFF;stroke-width:4;stroke-miterlimit:10;" cx="926.002" cy="111.333" r="76.333"/>
<line style="fill:none;stroke:#FFFFFF;stroke-width:4;stroke-miterlimit:10;" x1="926.002" y1="187.667" x2="926.002" y2="35"/>

<line style="fill:none;stroke:#FFFFFF;stroke-width:4;stroke-miterlimit:10;" x1="996.876" y1="139.683" x2="855.128" y2="82.984"/>
<polyline style="fill:none;stroke:#FFFFFF;stroke-width:4;stroke-miterlimit:10;" points="954.351,40.46 926.005,111.327
"/>

<line style="fill:none;stroke:#FFFFFF;stroke-width:4;stroke-miterlimit:10;" x1="956.043" y1="181.416" x2="895.944" y2="41.186"/>
<line style="fill:none;stroke:#FFFFFF;stroke-width:4;stroke-miterlimit:10;" x1="855.87" y1="141.384" x2="996.111" y2="81.281"/>
<path style="fill:none;stroke:#FFFFFF;stroke-width:4;stroke-miterlimit:10;" d="M1536.66,493c0,21.079-8.544,40.162-22.357,53.976
c-13.814,13.814-32.897,22.358-53.976,22.358c-21.076,0-40.158-8.542-53.971-22.352c-13.817-13.814-22.363-32.899-22.363-53.981
c0-21.077,8.542-40.159,22.354-53.972c13.814-13.816,32.899-22.361,53.979-22.361C1502.484,416.667,1536.66,450.842,1536.66,493z"
/>

<line style="fill:none;stroke:#FFFFFF;stroke-width:4;stroke-miterlimit:10;" x1="1460.327" y1="416.667" x2="1460.327" y2="569.333"/>

<line style="fill:none;stroke:#FFFFFF;stroke-width:4;stroke-miterlimit:10;" x1="1154.998" y1="187.679" x2="1514.287" y2="546.967"/>

<line style="fill:none;stroke:#FFFFFF;stroke-width:4;stroke-miterlimit:10;" x1="1514.281" y1="439.052" x2="1155.077" y2="798.257"/>
<circle style="fill:none;stroke:#FFFFFF;stroke-width:4;stroke-miterlimit:10;" cx="1155.01" cy="187.667" r="76.333"/>
<line style="fill:none;stroke:#FFFFFF;stroke-width:4;stroke-miterlimit:10;" x1="1155.01" y1="111.333" x2="1155.01" y2="264"/>

<line style="fill:none;stroke:#FFFFFF;stroke-width:4;stroke-miterlimit:10;" x1="1078.677" y1="187.667" x2="1231.344" y2="187.667"/>

<line style="fill:none;stroke:#FFFFFF;stroke-width:4;stroke-miterlimit:10;" x1="1101.09" y1="133.754" x2="1208.971" y2="241.634"/>

<line style="fill:none;stroke:#FFFFFF;stroke-width:4;stroke-miterlimit:10;" x1="1208.965" y1="133.719" x2="1101.077" y2="241.607"/>
<path style="fill:none;stroke:#FFFFFF;stroke-width:4;stroke-miterlimit:10;" d="M1231.414,798.254
c0,21.079-8.544,40.162-22.358,53.976c-13.814,13.814-32.897,22.358-53.976,22.358c-42.158,0-76.333-34.176-76.333-76.333
c0-21.077,8.542-40.159,22.354-53.972c13.814-13.816,32.899-22.361,53.98-22.361
C1197.238,721.92,1231.414,756.096,1231.414,798.254z"/>

<line style="fill:none;stroke:#FFFFFF;stroke-width:4;stroke-miterlimit:10;" x1="1155.08" y1="721.92" x2="1155.08" y2="874.587"/>

<line style="fill:none;stroke:#FFFFFF;stroke-width:4;stroke-miterlimit:10;" x1="1078.747" y1="798.254" x2="1231.414" y2="798.254"/>
<polyline style="fill:none;stroke:#FFFFFF;stroke-width:4;stroke-miterlimit:10;" points="1101.16,744.341 1185.988,829.169
"/>

<line style="fill:none;stroke:#FFFFFF;stroke-width:4;stroke-miterlimit:10;" x1="1209.035" y1="744.306" x2="1101.147" y2="852.194"/>

<line style="fill:none;stroke:#FFFFFF;stroke-width:4;stroke-miterlimit:10;" x1="1514.281" y1="439.052" x2="1208.957" y2="133.728"/>

<line style="fill:none;stroke:#FFFFFF;stroke-width:4;stroke-miterlimit:10;" x1="1101.077" y1="241.607" x2="1406.402" y2="546.932"/>

<line style="fill:none;stroke:#FFFFFF;stroke-width:4;stroke-miterlimit:10;" x1="1514.302" y1="546.976" x2="1209.032" y2="852.247"/>

<line style="fill:none;stroke:#FFFFFF;stroke-width:4;stroke-miterlimit:10;" x1="1101.16" y1="744.341" x2="1406.347" y2="439.028"/>

<line style="fill:none;stroke:#FFFFFF;stroke-width:4;stroke-miterlimit:10;" x1="691.542" y1="903.016" x2="996.876" y2="139.683"/>

<line style="fill:none;stroke:#FFFFFF;stroke-width:4;stroke-miterlimit:10;" x1="549.795" y1="846.318" x2="855.128" y2="82.984"/>

<line style="fill:none;stroke:#FFFFFF;stroke-width:4;stroke-miterlimit:10;" x1="445.644" y1="241.642" x2="140.311" y2="546.975"/>

<line style="fill:none;stroke:#FFFFFF;stroke-width:4;stroke-miterlimit:10;" x1="32.359" y1="439.024" x2="337.692" y2="133.691"/>
<line style="fill:none;stroke:#FFFFFF;stroke-width:4;stroke-miterlimit:10;" x1="32.362" y1="546.978" x2="337.694" y2="852.31"/>

<line style="fill:none;stroke:#FFFFFF;stroke-width:4;stroke-miterlimit:10;" x1="140.31" y1="439.023" x2="445.642" y2="744.355"/>
</g>
<g style="opacity:0.5;">
<path style="fill:#FFFFFF;stroke:#FFFFFF;stroke-width:20;stroke-miterlimit:10;" d="M445.64,744.352
c13.82,13.82,22.36,32.9,22.36,53.98c0,42.16-34.17,76.33-76.33,76.33c-21.08,0-40.16-8.54-53.98-22.35L32.36,546.982
c-13.81-13.82-22.36-32.9-22.36-53.98c0-21.08,8.55-40.16,22.36-53.98l305.33-305.33c13.82-13.81,32.9-22.36,53.98-22.36
c42.16,0,76.33,34.18,76.33,76.33c0,21.08-8.54,40.17-22.36,53.98l-251.35,251.36L445.64,744.352z"/>
<path style="fill:#FFFFFF;stroke:#FFFFFF;stroke-width:20;stroke-miterlimit:10;" d="M996.88,139.682l-305.34,763.33
c-15.65,39.15-60.08,58.19-99.22,42.53c-39.14-15.66-58.18-60.08-42.53-99.22l305.34-763.34c15.66-39.14,60.08-58.18,99.22-42.52
C993.49,56.112,1012.53,100.542,996.88,139.682z"/>
<path style="fill:#FFFFFF;stroke:#FFFFFF;stroke-width:20;stroke-miterlimit:10;" d="M1536.66,493.002
c0,21.08-8.54,40.16-22.36,53.97l-305.1,305.1c-0.05,0.05-0.09,0.11-0.14,0.16c-13.82,13.81-32.9,22.36-53.98,22.36
c-42.16,0-76.33-34.18-76.33-76.34c0-21.07,8.54-40.16,22.35-53.97c0.83-0.82,1.67-1.63,2.53-2.41l248.8-248.91l-249.73-249.73
c-14.78-13.92-24.02-33.66-24.02-55.57c0-42.15,34.17-76.33,76.33-76.33c21.79,0,41.43,9.15,55.34,23.79l302.9,302.89
C1527.67,451.902,1536.66,471.392,1536.66,493.002z"/>
</g>
<circle style="fill:none;stroke:#FFFFFF;stroke-width:4;stroke-miterlimit:10;" cx="774.006" cy="493" r="491"/>
<circle style="fill:none;stroke:#FFFFFF;stroke-width:4;stroke-miterlimit:10;" cx="773.335" cy="493" r="229.02"/>
<line style="fill:none;stroke:#FFFFFF;stroke-width:4;stroke-miterlimit:10;" x1="544.335" y1="35" x2="544.335" y2="951"/>
<line style="fill:none;stroke:#FFFFFF;stroke-width:4;stroke-miterlimit:10;" x1="1002.335" y1="35" x2="1002.335" y2="951"/>
<line style="fill:none;stroke:#FFFFFF;stroke-width:4;stroke-miterlimit:10;" x1="1460.374" y1="492.96" x2="86.335" y2="492.96"/>
<path style="fill:none;stroke:#FFFFFF;stroke-width:11;stroke-miterlimit:10;" d="M1460.335,938.114
c0,7.118-5.77,12.888-12.888,12.888h-445.113h-458H99.223c-7.118,0-12.888-5.77-12.888-12.888V493.002V47.889
c0-7.118,5.77-12.888,12.888-12.888h445.112h458h445.112c7.118,0,12.888,5.77,12.888,12.888V938.114z"/>
</svg>
