<svg xmlns="http://www.w3.org/2000/svg" viewBox="0 0 1000 500">
<g>
<path d="M316.3,265c-0.4,0-0.7-0.1-0.9-0.3c-0.2-0.2-0.3-0.6-0.3-1.3v-2.6c-1.3,1.6-2.8,2.8-4.7,3.7c-1.9,0.9-3.9,1.3-6.1,1.3
c-4,0-7.3-1.4-9.9-4.2c-2.7-2.8-4-6.3-4-10.5c0-4.3,1.4-7.9,4.3-10.8c2.8-2.9,6.4-4.3,10.6-4.3c2.2,0,4.1,0.4,5.8,1.1
s3.2,1.9,4.4,3.4v-12h-1.7c-1.8,0-3-0.2-3.5-0.5c-0.5-0.3-0.8-0.9-0.8-1.8c0-0.8,0.2-1.3,0.6-1.7c0.4-0.4,1.1-0.6,1.9-0.6h6.4
c0.6,0,1.1,0.1,1.4,0.3c0.3,0.2,0.4,0.5,0.4,1v35.4h1.4c1,0,1.8,0.2,2.2,0.5s0.7,0.9,0.7,1.6c0,0.7-0.2,1.3-0.6,1.7
c-0.4,0.4-0.9,0.6-1.6,0.6H316.3z M295.8,250.9c0,2.9,0.9,5.3,2.8,7.1c1.9,1.8,4.2,2.8,7.1,2.8c2.9,0,5.3-1,7.1-2.9
c1.9-1.9,2.8-4.4,2.8-7.3c0-2.9-0.9-5.3-2.8-7.2c-1.9-1.9-4.2-2.8-7.1-2.8c-3,0-5.3,1-7.2,2.9S295.8,247.8,295.8,250.9z"/>
<path d="M334.9,251.9c0.2,3,1.2,5.3,3.1,7s4.4,2.5,7.7,2.5c2.5,0,5.1-0.7,8-2c2.9-1.3,4.6-2,5.2-2c0.6,0,1.2,0.2,1.6,0.6
c0.4,0.4,0.6,0.9,0.6,1.5c0,0.6-0.2,1.2-0.7,1.7c-0.4,0.5-1.1,1-2.1,1.5c-2.1,1-4.3,1.8-6.5,2.4c-2.2,0.5-4.4,0.8-6.6,0.8
c-4.8,0-8.6-1.4-11.5-4.1c-2.9-2.8-4.3-6.4-4.3-10.9c0-4.6,1.5-8.4,4.6-11.2c3-2.9,7-4.3,11.9-4.3c4.4,0,8.1,1.3,11,4
c2.9,2.7,4.4,5.9,4.4,9.7c0,1.2-0.2,2-0.7,2.4c-0.5,0.4-1.8,0.6-4,0.6H356H334.9z M335,247.7h20.4c-0.3-2.5-1.4-4.5-3.1-6
s-3.9-2.3-6.5-2.3c-2.8,0-5.1,0.7-7,2.2C336.9,243.1,335.6,245.1,335,247.7z"/>
<path d="M369.7,240.4c-1.4,0-2.3-0.2-2.8-0.5c-0.5-0.3-0.8-0.9-0.8-1.8c0-0.7,0.2-1.3,0.6-1.6c0.4-0.4,1-0.5,1.9-0.5h8.8
c1.2,0,2,0.2,2.4,0.5c0.4,0.3,0.6,0.9,0.6,1.7c0,0.8-0.3,1.4-0.8,1.8c-0.5,0.3-1.5,0.5-2.9,0.5h-1.2l8.2,20.3l9.1-20.3h-1.9
c-1.6,0-2.7-0.2-3.3-0.5c-0.6-0.3-0.8-0.9-0.8-1.8c0-0.8,0.2-1.4,0.6-1.7c0.4-0.3,1.2-0.5,2.4-0.5h9.7c0.8,0,1.5,0.2,1.9,0.5
c0.4,0.4,0.6,0.9,0.6,1.6c0,0.8-0.3,1.4-0.8,1.8c-0.5,0.3-1.5,0.5-2.8,0.5h-0.6l-10.4,22.9c-0.5,1.2-1,1.9-1.6,2.2
c-0.5,0.3-1.3,0.5-2.2,0.5c-0.9,0-1.6-0.2-2.1-0.5s-1-1.1-1.5-2.3L369.7,240.4z"/>
<path d="M412.1,251.9c0.2,3,1.2,5.3,3.1,7s4.4,2.5,7.7,2.5c2.5,0,5.1-0.7,8-2c2.9-1.3,4.6-2,5.2-2c0.6,0,1.2,0.2,1.6,0.6
c0.4,0.4,0.6,0.9,0.6,1.5c0,0.6-0.2,1.2-0.7,1.7c-0.4,0.5-1.1,1-2.1,1.5c-2.1,1-4.3,1.8-6.5,2.4c-2.2,0.5-4.4,0.8-6.6,0.8
c-4.8,0-8.6-1.4-11.5-4.1c-2.9-2.8-4.3-6.4-4.3-10.9c0-4.6,1.5-8.4,4.6-11.2c3-2.9,7-4.3,11.9-4.3c4.4,0,8.1,1.3,11,4
c2.9,2.7,4.4,5.9,4.4,9.7c0,1.2-0.2,2-0.7,2.4c-0.5,0.4-1.8,0.6-4,0.6h-0.5H412.1z M412.2,247.7h20.4c-0.3-2.5-1.4-4.5-3.1-6
s-3.9-2.3-6.5-2.3c-2.8,0-5.1,0.7-7,2.2C414.1,243.1,412.8,245.1,412.2,247.7z"/>
<path d="M459.2,228.4h-5.3c-2,0-3.3-0.2-3.8-0.5c-0.5-0.3-0.8-0.9-0.8-1.8c0-0.8,0.2-1.3,0.6-1.7c0.4-0.4,1.1-0.6,1.9-0.6h10.4
c0.6,0,1,0.1,1.3,0.3c0.3,0.2,0.5,0.5,0.5,0.9v35.4h9.9c0.8,0,1.4,0.2,1.7,0.5s0.5,0.9,0.5,1.6c0,0.9-0.2,1.5-0.5,1.8
c-0.4,0.3-1,0.5-2,0.5h-23.2c-0.8,0-1.4-0.2-1.9-0.6c-0.4-0.4-0.6-0.9-0.6-1.7c0-0.7,0.2-1.3,0.7-1.6c0.4-0.4,1.1-0.5,2-0.5h8.7
V228.4z"/>
<path d="M516.4,250.5c0,4.5-1.5,8.1-4.6,11c-3.1,2.8-7,4.3-11.9,4.3c-4.9,0-8.8-1.4-11.9-4.3c-3.1-2.8-4.6-6.5-4.6-11
c0-4.5,1.5-8.1,4.6-11c3.1-2.8,7-4.3,11.9-4.3s8.8,1.4,11.9,4.3C514.9,242.4,516.4,246,516.4,250.5z M499.9,261.4
c3.2,0,5.9-1,7.9-3.1c2.1-2,3.1-4.6,3.1-7.8c0-3.2-1-5.8-3.1-7.8c-2.1-2.1-4.7-3.1-7.9-3.1s-5.8,1-7.9,3.1
c-2.1,2.1-3.1,4.7-3.1,7.8c0,3.2,1,5.8,3.1,7.8C494,260.4,496.7,261.4,499.9,261.4z"/>
<path d="M530.4,273h7.5c0.8,0,1.4,0.2,1.8,0.6c0.4,0.4,0.6,0.9,0.6,1.7c0,0.8-0.2,1.4-0.6,1.7s-1.1,0.5-2.1,0.5h-13.9
c-0.8,0-1.5-0.2-1.9-0.6c-0.4-0.4-0.6-0.9-0.6-1.7c0-0.8,0.3-1.4,0.8-1.8s1.5-0.5,3-0.5h0.6v-32.6h-0.6c-1.4,0-2.4-0.2-3-0.5
c-0.5-0.3-0.8-0.9-0.8-1.8c0-0.7,0.2-1.3,0.6-1.6c0.4-0.4,1.1-0.5,1.9-0.5h4.8c0.6,0,1.1,0.1,1.4,0.3c0.3,0.2,0.4,0.5,0.4,1v3
c1.4-1.5,3-2.6,4.7-3.3c1.7-0.7,3.6-1.1,5.6-1.1c4.2,0,7.7,1.4,10.6,4.3s4.2,6.4,4.2,10.7c0,4.1-1.3,7.5-4,10.2
c-2.7,2.7-6.1,4-10.3,4c-2.2,0-4.3-0.4-6.1-1.2c-1.9-0.8-3.4-1.9-4.7-3.4V273z M540.1,260.4c2.9,0,5.3-0.9,7.2-2.7
c1.9-1.8,2.8-4.2,2.8-7.1c0-2.8-0.9-5.2-2.8-7.1s-4.3-2.8-7.1-2.8s-5.3,0.9-7.1,2.8c-1.8,1.8-2.8,4.2-2.8,7.1
c0,2.9,0.9,5.3,2.7,7.1C534.9,259.5,537.2,260.4,540.1,260.4z"/>
<path d="M588.7,247.5c0-3-0.3-4.9-0.8-6c-0.5-1-1.4-1.6-2.7-1.6c-1.5,0-2.8,0.7-3.7,2c-0.9,1.3-1.4,3.2-1.4,5.5v13.1h0.6
c1.3,0,2.1,0.2,2.6,0.5c0.4,0.3,0.6,0.9,0.6,1.7c0,0.8-0.2,1.3-0.5,1.7c-0.4,0.4-0.9,0.6-1.6,0.6h-4c-0.9,0-1.5-0.2-1.8-0.6
c-0.3-0.4-0.5-1.3-0.5-2.7v-0.9v-13.3V245c0-1.6-0.4-2.8-1.1-3.7s-1.7-1.4-2.9-1.4c-0.9,0-1.8,0.3-2.6,0.8s-1.5,1.4-2,2.5v17.3h1.2
c1.3,0,2.1,0.2,2.5,0.5c0.4,0.3,0.7,0.9,0.7,1.7c0,0.9-0.2,1.5-0.5,1.8c-0.4,0.3-1,0.5-2,0.5h-8.4c-0.8,0-1.4-0.2-1.8-0.5
s-0.6-0.9-0.6-1.7c0-0.8,0.2-1.4,0.7-1.7c0.5-0.3,1.5-0.5,2.9-0.5h0.6v-20.1h-0.6c-1.5,0-2.5-0.2-3-0.5c-0.5-0.3-0.8-0.9-0.8-1.8
c0-0.7,0.2-1.3,0.6-1.6c0.4-0.4,1.1-0.5,1.9-0.5h4.8c0.7,0,1.2,0.1,1.4,0.4s0.4,0.7,0.4,1.5c0.9-0.9,1.8-1.6,2.7-2
c1-0.4,2.1-0.7,3.3-0.7c1.5,0,2.7,0.3,3.6,1c0.9,0.6,1.7,1.6,2.1,2.9c0.9-1.3,1.9-2.3,3-2.9c1.2-0.6,2.5-0.9,4-0.9
c2.7,0,4.7,0.9,5.9,2.6c1.2,1.8,1.9,4.6,1.9,8.5v14.2h0.5c1.3,0,2.2,0.2,2.6,0.5c0.4,0.3,0.7,0.9,0.7,1.7c0,0.8-0.2,1.3-0.6,1.7
c-0.4,0.4-0.9,0.6-1.7,0.6h-3.8c-0.9,0-1.5-0.3-1.9-0.8c-0.4-0.5-0.6-1.3-0.6-2.4V247.5z"/>
<path d="M605.1,251.9c0.2,3,1.2,5.3,3.1,7c1.9,1.6,4.4,2.5,7.7,2.5c2.5,0,5.1-0.7,8-2c2.9-1.3,4.6-2,5.2-2c0.6,0,1.2,0.2,1.6,0.6
c0.4,0.4,0.6,0.9,0.6,1.5c0,0.6-0.2,1.2-0.7,1.7c-0.4,0.5-1.1,1-2.1,1.5c-2.1,1-4.3,1.8-6.5,2.4c-2.2,0.5-4.4,0.8-6.6,0.8
c-4.8,0-8.6-1.4-11.5-4.1c-2.9-2.8-4.3-6.4-4.3-10.9c0-4.6,1.5-8.4,4.6-11.2c3-2.9,7-4.3,11.9-4.3c4.4,0,8.1,1.3,11,4
s4.4,5.9,4.4,9.7c0,1.2-0.2,2-0.7,2.4c-0.5,0.4-1.8,0.6-4,0.6h-0.5H605.1z M605.3,247.7h20.4c-0.3-2.5-1.4-4.5-3.1-6
s-3.9-2.3-6.5-2.3c-2.8,0-5.1,0.7-7,2.2C607.1,243.1,605.9,245.1,605.3,247.7z"/>
<path d="M642.6,260.6v-20.1H642c-1.4,0-2.4-0.2-2.9-0.5c-0.5-0.3-0.8-0.9-0.8-1.8c0-0.8,0.2-1.3,0.7-1.7c0.4-0.3,1.2-0.5,2.1-0.5
h1.5h3c0.6,0,1,0.1,1.3,0.3c0.3,0.2,0.5,0.5,0.5,0.9v2.1c1.5-1.4,3-2.5,4.5-3.2c1.5-0.7,3.1-1,4.7-1c3.2,0,5.6,1,7.5,3
s2.7,4.7,2.7,8.2v14.2h1.5c1,0,1.8,0.2,2.3,0.5s0.7,0.9,0.7,1.6c0,0.8-0.2,1.4-0.7,1.7c-0.5,0.3-1.4,0.5-2.6,0.5h-6.9
c-1.3,0-2.2-0.2-2.6-0.5c-0.4-0.3-0.6-0.9-0.6-1.8c0-0.8,0.2-1.4,0.7-1.7c0.4-0.3,1.3-0.5,2.5-0.5h1.1v-13.1c0-2.5-0.6-4.3-1.7-5.6
c-1.1-1.3-2.7-1.9-4.8-1.9c-2.1,0-4,0.7-5.7,2.2c-1.6,1.4-2.5,3.2-2.5,5.4v13.1h1.1c1.3,0,2.1,0.2,2.5,0.5c0.4,0.3,0.7,0.9,0.7,1.7
c0,0.9-0.2,1.5-0.6,1.8c-0.4,0.3-1.3,0.5-2.8,0.5h-5.7h-1.7c-0.9,0-1.5-0.2-1.9-0.5c-0.4-0.4-0.6-0.9-0.6-1.7
c0-0.8,0.2-1.4,0.7-1.7c0.5-0.3,1.5-0.5,2.9-0.5H642.6z"/>
<path d="M701.5,237.7c1,0,1.8,0.2,2.2,0.5c0.5,0.4,0.7,0.9,0.7,1.7c0,0.7-0.2,1.3-0.7,1.6s-1.1,0.5-2,0.5h-12.7v10.5
c0,3.4,0.4,5.7,1.3,6.8s2.4,1.6,4.6,1.6c1.9,0,4.2-0.6,6.8-1.7s4.3-1.7,4.9-1.7c0.6,0,1.1,0.2,1.5,0.6c0.4,0.4,0.6,0.9,0.6,1.5
c0,0.7-0.3,1.3-0.8,1.8s-1.4,1-2.6,1.5c-2.1,0.8-3.9,1.4-5.5,1.8c-1.6,0.4-3.2,0.6-4.6,0.6c-2.5,0-4.5-0.4-6.2-1.2
c-1.7-0.8-2.9-2-3.7-3.5c-0.4-0.7-0.7-1.6-0.9-2.6c-0.2-1-0.3-2.6-0.3-4.6v-1v-10.5h-5.3c-0.9,0-1.5-0.2-1.9-0.5
c-0.4-0.3-0.6-0.9-0.6-1.7c0-0.9,0.3-1.4,0.8-1.8c0.5-0.3,1.7-0.5,3.5-0.5h3.5v-6.4v-1.7c0-0.9,0.2-1.6,0.6-2
c0.4-0.4,1-0.6,1.8-0.6c0.9,0,1.6,0.3,1.9,0.8c0.4,0.5,0.5,1.7,0.5,3.6v6.4H701.5z"/>
</g>
</svg>
