
<svg xmlns="http://www.w3.org/2000/svg" viewBox="0 0 1433.9 1004.5">
<g>
<path fill="#354D68" d="M251.1,147.2l-6-51.2c0,0,0.5-8-14.7-8s-14.7,8-14.7,8l-6,51.2H251.1z"/>
<path fill="#354D68" d="M171.1,258.6c0,0-1,2.3,0.1,5.5L171.1,258.6z"/>
<path fill="#354D68" d="M290,260.5l0-2h-0.4C289.6,258.6,289.9,259.3,290,260.5z"/>
<path fill="#354D68" d="M169.9,693.7l0.4,1.1c1.3,3.5,4.5,7.3,9.2,7.3c0.8,0,1.5-0.1,2.3-0.3c6.9-1.9,26.6-3.2,49-3.2
c21.7,0,40.7,1.2,48.3,3c0.6,0.1,1.2,0.2,1.8,0.2c5.2,0,8.3-4.8,9.7-7.7l0.6-1.3l5.3-426.9l-132,2.4L169.9,693.7z M283.4,279.1
l-5.1,409.1c-14.3-2.4-39.6-2.6-47.5-2.6c-16.5,0-36.6,0.7-48,2.7l-5-407.3L283.4,279.1z"/>
<path fill="#354D68" d="M290,257.9l0-1.3c-0.1-1.2-0.4-2-0.4-2s-6.6-61.5-9.3-80.8c-2.7-19.3-23.9-19.3-23.9-19.3h-21.5h-9.1h-21.5
c0,0-21.3,0-23.9,19.3c-2.7,19.3-9.3,80.8-9.3,80.8l0.1,5.5L290,257.9z"/>
<path fill="#354D68" d="M284.8,711.8c-8.3-6.7-108.3-6.4-108.3,0.9c0,0.2,0,0.5,0.1,0.9c1.3,13.8,26.7,143.4,34,143.4
c0,0,2.6,3.7,6.9,7h26.9c4.4-3.3,6.9-7,6.9-7c7.6,0,34.1-136.7,34.1-144.3C285.4,712.4,285.1,712.1,284.8,711.8z"/>
<path fill="#354D68" d="M230.9,894.8c5.2,0,9.4-22.7,9.4-22.7h-18.8C221.5,872.1,225.7,894.8,230.9,894.8z"/>
<path fill="#354D68" d="M816.6,266.2H616.5c-14,0-15.8,8.9-15.9,9.9l-0.1,0.5V288c0,1.4,0.3,2.5,0.7,3.4c-0.4,0.9-0.7,2-0.7,3.3
v8.8c0,3.4,1,7.5,1.5,9.4v55.2c0,3.4-0.5,6.3-0.9,8.7c-0.3,1.8-0.6,3.3-0.6,4.8c0,2.2,0.7,4,1.6,5.4c-0.9,1.4-1.6,3.2-1.6,5.5v19.4
h232.1v-19.4c0-2.3-0.7-4.1-1.6-5.5c0.9-1.4,1.6-3.2,1.6-5.4c0-1.5-0.3-3.1-0.6-4.8c-0.4-2.3-0.9-5.2-0.9-8.7V313
c0.5-1.9,1.5-6,1.5-9.4v-8.8c0-1.3-0.3-2.4-0.7-3.3c0.4-0.9,0.7-2.1,0.7-3.4v-11.4l-0.1-0.5C832.3,275.1,830.5,266.2,816.6,266.2z
M819.1,378.8H613.9c0.5-2.7,1.1-6.2,1.1-10.7v-54.5h203v54.5C818,372.6,818.7,376.2,819.1,378.8z M818.5,294.5h-204
c0.3-0.8,0.5-1.7,0.5-2.8c0-0.9-0.1-1.8-0.4-2.5h203.7c-0.2,0.7-0.4,1.6-0.4,2.5C818,292.8,818.2,293.7,818.5,294.5z M819.6,298.5
v5c0,1.6-0.6,4.4-1.1,6H614.6c-0.4-1.6-1.1-4.4-1.1-6v-5H819.6z M615.1,382.8h202.8c-0.7,1.1-1.4,2.6-1.4,4.4
c0,1.2,0.3,2.3,0.7,3.2H615.8c0.4-0.9,0.7-1.9,0.7-3.2C616.5,385.4,615.9,384,615.1,382.8z M616.5,279.2h200.1c1.5,0,2.4,0.2,3,0.3
v5.7H613.5v-5.7C614.1,279.4,615,279.2,616.5,279.2z M613.5,398.9v-4.5h206.1v4.5H613.5z"/>
<path fill="#354D68" d="M820.6,139.2c-6.7-0.4-7.4,0.4-12.1-3.5c-4.7-3.9-10.2-0.4-14.9-2.3c-4.7-2-11.3,3.5-18,0
c-6.7-3.5-8.6-5.5-15.3-2.7c-4.9,2-8.1,5.7-12.2,5.5c-0.7,0-0.9,77.3-1.7,77c-0.9-0.3-2.3-78.3-3.3-79c-7-5.1-14.5,4.7-22.7,2
s-11.3-3.9-25-2c-13.7,2-9.8,3.1-19.2-1.2c-9.4-4.3-10.2,7.4-20,3.9c-6.9-2.5-10.7,1.3-16,2.7c-1.4,0.4,0.5,113.5-4.5,0.5
c0-0.9-1.9-0.2-3-0.5c-10.2-2.7-20.2-3.1-25.7-0.8c-5.6,2.3-10.3,36-6.8,64.6c3.5,28.6,6.3,56.1,15.3,56.1c9,0,194.9-0.2,194.9-0.2
s12.1,2.3,14.1-9.8c2-12.1,12.1-83.8,10.2-93.5C832.7,146.2,827.2,139.5,820.6,139.2z"/>
<path fill="#354D68" d="M716.4,418.5H604.4c0,61.8-0.6,52.4,38.4,61.8c29,7,54.8,21.1,43.8,90.8c-11,69.7-18,173.8-5.5,242.7
c12.5,68.9,35.2,61.8,35.2,61.8s22.7,7,35.2-61.8c12.5-68.9,5.5-173-5.5-242.7c-11-69.7,14.9-83.8,43.8-90.8
c39-9.5,38.4,0,38.4-61.8H716.4z"/>
<path fill="#354D68" d="M1300.4,705.8H1108c-9,0-16.4,6.9-16.4,15.4v44.9c0,8.5,7.4,15.4,16.4,15.4h192.3c9,0,16.4-6.9,16.4-15.4
v-44.9C1316.8,712.7,1309.4,705.8,1300.4,705.8z M1307.8,766.2c0,3.5-3.3,6.4-7.4,6.4H1108c-4.1,0-7.4-2.9-7.4-6.4v-44.9
c0-3.5,3.3-6.4,7.4-6.4h192.3c4.1,0,7.4,2.9,7.4,6.4V766.2z"/>
<path fill="#354D68" d="M1108,830.6c0,21.8,21.1,22.5,21.1,22.5h148.7c0,0,21.1-0.7,21.1-22.5c0-21.8,0-37.7,0-37.7h-191
C1108,792.9,1108,808.8,1108,830.6z"/>
<path fill="#354D68" d="M1118.1,250.5c7.2,6.4,13.4,9.7,18.4,9.7c6.3,0,11-5.1,16.5-10.9c4.3-4.7,9.2-10,15.6-12.8
c1.1-0.5,2.3-0.9,3.5-1.3c3.9-1.1,7.1-1.1,10.2,0.2c3.8,1.6,6.4,4.8,9.1,8.2c3.9,4.8,8.2,10.3,17.4,13.3c2.3,0.7,4.5,1.1,6.7,1.1
c8.5,0,14.7-5.9,20.8-11.7c4.9-4.7,9.6-9.1,15.3-10c0.9-0.1,1.7-0.2,2.5-0.2c7.2,0,10.8,5.3,13.9,10c2.8,4.1,5.6,8.4,11,10.2
c0.8,0.3,1.6,0.4,2.4,0.4c5.3,0,9.9-6.5,12.1-10.4c1.3-2.2,1.1-5-0.4-7l-59.8-79.4c-0.5-0.6-1.1-1.2-1.7-1.6
c-0.2-0.7-0.5-1.5-1-2.1l-21.9-29c-1.2-1.6-3.1-2.5-5.1-2.5c-2,0-3.9,0.9-5.1,2.5l-21.9,29c-0.5,0.6-0.8,1.4-1,2.1
c-0.7,0.4-1.3,0.9-1.7,1.6l-59.4,78.8c-1.7,2.3-1.7,5.5,0.1,7.8C1115.5,247.9,1116.7,249.2,1118.1,250.5z M1180,166.5h1.4h43.8h1.4
l57.9,76.9c-1.6,2.4-2.9,3.7-3.6,4.3c-2-0.9-3.5-3-5.8-6.4c-3.5-5.2-9.4-14-21.4-14c-1.2,0-2.5,0.1-3.9,0.3
c-8.5,1.3-14.6,7.2-20.1,12.4c-5.2,4.9-9.7,9.2-14.6,9.2c-1.2,0-2.5-0.2-3.9-0.7c-6.6-2.1-9.6-5.9-13.1-10.3
c-3.1-3.9-6.7-8.4-12.6-10.9c-2.7-1.2-5.6-1.7-8.6-1.7c-2.5,0-5,0.4-7.6,1.2c-1.5,0.4-3,1-4.5,1.7c-8.1,3.6-13.9,9.8-18.6,14.9
c-4.2,4.6-7.7,8.1-9.9,8.1c-1,0-4.7-0.5-12.4-7.4c-0.5-0.5-1-0.9-1.4-1.4L1180,166.5z"/>
<path fill="#354D68" d="M1277.9,267.5c-11-3.7-12.9-15.2-19.4-18.8c-1.2-0.7-2.7,0.2-2.7,1.6v443.5h45.9V253.6
c0-0.4-0.1-0.8-0.4-1.1l0,0c-0.8-1.1-2.5-0.9-3.1,0.3C1294.8,259.7,1287.7,270.8,1277.9,267.5z"/>
<path fill="#354D68" d="M1170.2,250.5c-1.5-0.9-1.2-0.7-2.8-1.6c-16.4,9.8-22.6,37.7-51.5,12c-3.4-3.1-5.5-6.1-6.9-8.5
c-0.6-1.2-2.3-1.3-3.1-0.2l-0.2,0.3c-0.2,0.3-0.4,0.7-0.4,1.1v440.2h64.8V250.5z"/>
</g>
</svg>
