<svg xmlns="http://www.w3.org/2000/svg" viewBox="-273 8.8 460 300" >
<path d="M-225.8,43.9l-2-17.4c0,0,0.2-2.7-5-2.7c-5.2,0-5,2.7-5,2.7l-2,17.4H-225.8z"/>
<path d="M-252.9,81.8c0,0-0.3,0.8,0,1.9L-252.9,81.8z"/>
<path d="M-212.6,82.4v-0.7h-0.1C-212.7,81.8-212.6,82-212.6,82.4z"/>
<path d="M-253.3,229.5l0.1,0.4c0.4,1.2,1.5,2.5,3.1,2.5c0.3,0,0.5,0,0.8-0.1c2.3-0.6,9-1.1,16.6-1.1
	c7.4,0,13.8,0.4,16.4,1c0.2,0,0.4,0.1,0.6,0.1c1.8,0,2.8-1.6,3.3-2.6l0.2-0.4l1.8-144.9l-44.8,0.8L-253.3,229.5z M-214.8,88.7
	l-1.7,138.9c-4.9-0.8-13.4-0.9-16.1-0.9c-5.6,0-12.4,0.2-16.3,0.9l-1.7-138.3L-214.8,88.7z"/>
<path d="M-212.6,81.5v-0.4c0-0.4-0.1-0.7-0.1-0.7s-2.2-20.9-3.2-27.4s-8.1-6.6-8.1-6.6h-7.3h-3.1h-7.3
	c0,0-7.2,0-8.1,6.6c-0.9,6.6-3.2,27.4-3.2,27.4l0,1.9L-212.6,81.5z"/>
<path d="M-214.3,235.6c-2.8-2.3-36.8-2.2-36.8,0.3c0,0.1,0,0.2,0,0.3c0.4,4.7,9.1,48.7,11.5,48.7
	c0,0,0.9,1.3,2.3,2.4h9.1c1.5-1.1,2.3-2.4,2.3-2.4c2.6,0,11.6-46.4,11.6-49C-214.1,235.8-214.2,235.7-214.3,235.6z"/>
<path d="M-232.6,297.8c1.8,0,3.2-7.7,3.2-7.7h-6.4C-235.8,290.1-234.4,297.8-232.6,297.8z"/>
<path d="M-16.9,71.6h-71.9c-5,0-5.7,3.2-5.7,3.6l0,0.2v4.1c0,0.5,0.1,0.9,0.3,1.2c-0.1,0.3-0.3,0.7-0.3,1.2V85
	c0,1.2,0.4,2.7,0.5,3.4v19.8c0,1.2-0.2,2.3-0.3,3.1c-0.1,0.6-0.2,1.2-0.2,1.7c0,0.8,0.3,1.4,0.6,1.9c-0.3,0.5-0.6,1.2-0.6,2v7h83.4
	v-7c0-0.8-0.3-1.5-0.6-2c0.3-0.5,0.6-1.2,0.6-1.9c0-0.5-0.1-1.1-0.2-1.7c-0.1-0.8-0.3-1.9-0.3-3.1V88.4c0.2-0.7,0.5-2.2,0.5-3.4
	v-3.2c0-0.5-0.1-0.9-0.3-1.2c0.1-0.3,0.3-0.8,0.3-1.2v-4.1l0-0.2C-11.3,74.8-11.9,71.6-16.9,71.6z M-16,112.1h-73.8
	c0.2-1,0.4-2.2,0.4-3.8V88.6h73v19.6C-16.4,109.8-16.2,111.1-16,112.1z M-16.2,81.8h-73.3c0.1-0.3,0.2-0.6,0.2-1
	c0-0.3,0-0.6-0.1-0.9h73.2c-0.1,0.3-0.1,0.6-0.1,0.9C-16.4,81.1-16.4,81.5-16.2,81.8z M-15.9,83.2V85c0,0.6-0.2,1.6-0.4,2.2h-73.3
	c-0.1-0.6-0.4-1.6-0.4-2.2v-1.8H-15.9z M-89.4,113.5h72.9c-0.3,0.4-0.5,0.9-0.5,1.6c0,0.4,0.1,0.8,0.3,1.2h-72.4
	c0.1-0.3,0.3-0.7,0.3-1.2C-88.9,114.4-89.1,113.9-89.4,113.5z M-88.9,76.2h71.9c0.5,0,0.9,0.1,1.1,0.1v2h-74.1v-2
	C-89.7,76.3-89.4,76.2-88.9,76.2z M-89.9,119.3v-1.6h74.1v1.6H-89.9z"/>
<path d="M-15.5,25.9c-2.4-0.1-2.7,0.1-4.4-1.3c-1.7-1.4-3.7-0.1-5.4-0.8c-1.7-0.7-4.1,1.3-6.5,0
	c-2.4-1.3-3.1-2-5.5-1c-1.8,0.7-2.9,2-4.4,2c-0.3,0-0.3,27.8-0.6,27.7c-0.3-0.1-0.8-28.1-1.2-28.4c-2.5-1.8-5.2,1.7-8.2,0.7
	s-4.1-1.4-9-0.7c-4.9,0.7-3.5,1.1-6.9-0.4c-3.4-1.5-3.7,2.7-7.2,1.4c-2.5-0.9-3.8,0.5-5.8,1c-0.5,0.1,0.2,40.8-1.6,0.2
	c0-0.3-0.7-0.1-1.1-0.2c-3.7-1-7.3-1.1-9.2-0.3c-2,0.8-3.7,12.9-2.4,23.2s2.3,20.2,5.5,20.2s70.1-0.1,70.1-0.1s4.4,0.8,5.1-3.5
	c0.7-4.4,4.4-30.1,3.7-33.6C-11.1,28.4-13.1,26-15.5,25.9z"/>
<path d="M-53,126.3h-40.3c0,22.2-0.2,18.8,13.8,22.2c10.4,2.5,19.7,7.6,15.7,32.6s-6.5,62.5-2,87.3
	S-53,290.7-53,290.7s8.2,2.5,12.7-22.2c4.5-24.8,2-62.2-2-87.3s5.4-30.1,15.7-32.6c14-3.4,13.8,0,13.8-22.2H-53z"/>
<path d="M163.1,234.8H91.9c-3.3,0-6.1,2.6-6.1,5.7v16.6c0,3.1,2.7,5.7,6.1,5.7h71.2c3.3,0,6.1-2.6,6.1-5.7v-16.6
	C169.2,237.4,166.5,234.8,163.1,234.8z M165.9,257.2c0,1.3-1.2,2.4-2.7,2.4H91.9c-1.5,0-2.7-1.1-2.7-2.4v-16.6
	c0-1.3,1.2-2.4,2.7-2.4h71.2c1.5,0,2.7,1.1,2.7,2.4L165.9,257.2L165.9,257.2z"/>
<path d="M91.9,281c0,8.1,7.8,8.3,7.8,8.3h55c0,0,7.8-0.3,7.8-8.3s0-13.9,0-13.9H91.9C91.9,267.1,91.9,272.9,91.9,281
	z"/>
<path d="M95.7,66.4c2.7,2.4,5,3.6,6.8,3.6c2.3,0,4.1-1.9,6.1-4c1.6-1.7,3.4-3.7,5.8-4.7c0.4-0.2,0.9-0.3,1.3-0.5
	c1.4-0.4,2.6-0.4,3.8,0.1c1.4,0.6,2.4,1.8,3.4,3c1.4,1.8,3,3.8,6.4,4.9c0.9,0.3,1.7,0.4,2.5,0.4c3.1,0,5.4-2.2,7.7-4.3
	c1.8-1.7,3.6-3.4,5.7-3.7c0.3,0,0.6-0.1,0.9-0.1c2.7,0,4,2,5.1,3.7c1,1.5,2.1,3.1,4.1,3.8c0.3,0.1,0.6,0.1,0.9,0.1
	c2,0,3.7-2.4,4.5-3.8c0.5-0.8,0.4-1.9-0.1-2.6l-22.1-29.4c-0.2-0.2-0.4-0.4-0.6-0.6c-0.1-0.3-0.2-0.6-0.4-0.8l-8.1-10.7
	c-0.4-0.6-1.1-0.9-1.9-0.9c-0.7,0-1.4,0.3-1.9,0.9l-8.1,10.7c-0.2,0.2-0.3,0.5-0.4,0.8c-0.3,0.1-0.5,0.3-0.6,0.6L94.3,62
	c-0.6,0.9-0.6,2,0,2.9C94.7,65.4,95.2,65.9,95.7,66.4z M118.6,35.3h0.5h16.2h0.5l21.4,28.5c-0.6,0.9-1.1,1.4-1.3,1.6
	c-0.7-0.3-1.3-1.1-2.1-2.4c-1.3-1.9-3.5-5.2-7.9-5.2c-0.4,0-0.9,0-1.4,0.1c-3.1,0.5-5.4,2.7-7.4,4.6c-1.9,1.8-3.6,3.4-5.4,3.4
	c-0.4,0-0.9-0.1-1.4-0.3c-2.4-0.8-3.6-2.2-4.8-3.8c-1.1-1.4-2.5-3.1-4.7-4c-1-0.4-2.1-0.6-3.2-0.6c-0.9,0-1.9,0.1-2.8,0.4
	c-0.6,0.1-1.1,0.4-1.7,0.6c-3,1.3-5.1,3.6-6.9,5.5c-1.6,1.7-2.8,3-3.7,3c-0.4,0-1.7-0.2-4.6-2.7c-0.2-0.2-0.4-0.3-0.5-0.5
	L118.6,35.3z"/>
<path d="M154.8,72.6c-4.1-1.4-4.8-5.6-7.2-7c-0.4-0.3-1,0.1-1,0.6v164.1h17V67.5c0-0.1,0-0.3-0.1-0.4l0,0
	c-0.3-0.4-0.9-0.3-1.1,0.1C161.1,69.8,158.4,73.9,154.8,72.6z"/>
<path d="M115,66.4c-0.6-0.3-0.4-0.3-1-0.6c-6.1,3.6-8.4,13.9-19.1,4.4c-1.3-1.1-2-2.3-2.6-3.1
	c-0.2-0.4-0.9-0.5-1.1-0.1l-0.1,0.1c-0.1,0.1-0.1,0.3-0.1,0.4v162.9h24L115,66.4L115,66.4z"/>
</svg>
