<svg xmlns="http://www.w3.org/2000/svg" viewBox="0 0 23.209 23.209">
<path d="M4.097,20.444c1.786-2.575,4.755-4.267,8.127-4.267c3.07,0,5.804,1.402,7.619,3.596
c2.08-2.098,3.366-4.982,3.366-8.169C23.209,5.196,18.014,0,11.604,0C5.196,0,0,5.196,0,11.605C0,15.148,1.593,18.317,4.097,20.444z
M17.808,15.086c-0.169,0.376-0.47,0.453-0.824,0.289c-1.545-0.715-3.265-1.115-5.079-1.115c-1.862,0-3.624,0.422-5.202,1.172
c-0.169,0.081-0.54,0.116-0.707-0.365c-0.167-0.481,0.097-0.754,0.249-0.824c1.721-0.805,3.635-1.262,5.66-1.262
c1.988,0,3.902,0.378,5.569,1.219C17.737,14.334,17.976,14.71,17.808,15.086z M18.795,12.122c-0.12,0.168-0.307,0.285-0.529,0.285
c-0.061,0-0.117-0.02-0.174-0.036c-1.893-0.837-3.985-1.307-6.188-1.307c-2.187,0-4.264,0.463-6.147,1.288
c-0.068,0.024-0.138,0.045-0.215,0.045c-0.226,0-0.417-0.121-0.536-0.294l-0.125-0.376c0.002-0.195,0.093-0.364,0.23-0.484
c2.074-0.931,4.371-1.456,6.793-1.456c2.421,0,4.716,0.523,6.79,1.455c0.139,0.118,0.228,0.292,0.232,0.488L18.795,12.122z
M4.269,7.435C6.629,6.482,9.204,5.95,11.905,5.95c2.676,0,5.228,0.522,7.57,1.457c0.317,0.162,0.539,0.48,0.539,0.86
c0,0.538-0.437,0.975-0.975,0.975c-0.075,0-0.147-0.017-0.216-0.033c-2.139-0.862-4.472-1.342-6.918-1.342
c-2.448,0-4.783,0.48-6.922,1.344C4.913,9.226,4.844,9.242,4.771,9.242c-0.538,0-0.975-0.436-0.975-0.975
C3.796,7.913,3.987,7.605,4.269,7.435z M12.224,20.013c-1.965,0-3.706,0.947-4.817,2.401c1.303,0.506,2.715,0.795,4.197,0.795
c1.837,0,3.567-0.438,5.111-1.198C15.605,20.786,14.004,20.013,12.224,20.013z"/>
</svg>
