<?xml version="1.0" encoding="utf-8"?>
<!-- Generator: Adobe Illustrator 17.1.0, SVG Export Plug-In . SVG Version: 6.00 Build 0)  -->
<!DOCTYPE svg PUBLIC "-//W3C//DTD SVG 1.1//EN" "http://www.w3.org/Graphics/SVG/1.1/DTD/svg11.dtd">
<svg version="1.1" id="Layer_1" xmlns="http://www.w3.org/2000/svg" xmlns:xlink="http://www.w3.org/1999/xlink" x="0px" y="0px"
	 viewBox="0 0 821.7 333.5" enable-background="new 0 0 821.7 333.5" xml:space="preserve">
<g>
	<path fill="none" d="M411.1,193.8c0.1-0.1,0.3-0.2,0.4-0.3l-0.6-1.2C411,192.8,411,193.3,411.1,193.8
		C411.1,193.8,411.1,193.8,411.1,193.8z"/>
	<path fill="none" d="M27.5,157.5c-2.3,0.9-4.2,2.8-5.2,5.2c-3.4,8.6,4.7,16.8,13.3,13.3c2.3-0.9,4.2-2.8,5.1-5.1
		C44.2,162.2,36.1,154.1,27.5,157.5z"/>
	<path fill="#D9E1E7" d="M221.2,34.8c-0.6,0-1.3,0.1-1.9,0.2c-1.3,0.1-2.3,1.2-2.3,2.6v23.1c0,4.6-3.7,8.3-8.3,8.3h-65.4
		c-0.7,0-1.3,0.2-1.8,0.7c-1.7,1.6-3.3,3.2-4.9,4.8c-0.9,1.2-0.5,1.6,1.1,1.6h71c4.6,0,8.3,3.7,8.3,8.3v58.4c0,2.4,1,2.1,1.6,1.8
		c1-0.7,2-1.3,3.1-1.8c1.5-0.7,2.4-2.2,2.4-3.8V84.2c0-4.6,3.7-8.3,8.3-8.3h70.5c4.6,0,8.3,3.7,8.3,8.3v2.5c0,2,0.5,2.5,2.3,1.6
		c0,0,0,0,0.1,0c0.6-0.2,1.1-0.4,1.7-0.5c0.4-0.1,0.9-0.2,1.4-0.3c0.5-0.1,1.6-0.1,1.6-1.8c0-0.9,0-2,0-2c0-4.2,3.4-7.7,7.7-7.7
		c0,0,1.7-0.1-0.2-2s-8-7.7-12.4-11.1c-1.8-1.6-2.2-0.2-2.4,0.5c-0.9,3.2-3.9,5.6-7.4,5.6h-71.1c-4.6,0-8.3-3.7-8.3-8.3V37.4
		C224,35.8,222.7,34.7,221.2,34.8z"/>
	<path fill="#D9E1E7" d="M286.9,163h-25.2c-0.4,0-0.7,0.5-0.5,0.9c1,1.9,1.9,3.8,2.8,5.8c0.1,0.2,0.3,0.3,0.5,0.3h22.5
		c0.3,0,0.6-0.3,0.6-0.6c0-1.9,0-3.8-0.1-5.9C287.4,163.2,287.2,163,286.9,163z"/>
	<path fill="#D9E1E7" d="M313.1,270.7c4.3-3.4,8.4-7.1,12.3-11c2.9-3,1.2-2.7-1.7-2.7s-5.7-2.5-5.7-5.7v-26c0,0-0.3-8.2-2.4,0.3
		c-0.8,3.4-2.2,6.4-3.6,9.1c-1.2,2-1.1,3.8-1.1,3.8v12.8c0,3.1-2.5,5.7-5.7,5.7h-75.7c-3.1,0-5.7-2.5-5.7-5.7c0,0,0-35.1,0-46.4
		c0-0.8-1.1-1-1.4-0.3c-1.6,3.7-4.2,9.5-5.6,12.4c0,0.1-0.1,0.2-0.1,0.3v34c0,3.1-2.5,5.7-5.7,5.7h-26.1c0,0-2.8,0.3-3.3,0.4
		c-2.1,0.6-4.3,0.9-6.5,0.9c-1.9,0-3.8-0.2-5.8-0.7c-0.7-0.2-4-0.7-4-0.7h-28.5c0,0-2.5,0.2-1,1.6c1.5,1.6,3,3.1,4.6,4.6
		c0.6,0.6,1.4,0.9,2.2,0.9h68.4c3.1,0,5.7,2.5,5.7,5.7v27.8c0,0.4,0.3,0.8,0.8,0.8c1.8,0.2,3.6,0.3,5.4,0.4c0.5,0,0.9-0.4,0.9-0.9
		v-28.3c0-3.1,2.5-5.7,5.7-5.7h75.7c3.1,0,5.7,2.5,5.7,5.7C311,269.7,310.5,273.1,313.1,270.7z"/>
	<path fill="#D9E1E7" d="M201.9,163h-26c-0.7,0-1.3,0.6-1.3,1.3c0,1.5-0.1,2.9-0.1,4.4c0,0.8,0.6,1.4,1.3,1.4H199
		c0.5,0,1-0.3,1.2-0.8c0.8-1.7,1.6-3.3,2.4-4.8C203.7,162.7,201.9,163,201.9,163z"/>
	<path fill="#D9E1E7" d="M123.5,243.5c1.8,2.5,3.7,5,5.6,7.4c0.3,0.4,0.8,0.9,0.8-0.9v-74.2c0-3.1,2.5-5.7,5.7-5.7h3
		c0.8,0,1.5-0.6,1.5-1.5c0-1.3,0.1-2.7,0.1-4.1c0-0.8-0.6-1.5-1.5-1.5h-3.1c-3.1,0-5.7-2.5-5.7-5.7V152c0,0-0.2-2.8-1.2,0.3
		c-0.8,2.4-1.4,4.6-1.9,6.4c-1.2,4-2.4,8.3-4.6,12.3c-0.2,0.4-0.1,1.8,0.1,2.2c0.4,0.8,0.7,1.6,0.7,2.5v65.9
		C122.9,242.2,123.1,242.9,123.5,243.5z"/>
	<path fill="#D9E1E7" d="M341.6,163h-17.9c-0.7,0-1.3-0.2-1.9-0.4c0.1,2.7,0.1,5.3,0.1,7.8c0.6-0.2,1.2-0.4,1.8-0.4h9.1
		C335.5,167.2,338.4,164.9,341.6,163z"/>
	<path fill="#869198" d="M398,166.8c0-3.3-0.1-6.6-0.3-9.9c-0.4-7.3-1.3-14.5-2.7-21.5C380.3,58.4,312.5,0,231.3,0
		C152.6,0,86.5,54.7,69,128.1c-1.9,7.9,3.8,15.5,11.9,15.8l0.3,0c6.2,0.3,11.6-3.9,13-9.9c4.9-20.7,14.5-39.7,27.5-55.7
		c3.1-3.9,6.4-7.6,9.9-11.1c22.4-22.4,52.2-37.3,85.4-40.7c2.3-0.2,4.7-0.4,7-0.5c2.4-0.1,4.8-0.2,7.3-0.2c29.6,0,57,9.2,79.7,24.8
		c2.4,1.7,4.7,3.4,7,5.2c5.2,4,10,8.4,14.6,13.1c2.2,2.3,4.3,4.6,6.4,7c13.2,15.6,23.1,34.1,28.5,54.5c2.1,7.8,3.5,15.8,4.2,24
		c0.1,0.8,0.1,1.6,0.2,2.4c10.5,0.9,19.3,4.5,26.2,10.8C398,167.4,398,167.1,398,166.8z"/>
	<path fill="#869198" d="M344.1,251.1c-1.5,2-3.1,4-4.7,5.9c-2,2.4-4.1,4.8-6.3,7c-4.7,4.9-9.7,9.5-15.1,13.7
		c-2.3,1.8-4.6,3.5-7,5.2c-22.7,15.6-50.2,24.8-79.7,24.8c-2.4,0-4.9-0.1-7.3-0.2c-2.4-0.1-4.7-0.3-7-0.5
		c-33.3-3.4-63.2-18.4-85.6-40.9c-3.5-3.5-6.8-7.2-9.9-11.1c-12.9-16.1-22.4-35-27.3-55.7c-1.4-6-6.9-10.2-13-9.9l-0.3,0
		c-8,0.4-13.7,8-11.9,15.8c17.4,73.5,83.6,128.3,162.3,128.3c58.9,0,110.7-30.7,140.4-76.8c-0.7,0-1.4,0-2.1,0
		C359.9,256.7,351.3,254.8,344.1,251.1z"/>
	<path fill="#294C59" d="M447.8,156.6c2.4-0.9,4.1-3.2,4.1-5.8l0-9c0-3.5-2.8-6.3-6.2-6.3l-41.9-0.1c1.3,7,2.2,14.2,2.6,21.5
		l29.6,0.1c2.8-0.3,5.6-0.5,8.5-0.5C445.6,156.5,446.7,156.5,447.8,156.6z"/>
	<path fill="#294C59" d="M82.1,177.6c3.2,0,6.1,0,8.6,0c3.1,0,5.6-0.1,7.4-0.1c0.4,0,0.8-0.1,1.2-0.1c8.3-0.5,12.9-3.3,15.9-7.3
		c1.6-2.2,2.7-4.7,3.6-7.4c0.6-1.8,1.2-3.7,1.7-5.6c0.6-2.1,1.4-4.7,2.3-7.6c1.1-3.6,2.5-7.7,4.5-12.6c0.8-2.2,1.7-3.9,2.6-5.6
		c4.1-7.7,8.2-9.8,9.4-9.6c2.5,0.5,9,9.3,7.8,32.6c-0.2,3-0.3,5.9-0.4,8.8c-0.1,2.4-0.1,4.7-0.2,7c-0.9,50.1,7.3,77.5,24.5,81.4
		c1.5,0.3,2.9,0.5,4.4,0.5c14.1,0,27.1-15.9,41.5-50.5c0.1-0.3,0.3-0.6,0.4-1l0.6-1.3c0,0,0,0,0,0c2.3-5.8,4.3-10.5,6-14.4
		c3.6-8.1,6.2-12.4,7.9-14.7c0.1-0.1,0.2-0.2,0.3-0.4c0.1,0.1,0.2,0.2,0.2,0.4c2.3,3.3,5.9,10.2,11.7,24.2
		c6.4,15.6,23.5,57,46.8,51.8c9.4-2.1,16.2-11.2,20.2-27c4.1-16.2,5.4-39.4,3.9-69.6c-0.7-14.1,1.1-23.2,3.2-28.6
		c1.5-3.9,3.3-5.8,4.3-6.1c1.3-0.3,6.8,2.5,12.7,13.9c2.5,4.9,5.8,8.9,9.5,12.3c0.5,0.4,0.9,0.9,1.4,1.3c5.1,4.3,10.8,7.3,16.6,9.4
		c0.1,0,0.3-0.1,0.2-0.2c-1-8.9-3-17.6-5.7-25.9l0-0.1c-0.1-0.2-0.2-0.4-0.3-0.5c0,0,0,0,0,0l0,0c-0.9-1.9-1.8-4.4-2.7-6.1
		c0-0.1-0.1-0.1-0.1-0.2c-9.6-18.5-23-27.7-36-25c-0.4,0.1-0.9,0.2-1.3,0.3c-2,0.5-3.9,1.4-5.7,2.4c-12.5,7.4-19,26.9-17.6,54
		c0.2,4.5,0.4,8.6,0.5,12.6c0.1,2.4,0.1,4.8,0.1,7c0.2,34.4-4.8,49.7-7.7,54.1c-0.1,0.1-0.2,0.1-0.2,0c-2.9-2.2-10.7-10.3-22.1-38.2
		c-2.4-5.8-4.7-11.2-7-16c-1.2-2.5-2.4-4.9-3.7-7c-5.8-10.2-12.2-16.4-21-16.4h-0.2c-2.9,0-5.6,0.8-8.1,2.1c-2.5,1.3-4.8,3.2-7,5.8
		c-2.1,2.3-4.1,5.2-6.1,8.6c-1.3,2.1-2.5,4.5-3.8,7c-2.9,5.9-5.8,12.7-8.9,20.7c0,0,0,0,0,0l-0.5,1c-11.3,27.4-18.9,35.5-21.8,37.8
		c-0.1,0.1-0.2,0-0.3,0c-3.1-4.8-8.3-21.4-7.6-59.5c0-2.3,0.1-4.6,0.2-7c0.1-2.5,0.2-5,0.3-7.7c1.8-36-11.6-51.8-24.7-54.7
		c-4.2-0.9-9-0.6-13.9,1.4c-2.4,1-4.7,2.3-7,4.2c-5.8,4.5-11.3,11.8-15.6,22.8c-3.9,9.9-5.9,16.9-7.4,22.1c0,0.1-0.1,0.3-0.1,0.4
		c-1.2,3.9-6.2,4.5-9.1,4.5c-2.5,0-5.4,0-8.6,0c-2.7,0-5.6,0-8.6,0c-2.8,0-5.7,0-8.6,0c-1.2,0-2.4,0-3.6,0c-0.1,0-0.1,0-0.2-0.1
		c-1-2.8-2.5-5.4-4.2-7.8c-6.1-8.3-16.2-13.6-27.5-12.9c-16,1-28.8,14.2-29.4,30.2c-0.7,18,13.7,32.8,31.5,32.8
		c10.4,0,19.6-5.1,25.4-13c1.7-2.3,3.1-4.9,4.2-7.7c0-0.1,0.1-0.1,0.2-0.1c1.2,0,2.4,0,3.7,0c3,0,5.9,0,8.6,0
		C76.6,177.6,79.5,177.6,82.1,177.6z M40.8,170.8c-0.9,2.3-2.8,4.2-5.1,5.1c-8.6,3.5-16.8-4.7-13.3-13.3c0.9-2.3,2.8-4.2,5.2-5.2
		C36.1,154.1,44.2,162.2,40.8,170.8z"/>
	<path fill="#294C59" d="M363.6,169.4c-1.7,0.1-3.4,0.3-4.9,0.6h4.9C363.6,169.8,363.6,169.6,363.6,169.4z"/>
	<path fill="#294C59" d="M391.9,211.6h7.1c0,0,0,0,0,0V202c0-5.3-0.8-10-2.3-14.1c-1.4-3.8-3.5-7.2-6.2-10
		c-4.6-4.7-10.7-7.5-18.3-8.4c-1.8-0.2-3.6-0.3-5.5-0.3c-1.1,0-2.1,0-3.1,0.1c0,0.2,0,0.4,0,0.6h-4.8c-0.1,0-0.2,0-0.2,0
		c-6.9,1.3-12.5,4.4-16.9,9.2c-6,6.6-9.1,15.9-9.1,28c0,11.7,3.3,20.8,9.8,27.2c2.6,2.5,5.6,4.6,9,6.1c5.2,2.3,11.2,3.5,18.2,3.5
		c3.6,0,6.8-0.2,9.7-0.5c1.6-0.2,3.2-0.4,4.6-0.7c3.7-0.8,7.1-2,10.4-3.5c0.4-0.2,0.7-0.6,0.7-1.1v-12.7c0-0.9-0.9-1.4-1.7-1.1
		c-2.2,1-4.3,1.8-6.4,2.4c-1.4,0.4-2.7,0.8-4,1.1c-3.9,0.9-8,1.4-12.3,1.4c-4.7,0-8.4-1.1-11.4-3.3c-0.6-0.4-1.1-0.9-1.7-1.4
		c-2.9-2.9-4.5-6.8-4.9-11.8c-0.1-0.7,0.5-1.2,1.2-1.2h11.2H391.9z M354.2,198.5c-0.7,0-1.2-0.6-1.2-1.3c0.5-4.2,1.8-7.5,3.9-9.9
		c2.4-2.6,5.6-4,9.8-4c1.6,0,3,0.2,4.4,0.6c2.2,0.6,4,1.8,5.6,3.4c2.2,2.4,3.5,5.7,3.8,10c0,0.7-0.5,1.3-1.2,1.3h-10.7H354.2z"/>
	<path fill="#294C59" d="M466.7,175.5c-5.2-4.2-12.6-6.3-22.2-6.3c-9.7,0-18.5,2-26.6,6c-0.6,0.3-0.8,1-0.5,1.6l5.5,11.2
		c0.3,0.6,1,0.8,1.5,0.6c7.3-3.2,13.8-4.8,19.3-4.8c7.5,0,11.2,3.7,11.2,11v3.2c0,0,0,0,0,0l-12.5,0.4c-10.8,0.4-18.9,2.4-24.2,6
		c-5.4,3.6-8,9.3-8,16.9c0,7.3,2,12.9,6,16.9c4,4,9.4,5.9,16.3,5.9c5.6,0,10.2-0.8,13.7-2.4s6.9-4.5,10.2-8.7h0.5l3.5,9
		c0.2,0.5,0.6,0.8,1.1,0.8h11.8c0.6,0,1.2-0.5,1.2-1.2v-46.8C474.4,186.1,471.9,179.7,466.7,175.5z M454.9,215.3
		c0,4.3-1.4,7.8-4.1,10.4c-2.7,2.6-6.4,3.9-10.9,3.9c-6.4,0-9.5-2.8-9.5-8.3c0-3.9,1.4-6.7,4.2-8.6c2.8-1.9,7-2.9,12.8-3.1l7.6-0.3
		c0,0,0,0,0,0V215.3z"/>
	<path fill="#294C59" d="M522.5,173c-3.8,2.5-6.8,5.7-9.1,9.8h-1l-2.7-11.2c-0.1-0.5-0.6-0.9-1.1-0.9h-12.8c-0.6,0-1.2,0.5-1.2,1.2
		v69.7c0,0.6,0.5,1.2,1.2,1.2h17.3c0.6,0,1.2-0.5,1.2-1.2V206c0-5.8,1.8-10.3,5.3-13.5s8.4-4.8,14.7-4.8c1.7,0,3.2,0.1,4.5,0.4
		c0.7,0.1,1.3-0.4,1.4-1.1l1.3-16c0-0.6-0.4-1.2-1-1.3c-1.6-0.3-3.4-0.4-5.6-0.4C530.4,169.3,526.3,170.5,522.5,173z"/>
	<path fill="#294C59" d="M606.4,175.5c-5.2-4.2-12.6-6.3-22.2-6.3c-9.7,0-18.5,2-26.6,6c-0.6,0.3-0.8,1-0.5,1.6l5.5,11.2
		c0.3,0.6,1,0.8,1.5,0.6c7.3-3.2,13.8-4.8,19.3-4.8c7.5,0,11.2,3.7,11.2,11v3.2c0,0,0,0,0,0l-12.5,0.4c-10.8,0.4-18.9,2.4-24.2,6
		c-5.4,3.6-8,9.3-8,16.9c0,7.3,2,12.9,6,16.9c4,4,9.4,5.9,16.3,5.9c5.6,0,10.2-0.8,13.7-2.4s6.9-4.5,10.2-8.7h0.5l3.5,9
		c0.2,0.5,0.6,0.8,1.1,0.8H613c0.6,0,1.2-0.5,1.2-1.2v-46.8C614.1,186.1,611.6,179.7,606.4,175.5z M594.6,215.3
		c0,4.3-1.4,7.8-4.1,10.4c-2.7,2.6-6.4,3.9-10.9,3.9c-6.4,0-9.5-2.8-9.5-8.3c0-3.9,1.4-6.7,4.2-8.6c2.8-1.9,7-2.9,12.8-3.1l7.6-0.3
		c0,0,0,0,0,0V215.3z"/>
	<path fill="#294C59" d="M635.6,242.7h17.3c0.6,0,1.2-0.5,1.2-1.2v-98c0-0.6-0.5-1.2-1.2-1.2h-17.3c-0.6,0-1.2,0.5-1.2,1.2v98
		C634.4,242.2,634.9,242.7,635.6,242.7z"/>
	<path fill="#294C59" d="M726.4,175.5c-5.2-4.2-12.6-6.3-22.2-6.3c-9.7,0-18.5,2-26.6,6c-0.6,0.3-0.8,1-0.5,1.6l5.5,11.2
		c0.3,0.6,1,0.8,1.5,0.6c7.3-3.2,13.8-4.8,19.3-4.8c7.5,0,11.2,3.7,11.2,11v3.2c0,0,0,0,0,0l-12.5,0.4c-10.8,0.4-18.9,2.4-24.2,6
		c-5.4,3.6-8,9.3-8,16.9c0,7.3,2,12.9,6,16.9c4,4,9.4,5.9,16.3,5.9c5.6,0,10.2-0.8,13.7-2.4s6.9-4.5,10.2-8.7h0.5l3.5,9
		c0.2,0.5,0.6,0.8,1.1,0.8H733c0.6,0,1.2-0.5,1.2-1.2v-46.8C734.2,186.1,731.6,179.7,726.4,175.5z M714.6,215.3
		c0,4.3-1.4,7.8-4.1,10.4c-2.7,2.6-6.4,3.9-10.9,3.9c-6.4,0-9.5-2.8-9.5-8.3c0-3.9,1.4-6.7,4.2-8.6c2.8-1.9,7-2.9,12.8-3.1l7.6-0.3
		c0,0,0,0,0,0V215.3z"/>
	<path fill="#294C59" d="M794.5,169.3c-9,0-15.8,3.6-20.4,10.7h-0.8c0.5-6.5,0.8-11.3,0.8-14.2v-22.2c0-0.6-0.5-1.2-1.2-1.2h-17.3
		c-0.6,0-1.2,0.5-1.2,1.2v98c0,0.6,0.5,1.2,1.2,1.2h13.1c0.5,0,0.9-0.3,1.1-0.7l2.7-6.5c0.2-0.4,0.6-0.7,1.1-0.7h0
		c0.4,0,0.7,0.2,0.9,0.4c4.8,5.9,11.3,8.8,19.6,8.8c8.6,0,15.3-3.3,20.3-9.8c5-6.5,7.4-15.8,7.4-27.7c0-11.6-2.4-20.7-7.2-27.3
		S803,169.3,794.5,169.3z M798.1,222.5c-2.4,3.7-5.6,5.6-9.6,5.6c-5,0-8.6-1.7-10.9-5s-3.4-8.9-3.4-16.6v-2.1
		c0.1-6.9,1.2-11.8,3.5-14.8c2.2-3,5.8-4.5,10.6-4.5c4.2,0,7.5,1.8,9.9,5.3c2.4,3.5,3.6,8.9,3.6,16S800.5,218.8,798.1,222.5z"/>
</g>
</svg>
