<?xml version="1.0" encoding="utf-8"?>
<!-- Generator: Adobe Illustrator 17.1.0, SVG Export Plug-In . SVG Version: 6.00 Build 0)  -->
<!DOCTYPE svg PUBLIC "-//W3C//DTD SVG 1.1//EN" "http://www.w3.org/Graphics/SVG/1.1/DTD/svg11.dtd">
<svg version="1.1" id="Layer_1" xmlns="http://www.w3.org/2000/svg" xmlns:xlink="http://www.w3.org/1999/xlink" x="0px" y="0px"
	 viewBox="0 0 451.9 333.5" enable-background="new 0 0 451.9 333.5" xml:space="preserve">
<g>
	<g>
		<path fill="#D9E1E7" d="M208.7,75.9c4.6,0,8.3,3.7,8.3,8.3v58.4c0,2.4,1,2.1,1.6,1.8c1-0.7,2-1.3,3.1-1.8c1.5-0.7,2.4-2.2,2.4-3.8
			V84.2c0-4.6,3.7-8.3,8.3-8.3h70.5c4.6,0,8.3,3.7,8.3,8.3v2.5c0,2,0.5,2.5,2.3,1.6c0,0,0,0,0.1,0c0.6-0.2,1.1-0.4,1.7-0.5
			c0.4-0.1,0.9-0.2,1.4-0.3c0.5-0.1,1.6-0.1,1.6-1.8c0-0.9,0-2,0-2c0-4.2,3.4-7.7,7.7-7.7c0,0,1.7-0.1-0.2-2
			c-1.9-1.9-8-7.7-12.4-11.1c-1.8-1.6-2.2-0.2-2.4,0.5c-0.9,3.2-3.9,5.6-7.4,5.6h-71.1c-4.6,0-8.3-3.7-8.3-8.3V37.4
			c0-1.5-1.3-2.7-2.8-2.6c-0.6,0-1.3,0.1-1.9,0.2c-1.3,0.1-2.3,1.2-2.3,2.6v23.1c0,4.6-3.7,8.3-8.3,8.3h-65.4
			c-0.7,0-1.3,0.2-1.8,0.7c-1.7,1.6-3.3,3.2-4.9,4.8c-0.9,1.2-0.5,1.6,1.1,1.6H208.7z"/>
		<path fill="#D9E1E7" d="M264.5,170h22.5c0.3,0,0.6-0.3,0.6-0.6c0-1.9,0-3.8-0.1-5.9c0-0.3-0.3-0.6-0.6-0.6h-25.2
			c-0.4,0-0.7,0.5-0.5,0.9c1,1.9,1.9,3.8,2.8,5.8C264,169.9,264.2,170,264.5,170z"/>
		<path fill="#D9E1E7" d="M318,251.3v-26c0,0-0.3-8.2-2.4,0.3c-0.8,3.4-2.2,6.4-3.6,9.1c-1.2,2-1.1,3.8-1.1,3.8v12.8
			c0,3.1-2.5,5.7-5.7,5.7h-75.7c-3.1,0-5.7-2.5-5.7-5.7c0,0,0-35.1,0-46.4c0-0.8-1.1-1-1.4-0.3c-1.6,3.7-4.2,9.5-5.6,12.4
			c0,0.1-0.1,0.2-0.1,0.3v34c0,3.1-2.5,5.7-5.7,5.7h-26.1c0,0-2.8,0.3-3.3,0.4c-2.1,0.6-4.3,0.9-6.5,0.9c-1.9,0-3.8-0.2-5.8-0.7
			c-0.7-0.2-4-0.7-4-0.7h-28.5c0,0-2.5,0.2-1,1.6c1.5,1.6,3,3.1,4.6,4.6c0.6,0.6,1.4,0.9,2.2,0.9h68.4c3.1,0,5.7,2.5,5.7,5.7v27.8
			c0,0.4,0.3,0.8,0.8,0.8c1.8,0.2,3.6,0.3,5.4,0.4c0.5,0,0.9-0.4,0.9-0.9v-28.3c0-3.1,2.5-5.7,5.7-5.7h75.7c3.1,0,5.7,2.5,5.7,5.7
			c0,0-0.5,3.3,2.1,1c4.3-3.4,8.4-7.1,12.3-11c2.9-3,1.2-2.7-1.7-2.7C320.8,257,318,254.5,318,251.3z"/>
		<path fill="#D9E1E7" d="M199,170c0.5,0,1-0.3,1.2-0.8c0.8-1.7,1.6-3.3,2.4-4.8c1-1.7-0.7-1.4-0.7-1.4h-26c-0.7,0-1.3,0.6-1.3,1.3
			c0,1.5-0.1,2.9-0.1,4.4c0,0.8,0.6,1.4,1.3,1.4H199z"/>
		<path fill="#D9E1E7" d="M135.6,170h3c0.8,0,1.5-0.6,1.5-1.5c0-1.3,0.1-2.7,0.1-4.1c0-0.8-0.6-1.5-1.5-1.5h-3.1
			c-3.1,0-5.7-2.5-5.7-5.7V152c0,0-0.2-2.8-1.2,0.3c-0.8,2.4-1.4,4.6-1.9,6.4c-1.2,4-2.4,8.3-4.6,12.3c-0.2,0.4-0.1,1.8,0.1,2.2
			c0.4,0.8,0.7,1.6,0.7,2.5l0,65.9c0,0.7,0.2,1.4,0.6,1.9c1.8,2.5,3.7,5,5.6,7.4c0.3,0.4,0.8,0.9,0.8-0.9v-74.2
			C129.9,172.6,132.5,170,135.6,170z"/>
		<path fill="#D9E1E7" d="M363.5,163h-39.8c-0.7,0-1.3-0.2-1.9-0.4c0.1,2.7,0.1,5.3,0.1,7.8c0.6-0.2,1.2-0.4,1.8-0.4h39.8
			c0-1.1,0.1-2.2,0.1-3.3C363.6,165.5,363.6,164.2,363.5,163z"/>
	</g>
	<path fill="#869198" d="M80.8,189.4c-8,0.4-13.7,8-11.9,15.8c17.4,73.5,83.6,128.3,162.3,128.3c91.9,0,166.8-74.8,166.8-166.8
		c0-3.3-0.1-6.6-0.3-9.9c-0.4-7.3-1.3-14.5-2.7-21.5C380.3,58.4,312.5,0,231.3,0C152.6,0,86.5,54.7,69,128.1
		c-1.9,7.9,3.8,15.5,11.9,15.8l0.3,0c6.2,0.3,11.6-3.9,13-9.9c4.9-20.7,14.5-39.7,27.5-55.7c3.1-3.9,6.4-7.6,9.9-11.1
		c22.4-22.4,52.2-37.3,85.4-40.7c2.3-0.2,4.7-0.4,7-0.5c2.4-0.1,4.8-0.2,7.3-0.2c29.6,0,57,9.2,79.7,24.8c2.4,1.7,4.7,3.4,7,5.2
		c5.2,4,10,8.4,14.6,13.1c2.2,2.3,4.3,4.6,6.4,7c13.2,15.6,23.1,34.1,28.5,54.5c2.1,7.8,3.5,15.8,4.2,24c0.2,2.8,0.4,5.7,0.5,8.6
		c0,1.3,0.1,2.5,0.1,3.8c0,1.1-0.1,2.2-0.1,3.3c-0.8,33-12.9,63.3-32.7,87c-2,2.4-4.1,4.8-6.3,7c-4.7,4.9-9.7,9.5-15.1,13.7
		c-2.3,1.8-4.6,3.5-7,5.2c-22.7,15.6-50.2,24.8-79.7,24.8c-2.4,0-4.9-0.1-7.3-0.2c-2.4-0.1-4.7-0.3-7-0.5
		c-33.3-3.4-63.2-18.4-85.6-40.9c-3.5-3.5-6.8-7.2-9.9-11.1c-12.9-16.1-22.4-35-27.3-55.7c-1.4-6-6.9-10.2-13-9.9L80.8,189.4z"/>
	<g>
		<path fill="#294C59" d="M445.7,135.5l-41.9-0.1c1.3,7,2.2,14.2,2.6,21.5l39.3,0.1c3.5,0,6.3-2.8,6.3-6.2l0-9
			C451.9,138.3,449.1,135.5,445.7,135.5z"/>
		<path fill="#294C59" d="M357.1,125.4c-0.1-0.2-0.2-0.4-0.3-0.5c0,0,0,0,0,0l0,0c-0.9-1.9-1.8-4.4-2.7-6.1c0-0.1-0.1-0.1-0.1-0.2
			c-9.6-18.5-23-27.7-36-25c-0.4,0.1-0.9,0.2-1.3,0.3c-2,0.5-3.9,1.4-5.7,2.4c-12.5,7.4-19,26.9-17.6,54c0.2,4.5,0.4,8.6,0.5,12.6
			c0.1,2.4,0.1,4.8,0.1,7c0.2,34.4-4.8,49.7-7.7,54.1c-0.1,0.1-0.2,0.1-0.2,0c-2.9-2.2-10.7-10.3-22.1-38.2c-2.4-5.8-4.7-11.2-7-16
			c-1.2-2.5-2.4-4.9-3.7-7c-5.8-10.2-12.2-16.4-21-16.4h-0.2c-2.9,0-5.6,0.8-8.1,2.1c-2.5,1.3-4.8,3.2-7,5.8
			c-2.1,2.3-4.1,5.2-6.1,8.6c-1.3,2.1-2.5,4.5-3.8,7c-2.9,5.9-5.8,12.7-8.9,20.7c0,0,0,0,0,0l-0.5,1c-11.3,27.4-18.9,35.5-21.8,37.8
			c-0.1,0.1-0.2,0-0.3,0c-3.1-4.8-8.3-21.4-7.6-59.5c0-2.3,0.1-4.6,0.2-7c0.1-2.5,0.2-5,0.3-7.7c1.8-36-11.6-51.8-24.7-54.7
			c-4.2-0.9-9-0.6-13.9,1.4c-2.4,1-4.7,2.3-7,4.2c-5.8,4.5-11.3,11.8-15.6,22.8c-3.9,9.9-5.9,16.9-7.4,22.1c0,0.1-0.1,0.3-0.1,0.4
			c-1.2,3.9-6.2,4.5-9.1,4.5c-2.5,0-5.4,0-8.6,0c-2.7,0-5.6,0-8.6,0c-2.8,0-5.7,0-8.6,0c-1.2,0-2.4,0-3.6,0c-0.1,0-0.1,0-0.2-0.1
			c-1-2.8-2.5-5.4-4.2-7.8c-6.1-8.3-16.2-13.6-27.5-12.9c-16,1-28.8,14.2-29.4,30.2c-0.7,18,13.7,32.8,31.5,32.8
			c10.4,0,19.6-5.1,25.4-13c1.7-2.3,3.1-4.9,4.2-7.7c0-0.1,0.1-0.1,0.2-0.1c1.2,0,2.4,0,3.7,0c3,0,5.9,0,8.6,0c3.1,0,5.9,0,8.6,0
			c3.2,0,6.1,0,8.6,0c3.1,0,5.6-0.1,7.4-0.1c0.4,0,0.8-0.1,1.2-0.1c8.3-0.5,12.9-3.3,15.9-7.3c1.6-2.2,2.7-4.7,3.6-7.4
			c0.6-1.8,1.2-3.7,1.7-5.6c0.6-2.1,1.4-4.7,2.3-7.6c1.1-3.6,2.5-7.7,4.5-12.6c0.8-2.2,1.7-3.9,2.6-5.6c4.1-7.7,8.2-9.8,9.4-9.6
			c2.5,0.5,9,9.3,7.8,32.6c-0.2,3-0.3,5.9-0.4,8.8c-0.1,2.4-0.1,4.7-0.2,7c-0.9,50.1,7.3,77.5,24.5,81.4c1.5,0.3,2.9,0.5,4.4,0.5
			c14.1,0,27.1-15.9,41.5-50.5c0.1-0.3,0.3-0.6,0.4-1l0.6-1.3c0,0,0,0,0,0c2.3-5.8,4.3-10.5,6-14.4c3.6-8.1,6.2-12.4,7.9-14.7
			c0.1-0.1,0.2-0.2,0.3-0.4c0.1,0.1,0.2,0.2,0.2,0.4c2.3,3.3,5.9,10.2,11.7,24.2c6.4,15.6,23.5,57,46.8,51.8
			c9.4-2.1,16.2-11.2,20.2-27c4.1-16.2,5.4-39.4,3.9-69.6c-0.7-14.1,1.1-23.2,3.2-28.6c1.5-3.9,3.3-5.8,4.3-6.1
			c1.3-0.3,6.8,2.5,12.7,13.9c2.5,4.9,5.8,8.9,9.5,12.3c0.5,0.4,0.9,0.9,1.4,1.3c5.1,4.3,10.8,7.3,16.6,9.4c0.1,0,0.3-0.1,0.2-0.2
			C361.7,142.5,359.8,133.8,357.1,125.4L357.1,125.4z M35.6,176c-8.6,3.5-16.8-4.7-13.3-13.3c0.9-2.3,2.8-4.2,5.2-5.2
			c8.6-3.4,16.8,4.7,13.3,13.3C39.8,173.2,37.9,175,35.6,176z"/>
	</g>
</g>
</svg>
