<svg xmlns="http://www.w3.org/2000/svg" viewBox="0 0 719.2 292.4">
<path fill="#FFFFFF" d="M359.8,169.8C359.8,169.8,359.8,169.8,359.8,169.8c0.1-0.1,0.2-0.2,0.4-0.2l-0.5-1.1
C359.7,169,359.7,169.4,359.8,169.8z"/>
<g opacity="0.3">
<path opacity="0.5" fill="#FFFFFF" d="M174.5,149.1c0.5,0,0.9-0.3,1.1-0.7c0.7-1.5,1.4-2.9,2.1-4.2c0.9-1.5-0.6-1.3-0.6-1.3h-22.8
c-0.6,0-1.2,0.5-1.2,1.2c0,1.3-0.1,2.6-0.1,3.8c0,0.7,0.5,1.2,1.2,1.2H174.5z"/>
<path opacity="0.5" fill="#FFFFFF" d="M118.9,149.1h2.6c0.7,0,1.3-0.6,1.3-1.3c0-1.2,0.1-2.4,0.1-3.6c0-0.7-0.6-1.4-1.3-1.4h-2.7
c-2.7,0-5-2.2-5-5v-4.6c0,0-0.2-2.4-1,0.3c-0.7,2.1-1.2,4-1.7,5.6c-1,3.5-2.1,7.3-4.1,10.8c-0.2,0.3-0.1,1.6,0,1.9
c0.4,0.7,0.6,1.4,0.6,2.2l0,57.7c0,0.6,0.2,1.2,0.5,1.7c1.6,2.2,3.2,4.4,4.9,6.4c0.3,0.3,0.7,0.8,0.7-0.8V154
C113.9,151.3,116.1,149.1,118.9,149.1z"/>
<path opacity="0.5" fill="#FFFFFF" d="M194.5,30.4c-0.9,0.1-1.8,0.1-2.8,0.2c-0.9,0.1-1.6,0.8-1.6,1.7v21.3c0,3.7-3,6.7-6.7,6.7
h-58.1c-0.4,0-0.9,0.2-1.2,0.5c-1.5,1.4-3,2.9-4.4,4.3c-0.8,1-0.4,1.4,1,1.4h62.8c3.7,0,6.7,3,6.7,6.7v51.8c0,2.1,0.9,1.9,1.4,1.6
c1-0.7,2-1.2,3.1-1.7c1.1-0.5,1.7-1.7,1.7-2.9V73.3c0-3.7,3-6.7,6.7-6.7H266c3.7,0,6.7,3,6.7,6.7c0,0,0,0.9,0,2.7
c0,1.8,0.4,2.2,2,1.4c0.5-0.2,1-0.3,1.5-0.5c0.4-0.1,0.8-0.2,1.2-0.3c0.5-0.1,1.4-0.1,1.4-1.6c0-0.8,0-1.8,0-1.8
c0-3.7,3-6.7,6.7-6.7c0,0,1.5-0.1-0.2-1.8c-1.7-1.7-7-6.7-10.8-9.7c-1.5-1.4-1.9-0.1-2.1,0.4c-0.8,2.8-3.4,4.9-6.5,4.9h-62.9
c-3.7,0-6.7-3-6.7-6.7V32.2C196.4,31.2,195.5,30.4,194.5,30.4z"/>
<path opacity="0.5" fill="#FFFFFF" d="M231.5,149.1h20.6c0-2,0-4-0.1-6.2h-23.5C229.6,144.9,230.6,146.9,231.5,149.1z"/>
<path opacity="0.5" fill="#FFFFFF" d="M119.3,226.8c1.3,1.4,2.7,2.7,4.1,4c0.5,0.5,1.2,0.7,1.9,0.7h59.9c2.7,0,5,2.2,5,5v24.4
c0,0.4,0.3,0.7,0.7,0.7c1.6,0.2,3.1,0.3,4.7,0.4c0.4,0,0.8-0.3,0.8-0.7v-24.8c0-2.7,2.2-5,5-5h66.3c2.7,0,5,2.2,5,5
c0,0-0.4,2.9,1.8,0.9c3.8-3,7.4-6.2,10.8-9.7c2.6-2.6,1.1-2.3-1.5-2.3s-5-2.2-5-5v-22.8c0,0-0.3-7.2-2.1,0.3c-0.7,3-1.9,5.6-3.2,8
c-1,1.7-0.9,3.3-0.9,3.3v11.2c0,2.7-2.2,5-5,5h-66.3c-2.7,0-5-2.2-5-5v-43.8l0,0l-0.7,1.5c-1.8,4.4-3.7,8.5-5.5,12.3v29.9
c0,2.7-2.2,5-5,5h-22.9c0,0-2.4,0.3-2.8,0.4c-1.9,0.5-3.8,0.8-5.7,0.8c-1.7,0-3.4-0.2-5-0.6c-0.6-0.1-3.5-0.6-3.5-0.6h-25
C120.2,225.3,118.1,225.5,119.3,226.8z"/>
<path opacity="0.5" fill="#FFFFFF" d="M283.8,142.9c-0.6,0-1.1-0.1-1.7-0.3c0.1,2.3,0.1,4.6,0.1,6.8c0.5-0.2,1-0.3,1.6-0.3h7.5
c2.3-2.4,4.9-4.5,7.7-6.2H283.8z"/>
</g>
<g opacity="0.6">
<g>
<path fill="#FFFFFF" d="M301.6,220.3c-1.3,1.7-2.6,3.4-4,5.1c-1.8,2.1-3.6,4.2-5.5,6.2c-4.1,4.3-8.5,8.3-13.2,12
c-2,1.6-4.1,3.1-6.2,4.6c-19.9,13.7-44,21.7-69.9,21.7c-2.1,0-4.3-0.1-6.4-0.2c-2.1-0.1-4.1-0.3-6.2-0.5
c-29.2-3-55.4-16.1-75-35.9c-3.1-3.1-5.9-6.3-8.7-9.7c-14.1-17.5-23.5-38.9-26.4-62.3c-2.1,0-4.6,0-7.6,0c-1.8,0-3.8,0-6.1,0
l-1.5,0l-7.6,0c7.6,73.5,69.9,131.1,145.4,131.1c51.7,0,97.1-27,123.1-67.5c-0.8,0-1.6,0-2.4,0
C315.2,224.9,307.9,223.4,301.6,220.3z"/>
</g>
<path fill="#FFFFFF" d="M349,146.2c0-2.9-0.1-5.8-0.3-8.7c-0.4-6.4-1.2-12.7-2.4-18.8C333.4,51.2,274,0,202.8,0
C127.2,0,64.9,57.6,57.3,131.2l7.6,0l1.7,0c2.2,0,4.1,0,5.9,0c3,0,5.6,0,7.6,0c2.9-23.5,12.3-45,26.5-62.5c2.7-3.4,5.6-6.6,8.7-9.7
c19.6-19.6,45.8-32.7,74.9-35.7c2-0.2,4.1-0.4,6.2-0.5c2.1-0.1,4.2-0.2,6.4-0.2c25.9,0,50,8,69.9,21.7c2.1,1.5,4.2,3,6.2,4.6
c4.5,3.5,8.8,7.4,12.8,11.5c1.9,2,3.8,4.1,5.6,6.2c11.6,13.7,20.2,29.9,25,47.8c1.8,6.8,3.1,13.8,3.7,21c0.1,0.7,0.1,1.5,0.1,2.2
c9.3,0.9,17,4.2,23,10C348.9,147.1,349,146.7,349,146.2z"/>
</g>
<g>
<path fill="#FFFFFF" d="M390.8,118.8l-36.8-0.1c1.1,6.2,1.9,12.4,2.3,18.8l34.5,0.1c3,0,5.5-2.4,5.5-5.5l0-7.9
C396.2,121.2,393.8,118.8,390.8,118.8z"/>
<path fill="#FFFFFF" d="M313.1,110c-0.1-0.1-0.1-0.3-0.2-0.5c0,0,0,0,0,0l0,0c-0.8-1.7-1.6-3.9-2.3-5.3c0,0,0-0.1-0.1-0.1
c-8.4-16.2-20.1-24.3-31.6-21.9c-0.4,0.1-0.8,0.1-1.1,0.2c-1.8,0.5-3.5,1.2-5,2.1c-10.9,6.5-16.6,23.6-15.4,47.4
c0.2,3.9,0.3,7.5,0.4,11c0,2.1,0.1,4.2,0.1,6.2c0.1,30.5-4.3,43.9-6.8,47.6c-2.5-1.8-9.3-8.7-19.5-33.5c-2.1-5.1-4.1-9.8-6.1-14
c-1.1-2.2-2.1-4.3-3.2-6.2c-5.1-8.9-10.7-14.4-18.4-14.4h-0.2c-2.5,0-4.9,0.7-7.1,1.8c-2.2,1.1-4.2,2.8-6.2,5.1
c-1.8,2.1-3.6,4.6-5.3,7.5c-1.1,1.9-2.2,3.9-3.3,6.2c-2.5,5.1-5.1,11.2-7.8,18.1l-0.4,0.9c-10.1,24.4-16.8,31.4-19.3,33.3
c-2.7-4-7.3-18.5-6.7-52.3c0-2,0.1-4,0.2-6.2c0.1-2.2,0.2-4.4,0.3-6.7c1.6-31.6-10.1-45.4-21.7-47.9c-3.7-0.8-7.9-0.5-12.2,1.2
c-2.1,0.8-4.1,2.1-6.2,3.6c-5.1,4-9.9,10.4-13.6,20c-3.4,8.7-5.2,14.8-6.5,19.3c0,0.1-0.1,0.3-0.1,0.4c-0.4,1.4-0.8,2.8-1.2,3.8
c-0.3,0-0.6,0-0.9,0c-1.4,0-3.4,0.1-5.8,0.1c-2.2,0-4.7,0-7.6,0c-2.4,0-4.9,0-7.6,0c-2.4,0-5,0-7.6,0c-1.1,0-2.2,0-3.3,0
c-0.9-2.5-2.2-4.8-3.7-6.9c-6-8.2-16.5-13.1-27.9-10.8c-10.7,2.1-19.3,10.8-21.4,21.5c-3.5,17.7,10,33.2,27.1,33.2
c9.1,0,17.2-4.5,22.3-11.4c1.5-2.1,2.8-4.4,3.7-6.8c1.1,0,2.2,0,3.3,0c2.6,0,5.2,0,7.6,0c2.7,0,5.2,0,7.6,0c2.8,0,5.4,0,7.6,0
c2.7,0,4.9-0.1,6.5-0.1c0.4,0,0.7-0.1,1.1-0.1c7.2-0.4,11.3-2.9,13.9-6.4c1.4-1.9,2.4-4.1,3.2-6.5c0.5-1.6,1-3.2,1.5-4.9
c0.5-1.9,1.2-4.1,2-6.7c1-3.1,2.2-6.7,3.9-11c0.7-1.9,1.5-3.5,2.3-4.9c3.6-6.7,7.2-8.6,8.2-8.4c2.2,0.5,7.9,8.1,6.8,28.5
c-0.1,2.6-0.2,5.2-0.3,7.7c-0.1,2.1-0.1,4.2-0.2,6.2c-0.8,43.9,6.4,67.9,21.5,71.4c1.3,0.3,2.6,0.4,3.8,0.4
c12.4,0,23.8-14,36.4-44.3c0.1-0.3,0.2-0.6,0.4-0.8l0.5-1.2c2-5.1,3.7-9.2,5.3-12.6c3.2-7.1,5.4-10.9,6.9-12.8
c0.1-0.1,0.2-0.2,0.2-0.3c0.1,0.1,0.1,0.2,0.2,0.3c2,2.9,5.2,8.9,10.2,21.2c5.6,13.7,20.6,50,41,45.4c8.3-1.9,14.2-9.8,17.7-23.7
c3.6-14.2,4.8-34.5,3.4-61.1c-0.6-12.4,0.9-20.4,2.8-25c1.4-3.4,2.9-5.1,3.8-5.3c1.1-0.3,6,2.2,11.1,12.2c2.2,4.3,5.1,7.8,8.3,10.8
c0.4,0.4,0.8,0.8,1.2,1.1c4.5,3.8,9.6,6.4,14.8,8.3C317.2,125.1,315.5,117.4,313.1,110L313.1,110z M29.8,154.7
c-6.5,1.6-12.3-4.2-10.7-10.7c0.7-3.1,3.3-5.6,6.3-6.3c6.5-1.6,12.3,4.2,10.7,10.7C35.4,151.5,32.9,154,29.8,154.7z"/>
<path fill="#FFFFFF" d="M323.5,213.8c-10.2,0-18.1-2.8-23.8-8.4c-5.7-5.6-8.6-13.5-8.6-23.8c0-10.6,2.6-18.7,7.9-24.5
c5.3-5.8,12.6-8.7,21.9-8.7c8.9,0,15.9,2.5,20.8,7.6c5,5.1,7.4,12.1,7.4,21v8.4h-40.7c0.2,4.9,1.6,8.7,4.3,11.5
c2.7,2.7,6.5,4.1,11.4,4.1c3.8,0,7.4-0.4,10.8-1.2c3.4-0.8,6.9-2,10.6-3.8v13.3c-3,1.5-6.2,2.6-9.6,3.4
C332.6,213.5,328.4,213.8,323.5,213.8z M321,160.7c-3.6,0-6.5,1.2-8.6,3.5c-2.1,2.3-3.3,5.6-3.6,9.8h24.1c-0.1-4.3-1.2-7.5-3.3-9.8
C327.6,161.8,324.7,160.7,321,160.7z"/>
<path fill="#FFFFFF" d="M403.3,212.7l-3.3-8.6h-0.5c-2.9,3.6-5.9,6.2-8.9,7.6c-3.1,1.4-7.1,2.1-12,2.1c-6.1,0-10.8-1.7-14.3-5.2
c-3.5-3.5-5.2-8.4-5.2-14.8c0-6.7,2.3-11.6,7-14.8c4.7-3.2,11.7-4.9,21.2-5.3l10.9-0.3v-2.8c0-6.4-3.3-9.6-9.8-9.6
c-5,0-11,1.5-17.8,4.6l-5.7-11.6c7.3-3.8,15.3-5.7,24.1-5.7c8.5,0,15,1.8,19.5,5.5c4.5,3.7,6.8,9.3,6.8,16.8v42H403.3z
M398.2,183.5l-6.7,0.2c-5,0.2-8.7,1.1-11.2,2.7c-2.4,1.7-3.7,4.2-3.7,7.6c0,4.9,2.8,7.3,8.4,7.3c4,0,7.2-1.1,9.6-3.4
c2.4-2.3,3.6-5.3,3.6-9.1V183.5z"/>
<path fill="#FFFFFF" d="M468.2,148.4c2.3,0,4.3,0.2,5.8,0.5l-1.3,16.1c-1.4-0.4-3.1-0.6-5.1-0.6c-5.5,0-9.8,1.4-12.8,4.2
c-3.1,2.8-4.6,6.8-4.6,11.8v32.1H433v-63.1h13l2.5,10.6h0.8c2-3.5,4.6-6.4,7.9-8.5C460.7,149.5,464.3,148.4,468.2,148.4z"/>
<path fill="#FFFFFF" d="M525.5,212.7l-3.3-8.6h-0.5c-2.9,3.6-5.9,6.2-8.9,7.6c-3.1,1.4-7.1,2.1-12,2.1c-6.1,0-10.8-1.7-14.3-5.2
c-3.5-3.5-5.2-8.4-5.2-14.8c0-6.7,2.3-11.6,7-14.8c4.7-3.2,11.7-4.9,21.2-5.3l10.9-0.3v-2.8c0-6.4-3.3-9.6-9.8-9.6
c-5,0-11,1.5-17.8,4.6l-5.7-11.6c7.3-3.8,15.3-5.7,24.1-5.7c8.5,0,15,1.8,19.5,5.5c4.5,3.7,6.8,9.3,6.8,16.8v42H525.5z
M520.4,183.5l-6.7,0.2c-5,0.2-8.7,1.1-11.2,2.7c-2.4,1.7-3.7,4.2-3.7,7.6c0,4.9,2.8,7.3,8.4,7.3c4,0,7.2-1.1,9.6-3.4
c2.4-2.3,3.6-5.3,3.6-9.1V183.5z"/>
<path fill="#FFFFFF" d="M572.5,212.7h-17.2v-87.8h17.2V212.7z"/>
<path fill="#FFFFFF" d="M630.6,212.7l-3.3-8.6h-0.5c-2.9,3.6-5.9,6.2-8.9,7.6c-3.1,1.4-7.1,2.1-12,2.1c-6.1,0-10.8-1.7-14.3-5.2
c-3.5-3.5-5.2-8.4-5.2-14.8c0-6.7,2.3-11.6,7-14.8c4.7-3.2,11.7-4.9,21.2-5.3l10.9-0.3v-2.8c0-6.4-3.3-9.6-9.8-9.6
c-5,0-11,1.5-17.8,4.6l-5.7-11.6c7.3-3.8,15.3-5.7,24.1-5.7c8.5,0,15,1.8,19.5,5.5c4.5,3.7,6.8,9.3,6.8,16.8v42H630.6z
M625.5,183.5l-6.7,0.2c-5,0.2-8.7,1.1-11.2,2.7c-2.4,1.7-3.7,4.2-3.7,7.6c0,4.9,2.8,7.3,8.4,7.3c4,0,7.2-1.1,9.6-3.4
c2.4-2.3,3.6-5.3,3.6-9.1V183.5z"/>
<path fill="#FFFFFF" d="M695.4,148.4c7.4,0,13.3,2.9,17.5,8.7s6.3,13.8,6.3,23.9c0,10.4-2.2,18.5-6.5,24.2
c-4.3,5.7-10.3,8.6-17.7,8.6c-7.4,0-13.2-2.7-17.4-8.1h-1.2l-2.9,6.9h-13.1v-87.8h17.2v20.4c0,2.6-0.2,6.8-0.7,12.5h0.7
C681.5,151.6,687.5,148.4,695.4,148.4z M689.9,162.2c-4.3,0-7.4,1.3-9.3,3.9c-2,2.6-3,6.9-3,12.9v1.9c0,6.8,1,11.6,3,14.6
s5.2,4.4,9.6,4.4c3.5,0,6.3-1.6,8.4-4.9c2.1-3.3,3.1-8,3.1-14.2c0-6.2-1.1-10.9-3.2-14C696.4,163.7,693.5,162.2,689.9,162.2z"/>
</g>
</svg>
