<?xml version="1.0" encoding="utf-8"?>
<!-- Generator: Adobe Illustrator 17.1.0, SVG Export Plug-In . SVG Version: 6.00 Build 0)  -->
<!DOCTYPE svg PUBLIC "-//W3C//DTD SVG 1.1//EN" "http://www.w3.org/Graphics/SVG/1.1/DTD/svg11.dtd">
<svg version="1.1" id="Layer_1" xmlns="http://www.w3.org/2000/svg" xmlns:xlink="http://www.w3.org/1999/xlink" x="0px" y="0px"
viewBox="0 0 1000 500" enable-background="new 0 0 1000 500" xml:space="preserve">
<g>
<g>
<path fill="#364D68" d="M559.7,411.1c0,6.2-3.1,11.2-9.3,11.2H476c-6.2,0-9.3-5-9.3-11.2l0,0c0-6.2,3.1-11.2,9.3-11.2h74.4
C556.6,399.8,559.7,404.9,559.7,411.1L559.7,411.1z"/>
</g>
<g>
<path fill="#364D68" d="M559.7,443.3c0,6.2-3.1,11.2-9.3,11.2H476c-6.2,0-9.3-5-9.3-11.2l0,0c0-6.2,3.1-11.2,9.3-11.2h74.4
C556.6,432.1,559.7,437.1,559.7,443.3L559.7,443.3z"/>
</g>
<g>
<path fill="#364D68" d="M559.7,443.3c0,6.2-3.1,11.2-9.3,11.2H476c-6.2,0-9.3-5-9.3-11.2l0,0c0-6.2,3.1-11.2,9.3-11.2h74.4
C556.6,432.1,559.7,437.1,559.7,443.3L559.7,443.3z"/>
</g>
<g>
<path fill="#364D68" d="M559.7,443.3c0,6.2-3.1,11.2-9.3,11.2H476c-6.2,0-9.3-5-9.3-11.2l0,0c0-6.2,3.1-11.2,9.3-11.2h74.4
C556.6,432.1,559.7,437.1,559.7,443.3L559.7,443.3z"/>
</g>
<g>
<g>
<path fill="#364D68" d="M485.5,465.2c-3.2,0-4.6,4-2.1,6c8.2,6.4,18.5,10.2,29.7,10.2c11.2,0,21.5-3.8,29.7-10.2
c2.5-1.9,1.1-6-2.1-6H485.5z"/>
</g>
</g>
<g>
<path fill="#364D68" d="M554.5,368.5c-1.2-0.6-2.5-0.9-4.1-0.9l0,0H476c-1.2,0-2.2,0.2-3.2,0.5c-1.6,0.5-2.9,1.5-3.8,2.8
c-1,1.3-1.6,2.8-2,4.6c-0.1,0.7-0.2,1.4-0.3,2.2c0,0.4,0,0.8,0,1.1s0,0.8,0,1.1c0,0.8,0.1,1.5,0.3,2.2c0.4,1.8,1,3.3,2,4.6
c1,1.3,2.2,2.2,3.8,2.8c0.9,0.3,2,0.5,3.2,0.5h74.4l0,0c1.6,0,2.9-0.3,4.1-0.9c3.5-1.7,5.3-5.7,5.3-10.4
C559.7,374.2,558,370.2,554.5,368.5z"/>
<path fill="#364D68" d="M513.2,16.4c-74,0-134.1,60.2-134.1,134.1c0,28.3,11.8,48.9,26.6,74.9c15.3,26.8,34.4,60.1,48.9,116.1
c2.7,10.4,14.3,16.6,23.9,16.6h69.4c9.6,0,21.2-6.2,23.9-16.6c14.5-56,33.6-89.3,48.9-116.1c14.9-26,26.6-46.6,26.6-74.9
C647.3,76.6,587.2,16.4,513.2,16.4z M506.3,339c-5.1-49-11.5-79.1-16.7-103.5c-3.7-17.4-6.6-31.4-8-46.8
c8.7,1.5,19.3,2.3,31.9,2.3c12.6,0,23.2-0.8,31.9-2.3c-1.4,15.4-4.3,29.4-8,46.8C532.2,260,525.8,290,520.7,339H506.3z
M604.1,215.9c-15.9,27.8-35.6,62.3-50.8,120.6c-0.6,1-3.4,2.5-5.5,2.5h-19.4c5-48.1,11.3-77.8,16.5-101.9c3.8-18,7-33.1,8.3-50.1
c8-2.2,13.6-5.3,16.9-9.2c3.1-3.7,3.1-6.9,3-8.2c-0.1-9.7-6-17.3-13.4-17.3c-7.5,0-12.7,8.8-13.4,17.6h-0.1
c0,3.8-0.1,7.5-0.3,11.1c-7.5,1.5-18,2.6-32.4,2.6c-14.5,0-24.9-1-32.4-2.6c-0.2-3.6-0.3-7.2-0.3-11.1h-0.1
c-0.6-8.8-5.9-17.6-13.4-17.6s-13.4,7.6-13.5,17.3c-0.1,1.3,0,4.6,3,8.2c3.3,4,9,7,16.9,9.2c1.3,17.1,4.5,32.2,8.3,50.1
c5.1,24.1,11.4,53.8,16.5,101.9h-20.2c-2.1,0-4.9-1.5-5.5-2.5c-15.1-58.4-34.9-92.9-50.8-120.6c-14-24.5-24.1-42.1-24.1-65.4
c0-63.4,51.6-115,115.1-115c63.4,0,115,51.6,115,115C628.3,173.8,618.1,191.4,604.1,215.9z M565.6,170.3c0,0.4-0.2,1.5-1.7,3
c-1.5,1.6-4.5,3.7-10.1,5.5c0.1-2.3,0.2-4.8,0.2-7.2l0,0c0-6.4,3.6-11.8,5.8-11.8c2.7,0,5.8,4.1,5.8,9.9l-0.1,0.1L565.6,170.3z
M473.4,178.9c-5.6-1.8-8.6-3.9-10.1-5.5c-1.4-1.5-1.7-2.6-1.7-3v-0.6c0-5.8,3.1-9.9,5.8-9.9c2.3,0,5.8,5.4,5.8,11.8l0,0
C473.2,174.1,473.3,176.5,473.4,178.9z"/>
<path opacity="0.9" fill="#FFFFFF" enable-background="new    " d="M565.6,170.3c0,0.4-0.2,1.5-1.7,3c-1.5,1.6-4.5,3.7-10.1,5.5
c0.1-2.3,0.2-4.8,0.2-7.2l0,0c0-6.4,3.6-11.8,5.8-11.8c2.7,0,5.8,4.1,5.8,9.9l-0.1,0.1L565.6,170.3z"/>
<path opacity="0.9" fill="#FFFFFF" enable-background="new    " d="M473.4,178.9c-5.6-1.8-8.6-3.9-10.1-5.5
c-1.4-1.5-1.7-2.6-1.7-3v-0.6c0-5.8,3.1-9.9,5.8-9.9c2.3,0,5.8,5.4,5.8,11.8l0,0C473.2,174.1,473.3,176.5,473.4,178.9z"/>
<path opacity="0.9" fill="#FFFFFF" enable-background="new    " d="M545.5,188.7c-1.4,15.4-4.3,29.4-8,46.8
C532.3,260,525.9,290,520.8,339h-14.4c-5.1-49-11.5-79.1-16.7-103.5c-3.7-17.4-6.6-31.4-8-46.8c8.7,1.5,19.3,2.3,31.9,2.3
C526.2,191.1,536.8,190.3,545.5,188.7z"/>
<path opacity="0.9" fill="#FFFFFF" enable-background="new    " d="M628.3,150.5c0,23.3-10.1,40.9-24.1,65.4
c-15.9,27.8-35.6,62.3-50.8,120.6c-0.6,1-3.4,2.5-5.5,2.5h-19.4c5-48.1,11.3-77.8,16.5-101.9c3.8-18,7-33.1,8.3-50.1
c8-2.2,13.6-5.3,16.9-9.2c3.1-3.7,3.1-6.9,3-8.2c-0.1-9.7-6-17.3-13.4-17.3c-7.5,0-12.7,8.8-13.4,17.6h-0.1
c0,3.8-0.1,7.5-0.3,11.1c-7.5,1.5-18,2.6-32.4,2.6c-14.5,0-24.9-1-32.4-2.6c-0.2-3.6-0.3-7.2-0.3-11.1h-0.1
c-0.6-8.8-5.9-17.6-13.4-17.6s-13.4,7.6-13.5,17.3c-0.1,1.3,0,4.6,3,8.2c3.3,4,9,7,16.9,9.2c1.3,17.1,4.5,32.2,8.3,50.1
c5.1,24.1,11.4,53.8,16.5,101.9h-20.2c-2.1,0-4.9-1.5-5.5-2.5c-15.1-58.4-34.9-92.9-50.8-120.6c-14-24.5-24.1-42.1-24.1-65.4
c0-63.4,51.6-115,115.1-115S628.3,87.1,628.3,150.5z"/>
</g>
<g>
<path fill="#364D68" d="M843.3,310.6H698.9v12.1c0,1.4,0.4,2.5,1,3.4c-0.6,0.9-1,2-1,3.4c0,0.9,0.2,1.9,0.4,3
c0.2,1.5,0.6,3.3,0.6,5.4v34.4c-0.3,1.2-0.9,3.7-0.9,5.8v5.5c0,0.8,0.2,1.5,0.4,2.1c-0.2,0.6-0.4,1.2-0.4,2.1v7.1l0.1,0.3
c0.1,0.6,1.2,6.2,9.9,6.2h124.5c8.6,0,9.8-5.5,9.9-6.2l0.1-0.3v-7.1c0-0.8-0.2-1.5-0.4-2.1c0.2-0.6,0.4-1.2,0.4-2V378
c0-2.1-0.6-4.7-0.9-5.9v-34.3c0-2.2,0.3-4,0.6-5.4c0.2-1.1,0.4-2.1,0.4-3c0-1.4-0.4-2.5-1-3.4c0.6-0.9,1-2,1-3.4v-12H843.3z
M835.2,393c-0.4,0.1-0.9,0.2-1.9,0.2H708.8c-0.9,0-1.5-0.1-1.9-0.2v-3.6h128.2v3.6H835.2z M834.4,387H707.7
c0.2-0.4,0.2-1,0.2-1.5c0-0.7-0.1-1.2-0.3-1.7h126.9c-0.2,0.5-0.3,1-0.4,1.7C834.1,386,834.3,386.6,834.4,387z M835.2,381.2H707
v-3.1c0-1,0.4-2.7,0.7-3.7h126.9c0.3,1,0.7,2.7,0.7,3.7v3.1H835.2z M708.4,324h125.3c-0.3,0.6-0.4,1.2-0.4,2
c0,1.1,0.4,2.1,0.9,2.7H708c0.5-0.7,0.9-1.6,0.9-2.7C708.8,325.2,708.6,324.6,708.4,324z M834.9,331.2c-0.2,1.6-0.7,3.9-0.7,6.7
v33.9H707.9v-33.9c0-2.8-0.4-5-0.7-6.7H834.9z M835.2,321.5H707v-2.8h128.2V321.5z"/>
<path opacity="0.9" fill="#FFFFFF" enable-background="new    " d="M835.2,389.5v3.6c-0.4,0.1-0.9,0.2-1.9,0.2H708.8
c-0.9,0-1.5-0.1-1.9-0.2v-3.6H835.2z"/>
<path opacity="0.9" fill="#FFFFFF" enable-background="new    " d="M834.1,385.4c0,0.6,0.1,1.1,0.2,1.5H707.7
c0.2-0.4,0.2-1,0.2-1.5c0-0.7-0.1-1.2-0.3-1.7h126.9C834.3,384.2,834.2,384.8,834.1,385.4z"/>
<path opacity="0.9" fill="#FFFFFF" enable-background="new    " d="M835.2,378.1v3.1H707v-3.1c0-1,0.4-2.7,0.7-3.7h126.9
C834.8,375.4,835.2,377.1,835.2,378.1z"/>
<rect x="707" y="318.7" opacity="0.9" fill="#FFFFFF" enable-background="new    " width="128.2" height="2.8"/>
<path opacity="0.9" fill="#FFFFFF" enable-background="new    " d="M708,328.8c0.5-0.7,0.9-1.6,0.9-2.7c0-0.8-0.2-1.4-0.4-2h125.3
c-0.3,0.6-0.4,1.2-0.4,2c0,1.1,0.4,2.1,0.9,2.7H708z"/>
<path opacity="0.9" fill="#FFFFFF" enable-background="new    " d="M834.9,331.2c-0.2,1.6-0.7,3.9-0.7,6.7v33.9H707.9v-33.9
c0-2.8-0.4-5-0.7-6.7H834.9z"/>
<path fill="#364D68" d="M844.6,469.9c1.2-6-5.1-50.6-6.3-58.2c-1.2-7.5-8.8-6.1-8.8-6.1s-115.7-0.1-121.3-0.1s-7.3,17.1-9.5,34.9
s0.7,38.8,4.2,40.2c3.4,1.4,9.6,1.2,16-0.5c0.7-0.2,1.9,0.2,1.9-0.3c3.1-70.3,1.9,0.1,2.8,0.3c3.3,0.9,5.7,3.2,10,1.7
c6.1-2.2,6.6,5.1,12.4,2.4c5.8-2.7,3.4-2,11.9-0.7c8.5,1.2,10.5,0.4,15.6-1.2c5.1-1.7,9.8,4.4,14.1,1.2c0.6-0.4,1.5-49,2.1-49.2
c0.5-0.2,0.6,47.9,1.1,47.9c2.6-0.1,4.5,2.2,7.6,3.4c4.2,1.7,5.4,0.5,9.5-1.7c4.2-2.2,8.3,1.2,11.2,0s6.3,1,9.3-1.4
c2.9-2.4,3.4-1.9,7.5-2.2C839.9,480.1,843.4,476,844.6,469.9z"/>
<path fill="#364D68" d="M840.6,306.5c0-38.5,0.4-32.5-23.9-38.5c-18-4.4-34.1-13.1-27.3-56.5s11.2-108.1,3.4-151
C785,17.7,770.9,22,770.9,22s-14.1-4.4-21.9,38.5s-3.4,107.6,3.4,151c6.8,43.4-9.2,52.1-27.3,56.5c-24.3,5.8-23.9,0-23.9,38.5H771
H840.6z"/>
</g>
<g>
<path fill="#364D68" d="M305.7,385.6H184.1c-5.7,0-10.4,4.4-10.3,9.7v28.4c0,5.4,4.7,9.7,10.4,9.7h121.5c5.7,0,10.4-4.4,10.4-9.7
v-28.4C316.1,389.9,311.4,385.6,305.7,385.6z M310.4,423.7c0,2.2-2.1,4-4.7,4H184.1c-2.6,0-4.7-1.8-4.7-4h0.1v-28.4
c0-2.2,2.1-4,4.7-4h121.5c2.6,0,4.7,1.8,4.7,4L310.4,423.7L310.4,423.7z"/>
<path opacity="0.9" fill="#FFFFFF" enable-background="new    " d="M310.4,395.4v28.4c0,2.2-2.1,4-4.7,4H184.1
c-2.6,0-4.7-1.8-4.7-4h0.1v-28.4c0-2.2,2.1-4,4.7-4h121.5C308.3,391.3,310.4,393.2,310.4,395.4z"/>
<path fill="#364D68" d="M305.8,440.6H185.1c0,0,0,10,0,23.8s13.3,14.2,13.3,14.2h94c0,0,13.3-0.4,13.3-14.2
C305.7,450.7,305.7,440.6,305.8,440.6z"/>
<path fill="#364D68" d="M301.6,90.3l-37.5-49.8c-0.3-0.5-0.6-0.8-1.1-1c-0.1-0.5-0.3-1-0.6-1.3l-13.8-18.3c-0.8-1-2-1.6-3.2-1.6
c-1.3,0-2.5,0.6-3.2,1.6l-13.8,18.3c-0.3,0.4-0.5,0.9-0.6,1.3c-0.4,0.2-0.8,0.6-1.1,1l-37.8,50.2c-0.9,1.3-1.1,3-0.2,4.4
c1.4,2.5,4.3,6.6,7.7,6.6c0.5,0,1-0.1,1.5-0.2c3.4-1.1,5.2-3.9,7-6.5c1.9-3,4.2-6.3,8.8-6.3c0.5,0,1,0.1,1.6,0.1
c3.6,0.6,6.6,3.3,9.7,6.3c3.9,3.7,7.8,7.4,13.2,7.4c1.4,0,2.8-0.2,4.2-0.7c5.8-1.9,8.5-5.4,11-8.4c1.7-2.1,3.4-4.2,5.7-5.2
c2-0.8,4-0.8,6.5-0.1c0.8,0.2,1.5,0.5,2.2,0.8c4,1.8,7.1,5.1,9.9,8.1c3.5,3.7,6.4,6.9,10.4,6.9c3.2,0,7.1-2.1,11.6-6.1
c0.9-0.8,1.6-1.6,2.2-2.5C302.7,93.8,302.7,91.8,301.6,90.3z M295.7,93.8c-4.9,4.4-7.2,4.7-7.8,4.7c-1.4,0-3.6-2.2-6.3-5.1
c-3-3.2-6.6-7.2-11.8-9.4c-1-0.4-1.9-0.8-2.8-1.1c-1.6-0.5-3.2-0.8-4.8-0.8c-1.9,0-3.7,0.3-5.4,1.1c-3.7,1.6-6,4.4-8,6.9
c-2.2,2.8-4.1,5.2-8.3,6.5c-0.9,0.3-1.7,0.5-2.5,0.5c-3.1,0-5.9-2.7-9.2-5.8c-3.5-3.3-7.3-7-12.7-7.8c-0.9-0.1-1.7-0.2-2.5-0.2
c-7.6,0-11.3,5.6-13.5,8.9c-1.5,2.2-2.4,3.5-3.7,4c-0.4-0.4-1.3-1.2-2.3-2.7l36.6-48.6h29.5l36.3,48.2
C296.3,93.2,296,93.4,295.7,93.8z"/>
<path opacity="0.9" fill="#FFFFFF" enable-background="new    " d="M296.6,92.9c-0.3,0.3-0.6,0.6-0.9,0.9
c-4.9,4.4-7.2,4.7-7.8,4.7c-1.4,0-3.6-2.2-6.3-5.1c-3-3.2-6.6-7.2-11.8-9.4c-1-0.4-1.9-0.8-2.8-1.1c-1.6-0.5-3.2-0.8-4.8-0.8
c-1.9,0-3.7,0.3-5.4,1.1c-3.7,1.6-6,4.4-8,6.9c-2.2,2.8-4.1,5.2-8.3,6.5c-0.9,0.3-1.7,0.5-2.5,0.5c-3.1,0-5.9-2.7-9.2-5.8
c-3.5-3.3-7.3-7-12.7-7.8c-0.9-0.1-1.7-0.2-2.5-0.2c-7.6,0-11.3,5.6-13.5,8.9c-1.5,2.2-2.4,3.5-3.7,4c-0.4-0.4-1.3-1.2-2.3-2.7
l36.6-48.6h29.5L296.6,92.9z"/>
<path fill="#364D68" d="M185.5,99.3c-0.4-0.8-1.5-0.9-2-0.2l0,0c-0.2,0.2-0.3,0.4-0.3,0.7V378h29V97.7c0-0.9-0.9-1.5-1.7-1
c-4.1,2.3-5.3,9.5-12.3,11.9C192.2,110.6,187.7,103.6,185.5,99.3z"/>
<path fill="#364D68" d="M266.5,97.8V378h41V99.8c0-0.3-0.1-0.5-0.3-0.7l-0.1-0.2c-0.5-0.7-1.6-0.6-2,0.1c-0.9,1.5-2.2,3.4-4.4,5.4
c-18.3,16.2-22.2-1.4-32.5-7.6C267.2,97.4,267.4,97.2,266.5,97.8L266.5,97.8z"/>
</g>
</g>
<g opacity="0.5">
<g>
<path fill="#FFFFFF" d="M476.2,2740.7c6.9,6.9,11.2,16.5,11.2,27.1c0,21.2-17.1,38.3-38.3,38.3c-10.6,0-20.2-4.3-27.1-11.2
l-153.2-153.2c-6.9-6.9-11.2-16.5-11.2-27.1s4.3-20.2,11.2-27.1L422,2434.3c6.9-6.9,16.5-11.2,27.1-11.2
c21.2,0,38.3,17.2,38.3,38.3c0,10.6-4.3,20.2-11.2,27.1l-126.1,126.1L476.2,2740.7z"/>
<path fill="#FFFFFF" d="M449.2,2826.2c-15.6,0-30.3-6.1-41.3-17.1l-153.2-153.2c-11-11.1-17.1-25.7-17.1-41.3s6.1-30.3,17.1-41.3
L407.8,2420c11.1-11,25.7-17.1,41.3-17.1c32.2,0,58.5,26.2,58.5,58.5c0,15.6-6.1,30.3-17.1,41.3l-111.9,111.9l111.9,111.9
c11,11,17.1,25.7,17.1,41.3C507.6,2800,481.4,2826.2,449.2,2826.2z M449.2,2443.2c-4.8,0-9.4,1.9-12.8,5.3l-153.2,153.2
c-3.4,3.4-5.3,8-5.3,12.8s1.9,9.4,5.3,12.8l153.2,153.2c3.4,3.4,8,5.3,12.8,5.3c10,0,18.2-8.1,18.2-18.2c0-4.9-1.9-9.4-5.3-12.8
l-140.4-140.4L462,2474.1c3.4-3.4,5.3-8,5.3-12.8C467.3,2451.3,459.2,2443.2,449.2,2443.2z"/>
</g>
<g>
<path fill="#FFFFFF" d="M752.9,2437.2l-153.2,383.1c-7.9,19.6-30.1,29.2-49.8,21.3c-19.6-7.9-29.2-30.1-21.3-49.8l153.2-383.1
c7.9-19.6,30.1-29.2,49.8-21.3C751.2,2395.3,760.7,2417.6,752.9,2437.2z"/>
<path fill="#FFFFFF" d="M564.1,2864.5c-7.4,0-14.7-1.4-21.7-4.2c-29.9-12-44.5-46.1-32.6-76l153.2-383
c8.9-22.3,30.2-36.8,54.3-36.8c7.4,0,14.7,1.4,21.7,4.2c29.9,12,44.5,46.1,32.6,76l-153.2,383.1
C609.4,2850.1,588.1,2864.5,564.1,2864.5z M717.3,2404.8c-7.5,0-14.1,4.5-16.9,11.4l-153.2,383.1c-3.7,9.3,0.8,19.9,10.1,23.6
c2.2,0.9,4.4,1.3,6.7,1.3c7.5,0,14.1-4.5,16.9-11.4l153.2-383.1c3.7-9.3-0.8-19.9-10.1-23.6
C721.9,2405.3,719.6,2404.8,717.3,2404.8z"/>
</g>
<g>
<path fill="#FFFFFF" d="M1023.7,2614.5c0,10.6-4.3,20.2-11.2,27.1l-153.1,153.1c0,0,0,0.1-0.1,0.1c-6.9,6.9-16.5,11.2-27.1,11.2
c-21.2,0-38.3-17.2-38.3-38.3c0-10.6,4.3-20.2,11.2-27.1c0.4-0.4,0.8-0.8,1.3-1.2l124.9-124.9L806,2489.2
c-7.4-7-12.1-16.9-12.1-27.9c0-21.2,17.1-38.3,38.3-38.3c10.9,0,20.8,4.6,27.8,11.9l152,152
C1019.2,2593.9,1023.7,2603.7,1023.7,2614.5z"/>
<path fill="#FFFFFF" d="M832.3,2826.2c-32.2,0-58.5-26.2-58.5-58.5c0-15.6,6.1-30.3,17.1-41.3c0.6-0.6,1.1-1,1.6-1.5l110.3-110.4
l-110.9-110.9c-11.5-11-18.1-26.4-18.1-42.3c0-32.2,26.2-58.5,58.5-58.5c15.8,0,31.2,6.6,42.2,18l151.7,151.7
c11.5,11.1,17.8,26,17.8,42c0,15.6-6.1,30.3-17.1,41.3L873.7,2809C862.5,2820.1,847.9,2826.2,832.3,2826.2z M832.2,2443.2
c-10,0-18.2,8.1-18.2,18.2c0,5,2,9.7,5.7,13.2l0.4,0.4l139.6,139.6L820,2754.3c-0.2,0.2-0.5,0.4-0.7,0.6
c-3.3,3.3-5.2,7.9-5.2,12.7c0,10,8.1,18.2,18.2,18.2c4.7,0,9.1-1.8,12.5-5l0.4-0.4l153.1-153.1c3.4-3.4,5.3-8,5.3-12.8
c0-5-2-9.6-5.6-13.1l-0.3-0.3l-152.4-152.4C841.9,2445.2,837.2,2443.2,832.2,2443.2z"/>
</g>
</g>
<g opacity="5.000000e-02">
<polygon fill="#FFFFFF" points="985.4,2844.4 755.6,2844.4 525.8,2844.4 295.9,2844.4 295.9,2614.5 295.9,2384.7 525.8,2384.7
"/>
</g>
<g>
<path fill="#FFFFFF" d="M574.4,2847.5c-101.3-29-175.7-122.4-175.7-233c0-104.9,67.1-194.5,160.6-228.1c-2-2-3.5-4.3-4.7-6.9
c-95.6,35.3-163.9,127.3-163.9,235s68.3,199.7,163.9,235C561.1,2848.8,567.8,2848,574.4,2847.5z"/>
<path fill="#FFFFFF" d="M732.8,2381.6c-2.4,2.3-5.3,4.1-8.7,5.2c92.8,34,159.2,123.2,159.2,227.7c0,108.6-71.8,200.7-170.4,231.4
c7.6,0.1,15.1,0.2,22.7,0.3c91.3-37.4,155.7-127.2,155.7-231.8C891.4,2508.9,825.6,2418.3,732.8,2381.6z"/>
</g>
<g>
<path fill="#FFFFFF" d="M640.7,2733.5c-65.6,0-119-53.4-119-119s53.4-119,119-119s119,53.4,119,119
C759.6,2680.1,706.3,2733.5,640.7,2733.5z M640.7,2503.6c-61.1,0-110.9,49.7-110.9,110.9s49.7,110.9,110.9,110.9
s110.9-49.7,110.9-110.9S701.8,2503.6,640.7,2503.6z"/>
</g>
<g>
<rect x="521.7" y="2384.7" fill="#FFFFFF" width="8.1" height="459.7"/>
</g>
<g>
<rect x="751.6" y="2384.7" fill="#FFFFFF" width="8.1" height="459.7"/>
</g>
<g>
<rect x="295.9" y="2610.5" fill="#FFFFFF" width="727.8" height="8.1"/>
</g>
<g>
<path fill="#FFFFFF" d="M979,2855.5H302.4c-9.7,0-17.6-7.9-17.6-17.6v-446.7c0-9.7,7.9-17.6,17.6-17.6H979
c9.7,0,17.6,7.9,17.6,17.6v446.7C996.5,2847.6,988.6,2855.5,979,2855.5z M307,2833.3h667.3v-437.5H307V2833.3z"/>
</g>
<g opacity="0.5">
<polygon fill="#FFFFFF" points="2223.6,2851.7 2002.1,2851.7 1780.6,2851.7 1559,2851.7 1559,2630.1 1559,2386.4 1780.6,2386.4
 	"/>
</g>
<g>
<g>
<rect x="291.9" y="2576.2" fill="#FFFFFF" width="8.1" height="76.6"/>
</g>
<g>
<rect x="257.6" y="2610.5" fill="#FFFFFF" width="76.6" height="8.1"/>
</g>
<g>
<rect x="291.9" y="2576.2" fill="#FFFFFF" width="8.1" height="76.6"/>
</g>
<g>
<rect x="981.4" y="2576.2" fill="#FFFFFF" width="8.1" height="76.6"/>
</g>
<path fill="#354D69" d="M756.2,2406.3c-4.5-10.4-12.7-18.4-23.2-22.6c-5-2-10.3-3-15.7-3c-17.4,0-32.8,10.4-39.3,26.6l-153.2,383.1
c-4.2,10.5-4.1,22,0.4,32.4s12.7,18.4,23.2,22.6c5,2,10.3,3,15.7,3c17.4,0,32.8-10.4,39.3-26.6l0,0l0,0l153.2-383.1
C760.8,2428.2,760.7,2416.7,756.2,2406.3z M531.2,2815.8c-1.8-6.1-1.9-12.5-0.2-18.6l22.5,9L531.2,2815.8z M563.9,2795.5l-9.6-22.3
c3.1-0.9,6.4-1.4,9.7-1.4c3,0,6,0.4,8.9,1.2L563.9,2795.5z M547,2776.4l9.6,22.3l-22.5-9C537.1,2784.1,541.6,2779.5,547,2776.4z
M580.4,2776c5.6,3,10.2,7.5,13.3,13l-22.3,9.6L580.4,2776z M700.9,2453.1c-5.6-3-10.1-7.5-13.3-13l22.3-9.6L700.9,2453.1z
M713.3,2443.9v13.1c-1.6-0.2-3.3-0.5-4.9-0.9L713.3,2443.9z M721.3,2442.6l5.7,13.2c-1.8,0.5-3.7,0.9-5.7,1.1V2442.6z
M734.4,2452.7l-9.6-22.3l22.5,9C744.3,2445,739.8,2449.5,734.4,2452.7z M721.3,2389c1.6,0.2,3.3,0.5,4.9,0.9l-4.9,12.1V2389z
M713.3,2403.4l-5.7-13.2c1.8-0.5,3.7-0.9,5.7-1.1V2403.4z M684.4,2432.7c-1.8-6.1-1.9-12.5-0.2-18.6l22.5,9L684.4,2432.7z
M678.4,2439.7c3.9,9.1,10.8,16.5,19.5,21L576,2765.4c-3.9-1.1-7.9-1.7-11.9-1.7c-8.2,0-16,2.4-22.6,6.6l134.8-337
C676.8,2435.5,677.5,2437.6,678.4,2439.7z M596.9,2796.4c1.8,6.1,1.9,12.5,0.2,18.6l-22.5-9L596.9,2796.4z M603,2789.4
c-3.9-9.1-10.8-16.5-19.5-21l3.6-9.1l118.3-295.8c3.9,1.1,7.9,1.7,11.9,1.7c8.2,0,16-2.4,22.6-6.6l-134.8,337
C604.6,2793.6,603.9,2791.5,603,2789.4z M727.8,2422.9l22.3-9.6c1.8,6.1,1.9,12.5,0.2,18.6L727.8,2422.9z M747,2405.9l-22.3,9.6
l9-22.5C739.2,2395.9,743.8,2400.4,747,2405.9z M700.2,2393.4l9.6,22.3l-22.5-9C690.3,2401,694.8,2396.5,700.2,2393.4z
M534.4,2823.2l22.3-9.6l-9,22.5C542.1,2833.1,537.6,2828.7,534.4,2823.2z M555.2,2839.1l9-22.5l9.6,22.3c-3.1,0.9-6.4,1.4-9.7,1.4
C561.1,2840.4,558.1,2839.9,555.2,2839.1z M581.2,2835.7l-9.6-22.3l22.5,9C591.1,2828.1,586.6,2832.6,581.2,2835.7z"/>
<path fill="#354D69" d="M355.8,2614.5l123.3-123.3c8-8,12.4-18.6,12.4-29.9c0-23.3-19-42.3-42.3-42.3c-11.3,0-21.9,4.4-29.9,12.4
L266,2584.6c-8,8-12.4,18.6-12.4,29.9s4.4,21.9,12.4,29.9l153.2,153.2c8,8,18.6,12.4,29.9,12.4c23.3,0,42.3-19,42.3-42.3
c0-11.3-4.4-21.9-12.4-29.9L355.8,2614.5z M445.1,2758l-17.2-17.2c4.8-3.8,10.7-6.4,17.2-7.1V2758z M439.4,2763.7h-24.3
c0.8-6.4,3.3-12.3,7.1-17.2L439.4,2763.7z M439.4,2771.8l-17.2,17.2c-3.9-5-6.4-10.9-7.1-17.2H439.4z M445.1,2777.5v24.3
c-6.3-0.7-12.2-3.2-17.2-7.1L445.1,2777.5z M453.2,2777.5l17.2,17.2c-4.8,3.8-10.7,6.4-17.2,7.1V2777.5z M458.9,2771.8h24.3
c-0.8,6.4-3.3,12.3-7.1,17.2L458.9,2771.8z M453.2,2733.7c6.3,0.7,12.2,3.2,17.2,7.1l-17.2,17.2V2733.7z M455.9,2726
c-2.2-0.4-4.4-0.6-6.7-0.6c-10.2,0-19.6,3.6-26.9,9.7l-93.5-93.5l21.4-21.4L455.9,2726z M329.9,2610.5h-24.3l17.2-17.2
C326.8,2598.3,329.2,2604.2,329.9,2610.5z M329.9,2618.6c-0.7,6.3-3.2,12.2-7.1,17.2l-17.2-17.2H329.9z M337.7,2607.8l6.7,6.7
l-6.7,6.7c0.4-2.2,0.6-4.4,0.6-6.7C338.3,2612.3,338,2610,337.7,2607.8z M295.9,2608.8l-21.2-21.2c6-4.8,13.4-7.4,21.2-7.4
s15.2,2.6,21.2,7.4L295.9,2608.8z M317.1,2641.4c-6,4.8-13.4,7.4-21.2,7.4c-7.8,0-15.2-2.6-21.2-7.4l21.2-21.2L317.1,2641.4z
M350.1,2608.8l-21.4-21.4l93.5-93.5c7.3,6.1,16.7,9.7,26.9,9.7c2.3,0,4.5-0.2,6.7-0.6L350.1,2608.8z M445.1,2495.3
c-6.4-0.8-12.3-3.3-17.2-7.1l17.2-17.2V2495.3z M453.2,2471l17.2,17.2c-5,3.9-10.9,6.4-17.2,7.1V2471z M458.9,2465.3h24.3
c-0.7,6.3-3.2,12.2-7.1,17.2L458.9,2465.3z M458.9,2457.3l17.2-17.2c3.8,4.8,6.4,10.7,7.1,17.2H458.9z M453.2,2451.6v-24.3
c6.4,0.8,12.3,3.3,17.2,7.1L453.2,2451.6z M445.1,2451.6l-17.2-17.2c5-3.9,10.9-6.4,17.2-7.1V2451.6z M439.4,2457.3h-24.3
c0.7-6.3,3.2-12.2,7.1-17.2L439.4,2457.3z M439.4,2465.3l-17.2,17.2c-3.8-4.8-6.4-10.7-7.1-17.2H439.4z M407.4,2454.6
c-0.4,2.2-0.6,4.4-0.6,6.7c0,10.2,3.6,19.6,9.7,26.9l-93.6,93.6c-7.6-6.3-17-9.7-26.9-9.7c-2.3,0-4.5,0.2-6.7,0.6L407.4,2454.6z
M269,2593.3l17.2,17.2h-24.3C262.6,2604.2,265.1,2598.3,269,2593.3z M261.9,2618.6h24.3l-17.2,17.2
C265.1,2630.8,262.6,2624.9,261.9,2618.6z M289.2,2656.3c2.2,0.4,4.4,0.6,6.7,0.6c10,0,19.4-3.4,26.9-9.7l93.6,93.6
c-6.1,7.3-9.7,16.7-9.7,26.9c0,2.3,0.2,4.5,0.6,6.7L289.2,2656.3z M483.2,2763.7h-24.3l17.2-17.2
C480,2751.5,482.4,2757.4,483.2,2763.7z"/>
</g>
<g>
<g>
<path fill="#354D69" d="M1767.4,2729.8c5.1,5.1,8.3,12.1,8.3,19.9c0,15.6-12.6,28.2-28.2,28.2c-7.8,0-14.8-3.1-19.9-8.2
L1614.9,2657c-5.1-5.1-8.3-12.1-8.3-19.9c0-7.8,3.2-14.8,8.3-19.9l112.7-112.7c5.1-5.1,12.1-8.3,19.9-8.3
c15.6,0,28.2,12.6,28.2,28.2c0,7.8-3.2,14.8-8.3,19.9l-92.8,92.8L1767.4,2729.8z"/>
</g>
<g>
<path fill="#354D69" d="M1970.9,2506.6l-112.7,281.7c-5.8,14.4-22.2,21.5-36.6,15.7s-21.5-22.2-15.7-36.6l112.7-281.7
c5.8-14.4,22.2-21.5,36.6-15.7C1969.6,2475.7,1976.7,2492.1,1970.9,2506.6z"/>
</g>
<g>
<path fill="#354D69" d="M2170.1,2637c0,7.8-3.2,14.8-8.3,19.9l-112.6,112.6c0,0,0,0-0.1,0.1c-5.1,5.1-12.1,8.3-19.9,8.3
c-15.6,0-28.2-12.6-28.2-28.2c0-7.8,3.2-14.8,8.3-19.9c0.3-0.3,0.6-0.6,0.9-0.9l91.8-91.9l-92.2-92.2c-5.5-5.1-8.9-12.4-8.9-20.5
c0-15.6,12.6-28.2,28.2-28.2c8,0,15.3,3.4,20.4,8.8l111.8,111.8C2166.8,2621.8,2170.1,2629,2170.1,2637z"/>
</g>
</g>
<g>
<path fill="#FFFFFF" d="M2217.4,2861.7h-652.1c-9,0-16.3-7.3-16.3-16.3v-452.8c0-9,7.3-16.3,16.3-16.3h652.1
c9,0,16.3,7.3,16.3,16.3v452.8C2233.7,2854.4,2226.4,2861.7,2217.4,2861.7z M1569.1,2841.6h644.4v-445.1h-644.4V2841.6z"/>
</g>
<g>
<rect x="1549" y="2428.4" fill="#FFFFFF" width="674.7" height="8.5"/>
</g>
<g>
<circle fill="#354D69" cx="1586.3" cy="2412.9" r="6.8"/>
</g>
<g>
<circle fill="#354D69" cx="1606.6" cy="2412.9" r="6.8"/>
</g>
<g>
<circle fill="#354D69" cx="1627" cy="2412.9" r="6.8"/>
</g>
<path fill="#354D69" d="M1027.8,2614.5c0-11.7-4.7-22.3-12.4-29.9l0,0l-153.1-153.1c-7.7-7.7-18.3-12.5-30-12.5
c-23.3,0-42.3,19-42.3,42.3c0,11.7,4.8,22.4,12.5,30l123.2,123.2L803,2737.2c-0.2,0.2-0.4,0.4-0.6,0.6c-8,8-12.4,18.6-12.4,29.9
c0,23.3,19,42.3,42.3,42.3c11.3,0,21.9-4.4,29.9-12.4c0,0,0,0,0.1-0.1l153.1-153.1C1023.4,2636.5,1027.8,2625.8,1027.8,2614.5z
M1012.3,2635.7l-17.2-17.2h24.3C1018.7,2624.9,1016.3,2630.8,1012.3,2635.7z M958.5,2593.3l17.2,17.2h-24.3
C952.2,2604.2,954.6,2598.3,958.5,2593.3z M958.5,2635.7c-3.9-5-6.4-10.9-7.1-17.2h24.3L958.5,2635.7z M1012.3,2593.3
c3.8,4.8,6.4,10.7,7.1,17.1h-24.3L1012.3,2593.3z M985.4,2608.8l-21.2-21.2c6-4.8,13.4-7.4,21.2-7.4c8,0,15.4,2.8,21.2,7.4
L985.4,2608.8z M943.7,2621.2l-6.7-6.7l6.7-6.7c-0.3,2.2-0.6,4.4-0.6,6.7C943.1,2616.8,943.3,2619,943.7,2621.2z M985.4,2620.2
l21.2,21.2c-6,4.8-13.4,7.4-21.2,7.4s-15.2-2.6-21.2-7.4L985.4,2620.2z M992.1,2572.8c-2.2-0.4-4.4-0.6-6.7-0.6
c-10,0-19.4,3.4-27,9.7l-93.6-93.6c6.1-7.3,9.7-16.7,9.7-26.9c0-2.3-0.2-4.5-0.6-6.7L992.1,2572.8z M859.1,2482.5l-17.2-17.2h24.3
C865.5,2471.8,862.9,2477.7,859.1,2482.5z M859.1,2440.1c3.8,4.8,6.4,10.7,7.1,17.2h-24.3L859.1,2440.1z M836.3,2451.6v-24.3
c6.4,0.8,12.3,3.3,17.2,7.1L836.3,2451.6z M828.2,2451.6l-17.2-17.2c4.8-3.8,10.7-6.4,17.2-7.1V2451.6z M828.2,2495.3
c-6.4-0.8-12.3-3.3-17.2-7.1l17.2-17.2V2495.3z M836.3,2471.1l17.2,17.2c-4.8,3.8-10.7,6.4-17.2,7.1V2471.1z M805.3,2440.1
l17.2,17.2h-24.3C799,2450.9,801.5,2445,805.3,2440.1z M798.2,2465.3h24.3l-17.2,17.2C801.5,2477.7,799,2471.8,798.2,2465.3z
M825.5,2503.1c2.2,0.3,4.4,0.6,6.7,0.6c10.2,0,19.6-3.6,26.9-9.7l93.5,93.5l-21.4,21.4L825.5,2503.1z M931.3,2620.2l21.4,21.4
l-93.5,93.5c-7.3-6.1-16.7-9.7-26.9-9.7c-2.3,0-4.5,0.2-6.6,0.6L931.3,2620.2z M842,2771.8h24.3c-0.7,6.3-3.2,12.2-7.1,17.2
L842,2771.8z M836.3,2758v-24.3c6.4,0.8,12.3,3.3,17.2,7.1L836.3,2758z M828.2,2758l-17.2-17.2c5-3.9,10.9-6.4,17.2-7.1V2758z
M828.2,2801.7c-6.4-0.8-12.3-3.3-17.2-7.1l17.2-17.2V2801.7z M836.3,2777.5l17.2,17.2c-5,3.9-10.9,6.4-17.2,7.1V2777.5z
M842,2763.7l17.2-17.2c3.8,4.8,6.4,10.7,7.1,17.2H842z M805.4,2746.5l17.2,17.2h-24.3C799,2757.4,801.4,2751.5,805.4,2746.5z
M798.2,2771.8h24.3l-17.2,17.2C801.5,2784.1,799,2778.2,798.2,2771.8z M874,2774.4c0.3-2.2,0.6-4.4,0.6-6.7
c0-10.2-3.6-19.6-9.7-26.9l93.6-93.6c7.6,6.3,17,9.7,26.9,9.7c2.3,0,4.5-0.2,6.7-0.6L874,2774.4z"/>
<g opacity="0.5">
<g>
<path fill="#FFFFFF" d="M-1535.8,305.6c6.9,6.9,11.2,16.5,11.2,27.1c0,21.2-17.1,38.3-38.3,38.3c-10.6,0-20.2-4.3-27.1-11.2
l-153.2-153.2c-6.9-6.9-11.2-16.5-11.2-27.1s4.3-20.2,11.2-27.1L-1590-0.9c6.9-6.9,16.5-11.2,27.1-11.2
c21.2,0,38.3,17.2,38.3,38.3c0,10.6-4.3,20.2-11.2,27.1l-126.1,126.1L-1535.8,305.6z"/>
<path fill="#FFFFFF" d="M-1562.9,391.1c-15.6,0-30.3-6.1-41.3-17.1l-153.2-153.2c-11-11.1-17.1-25.7-17.1-41.3s6.1-30.3,17.1-41.3
L-1604.2-15c11.1-11,25.7-17.1,41.3-17.1c32.2,0,58.5,26.2,58.5,58.5c0,15.6-6.1,30.3-17.1,41.3l-111.9,111.9l111.9,111.9
c11,11,17.1,25.7,17.1,41.3C-1504.4,364.9-1530.6,391.1-1562.9,391.1z M-1562.9,8.1c-4.8,0-9.4,1.9-12.8,5.3l-153.2,153.2
c-3.4,3.4-5.3,8-5.3,12.8s1.9,9.4,5.3,12.8l153.2,153.2c3.4,3.4,8,5.3,12.8,5.3c10,0,18.2-8.1,18.2-18.2c0-4.9-1.9-9.4-5.3-12.8
l-140.4-140.4L-1550,39c3.4-3.4,5.3-8,5.3-12.8C-1544.7,16.2-1552.9,8.1-1562.9,8.1z"/>
</g>
<g>
<path fill="#FFFFFF" d="M-1259.2,2.1l-153.2,383.1c-7.9,19.6-30.1,29.2-49.8,21.3c-19.6-7.9-29.2-30.1-21.3-49.8l153.2-383.1
c7.9-19.6,30.1-29.2,49.8-21.3C-1260.9-39.8-1251.3-17.5-1259.2,2.1z"/>
<path fill="#FFFFFF" d="M-1448,429.4c-7.4,0-14.8-1.4-21.7-4.2c-29.9-12-44.5-46.1-32.6-76l153.3-383
c8.9-22.3,30.2-36.8,54.3-36.8c7.4,0,14.7,1.4,21.7,4.2c29.9,12,44.5,46.1,32.6,76l-153.2,383.1
C-1402.6,415-1423.9,429.4-1448,429.4z M-1294.7-30.3c-7.5,0-14.1,4.5-16.9,11.4l-153.2,383.1c-3.7,9.3,0.8,19.9,10.1,23.6
c2.2,0.9,4.4,1.3,6.7,1.3c7.5,0,14.1-4.5,16.9-11.4l153.2-383.1c3.7-9.3-0.8-19.9-10.1-23.6C-1290.2-29.8-1292.4-30.3-1294.7-30.3
z"/>
</g>
<g>
<path fill="#FFFFFF" d="M-988.3,179.4c0,10.6-4.3,20.2-11.2,27.1l-153.1,153.1c0,0,0,0.1-0.1,0.1c-6.9,6.9-16.5,11.2-27.1,11.2
c-21.2,0-38.3-17.2-38.3-38.3c0-10.6,4.3-20.2,11.2-27.1c0.4-0.4,0.8-0.8,1.3-1.2l124.9-124.9L-1206,54.1
c-7.4-7-12.1-16.9-12.1-27.9c0-21.2,17.1-38.3,38.3-38.3c10.9,0,20.8,4.6,27.8,11.9l152,152C-992.8,158.8-988.3,168.6-988.3,179.4
z"/>
<path fill="#FFFFFF" d="M-1179.8,391.1c-32.2,0-58.5-26.2-58.5-58.5c0-15.6,6.1-30.3,17.1-41.3c0.6-0.6,1.1-1,1.6-1.5l110.3-110.4
l-110.9-110.9c-11.5-11-18.1-26.4-18.1-42.3c0-32.2,26.2-58.5,58.5-58.5c15.8,0,31.2,6.6,42.2,18l151.7,151.7
c11.5,11.1,17.8,26,17.8,42c0,15.6-6.1,30.3-17.1,41.3L-1138.4,374C-1149.5,385-1164.2,391.1-1179.8,391.1z M-1179.8,8.1
c-10,0-18.2,8.1-18.2,18.2c0,5,2,9.7,5.7,13.2l0.4,0.4l139.6,139.6L-1192,319.2c-0.2,0.2-0.5,0.4-0.7,0.6
c-3.3,3.3-5.2,7.9-5.2,12.7c0,10,8.1,18.2,18.2,18.2c4.7,0,9.1-1.8,12.5-5l0.4-0.4l153.1-153.1c3.4-3.4,5.3-8,5.3-12.8
c0-5-2-9.6-5.6-13.1l-0.3-0.3l-152.4-152.4C-1170.1,10.1-1174.8,8.1-1179.8,8.1z"/>
</g>
</g>
<g opacity="5.000000e-02">
<polygon fill="#FFFFFF" points="-1026.6,409.3 -1256.4,409.3 -1486.3,409.3 -1716.1,409.3 -1716.1,179.4 -1716.1,-50.4
 -1026.6,-50.4 	"/>
</g>
<g>
<path fill="#FFFFFF" d="M-1437.6,412.4c-101.3-29-175.7-122.4-175.7-233c0-104.9,67.1-194.5,160.6-228.1c-2-2-3.5-4.3-4.7-6.9
c-95.6,35.3-163.9,127.3-163.9,235s68.3,199.7,163.9,235C-1450.9,413.7-1444.3,412.9-1437.6,412.4z"/>
<path fill="#FFFFFF" d="M-1279.2-53.5c-2.4,2.3-5.3,4.1-8.7,5.2c92.8,34,159.2,123.2,159.2,227.7c0,108.6-71.8,200.7-170.4,231.4
c7.6,0.1,15.1,0.2,22.7,0.3c91.3-37.4,155.7-127.2,155.7-231.8C-1120.6,73.8-1186.4-16.8-1279.2-53.5z"/>
</g>
<g>
<path fill="#FFFFFF" d="M-1371.3,298.4c-65.6,0-119-53.4-119-119s53.4-119,119-119s119,53.4,119,119S-1305.7,298.4-1371.3,298.4z
M-1371.3,68.5c-61.1,0-110.9,49.7-110.9,110.9s49.7,110.9,110.9,110.9s110.9-49.7,110.9-110.9S-1310.2,68.5-1371.3,68.5z"/>
</g>
<g>
<rect x="-1490.3" y="-50.4" fill="#FFFFFF" width="8.1" height="459.7"/>
</g>
<g>
<rect x="-1260.5" y="-50.4" fill="#FFFFFF" width="8.1" height="459.7"/>
</g>
<g>
<rect x="-1716.1" y="175.4" fill="#FFFFFF" width="727.8" height="8.1"/>
</g>
<g>
<path fill="#FFFFFF" d="M-1033.1,420.4h-676.6c-9.7,0-17.6-7.9-17.6-17.6V-43.9c0-9.7,7.9-17.6,17.6-17.6h676.6
c9.7,0,17.6,7.9,17.6,17.6v446.7C-1015.5,412.5-1023.4,420.4-1033.1,420.4z M-1705,398.2h667.3V-39.3H-1705V398.2z"/>
</g>
<g>
<g>
<rect x="-1720.1" y="141.1" fill="#FFFFFF" width="8.1" height="76.6"/>
</g>
<g>
<rect x="-1754.4" y="175.4" fill="#FFFFFF" width="76.6" height="8.1"/>
</g>
<g>
<rect x="-1720.1" y="141.1" fill="#FFFFFF" width="8.1" height="76.6"/>
</g>
<g>
<rect x="-1030.6" y="141.1" fill="#FFFFFF" width="8.1" height="76.6"/>
</g>
<path fill="#354D69" d="M-1255.8-28.8c-4.5-10.4-12.7-18.4-23.2-22.6c-5-2-10.3-3-15.7-3c-17.4,0-32.8,10.4-39.3,26.6l-153.2,383.1
c-4.2,10.5-4.1,22,0.4,32.4s12.7,18.4,23.2,22.6c5,2,10.3,3,15.7,3c17.4,0,32.8-10.4,39.3-26.6l0,0l0,0l153.2-383.1
C-1251.2-6.9-1251.4-18.4-1255.8-28.8z M-1480.8,380.7c-1.8-6.1-1.9-12.5-0.2-18.6l22.5,9L-1480.8,380.7z M-1448.1,360.4l-9.6-22.3
c3.1-0.9,6.4-1.4,9.7-1.4c3,0,6,0.4,8.9,1.2L-1448.1,360.4z M-1465,341.3l9.6,22.3l-22.5-9C-1474.9,349-1470.4,344.4-1465,341.3z
M-1431.6,340.9c5.6,3,10.2,7.5,13.3,13l-22.3,9.6L-1431.6,340.9z M-1311.1,18c-5.6-3-10.1-7.5-13.3-13l22.3-9.6L-1311.1,18z
M-1298.8,8.8v13.1c-1.6-0.2-3.3-0.5-4.9-0.9L-1298.8,8.8z M-1290.7,7.5l5.7,13.2c-1.8,0.5-3.7,0.9-5.7,1.1V7.5z M-1277.6,17.5
l-9.6-22.3l22.5,9C-1267.7,9.9-1272.2,14.4-1277.6,17.5z M-1290.7-46.1c1.6,0.2,3.3,0.5,4.9,0.9l-4.9,12.1V-46.1z M-1298.8-31.7
l-5.7-13.2c1.8-0.5,3.7-0.9,5.7-1.1V-31.7z M-1327.6-2.4c-1.8-6.1-1.9-12.5-0.2-18.6l22.5,9L-1327.6-2.4z M-1333.6,4.6
c3.9,9.1,10.8,16.5,19.5,21L-1436,330.3c-3.9-1.1-7.9-1.7-11.9-1.7c-8.2,0-16,2.4-22.6,6.6l134.8-337
C-1335.2,0.3-1334.5,2.5-1333.6,4.6z M-1415.1,361.3c1.8,6.1,1.9,12.5,0.2,18.6l-22.5-9L-1415.1,361.3z M-1409,354.3
c-3.9-9.1-10.8-16.5-19.5-21l3.6-9.1l118.3-295.8c3.9,1.1,7.9,1.7,11.9,1.7c8.2,0,16-2.4,22.6-6.6l-134.8,337
C-1407.5,358.5-1408.1,356.4-1409,354.3z M-1284.2-12.2l22.3-9.6c1.8,6.1,1.9,12.5,0.2,18.6L-1284.2-12.2z M-1265.1-29.2l-22.3,9.6
l9-22.5C-1272.8-39.2-1268.2-34.7-1265.1-29.2z M-1311.8-41.8l9.6,22.3l-22.5-9C-1321.7-34.1-1317.2-38.6-1311.8-41.8z
M-1477.6,388.1l22.3-9.6l-9,22.5C-1469.9,398-1474.5,393.6-1477.6,388.1z M-1456.8,404l9-22.5l9.6,22.3c-3.1,0.9-6.4,1.4-9.7,1.4
C-1451,405.2-1453.9,404.8-1456.8,404z M-1430.9,400.6l-9.6-22.3l22.5,9C-1421,393-1425.5,397.5-1430.9,400.6z"/>
<path fill="#354D69" d="M-1656.2,179.4l123.3-123.3c8-8,12.4-18.6,12.4-29.9c0-23.3-19-42.3-42.3-42.3c-11.3,0-21.9,4.4-29.9,12.4
L-1746,149.5c-8,8-12.4,18.6-12.4,29.9c0,11.3,4.4,21.9,12.4,29.9l153.2,153.2c8,8,18.6,12.4,29.9,12.4c23.3,0,42.3-19,42.3-42.3
c0-11.3-4.4-21.9-12.4-29.9L-1656.2,179.4z M-1566.9,322.9l-17.2-17.2c4.8-3.8,10.7-6.4,17.2-7.1V322.9z M-1572.6,328.6h-24.3
c0.8-6.4,3.3-12.3,7.1-17.2L-1572.6,328.6z M-1572.6,336.7l-17.2,17.2c-3.9-5-6.4-10.9-7.1-17.2H-1572.6L-1572.6,336.7z
M-1566.9,342.4v24.3c-6.3-0.7-12.2-3.2-17.2-7.1L-1566.9,342.4z M-1558.8,342.4l17.2,17.2c-4.8,3.8-10.7,6.4-17.2,7.1V342.4z
M-1553.1,336.7h24.3c-0.8,6.4-3.3,12.3-7.1,17.2L-1553.1,336.7z M-1558.8,298.6c6.3,0.7,12.2,3.2,17.2,7.1l-17.2,17.2V298.6z
M-1556.2,290.9c-2.2-0.4-4.4-0.6-6.7-0.6c-10.2,0-19.6,3.6-26.9,9.7l-93.5-93.5l21.4-21.4L-1556.2,290.9z M-1682.1,175.4h-24.3
l17.2-17.2C-1685.3,163.2-1682.8,169.1-1682.1,175.4z M-1682.1,183.5c-0.7,6.3-3.2,12.2-7.1,17.2l-17.2-17.2H-1682.1z
M-1674.3,172.7l6.7,6.7l-6.7,6.7c0.4-2.2,0.6-4.4,0.6-6.7C-1673.8,177.2-1674,174.9-1674.3,172.7z M-1716.1,173.7l-21.2-21.2
c6-4.8,13.4-7.4,21.2-7.4c7.8,0,15.2,2.6,21.2,7.4L-1716.1,173.7z M-1694.9,206.3c-6,4.8-13.4,7.4-21.2,7.4s-15.2-2.6-21.2-7.4
l21.2-21.2L-1694.9,206.3z M-1661.9,173.7l-21.4-21.4l93.5-93.5c7.3,6.1,16.7,9.7,26.9,9.7c2.3,0,4.5-0.2,6.7-0.6L-1661.9,173.7z
M-1566.9,60.2c-6.4-0.8-12.3-3.3-17.2-7.1l17.2-17.2V60.2z M-1558.8,35.9l17.2,17.2c-5,3.9-10.9,6.4-17.2,7.1V35.9z M-1553.1,30.2
h24.3c-0.7,6.3-3.2,12.2-7.1,17.2L-1553.1,30.2z M-1553.1,22.2L-1536,5c3.8,4.8,6.4,10.7,7.1,17.2H-1553.1z M-1558.8,16.5V-7.8
c6.4,0.8,12.3,3.3,17.2,7.1L-1558.8,16.5z M-1566.9,16.5l-17.2-17.2c5-3.9,10.9-6.4,17.2-7.1V16.5z M-1572.6,22.2h-24.3
c0.7-6.3,3.2-12.2,7.1-17.2L-1572.6,22.2z M-1572.6,30.2l-17.2,17.2c-3.8-4.8-6.4-10.7-7.1-17.2H-1572.6z M-1604.6,19.5
c-0.4,2.2-0.6,4.4-0.6,6.7c0,10.2,3.6,19.6,9.7,26.9l-93.6,93.6c-7.6-6.3-17-9.7-26.9-9.7c-2.3,0-4.5,0.2-6.7,0.6L-1604.6,19.5z
M-1743,158.2l17.2,17.2h-24.3C-1749.4,169.1-1746.9,163.2-1743,158.2z M-1750.1,183.5h24.3l-17.2,17.2
C-1746.9,195.7-1749.4,189.8-1750.1,183.5z M-1722.8,221.2c2.2,0.4,4.4,0.6,6.7,0.6c10,0,19.4-3.4,26.9-9.7l93.6,93.6
c-6.1,7.3-9.7,16.7-9.7,26.9c0,2.3,0.2,4.5,0.6,6.7L-1722.8,221.2z M-1528.9,328.6h-24.3l17.2-17.2
C-1532,316.4-1529.6,322.3-1528.9,328.6z"/>
</g>
<path fill="#354D69" d="M-984.3,179.4c0-11.7-4.7-22.3-12.4-29.9l0,0L-1149.8-3.6c-7.7-7.7-18.3-12.5-30-12.5
c-23.3,0-42.3,19-42.3,42.3c0,11.7,4.8,22.4,12.5,30l123.2,123.2L-1209,302.1c-0.2,0.2-0.4,0.4-0.6,0.6c-8,8-12.4,18.6-12.4,29.9
c0,23.3,19,42.3,42.3,42.3c11.3,0,21.9-4.4,29.9-12.4c0,0,0,0,0.1-0.1l153.1-153.1C-988.7,201.4-984.3,190.7-984.3,179.4z
M-999.7,200.6l-17.2-17.2h24.3C-993.3,189.7-995.8,195.7-999.7,200.6z M-1053.5,158.2l17.2,17.2h-24.3
C-1059.9,169.1-1057.4,163.2-1053.5,158.2z M-1053.5,200.6c-3.9-5-6.4-10.9-7.1-17.2h24.3L-1053.5,200.6z M-999.7,158.2
c3.8,4.8,6.4,10.7,7.1,17.1h-24.3L-999.7,158.2z M-1026.6,173.7l-21.2-21.2c6-4.8,13.4-7.4,21.2-7.4c8,0,15.4,2.8,21.2,7.4
L-1026.6,173.7z M-1068.4,186.1l-6.7-6.7l6.7-6.7c-0.3,2.2-0.6,4.4-0.6,6.7C-1068.9,181.7-1068.7,183.9-1068.4,186.1z
M-1026.6,185.1l21.2,21.2c-6,4.8-13.4,7.4-21.2,7.4c-7.8,0-15.2-2.6-21.2-7.4L-1026.6,185.1z M-1019.9,137.7
c-2.2-0.4-4.4-0.6-6.7-0.6c-10,0-19.4,3.4-27,9.7l-93.6-93.6c6.1-7.3,9.7-16.7,9.7-26.9c0-2.3-0.2-4.5-0.6-6.7L-1019.9,137.7z
M-1152.9,47.4l-17.2-17.2h24.3C-1146.5,36.7-1149.1,42.6-1152.9,47.4z M-1152.9,5c3.8,4.8,6.4,10.7,7.1,17.2h-24.3L-1152.9,5z
M-1175.8,16.5V-7.8c6.4,0.8,12.3,3.3,17.2,7.1L-1175.8,16.5z M-1183.8,16.5L-1201-0.7c4.8-3.8,10.7-6.4,17.2-7.1V16.5z
M-1183.8,60.2c-6.4-0.8-12.3-3.3-17.2-7.1l17.2-17.2V60.2z M-1175.8,35.9l17.2,17.2c-4.8,3.8-10.7,6.4-17.2,7.1V35.9z M-1206.7,5
l17.2,17.2h-24.3C-1213.1,15.7-1210.5,9.9-1206.7,5z M-1213.8,30.2h24.3l-17.2,17.2C-1210.5,42.6-1213.1,36.7-1213.8,30.2z
M-1186.5,68c2.2,0.3,4.4,0.6,6.7,0.6c10.2,0,19.6-3.6,26.9-9.7l93.5,93.5l-21.4,21.4L-1186.5,68z M-1080.7,185.1l21.4,21.4
l-93.5,93.5c-7.3-6.1-16.7-9.7-26.9-9.7c-2.3,0-4.5,0.2-6.7,0.6L-1080.7,185.1z M-1170,336.6h24.3c-0.7,6.3-3.2,12.2-7.1,17.2
L-1170,336.6z M-1175.7,322.9v-24.3c6.4,0.8,12.3,3.3,17.2,7.1L-1175.7,322.9z M-1183.8,322.9l-17.2-17.2c5-3.9,10.9-6.4,17.2-7.1
V322.9z M-1183.8,366.6c-6.4-0.8-12.3-3.3-17.2-7.1l17.2-17.2V366.6z M-1175.7,342.3l17.2,17.2c-5,3.9-10.9,6.4-17.2,7.1V342.3z
M-1170,328.6l17.2-17.2c3.8,4.8,6.4,10.7,7.1,17.2H-1170z M-1206.7,311.4l17.2,17.2h-24.3C-1213.1,322.3-1210.6,316.4-1206.7,311.4
z M-1213.8,336.6h24.3l-17.2,17.2C-1210.5,349-1213,343.1-1213.8,336.6z M-1138,339.3c0.3-2.2,0.6-4.4,0.6-6.7
c0-10.2-3.6-19.6-9.7-26.9l93.6-93.6c7.6,6.3,17,9.7,26.9,9.7c2.3,0,4.5-0.2,6.7-0.6L-1138,339.3z"/>
</svg>
