<svg xmlns="http://www.w3.org/2000/svg" viewBox="0 0 480 480">
<path d="M375.248,177.916c-6.272,0,14.851,0-44.229,0h-43.542h-19.814c-2.417,0-4.376-1.959-4.376-4.376v-51.78
c0-24.846-43.542,15.577-43.542,32.887v5.61c0,1.164-0.944,2.108-2.108,2.108h-12.578c0,0-8.774,0.56-1.262,7.836
c5.898,5.712,15.949,19.711,15.949,36.683c0,3.574,0,110.675,0,110.675c0,17.31,43.542,57.733,43.542,32.887V225.552
c0-2.452,1.987-4.439,4.439-4.439h15.311c2.452,0,4.439,1.988,4.439,4.439v129.484c0,6.036,4.893,10.93,10.93,10.93h21.683
c6.036,0,10.93-4.893,10.93-10.93V245.069c0-13.231,10.726-23.957,23.957-23.957h20.963c27.3,0,28.337,43.197,0.095,43.197h-13.789
c-3.984,0-7.213,3.229-7.213,7.213v15.97c0,11.053,8.96,20.013,20.013,20.013h2.967
C461.641,307.505,462.678,177.916,375.248,177.916z"/>
<path d="M151.922,177.916c-20.387,0-40.898,0-47.171,0c-87.43,0-86.393,129.59-2.765,129.59h1.137
c13.591,0,24.609-11.018,24.609-24.609V271.91c0-4.198-3.404-7.602-7.602-7.602h-16.165c-28.242,0-27.205-43.197,0.095-43.197
h22.074c14.242,0,25.787,11.546,25.787,25.787v40.087c0,11.809,9.573,21.382,21.382,21.382h13.913c4.555,0,8.247-3.692,8.247-8.247
c0,0,0-54.591,0-70.893S195.464,177.916,151.922,177.916z"/>
</svg>
