<svg xmlns="http://www.w3.org/2000/svg" viewBox="0 0 16 16">
<g>
<path d="M-7-4.1c0,4.4-3.6,8-8,8c-4.4,0-8-3.6-8-8c0-4.4,3.6-8,8-8C-10.6-12.1-7-8.6-7-4.1z M-13,2.4c2.7-1,4.7-3.5,4.7-6.5
c0-3.7-3-6.7-6.7-6.7c-3.7,0-6.7,3-6.7,6.7c0,3,2,5.6,4.8,6.5V1.1c0-0.8,0.3-1.2,0.6-1.4c-1.7-0.2-3.6-0.8-3.6-3.8
c0-0.8,0.3-1.5,0.8-2.1c-0.1-0.2-0.3-1,0.1-2c0,0,0.6-0.2,2.1,0.8c0.6-0.2,1.3-0.3,1.9-0.3c0.7,0,1.3,0.1,1.9,0.3
c1.5-1,2.1-0.8,2.1-0.8c0.4,1.1,0.2,1.8,0.1,2c0.5,0.5,0.8,1.2,0.8,2.1c0,3-1.9,3.6-3.6,3.8c0.3,0.2,0.6,0.6,0.6,1.4V2.4z"/>
</g>
<path fill-rule="evenodd" clip-rule="evenodd" d="M44.1,0h11.9C57.1,0,58,0.9,58,2.1v11.9c0,1.1-0.9,2.1-2.1,2.1H44.1
c-1.1,0-2.1-0.9-2.1-2.1V2.1C42,0.9,42.9,0,44.1,0L44.1,0z M53.7,1.8c-0.4,0-0.7,0.3-0.7,0.7v1.7c0,0.4,0.3,0.7,0.7,0.7h1.8
c0.4,0,0.7-0.3,0.7-0.7V2.5c0-0.4-0.3-0.7-0.7-0.7H53.7L53.7,1.8z M56.2,6.8h-1.4C54.9,7.2,55,7.7,55,8.1c0,2.7-2.2,4.8-5,4.8
c-2.7,0-5-2.2-5-4.8c0-0.5,0.1-0.9,0.2-1.4h-1.5v6.8c0,0.3,0.3,0.6,0.6,0.6h11.1c0.3,0,0.6-0.3,0.6-0.6V6.8L56.2,6.8z M50,4.8
c-1.8,0-3.2,1.4-3.2,3.1c0,1.7,1.4,3.1,3.2,3.1c1.8,0,3.2-1.4,3.2-3.1C53.2,6.2,51.8,4.8,50,4.8z"/>
<path d="M36.9,3.1c-0.6,0.3-1.2,0.4-1.9,0.5c0.7-0.4,1.2-1,1.4-1.8c-0.6,0.4-1.3,0.6-2.1,0.8c-0.6-0.6-1.4-1-2.4-1
c-1.8,0-3.2,1.5-3.2,3.2c0,0.3,0,0.5,0.1,0.7c-2.7-0.1-5.1-1.4-6.7-3.4c-0.3,0.5-0.4,1-0.4,1.6c0,1.1,0.6,2.1,1.4,2.7
c-0.5,0-1-0.2-1.5-0.4c0,0,0,0,0,0c0,1.6,1.1,2.9,2.6,3.2c-0.3,0.1-0.6,0.1-0.9,0.1c-0.2,0-0.4,0-0.6-0.1c0.4,1.3,1.6,2.2,3,2.2
c-1.1,0.9-2.5,1.4-4,1.4c-0.3,0-0.5,0-0.8,0c1.4,0.9,3.1,1.5,5,1.5c6,0,9.2-4.9,9.2-9.2c0-0.1,0-0.3,0-0.4
C35.9,4.3,36.5,3.8,36.9,3.1z"/>
<g>
<g>
<path d="M6.4,7.5c0,0,1.5-0.1,1.5-1.9c0-1.8-1.2-2.7-2.8-2.7H2.2H2.2H0v10h2.2h0.1h2.9c0,0,3.2,0.1,3.2-2.9
C8.3,9.9,8.5,7.5,6.4,7.5z M2.2,4.7h2.5h0.4c0,0,0.7,0,0.7,1S5.4,6.9,5,6.9H2.2V4.7z M5,11.1H2.2V8.4h2.9c0,0,1.1,0,1.1,1.4
C6.2,11,5.4,11.1,5,11.1z"/>
<g>
<path d="M12.5,5.4c-3.8,0-3.8,3.8-3.8,3.8s-0.3,3.8,3.8,3.8c0,0,3.4,0.2,3.4-2.7h-1.8c0,0,0.1,1.1-1.6,1.1c0,0-1.8,0.1-1.8-1.7
H16C16,9.8,16.6,5.4,12.5,5.4z M14.1,8.4h-3.3c0,0,0.2-1.5,1.8-1.5C14.1,6.9,14.1,8.4,14.1,8.4z"/>
<rect x="10.4" y="3.5" width="4.1" height="1.2"/>
</g>
</g>
</g>
<g>
<g>
<path d="M6.4,7.5c0,0,1.5-0.1,1.5-1.9c0-1.8-1.2-2.7-2.8-2.7H2.2H2.2H0v10h2.2h0.1h2.9c0,0,3.2,0.1,3.2-2.9
C8.3,9.9,8.5,7.5,6.4,7.5z M2.2,4.7h2.5h0.4c0,0,0.7,0,0.7,1S5.4,6.9,5,6.9H2.2V4.7z M5,11.1H2.2V8.4h2.9c0,0,1.1,0,1.1,1.4
C6.2,11,5.4,11.1,5,11.1z"/>
<g>
<path d="M12.5,5.4c-3.8,0-3.8,3.8-3.8,3.8s-0.3,3.8,3.8,3.8c0,0,3.4,0.2,3.4-2.7h-1.8c0,0,0.1,1.1-1.6,1.1c0,0-1.8,0.1-1.8-1.7
H16C16,9.8,16.6,5.4,12.5,5.4z M14.1,8.4h-3.3c0,0,0.2-1.5,1.8-1.5C14.1,6.9,14.1,8.4,14.1,8.4z"/>
<rect x="10.4" y="3.5" width="4.1" height="1.2"/>
</g>
</g>
</g>
</svg>
