<svg xmlns="http://www.w3.org/2000/svg" viewBox="0 0 16 16">
<g>
<path d="M-7-4.1c0,4.4-3.6,8-8,8c-4.4,0-8-3.6-8-8c0-4.4,3.6-8,8-8C-10.6-12.1-7-8.6-7-4.1z M-13,2.4c2.7-1,4.7-3.5,4.7-6.5
c0-3.7-3-6.7-6.7-6.7c-3.7,0-6.7,3-6.7,6.7c0,3,2,5.6,4.8,6.5V1.1c0-0.8,0.3-1.2,0.6-1.4c-1.7-0.2-3.6-0.8-3.6-3.8
c0-0.8,0.3-1.5,0.8-2.1c-0.1-0.2-0.3-1,0.1-2c0,0,0.6-0.2,2.1,0.8c0.6-0.2,1.3-0.3,1.9-0.3c0.7,0,1.3,0.1,1.9,0.3
c1.5-1,2.1-0.8,2.1-0.8c0.4,1.1,0.2,1.8,0.1,2c0.5,0.5,0.8,1.2,0.8,2.1c0,3-1.9,3.6-3.6,3.8c0.3,0.2,0.6,0.6,0.6,1.4V2.4z"/>
</g>
<path fill-rule="evenodd" clip-rule="evenodd" d="M2.1,0h11.9C15.1,0,16,0.9,16,2.1v11.9c0,1.1-0.9,2.1-2.1,2.1H2.1
C0.9,16,0,15.1,0,13.9V2.1C0,0.9,0.9,0,2.1,0L2.1,0z M11.7,1.8c-0.4,0-0.7,0.3-0.7,0.7v1.7c0,0.4,0.3,0.7,0.7,0.7h1.8
c0.4,0,0.7-0.3,0.7-0.7V2.5c0-0.4-0.3-0.7-0.7-0.7H11.7L11.7,1.8z M14.2,6.8h-1.4C12.9,7.2,13,7.7,13,8.1c0,2.7-2.2,4.8-5,4.8
c-2.7,0-5-2.2-5-4.8c0-0.5,0.1-0.9,0.2-1.4H1.8v6.8c0,0.3,0.3,0.6,0.6,0.6h11.1c0.3,0,0.6-0.3,0.6-0.6V6.8L14.2,6.8z M8,4.9
C6.2,4.9,4.8,6.2,4.8,8c0,1.7,1.4,3.1,3.2,3.1c1.8,0,3.2-1.4,3.2-3.1C11.2,6.2,9.8,4.9,8,4.9z"/>
<path d="M36.9,3.1c-0.6,0.3-1.2,0.4-1.9,0.5c0.7-0.4,1.2-1,1.4-1.8c-0.6,0.4-1.3,0.6-2.1,0.8c-0.6-0.6-1.4-1-2.4-1
c-1.8,0-3.2,1.5-3.2,3.2c0,0.3,0,0.5,0.1,0.7c-2.7-0.1-5.1-1.4-6.7-3.4c-0.3,0.5-0.4,1-0.4,1.6c0,1.1,0.6,2.1,1.4,2.7
c-0.5,0-1-0.2-1.5-0.4c0,0,0,0,0,0c0,1.6,1.1,2.9,2.6,3.2c-0.3,0.1-0.6,0.1-0.9,0.1c-0.2,0-0.4,0-0.6-0.1c0.4,1.3,1.6,2.2,3,2.2
c-1.1,0.9-2.5,1.4-4,1.4c-0.3,0-0.5,0-0.8,0c1.4,0.9,3.1,1.5,5,1.5c6,0,9.2-4.9,9.2-9.2c0-0.1,0-0.3,0-0.4
C35.9,4.3,36.5,3.8,36.9,3.1z"/>
<g>
<g>
<path d="M-38.1-17c0,0,1.5-0.1,1.5-1.9c0-1.8-1.2-2.7-2.8-2.7h-2.9h-0.1h-2.2v10h2.2h0.1h2.9c0,0,3.2,0.1,3.2-2.9
C-36.2-14.5-36-17-38.1-17z M-42.3-19.7h2.5h0.4c0,0,0.7,0,0.7,1c0,1-0.4,1.2-0.9,1.2h-2.7V-19.7z M-39.5-13.3h-2.8V-16h2.9
c0,0,1.1,0,1.1,1.4C-38.3-13.5-39.1-13.3-39.5-13.3z"/>
<g>
<path d="M-32-19c-3.8,0-3.8,3.8-3.8,3.8s-0.3,3.8,3.8,3.8c0,0,3.4,0.2,3.4-2.7h-1.8c0,0,0.1,1.1-1.6,1.1c0,0-1.8,0.1-1.8-1.7h5.2
C-28.5-14.6-27.9-19-32-19z M-30.4-16h-3.3c0,0,0.2-1.5,1.8-1.5C-30.4-17.5-30.4-16-30.4-16z"/>
<rect x="-34.1" y="-20.9" width="4.1" height="1.2"/>
</g>
</g>
</g>
<g>
<g>
<path d="M-38.1-17c0,0,1.5-0.1,1.5-1.9c0-1.8-1.2-2.7-2.8-2.7h-2.9h-0.1h-2.2v10h2.2h0.1h2.9c0,0,3.2,0.1,3.2-2.9
C-36.2-14.5-36-17-38.1-17z M-42.3-19.7h2.5h0.4c0,0,0.7,0,0.7,1c0,1-0.4,1.2-0.9,1.2h-2.7V-19.7z M-39.5-13.3h-2.8V-16h2.9
c0,0,1.1,0,1.1,1.4C-38.3-13.5-39.1-13.3-39.5-13.3z"/>
<g>
<path d="M-32-19c-3.8,0-3.8,3.8-3.8,3.8s-0.3,3.8,3.8,3.8c0,0,3.4,0.2,3.4-2.7h-1.8c0,0,0.1,1.1-1.6,1.1c0,0-1.8,0.1-1.8-1.7h5.2
C-28.5-14.6-27.9-19-32-19z M-30.4-16h-3.3c0,0,0.2-1.5,1.8-1.5C-30.4-17.5-30.4-16-30.4-16z"/>
<rect x="-34.1" y="-20.9" width="4.1" height="1.2"/>
</g>
</g>
</g>
</svg>
