<svg xmlns="http://www.w3.org/2000/svg" viewBox="0 0 999.9 857.1">
<path d="M546.8,571.4c13.6,0,24.6-11,24.6-24.6v-22.3c0-13.6-11-24.6-24.6-24.6h-93.7c-13.6,0-24.6,11-24.6,24.6
v22.3c0,13.6,11,24.6,24.6,24.6H546.8z"/>
<path d="M625,524.5v64.7c0,9.7-3.5,18-10.6,25.1c-7.1,7.1-15.4,10.6-25.1,10.6H410.7c-9.7,0-18-3.5-25.1-10.6
S375,598.9,375,589.2v-64.7c0-13.6-11-24.6-24.6-24.6H24.6C11,500,0,511,0,524.5v243.3c0,24.6,8.7,45.6,26.2,63.1
s38.5,26.2,63.1,26.2h821.4c24.6,0,45.6-8.7,63.1-26.2s26.2-38.5,26.2-63.1V500v0H649.5C636,500,625,511,625,524.5z"/>
<path d="M143.4,239.3c-5.2-3.1-13.7-4.6-25.3-4.6h-17.7v51.1h21.1c19.9,0,29.8-8.9,29.8-26.6
C151.2,249,148.6,242.4,143.4,239.3z"/>
<path d="M973.7,169.1c-17.5-17.5-38.5-26.2-63.1-26.2H738.8c-13.6,0-24.6-11-24.6-24.6V53.6
c0-14.9-5.2-27.5-15.6-37.9S675.6,0,660.7,0H339.3c-14.9,0-27.5,5.2-37.9,15.6c-10.4,10.4-15.6,23.1-15.6,37.9v64.7
c0,13.6-11,24.6-24.6,24.6H89.3c-24.6,0-45.6,8.7-63.1,26.2C8.7,186.6,0,207.6,0,232.1v189.7c0,13.6,11,24.6,24.6,24.6h950.8
c13.6,0,24.6-11,24.6-24.6V232.1l0,0C999.9,207.6,991.2,186.6,973.7,169.1z M197.3,372.3h-59.8v-19.6l7-0.7c3.7-0.5,5.6-1.9,5.6-4.4
c0-1-0.3-2.1-1-3.4L137.7,320c-1.8-4-3.8-6.9-5.9-8.6c-2.2-1.7-5.3-2.5-9.3-2.5h-22V351l15.8,0.7v20.6H55.8v-19.6l8-0.7
c4.7-0.5,7-2.7,7-6.8V232.5L57,231.8v-20.6h66.1c18.7,0,33.1,3.5,43.1,10.4c10,6.9,15,18.3,15,34.1c0,11-2.9,20-8.6,27.1
c-5.7,7.1-12.6,12.3-20.5,15.5c5.8,2.1,10.4,7,13.8,14.8l17.4,38l13.8,0.5V372.3z M323,372.3H207.9v-19.6l8-0.7c4.7-0.5,7-2.7,7-6.8
V232.5l-13.8-0.7v-20.6h111v40.2l-24.7,1.7v-9.7c0-2.7-0.4-4.7-1.2-5.8c-0.8-1.1-2.7-1.7-5.8-1.7h-35.8v41.4h56V302h-56v45.3h39
c2.9,0,4.8-0.6,5.6-1.8c0.8-1.2,1.2-3.2,1.2-5.9v-12.1l24.7,1.7V372.3z M435,362.3c-10.9,8.7-25.3,13.1-43.1,13.1
c-17.8,0-33.9-3.3-48.1-9.9v-38.3l24.7-1.7v14.8c0,2.4,0.3,4.2,1,5.3c0.6,1.1,2.6,2.2,5.9,3.3c3.3,1.1,8.5,1.6,15.6,1.6
c19.4,0,29.1-7.7,29.1-23.3c0-8.1-4.3-14-12.8-17.9c-4.5-2.3-10.4-4.4-17.6-6.3c-7.2-2-13.2-3.9-17.9-5.9c-4.8-2-9.6-4.8-14.4-8.4
c-9.5-7.1-14.3-18.1-14.3-32.8c0-14.8,5.1-26.4,15.4-34.9c10.3-8.5,23.7-12.7,40.2-12.7c16.6,0,31.9,3.3,46.2,9.9v36.3l-24.7,1.7
v-14.1c0-2.4-0.3-4.2-1-5.3c-1.8-3.1-7.5-4.6-17.1-4.6c-9.6,0-16.7,1.7-21.3,5.1c-4.6,3.4-6.9,8.6-6.9,15.7c0,5.2,1.9,9.7,5.8,13.6
c2.6,2.6,6.4,4.7,11.5,6.4c5.1,1.7,10.5,3.4,16.2,5.2c5.7,1.8,10.8,3.7,15.3,5.8c4.4,2.1,9.1,5,13.9,8.7
c9.8,7.3,14.8,18.5,14.8,33.7C451.4,341.7,445.9,353.6,435,362.3z M614.4,230.8l-8,0.7c-4.7,0.5-7,2.9-7,7.3v86.5
c0,15.7-5.5,27.9-16.5,36.8c-11,8.9-26.2,13.3-45.5,13.3s-34-4.3-44-13c-9.9-8.6-14.9-22.3-14.9-41v-88.9l-14.1-0.7v-20.6h58.6v19.6
l-8,0.7c-2.6,0.3-4.5,1-5.6,2.1c-1.1,1-1.7,3-1.7,5.9V320c0,11.3,2.7,19.3,8.1,23.9c5.4,4.6,13.2,6.9,23.2,6.9s17.9-2.5,23.5-7.5
c5.6-5,8.4-12.3,8.4-22v-88.7l-14.1-0.7v-20.6h57.4V230.8z M357.1,142.8L357.1,142.8L357.1,142.8V96c0-13.6,11-24.6,24.6-24.6h236.5
c13.6,0,24.6,11,24.6,24.6v22.3c0,13.6-11,24.6-24.6,24.6H357.1z M816,372.3h-58.4v-19.6l8.7-0.7c4.4-0.3,6.5-2.4,6.3-6.3l-4.6-85.5
h-0.5l-37.3,96.7h-23l-36.8-95.7h-0.5l-4.8,89.9l15.8,0.7v20.6h-57.2v-19.6l8.7-0.7c3.7-0.3,5.7-2.5,6.1-6.5l6.5-112.7l-14.8-1
v-20.6h48.7l41.2,109.5h0.5L762,211.2h48v19.6l-8,0.7c-4.9,0.5-7.2,3.3-7,8.5l6.1,111l15,0.7V372.3z M944.2,372.3H829.1v-19.6l8-0.7
c4.7-0.5,7-2.7,7-6.8V232.5l-13.8-0.7v-20.6h111v40.2l-24.7,1.7v-9.7c0-2.7-0.4-4.7-1.2-5.8c-0.8-1.1-2.7-1.7-5.8-1.7h-35.8v41.4h56
V302h-56v45.3h39c2.9,0,4.8-0.6,5.6-1.8c0.8-1.2,1.2-3.2,1.2-5.9v-12.1l24.7,1.7V372.3z"/>
</svg>
