<svg xmlns="http://www.w3.org/2000/svg" viewBox="0 0 419.2 419.2">
<path d="M74,369.3c32.3-46.5,85.9-77.1,146.8-77.1c55.4,0,104.8,25.3,137.6,65
c37.6-37.9,60.8-90,60.8-147.6C419.2,93.8,325.4,0,209.6,0C93.8,0,0,93.8,0,209.6C0,273.6,28.8,330.8,74,369.3z M321.7,272.5
c-3,6.8-8.5,8.2-14.9,5.2c-27.9-12.9-59-20.1-91.7-20.1c-33.6,0-65.5,7.6-94,21.2c-3,1.5-9.8,2.1-12.8-6.6c-3-8.7,1.7-13.6,4.5-14.9
c31.1-14.5,65.7-22.8,102.2-22.8c35.9,0,70.5,6.8,100.6,22C320.4,258.9,324.7,265.7,321.7,272.5z M339.5,218.9
c-2.2,3-5.5,5.1-9.6,5.1c-1.1,0-2.1-0.4-3.1-0.6c-34.2-15.1-72-23.6-111.8-23.6c-39.5,0-77,8.4-111,23.3c-1.2,0.4-2.5,0.8-3.9,0.8
c-4.1,0-7.5-2.2-9.7-5.3l-2.3-6.8c0-3.5,1.7-6.6,4.1-8.7c37.5-16.8,79-26.3,122.7-26.3c43.7,0,85.2,9.5,122.6,26.3
c2.5,2.1,4.1,5.3,4.2,8.8L339.5,218.9z M77.1,134.3c42.6-17.2,89.1-26.8,137.9-26.8c48.3,0,94.4,9.4,136.7,26.3
c5.7,2.9,9.7,8.7,9.7,15.5c0,9.7-7.9,17.6-17.6,17.6c-1.4,0-2.6-0.3-3.9-0.6c-38.6-15.6-80.8-24.2-125-24.2
c-44.2,0-86.4,8.7-125,24.3c-1.2,0.3-2.5,0.6-3.8,0.6c-9.7,0-17.6-7.9-17.6-17.6C68.6,142.9,72,137.4,77.1,134.3z M220.8,361.5
c-35.5,0-66.9,17.1-87,43.4c23.5,9.1,49,14.4,75.8,14.4c33.2,0,64.4-7.9,92.3-21.6C281.9,375.5,253,361.5,220.8,361.5z"/>
</svg>
