<svg xmlns="http://www.w3.org/2000/svg" viewBox="0 0 16 16">
<g>
<path d="M16,8c0,4.4-3.6,8-8,8c-4.4,0-8-3.6-8-8c0-4.4,3.6-8,8-8C12.4,0,16,3.6,16,8z M10,14.5c2.7-1,4.7-3.5,4.7-6.5
c0-3.7-3-6.7-6.7-6.7c-3.7,0-6.7,3-6.7,6.7c0,3,2,5.6,4.8,6.5v-1.3c0-0.8,0.3-1.2,0.6-1.4C5,11.6,3.1,11,3.1,8
c0-0.8,0.3-1.5,0.8-2.1C3.8,5.8,3.6,5,4,3.9c0,0,0.6-0.2,2.1,0.8C6.7,4.5,7.4,4.5,8,4.5c0.7,0,1.3,0.1,1.9,0.3
c1.5-1,2.1-0.8,2.1-0.8c0.4,1.1,0.2,1.8,0.1,2c0.5,0.5,0.8,1.2,0.8,2.1c0,3-1.9,3.6-3.6,3.8C9.7,12,10,12.5,10,13.2V14.5z"/>
</g>
<path fill-rule="evenodd" clip-rule="evenodd" d="M44.1,0h11.9C57.1,0,58,0.9,58,2.1v11.9c0,1.1-0.9,2.1-2.1,2.1H44.1
c-1.1,0-2.1-0.9-2.1-2.1V2.1C42,0.9,42.9,0,44.1,0L44.1,0z M53.7,1.8c-0.4,0-0.7,0.3-0.7,0.7v1.7c0,0.4,0.3,0.7,0.7,0.7h1.8
c0.4,0,0.7-0.3,0.7-0.7V2.5c0-0.4-0.3-0.7-0.7-0.7H53.7L53.7,1.8z M56.2,6.8h-1.4C54.9,7.2,55,7.7,55,8.1c0,2.7-2.2,4.8-5,4.8
c-2.7,0-5-2.2-5-4.8c0-0.5,0.1-0.9,0.2-1.4h-1.5v6.8c0,0.3,0.3,0.6,0.6,0.6h11.1c0.3,0,0.6-0.3,0.6-0.6V6.8L56.2,6.8z M50,4.8
c-1.8,0-3.2,1.4-3.2,3.1c0,1.7,1.4,3.1,3.2,3.1c1.8,0,3.2-1.4,3.2-3.1C53.2,6.2,51.8,4.8,50,4.8z"/>
<path d="M36.9,3.1c-0.6,0.3-1.2,0.4-1.9,0.5c0.7-0.4,1.2-1,1.4-1.8c-0.6,0.4-1.3,0.6-2.1,0.8c-0.6-0.6-1.4-1-2.4-1
c-1.8,0-3.2,1.5-3.2,3.2c0,0.3,0,0.5,0.1,0.7c-2.7-0.1-5.1-1.4-6.7-3.4c-0.3,0.5-0.4,1-0.4,1.6c0,1.1,0.6,2.1,1.4,2.7
c-0.5,0-1-0.2-1.5-0.4c0,0,0,0,0,0c0,1.6,1.1,2.9,2.6,3.2c-0.3,0.1-0.6,0.1-0.9,0.1c-0.2,0-0.4,0-0.6-0.1c0.4,1.3,1.6,2.2,3,2.2
c-1.1,0.9-2.5,1.4-4,1.4c-0.3,0-0.5,0-0.8,0c1.4,0.9,3.1,1.5,5,1.5c6,0,9.2-4.9,9.2-9.2c0-0.1,0-0.3,0-0.4
C35.9,4.3,36.5,3.8,36.9,3.1z"/>
</svg>
